/* XPM */
static char *result[] = {
/* columns rows colors chars-per-pixel */
"60 60 84 1 ",
"  c #BE392A",
". c #C03A2B",
"X c #C93E2F",
"o c #CC3F30",
"O c #E43E2D",
"+ c #E43E32",
"@ c #CE4031",
"# c #D34333",
"$ c #DA4636",
"% c #DD4738",
"& c #DD4838",
"* c #E4402F",
"= c #E44334",
"- c #E54837",
"; c #E54738",
": c #E64C3C",
"> c #E84E3E",
", c #E6513F",
"< c #E9503F",
"1 c #E75443",
"2 c #E75945",
"3 c #E75748",
"4 c #E85D4B",
"5 c #E85E50",
"6 c #E8654E",
"7 c #E96651",
"8 c #E96B53",
"9 c #EA6C5F",
"0 c #EA7056",
"q c #EB755A",
"w c #EB7B5E",
"e c #EA6E61",
"r c #EB7266",
"t c #EC7A6E",
"y c #ED7D72",
"u c #ED8566",
"i c #ED8B6A",
"p c #ED8479",
"a c #EF9572",
"s c #EF9A75",
"d c #EF9E78",
"f c #F09F79",
"g c #F0A47D",
"h c #F1A87F",
"j c #EF9086",
"k c #F0968C",
"l c #F0988F",
"z c #F19D94",
"x c #F1AB81",
"c c #F2B286",
"v c #F2B589",
"b c #F3BA8D",
"n c #F2A69E",
"m c #F2A7A0",
"M c #F3ABA3",
"N c #F4B5AE",
"B c #F4B6B0",
"V c #F5BBB4",
"C c #F6BFB9",
"Z c #F4C393",
"A c #F4C897",
"S c #F5CC9A",
"D c #F5D09D",
"F c #F6D6A1",
"G c #F6DAA4",
"H c #F6C1BC",
"J c #F7E0A9",
"K c #F8E4AC",
"L c #F8E9AF",
"P c #F9ECB1",
"I c #F9F1B5",
"U c #FAF6B9",
"Y c #FBFBBC",
"T c #F7CAC5",
"R c #F8D0CC",
"E c #F9D4D0",
"W c #F9DAD6",
"Q c #FCFFC3",
"! c #FDFFC8",
"~ c #FBE8E6",
"^ c #FCEDEB",
"/ c #FDF7F6",
"( c #FFFEFE",
") c None",
/* pixels */
")))))))))))))))))))))))):::::::::;::))))))))))))))))))))))))",
")))))))))))))))))))));>>>>:::::::::::>:)))))))))))))))))))))",
")))))))))))))))))):>:1:-+O-:;---::::::::::))))))))))))))))))",
"))))))))))))))))::>>=O;7pnr=>TT::::::::::::>))))))))))))))))",
"))))))))))))))::>:*-9nW(((TO1^^1::::::::::::::))))))))))))))",
"))))))))))))):::*;pR(((/ENe-;33;:::::::::::::::)))))))))))))",
")))))))))))::>-*yW((/Hp4-O-::;::::>::::::::::::::)))))))))))",
"))))))))))::>=3H((^n4+*-::::::::::::::::::::::::::))))))))))",
")))))))))::>Ot^(/M3O;:1:::>:::::::>::::>:::::::::::)))))))))",
")))))))):>:Ol((WeO;1:;::::::::::::::::::::::::::::::))))))))",
"))))))):::=n((B:=1:::::::::::::::::::::::::::::::::::)))))))",
"))))))>::*n((z*::;:>::>::::::>:::::::::::::>:::::::::>))))))",
"))))))::*l((kO::::::::::::>:::::::::::>::>::::::::::::))))))",
"))))):>=t((zO:::::::::::::::::::>:::::::::::::>:>::::::)))))",
")))):>-3~(NO:::::::::::::::::::>::::::::::::::::::::::::))))",
")))):>OV(W:::::::::::>::::::::::::::::::::::::::::::>:::))))",
")))::=y((e=::::::>::>:::::::::::::::::::::::>::::::::::::)))",
"))):,*j(n*::::::::::::::::::::::::::>:::>:::::::::>:::::>)))",
")):::::9:::::::::::::::::::;::::>:::::::::::::::::::::::::))",
")):::::=:::::::::::::::::::1::::::::::::::::::::::::::::::))",
")):::::::::::::>:::::::::::::::1::::::::::::::::::::::::::))",
")i;>:::::::::::::::::::::::::::;:>::>::::::::::::::::::::-i)",
")J4-::::::::::::>::::>::::::::::::::::::>::::>::::::::::-4J)",
")Ub-:::::::::::::::::::::::::::::::::::::::::::::::>::::-ZI)",
"wFYc:;::::::::::>:::::::1;::::::::::>:>::::::::::::::>;;cYFw",
"+8PUb1=:::::::::::::>::::::::>:::::::::::::::::::::::=1bYP8+",
"$=qKYGq::::::::::::::::::::::::::::::::::>::::::::::;qFYKq=$",
"X:=6SYU6-:=::::::::::::::::::::::::::::::::>:::::=:=7YYS6=>.",
" @>-:db1-3w1+-::::::::::::::>:::::::::::::::::==1w2;2vf>->@ ",
"  #>:==:=cQFg0,=->::>>>:>>::::::::::::1::::-=,0hG!x+:==:># .",
".  @:,::-qDUQUFv6-::+====;;:::;::;;;==++::-6vFUQIDq->>>:@ ..",
"..  X$>::=:0gFI!s+:1dauq743:;::::2470usd1:+d!IDh0:=::>&. .  ",
"   .  @::::==:0i2:=rQYYYPLLb::::bLLPUYYQw-:1i8,==:>>&o  ... ",
"X . .. .@$::>:==;:::ixbAFGPZ:::;ZLGGAbxi>:::+=:>1,$o. .. ...",
"# .  ..   X#$:>>>:::===::14>-::::21,:=+=::::>>>$#@   .. ...#",
">o . ... .   X@#%::>,>::::-::::::-::>>>1:::%#oX    .. . . o>",
"):. ...  ....    XX@#%%:&>,:::::::::&&$#@XX.    ... .  . .:)",
")>&  .. ..  .  ..      ....@XXXXX.X.        ....  .. .. .;>)",
"):::X   . ..........  .            . ...  ......... .. .:::)",
")):>:@  ... . ... .. . .... .... .. ... .... ..  ...  @:>:))",
"))>;>>%X  . .... .. ............ .. ..... .. ..  .  X&::->))",
"))b7+>>:$@   .. ......... ... ........ ........  .o%>>:+6b))",
")))Ki;=:>>&@X    ... .. . . . . .....   . .    X@&:>:=;iJ)))",
")))LUAw:::,>:&@@.     ......... .....      .X#$:>>:::qZYP)))",
"))))FYYi=-+-:>>>&%#oX.                .Xo#$:>>>:-+;=iYYF))))",
"))))2aGw+8s8:==:::>:>:;;%$#@#@@@##$$&&>>>>>::=+:8s7+uGa2))))",
")))))=::=b!PSdq1;::::;>1:111:>::>>1>::;::::;2qdSP!c+:;=)))))",
"))))))::;7vJUQULu-:;:1;=++++::::-++==::1;:=uLUQYGv6;>:))))))",
"))))))>::-+1wgSPi=;8GGZvxsa0:::;0asxvZGJ8:=iPSgw1=-:::))))))",
"))))))):::>:==:2::-8KIUQYQ!J::::G!QYYUIK8=:;2>+=:::::)))))))",
")))))))):::::::;:::-17wuadxu-::-ixdauq81-::::::>:::>))))))))",
"))))))))):::>::::::::=%=+===::::==+====::::::::::::)))))))))",
"))))))))))>::::::::::>::>>:::::::::1:::::::::>::>:))))))))))",
")))))))))))>:::::::::>:::::>:::::::::>:::::::::::)))))))))))",
"))))))))))))):::>::::::>:::::::::::::::::::::::)))))))))))))",
")))))))))))))):>::::::::::::::::::::>:::::::::))))))))))))))",
")))))))))))))))):::::::::>::::::::::::::::::))))))))))))))))",
"))))))))))))))))))::::::::::::::>:::::::::))))))))))))))))))",
")))))))))))))))))))))>::::::::::::::>:>)))))))))))))))))))))",
"))))))))))))))))))))))))::::::::::::))))))))))))))))))))))))"
};
