/* XPM */
static char *result[] = {
/* columns rows colors chars-per-pixel */
"60 60 145 2 ",
"   c #8E4619",
".  c #8F4819",
"X  c #934B19",
"o  c #964E19",
"O  c #974E19",
"+  c #974F19",
"@  c #944C1A",
"#  c #944C1B",
"$  c #984F19",
"%  c #984F1A",
"&  c #99501A",
"*  c #9A511A",
"=  c #9E551D",
"-  c #9E551E",
";  c #9F561E",
":  c #A2581C",
">  c #A3591D",
",  c #B06013",
"<  c #B06014",
"1  c #B16114",
"2  c #B16115",
"3  c #B4671A",
"4  c #B6691C",
"5  c #B7681F",
"6  c #B7691F",
"7  c #A75E27",
"8  c #A96027",
"9  c #AA6027",
"0  c #AB6127",
"q  c #AB6227",
"w  c #AC6226",
"e  c #AD6326",
"r  c #AC6227",
"t  c #AD6327",
"y  c #AE6326",
"u  c #AE6427",
"i  c #AA6128",
"p  c #AB6229",
"a  c #B76920",
"s  c #B56926",
"d  c #B86920",
"f  c #B86A20",
"g  c #B86A21",
"h  c #B86B21",
"j  c #BA6B21",
"k  c #B96C22",
"l  c #BA6C23",
"z  c #BA6D24",
"x  c #BA6E24",
"c  c #BA6E25",
"v  c #BB6E25",
"b  c #BB6F25",
"n  c #BC6F25",
"m  c #BD7026",
"M  c #CA7A1D",
"N  c #CD7D1E",
"B  c #D1801E",
"V  c #D7851E",
"C  c #DC8A1F",
"Z  c #E58607",
"A  c #E88807",
"S  c #E38508",
"D  c #E38509",
"F  c #E3860A",
"G  c #E48508",
"H  c #E48608",
"J  c #E58608",
"K  c #E58708",
"L  c #E48609",
"P  c #E58709",
"I  c #E68709",
"U  c #E4860A",
"Y  c #E4870A",
"T  c #E5870A",
"R  c #E68809",
"E  c #E7890A",
"W  c #E6880B",
"Q  c #E6890C",
"!  c #E78A0D",
"~  c #E78B0E",
"^  c #E98A09",
"/  c #EA8B08",
"(  c #EB8D0B",
")  c #E98C0D",
"_  c #E98D10",
"`  c #EA8F10",
"'  c #EA8E11",
"]  c #EA8F12",
"[  c #EA8F13",
"{  c #E18E1F",
"}  c #EA9013",
"|  c #ED9213",
" . c #EA9014",
".. c #EB9114",
"X. c #ED9316",
"o. c #ED9417",
"O. c #EE9416",
"+. c #E4901F",
"@. c #E5911F",
"#. c #ED9418",
"$. c #EE9518",
"%. c #EF971A",
"&. c #F09719",
"*. c #F0971A",
"=. c #F39A19",
"-. c #F1991B",
";. c #F0991C",
":. c #F29B1C",
">. c #F29B1E",
",. c #F39C1D",
"<. c #F29C1F",
"1. c #F39C1F",
"2. c #F49D1E",
"3. c #F49E1F",
"4. c #D48423",
"5. c #D58423",
"6. c #F29C20",
"7. c #F39D20",
"8. c #F29C21",
"9. c #F29D21",
"0. c #F39D21",
"q. c #F39E21",
"w. c #F39E22",
"e. c #F49D20",
"r. c #F49E20",
"t. c #F59E20",
"y. c #F59F20",
"u. c #F49E21",
"i. c #F59E21",
"p. c #F49E22",
"a. c #F49F22",
"s. c #F59F22",
"d. c #F7A021",
"f. c #F7A121",
"g. c #F8A120",
"h. c #F8A121",
"j. c #F8A220",
"k. c #F9A220",
"l. c #F8A221",
"z. c #F9A221",
"x. c #F9A321",
"c. c #FAA320",
"v. c #FAA321",
"b. c #FBA321",
"n. c None",
/* pixels */
"n.n.n.n.n.n.n.n.n.n.n.n.n.n.n.n.n.n.n.n.n.n.n.n.n.n.n.n.n.n.n.n.n.n.n.n.n.n.n.n.n.n.n.n.n.n.n.n.n.n.n.n.n.n.n.n.n.n.n.n.",
"n.n.n.n.n.n.n.n.n.n.n.n.n.n.n.n.n.n.n.n.n.n.n.n.n.n.n.n.n.n.n.n.n.n.n.n.n.n.n.n.n.n.n.n.n.n.n.n.n.n.n.n.n.n.n.n.n.n.n.n.",
"n.n.n.n.n.n.n.n.n.n.n.n.n.n.n.n.n.n.n.n.n.n.n.n.n.n.n.n.n.n.n.n.n.n.n.n.n.n.n.n.n.n.n.n.n.n.n.n.n.n.n.n.n.n.n.n.n.n.n.n.",
"n.n.n.n.n.n.n.n.n.n.n.n.n.n.n.n.n.n.n.n.n.n.n.n.n.n.n.n.n.n.n.n.n.n.n.n.n.n.n.n.n.n.n.n.n.n.n.n.n.n.n.n.n.n.n.n.n.n.n.n.",
"n.n.n.n.n.n.n.n.n.n.n.n.n.t t t t t t t t t t t t t t t t t t t t t t t t t t t t t t t t t t n.n.n.n.n.n.n.n.n.n.n.n.n.",
"n.n.n.n.n.n.n.n.n.n.n.n.n.t t t t t t t t t t t t t t t t t t t t t t t t t t t t t t t t t t n.n.n.n.n.n.n.n.n.n.n.n.n.",
"n.n.n.n.n.n.n.n.n.n.n.n.n.t t t r e y y y y y y y y y y y y y y y y y y y y y y y y e r t t t n.n.n.n.n.n.n.n.n.n.n.n.n.",
"n.n.n.n.n.n.n.n.n.n.n.n.n.t t r e q 7 7 7 7 7 7 7 7 7 7 7 7 7 7 7 7 7 7 7 7 7 7 7 7 q e r t t n.n.n.n.n.n.n.n.n.n.n.n.n.",
"n.n.n.n.n.n.n.n.n.n.n.n.n.t t e 0 s 5.4.4.4.4.4.4.4.4.4.4.4.4.4.4.4.4.4.4.4.4.4.4.5.s 0 e t t n.n.n.n.n.n.n.n.n.n.n.n.n.",
"n.n.n.n.n.n.n.n.n.n.n.n.n.t t e 8 n c.g.k.k.k.k.k.k.k.k.k.k.k.k.k.k.k.k.k.k.k.k.j.c.n 8 e t t n.n.n.n.n.n.n.n.n.n.n.n.n.",
"n.n.n.n.n.n.n.n.n.n.n.n.n.t t e 8 v r.8.8.9.9.9.9.9.9.9.9.9.9.9.9.9.9.9.9.9.9.8.8.r.c 8 e t t n.n.n.n.n.n.n.n.n.n.n.n.n.",
"n.n.n.n.n.n.n.n.n.n.n.n.n.t t e 8 b y.0.0.u.u.u.u.u.u.u.u.u.u.u.u.u.u.u.u.u.u.7.0.t.x 8 e t t n.n.n.n.n.n.n.n.n.n.n.n.n.",
"n.n.n.n.n.n.n.n.n.n.n.n.n.t t e 8 b y.0.0.u.u.u.u.u.u.u.u.u.u.u.u.u.u.u.u.u.u.7.0.t.z 9 e t t n.n.n.n.n.n.n.n.n.n.n.n.n.",
"n.n.n.n.n.n.n.n.n.n.n.n.n.t t e 8 b y.0.0.u.u.u.u.u.u.u.u.u.u.u.u.u.u.u.u.u.u.7.q.3.l 9 e t t n.n.n.n.n.n.n.n.n.n.n.n.n.",
"n.n.n.n.n.n.n.n.n.n.n.n.n.t t e 8 b y.0.0.u.u.u.u.u.u.u.u.u.u.u.u.u.u.u.u.u.u.7.u.2.k 9 e t t n.n.n.n.n.n.n.n.n.n.n.n.n.",
"n.n.n.n.n.n.n.n.n.n.n.n.n.t t e 8 b y.0.0.u.u.u.u.u.u.u.u.u.u.u.u.u.u.u.u.u.u.7.u.,.h i e t t n.n.n.n.n.n.n.n.n.n.n.n.n.",
"n.n.n.n.n.n.n.n.n.n.n.n.n.t t e 8 b y.0.0.u.u.u.u.u.u.u.u.u.u.u.u.u.u.u.u.u.u.7.u.:.g i e t t n.n.n.n.n.n.n.n.n.n.n.n.n.",
"n.n.n.n.n.n.n.n.n.n.n.n.n.t t e 8 b y.0.0.u.u.u.u.u.u.u.u.u.u.u.u.u.u.u.u.u.u.7.p.-.a i e t t n.n.n.n.n.n.n.n.n.n.n.n.n.",
"n.n.n.n.n.n.n.n.n.n.n.n.n.t t e 8 b y.0.0.u.u.u.u.u.u.u.u.u.u.u.u.u.u.u.u.u.u.7.a.&.6 i e t t n.n.n.n.n.n.n.n.n.n.n.n.n.",
"n.n.n.n.n.n.n.n.n.n.n.n.n.t t e 8 b y.0.0.u.u.u.u.u.u.u.u.u.u.u.u.u.u.u.u.u.u.7.a.O.5 i e t t n.n.n.n.n.n.n.n.n.n.n.n.n.",
"n.n.n.n.n.n.n.n.n.n.n.n.n.t t e 8 b y.0.0.u.u.u.u.u.u.u.u.u.u.u.u.u.u.u.u.u.u.7.a.| 5 i e t t n.n.n.n.n.n.n.n.n.n.n.n.n.",
"n.n.n.n.n.n.n.n.n.n.n.n.n.t t e 8 b y.0.0.u.u.u.u.u.u.u.u.u.u.u.u.u.u.u.u.u.7.7.a.` 5 i e t t n.n.n.n.n.n.n.n.n.n.n.n.n.",
"n.n.n.n.n.n.n.n.n.n.n.n.n.t t e 8 b y.0.0.u.u.u.u.u.u.u.u.u.u.u.u.u.u.u.u.u.7.0.q.) a i e t t n.n.n.n.n.n.n.n.n.n.n.n.n.",
"n.n.n.n.n.n.n.n.n.n.n.n.n.t t e 8 b y.0.0.u.u.u.u.u.u.u.u.u.u.u.u.u.u.u.u.u.7.u.<.E d i e t t n.n.n.n.n.n.n.n.n.n.n.n.n.",
"n.n.n.n.n.n.n.n.n.n.n.n.n.t t e 8 b y.0.0.u.u.u.u.u.u.u.u.u.u.u.u.u.u.u.u.u.7.p.;.K g i e t t n.n.n.n.n.n.n.n.n.n.n.n.n.",
"n.n.n.n.n.n.n.n.n.n.n.n.n.t t e 8 b y.0.0.u.u.u.u.u.u.u.u.u.u.u.u.u.u.u.u.u.7.a.#.Z g i e t t n.n.n.n.n.n.n.n.n.n.n.n.n.",
"n.n.n.n.n.n.n.n.n.n.n.n.n.t t e 8 b y.0.0.u.u.u.u.u.u.u.u.u.u.u.u.u.u.u.u.u.7.a.[ Z g i e t t n.n.n.n.n.n.n.n.n.n.n.n.n.",
"n.n.n.n.n.n.n.n.n.n.n.n.n.t t e 8 b y.0.0.u.u.u.u.u.u.u.u.u.u.u.u.u.u.u.u.7.7.u.~ J g i e t t n.n.n.n.n.n.n.n.n.n.n.n.n.",
"n.n.n.n.n.n.n.n.n.n.n.n.n.t t e 8 b y.0.0.u.u.u.u.u.u.u.u.u.u.u.u.u.u.u.u.7.u.>.T I g i e t t n.n.n.n.n.n.n.n.n.n.n.n.n.",
"n.n.n.n.n.n.n.n.n.n.n.n.n.t t e 8 b y.0.0.u.u.u.u.u.u.u.u.u.u.u.u.u.u.u.u.7.a.$.S R g i e t t n.n.n.n.n.n.n.n.n.n.n.n.n.",
"n.n.n.n.n.n.n.n.n.n.n.n.n.t t e 8 b y.0.0.u.u.u.u.u.u.u.u.u.u.u.u.u.u.u.u.7.a.] S R g i e t t n.n.n.n.n.n.n.n.n.n.n.n.n.",
"n.n.n.n.n.n.n.n.n.n.n.n.n.t t e 8 b y.0.0.u.7.7.u.0.u.u.u.u.u.u.u.u.u.u.7.u.1.Q L I g i e t t n.n.n.n.n.n.n.n.n.n.n.n.n.",
"n.n.n.n.n.n.n.n.n.n.n.n.n.t t e 8 b y.0.q.7.d.d.7.u.0.u.u.u.u.u.u.u.u.u.7.a.%.G Y I g i e t t n.n.n.n.n.n.n.n.n.n.n.n.n.",
"n.n.n.n.n.n.n.n.n.n.n.n.n.t t e 8 b y.0.7.d.+.@.d.7.u.u.u.u.u.u.u.u.u.u.7.a.' S Y I g i e t t n.n.n.n.n.n.n.n.n.n.n.n.n.",
"n.n.n.n.n.n.n.n.n.n.n.n.n.t t e 8 b y.6.h.C O * { f.7.u.u.u.u.u.u.u.e.7.u.>.T L U I g i e t t n.n.n.n.n.n.n.n.n.n.n.n.n.",
"n.n.n.n.n.n.n.n.n.n.n.n.n.t t e 8 b y.6.v.B   . V z.6.u.u.u.u.u.u.u.u.7.s.X.S T U I g i e t t n.n.n.n.n.n.n.n.n.n.n.n.n.",
"n.n.n.n.n.n.n.n.n.n.n.n.n.t t e 8 b y.0.u.u.M N i.7.7.u.u.u.u.u.u.e.7.u.7.! L T U I g i e t t n.n.n.n.n.n.n.n.n.n.n.n.n.",
"n.n.n.n.n.n.n.n.n.n.n.n.n.t t e 8 b y.0.7.u.v.x.u.7.u.u.u.u.u.u.u.u.7.s.$.G T U U I g i e t t n.n.n.n.n.n.n.n.n.n.n.n.n.",
"n.n.n.n.n.n.n.n.n.n.n.n.n.t t e 8 b y.0.0.7.6.6.7.u.0.u.u.u.u.u.7.7.u.e.! L T U U I g i e t t n.n.n.n.n.n.n.n.n.n.n.n.n.",
"n.n.n.n.n.n.n.n.n.n.n.n.n.t t e 8 b y.0.0.u.u.u.u.u.u.u.u.u.u.u.u.7.s.o.S T L U U I g i e t t n.n.n.n.n.n.n.n.n.n.n.n.n.",
"n.n.n.n.n.n.n.n.n.n.n.n.n.t t e 8 b y.0.0.u.u.u.u.u.u.u.u.u.u.u.7.u.1.W L T T U U I g i e t t n.n.n.n.n.n.n.n.n.n.n.n.n.",
"n.n.n.n.n.n.n.n.n.n.n.n.n.t t e 8 b y.0.0.u.u.u.u.u.u.u.u.u.7.u.7.s.} S T L T U U I g i e t t n.n.n.n.n.n.n.n.n.n.n.n.n.",
"n.n.n.n.n.n.n.n.n.n.n.n.n.t t e 8 b y.0.0.u.u.u.u.u.u.u.u.e.u.7.a.%.H T T T T U U I g i e t t n.n.n.n.n.n.n.n.n.n.n.n.n.",
"n.n.n.n.n.n.n.n.n.n.n.n.n.t t e 8 b y.0.0.u.u.u.u.u.u.u.u.u.7.u.1.Q L T L T T U U I g i e t t n.n.n.n.n.n.n.n.n.n.n.n.n.",
"n.n.n.n.n.n.n.n.n.n.n.n.n.t t e 8 b y.0.0.u.u.u.u.u.u.u.u.7.7.a._ G T L T T T U U I g i e t t n.n.n.n.n.n.n.n.n.n.n.n.n.",
"n.n.n.n.n.n.n.n.n.n.n.n.n.t t e 8 b y.0.0.u.u.u.u.u.u.u.7.7.s...S T L T T T T U U I g i e t t n.n.n.n.n.n.n.n.n.n.n.n.n.",
"n.n.n.n.n.n.n.n.n.n.n.n.n.t t e 8 b y.0.0.u.u.u.u.u.u.7.7.s.o.G T T T T T T T U U I g i e t t n.n.n.n.n.n.n.n.n.n.n.n.n.",
"n.n.n.n.n.n.n.n.n.n.n.n.n.t t e 8 b y.0.0.u.u.u.u.u.7.7.s.$.G T T L T T T T T U U I g i e t t n.n.n.n.n.n.n.n.n.n.n.n.n.",
"n.n.n.n.n.n.n.n.n.n.n.n.n.t t e 8 b y.0.0.u.u.e.u.7.7.s.$.L L T L T T T T T T U U I g i e t t n.n.n.n.n.n.n.n.n.n.n.n.n.",
"n.n.n.n.n.n.n.n.n.n.n.n.n.t t e 8 b y.0.0.u.7.u.7.7.s.o.G L T L T T T T T T T U U I g i e t t n.n.n.n.n.n.n.n.n.n.n.n.n.",
"n.n.n.n.n.n.n.n.n.n.n.n.n.t t e 8 b y.0.0.u.u.7.u.u...G T T L T T T T T T T T U U I g i e t t n.n.n.n.n.n.n.n.n.n.n.n.n.",
"n.n.n.n.n.n.n.n.n.n.n.n.n.t t e 8 b y.0.0.7.7.a.1._ S T T L T T T T T T T T T U U I g i e t t n.n.n.n.n.n.n.n.n.n.n.n.n.",
"n.n.n.n.n.n.n.n.n.n.n.n.n.w w e 8 b y.0.7.u.s.*.Q G T Y L U U U U U U U U U U U U I g i e w w n.n.n.n.n.n.n.n.n.n.n.n.n.",
"n.n.n.n.n.n.n.n.n.n.n.n.n.w w e 8 v r.6.w.6. .D D U U U U U U U U U U U U U U F F P f i e w w n.n.n.n.n.n.n.n.n.n.n.n.n.",
"n.n.n.n.n.n.n.n.n.n.n.n.n.u u u i m b.l.=.( A ^ ^ ^ ^ ^ ^ ^ ^ ^ ^ ^ ^ ^ ^ ^ ^ ^ ^ / j p u u u n.n.n.n.n.n.n.n.n.n.n.n.n.",
"n.n.n.n.n.n.n.n.n.& & $ & = ; ; - > 4 3 , < 2 1 1 1 1 1 1 1 1 1 1 1 1 1 1 1 1 1 1 1 : - ; ; = & $ & & n.n.n.n.n.n.n.n.n.",
"n.n.n.n.n.n.n.n.& & % & % + O O + o X X # # @ @ @ @ @ @ @ @ @ @ @ @ @ @ @ @ @ @ @ @ O O O O + % & % & & n.n.n.n.n.n.n.n.",
"n.n.n.n.n.n.n.n.n.n.n.n.n.n.n.n.n.n.n.n.n.n.n.n.n.n.n.n.n.n.n.n.n.n.n.n.n.n.n.n.n.n.n.n.n.n.n.n.n.n.n.n.n.n.n.n.n.n.n.n.",
"n.n.n.n.n.n.n.n.n.n.n.n.n.n.n.n.n.n.n.n.n.n.n.n.n.n.n.n.n.n.n.n.n.n.n.n.n.n.n.n.n.n.n.n.n.n.n.n.n.n.n.n.n.n.n.n.n.n.n.n.",
"n.n.n.n.n.n.n.n.n.n.n.n.n.n.n.n.n.n.n.n.n.n.n.n.n.n.n.n.n.n.n.n.n.n.n.n.n.n.n.n.n.n.n.n.n.n.n.n.n.n.n.n.n.n.n.n.n.n.n.n."
};
