/* XPM */
static char *result[] = {
/* columns rows colors chars-per-pixel */
"64 64 212 2 ",
"   c black",
".  c #010000",
"X  c #000001",
"o  c #010001",
"O  c #010101",
"+  c #020102",
"@  c #020202",
"#  c #030203",
"$  c gray1",
"%  c #070102",
"&  c #050202",
"*  c #040203",
"=  c #060203",
"-  c #040304",
";  c #040404",
":  c #050405",
">  c gray2",
",  c #060606",
"<  c #070607",
"1  c #070707",
"2  c #0C0204",
"3  c #0D0204",
"4  c #080607",
"5  c #0D0405",
"6  c #080708",
"7  c gray3",
"8  c #090809",
"9  c #090909",
"0  c #0A0809",
"q  c gray4",
"w  c #0A0A0B",
"e  c #0C0B0C",
"r  c #0C0C0C",
"t  c #0C0C0D",
"y  c #0D0C0D",
"u  c #0E0D0E",
"i  c #0F0E0F",
"p  c #1B070A",
"a  c #1C070A",
"s  c #100D0E",
"d  c #110E0F",
"f  c #100F10",
"g  c #111011",
"h  c #121112",
"j  c #121113",
"k  c #131213",
"l  c #131214",
"z  c #141314",
"x  c #151315",
"c  c #151415",
"v  c #161416",
"b  c #161516",
"n  c #161517",
"m  c #171517",
"M  c #191719",
"N  c #19181A",
"B  c #1A181A",
"V  c #1A191B",
"C  c #1B1A1B",
"Z  c #1C191B",
"A  c #1C1A1C",
"S  c #1D1B1D",
"D  c #1E1B1D",
"F  c #1E1C1E",
"G  c #1F1D1F",
"H  c #330C12",
"J  c #330C13",
"K  c #370D14",
"L  c #201E21",
"P  c #211F21",
"I  c #231E21",
"U  c #211F22",
"Y  c #222022",
"T  c #232123",
"R  c #232124",
"E  c #242224",
"W  c #252326",
"Q  c #262326",
"!  c #262426",
"~  c #282326",
"^  c #272528",
"/  c #282528",
"(  c #282629",
")  c #29272A",
"_  c #2A272A",
"`  c #2C262A",
"'  c #2A282B",
"]  c #2B282B",
"[  c #2B292C",
"{  c #2C292C",
"}  c #2C292D",
"|  c #2E292D",
" . c #2C2A2D",
".. c #2E2A2D",
"X. c #2F2A2D",
"o. c #2D2A2E",
"O. c #2D2B2E",
"+. c #2E2B2F",
"@. c #2E2C2F",
"#. c #2F2C2F",
"$. c #2F2C30",
"%. c #2F2D30",
"&. c #302D30",
"*. c #302D31",
"=. c #302E31",
"-. c #312E31",
";. c #322F32",
":. c #333033",
">. c #343135",
",. c #353236",
"<. c #363337",
"1. c #383337",
"2. c #383539",
"3. c #393539",
"4. c #39353A",
"5. c #39363A",
"6. c #3A373B",
"7. c #3B383C",
"8. c #3C383C",
"9. c #3C383D",
"0. c #3D393D",
"q. c #3D3A3E",
"w. c #461019",
"e. c #56141F",
"r. c #57141F",
"t. c #5A1520",
"y. c #751B29",
"u. c #3F3B40",
"i. c #403C40",
"p. c #403C41",
"a. c #413D42",
"s. c #413E42",
"d. c #423E42",
"f. c #423E43",
"g. c #433F43",
"h. c #433F44",
"j. c #444044",
"k. c #444045",
"l. c #454045",
"z. c #454146",
"x. c #464146",
"c. c #464247",
"v. c #474348",
"b. c #484348",
"n. c #484349",
"m. c #484449",
"M. c #49454A",
"N. c #4A464B",
"B. c #4B464C",
"V. c #4B474C",
"C. c #4C474C",
"Z. c #4C474D",
"A. c #4C484D",
"S. c #4D484D",
"D. c #4D484E",
"F. c #4D494E",
"G. c #4E494F",
"H. c #4E4A4F",
"J. c #4F4A50",
"K. c #504B50",
"L. c #504B51",
"P. c #514C52",
"I. c #514D52",
"U. c #514D53",
"Y. c #524D53",
"T. c #524E53",
"R. c #534E53",
"E. c #534E54",
"W. c #534F54",
"Q. c #544F55",
"!. c #554F56",
"~. c #555056",
"^. c #565057",
"/. c #565157",
"(. c #565158",
"). c #575158",
"_. c #575258",
"`. c #575259",
"'. c #585259",
"]. c #585359",
"[. c #58535A",
"{. c #59535A",
"}. c #59545A",
"|. c #59545B",
" X c #5A545B",
".X c #5A555B",
"XX c #5A555C",
"oX c #5B555C",
"OX c #5D575E",
"+X c #5E585F",
"@X c #891F30",
"#X c #922133",
"$X c #A32439",
"%X c #B0273D",
"&X c #C72C45",
"*X c #C72D45",
"=X c #C92D46",
"-X c #D5304A",
";X c #DA314C",
":X c #DC314C",
">X c #DD314D",
",X c #E0324E",
"<X c #E3334F",
"1X c #E63350",
"2X c #EA3451",
"3X c #EF3553",
"4X c #F13654",
"5X c #F23654",
"6X c #F43655",
"7X c #F83756",
"8X c #FD3858",
"9X c None",
/* pixels */
"9X9X9X9X9X9X9X9X9X9X9X9X9X9X9X9X9X9X9X9X9X9X9X9X9X9X9X9X9X9X9X9X9X9X9X9X9X9X9X9X9X9X9X9X9X9X9X9X9X9X9X9X9X9X9X9X9X9X9X9X9X9X9X9X",
"9X9X9X9X9X9X9X9X9X9X9X9X9X9X9X9X9X9X9X9X9X9X9X9X9X9X9X9X9X9X9X9X9X9X9X9X9X9X9X9X9X9X9X9X9X9X9X9X9X9X9X9X9X9X9X9X9X9X9X9X9X9X9X9X",
"9X9X9X9X9X9X9X9X9X9X9X9X9X9X9X9X9X9X9X9X9X9X9X9X9X9X9X9X9X9X9X9X9X9X9X9X9X9X9X9X9X9X9X9X9X9X9X9X9X9X9X9X9X9X9X9X9X9X9X9X9X9X9X9X",
"9X9X9X9X9X9X9X9X9X9X9X9X9X9X9X9X9X9X9X9X9X9X9X9X9X9X9X9X9X9X9X9X9X9X9X9X9X9X9X9X9X9X9X9X9X9X9X9X9X9X9X9X9X9X9X9X9X9X9X9X9X9X9X9X",
"9X9X9X9X9X9X9X9X9X9X9X9X9X9X9X9X9X9X9X9X9X9X9X9X9X9X9X9X9X9X9X9X9X9X9X9X9X9X9X9X9X9X9X9X9X9X9X9X9X9X9X9X9X9X9X9X9X9X9X9X9X9X9X9X",
"9X9X9X9X9X9X9X9X9X9X9X9X9X9X9X9X9X9X9X9X9X9X9X9X9X9X9X9X9X9X@ @ @ @ 9X9X9X9X9X9X9X9X9X9X9X9X9X9X9X9X9X9X9X9X9X9X9X9X9X9X9X9X9X9X",
"9X9X9X9X9X9X9X9X9X9X9X9X9X9X9X9X9X9X9X9X9X9X9X9X9X9XO                     O 9X9X9X9X9X9X9X9X9X9X9X9X9X9X9X9X9X9X9X9X9X9X9X9X9X9X",
"9X9X9X9X9X9X9X9X9X9X9X9X9X9X9X9X9X9X9X9X9X9X9X9XO       6 v L Q Q L v 6       O 9X9X9X9X9X9X9X9X9X9X9X9X9X9X9X9X9X9X9X9X9X9X9X9X",
"9X9X9X9X9X9X9X9X9X9X9X9X9X9X9X9X9X9X9X9X9X9XX     > R p.L._.}.}.}.}._.L.p.R >     o 9X9X9X9X9X9X9X9X9X9X9X9X9X9X9X9X9X9X9X9X9X9X",
"9X9X9X9X9X9X9X9X9X9X9X9X9X9X9X9X9X9X9X9X9Xo   O Q F. X'.Q.E.Y.Y.Y.Y.E.Q.'. XF.! O   o 9X9X9X9X9X9X9X9X9X9X9X9X9X9X9X9X9X9X9X9X9X",
"9X9X9X9X9X9X9X9X9X9X9X9X9X9X9X9X9X9X9X9XO   t h..X~.Y.E.E.E.E.E.E.E.E.E.E.Y.~..Xh.y   O 9X9X9X9X9X9X9X9X9X9X9X9X9X9X9X9X9X9X9X9X",
"9X9X9X9X9X9X9X9X9X9X9X9X9X9X9X9X9X9X9XO   x P.].Y.E.Q.E.Q.Q.Q.Q.Q.Q.Q.Q.E.Q.E.Y.].P.x   O 9X9X9X9X9X9X9X9X9X9X9X9X9X9X9X9X9X9X9X",
"9X9X9X9X9X9X9X9X9X9X9X9X9X9X9X9X9X9XO   l E./.Y.Q.E.Q.Q.Q.Q.Q.Q.Q.Q.Q.Q.Q.Q.E.Q.Y./.E.l   O 9X9X9X9X9X9X9X9X9X9X9X9X9X9X9X9X9X9X",
"9X9X9X9X9X9X9X9X9X9X9X9X9X9X9X9X9X    9 G./.Y.Q.E.Q.Q.Q.Q.Q.Q.Q.Q.Q.Q.Q.Q.Q.Q.E.Q.Y./.G.9     9X9X9X9X9X9X9X9X9X9X9X9X9X9X9X9X9X",
"9X9X9X9X9X9X9X9X9X9X9X9X9X9X9X9X9X    9.}.Y.Q.E.Q.Q.Q.Q.Q.Q.Q.Q.Q.Q.Q.Q.Q.Q.Q.Q.E.Q.Y.}.9.    9X9X9X9X9X9X9X9X9X9X9X9X9X9X9X9X9X",
"9X9X9X9X9X9X9X9X9X9X9X9X9X9X9X9XO   A {.Y.Q.E.Q.Q.Q.Q.Q.Q.Q.Q.Q.Q.Q.Q.Q.Q.Q.Q.Q.Q.E.Q.Y.[.A   O 9X9X9X9X9X9X9X9X9X9X9X9X9X9X9X9X",
"9X9X9X9X9X9X9X9X9X9X9X9X9X9X9X9X    h._.E.Q.Q.Q.Q.Q.Q.Q.Q.Q.Q.Q.Q.Q.Q.Q.Q.Q.Q.Q.Q.Q.Q.E._.h.    9X9X9X9X9X9X9X9X9X9X9X9X9X9X9X9X",
"9X9X9X9X9X9X9X9X9X9X9X9X9X9X9X9X  z /.E.E.E.Q.Q.Q.Q.Q.Q.Q.Q.Q.Q.Q.Q.Q.Q.Q.Q.Q.Q.Q.Q.E.E.E./.z   9X9X9X9X9X9X9X9X9X9X9X9X9X9X9X9X",
"9X9X9X9X9X9X9X9X9X9X9X9X9X9X9XO   #.}.Y.Q.Q.Q.Q.Q.Q.Q.Q.Q.Q.Q.Q.Q.Q.Q.Q.Q.Q.Q.Q.Q.Q.Q.Q.Y.|.@.  O 9X9X9X9X9X9X9X9X9X9X9X9X9X9X9X",
"9X9X9X9X9X9X9X9X9X9X9X9X9X9X9X    f._.E.E.Q.E.Y.Y.Y.E.E.Q.E.Q.Q.Q.Q.E.Q.E.E.Y.Y.Y.E.Q.E.E._.f.    9X9X9X9X9X9X9X9X9X9X9X9X9X9X9X",
"9X9X9X9X9X9X9X9X9X9X9X9X9X9X9X  ; D.~.E.Q.R.Q.}. X X_.E.E.Q.E.Q.Q.E.Q.E.E._. X X}.Q.T.Q.E.~.D.;   9X9X9X9X9X9X9X9X9X9X9X9X9X9X9X",
"9X9X9X9X9X9X9X9X9X9X9X9X9X9X9X  w Y.Q.E.T.'.P.1.` X.a._.~.E.Q.E.E.Q.E.~._.a...` 1.P.'.T.E.Q.Y.q   9X9X9X9X9X9X9X9X9X9X9X9X9X9X9X",
"9X9X9X9X9X9X9X9X9X9X9X9X9X9X9X  y Q.Q.Y.].p.0         Z I.~.E.Q.Q.E.~.U.A         0 i.].Y.Q.Q.u   9X9X9X9X9X9X9X9X9X9X9X9X9X9X9X",
"9X9X9X9X9X9X9X9X9X9X9X9X9X9X9X  f ~.E.(.c.-   a t.w.=   B /.E.E.E.E./.B   = w.t.p   - c.(.Y./.l   9X9X9X9X9X9X9X9X9X9X9X9X9X9X9X",
"9X9X9X9X9X9X9X9X9X9X9X9X9X9X9X  B '.Y.].D   K ;X5X6X$X&   0.].T.T.].0.  & $X6X5X;XK   D ].I.].S   @ 9X9X9X9X9X9X9X9X9X9X9X9X9X9X",
"9X9X9X9X9X9X9X9X9X9X9X9X9X9XO    .}.E.K.8   %X5X:X>X7Xe.  ~ }.Y.Y.}.~   e.7X>X:X5X%X  0 K.E.}.&.  O 9X9X9X9X9X9X9X9X9X9X9X9X9X9X",
"9X9X9X9X9X9X9X9X9X9X9X9X9X9X    x./.!.S.; . *X1X,X:X4Xy.  I }.Y.Y.}.I   y.4X:X,X1X&X. ; S.~./.m.@   9X9X9X9X9X9X9X9X9X9X9X9X9X9X",
"9X9X9X9X9X9X9X9X9X9X9X9X9XO   A '.Y.Q.E.s   @X8X<X2X3XH   | }.Y.Y.}.|   J 3X2X<X8X@X  s E.Q.Y.].G   O 9X9X9X9X9X9X9X9X9X9X9X9X9X",
"9X9X9X9X9X9X9X9X9X9X9X9X    $ n./.E.Y.}.]   5 #X-X=Xr.  * b./.E.E./.b.*   r.=X-X#X5   ] }.Y.E./.N.>     9X9X9X9X9X9X9X9X9X9X9X9X",
"9X9X9X9X9X9X9X9X9X9X9X  O   ,.}.Y.Q.E.Q.E.z     3 %     *.{.Y.Q.Q.Y.{.=.    % 2     z E.Q.E.Q.Y.}.2.  o   9X9X9X9X9X9X9X9X9X9X9X",
"9X9X9X9X9X9X9X9X9X9X  O   { }.Y.Q.E.Q.E.~.Y.Q 4   O d 4.].E.E.E.E.Q.E.].5.d O   4 Q Y.~.E.Q.E.Q.Y.}.#.  O   9X9X9X9X9X9X9X9X9X9X",
"9X9X9X9X9X9X9X9X9X      O.}.E.E.Q.Q.E.Q.E.Q.}.J.x.m.!.].E.E.Q.Q.Q.Q.E.E.].~.m.x.J.}.Q.E.Q.E.Q.Q.E.T.}.&.    o 9X9X9X9X9X9X9X9X9X",
"9X9X9X9X9X9X9X9Xo   @ <. XT.E.Q.E.Q.Q.E.Q.E.Y.~._./.E.Y.Q.Q.E.Q.Q.E.Q.Q.Y.E./._.~.Y.E.Q.E.Q.Q.E.Q.E.Y. X3.#   O 9X9X9X9X9X9X9X9X",
"9X9X9X9X9X9X9X    1 d. XY.E.Q.E.Q.Q.Q.Q.Q.Q.Q.E.E.E.E.Q.E.Q.Q.Q.Q.Q.Q.E.Q.E.E.E.E.Q.Q.Q.Q.Q.Q.Q.E.Q.E.Y. Xj.8     9X9X9X9X9X9X9X",
"9X9X9X9X9X9X    e N.[.Y.Q.Q.E.Q.Q.Q.Q.Q.Q.Q.Q.Q.Q.Q.Q.Q.Q.Q.Q.Q.Q.Q.Q.Q.Q.Q.Q.Q.Q.Q.Q.Q.Q.Q.Q.Q.Q.E.Q.Q.Y.].A.u     9X9X9X9X9X9X",
"9X9X9X9X9X9X  > M.].Y.Q.E.Q.Q.Q.Q.Q.Q.Q.Q.Q.Q.Q.Q.Q.Q.E.E.E.E.E.E.E.E.E.E.Q.Q.Q.Q.Q.Q.Q.Q.Q.Q.Q.Q.Q.Q.E.Q.Y.`.Z.1   9X9X9X9X9X9X",
"9X9X9X9X9X@   ' OXL.E.E.E.Q.E.Q.Q.Q.Q.Q.Q.Q.Q.Q.E.Q.E.E.E.E.E.E.E.E.E.E.E.E.Q.E.Q.Q.Q.Q.Q.Q.Q.Q.Q.E.Q.E.E.E.L.OX+.  @ 9X9X9X9X9X",
"9X9X9X9X9XO   v J.}.[.^.E.Y.E.Q.E.Q.Q.Q.Q.Q.Q.Q.Q.E./.].)._._._._._._.).]./.E.Q.Q.Q.Q.Q.Q.Q.Q.E.Q.E.Y.E.~.].}.P.M   O 9X9X9X9X9X",
"9X9X9X9X9X9X    < Y 5.B.).}.Q.E.Q.E.Q.Q.E.Q.E.E.E./.k.n v b b b b b b v m k./.E.E.E.Q.E.Q.Q.E.Q.E.Q.}._.C.6.T 7     9X9X9X9X9X9X",
"9X9X9X9X9X9X9X        $ z -.P._.E.Q.E.E.Q.E.E.Q.Y.}.&.  O             O   =.}.Y.Q.E.E.Q.E.E.Q.E.).Y.;.c $         9X9X9X9X9X9X9X",
"9X9X9X9X9X9X9X9X9X@ O       q z._.E.Q.Q.E.!.Q.E.~.Q.P.2.>.,.,.,.,.,.,.>.2.P.Q.~.E.Q.!.E.Q.Q.E.(.v.e       o + 9X9X9X9X9X9X9X9X9X",
"9X9X9X9X9X9X9X9X9X9X9X9X9X+   u Y.Q.E.E.E.!.N i L.Q.Q.}.}.}.}.}.}.}.}.}.}.Q.!.K.u B ~.E.E.E.Q.E.f   + + 9X9X9X9X9X9X9X9X9X9X9X9X",
"9X9X9X9X9X9X9X9X9X9X9X9X9X9XO   f._.E.E.Q.Y.e   5.{.Y.Y.Y.Y.Y.Y.Y.Y.Y.Y.Y.Y.{.2.  y T.Q.E.E._.z.    9X9X9X9X9X9X9X9X9X9X9X9X9X9X",
"9X9X9X9X9X9X9X9X9X9X9X9X9X9X    h._.E.Q.Y.}.P   ( |.Y.Q.Q.Q.Q.Q.Q.Q.Q.Q.Q.Y.}.^   Y }.Y.Q.E.).c.    9X9X9X9X9X9X9X9X9X9X9X9X9X9X",
"9X9X9X9X9X9X9X9X9X9X9X9X9X9X  , H.~.E.Q.Y. X}   F {.Y.E.Q.Q.Q.Q.Q.Q.Q.Q.E.T.].S   o. XY.Q.E.Q.L.7   9X9X9X9X9X9X9X9X9X9X9X9X9X9X",
"9X9X9X9X9X9X9X9X9X9X9X9X9X9X  h ^.E.E.Q.Y.}.-.  B '.E.E.Q.Q.Q.Q.Q.Q.Q.Q.E.E.'.M   ;.}.Y.Q.E.E._.c   9X9X9X9X9X9X9X9X9X9X9X9X9X9X",
"9X9X9X9X9X9X9X9X9X9X9X9X9X@   P }.Y.E.Q.Y.|.$.  C ].E.E.Q.Q.Q.Q.Q.Q.Q.Q.E.E.].V   *.}.Y.Q.E.Y.}.E   @ 9X9X9X9X9X9X9X9X9X9X9X9X9X",
"9X9X9X9X9X9X9X9X9X9X9X9X9XO   %.|.Y.Q.Q.Y. X(   U }.Y.E.Q.Q.Q.Q.Q.Q.Q.Q.E.Y.}.L   )  XY.Q.Q.Y.}.:.  O 9X9X9X9X9X9X9X9X9X9X9X9X9X",
"9X9X9X9X9X9X9X9X9X9X9X9X9XO   6.[.Y.Q.E.Y.].S   {  XY.Q.Q.Q.Q.Q.Q.Q.Q.Q.Q.Y. X]   F {.Y.E.Q.T.].q.    9X9X9X9X9X9X9X9X9X9X9X9X9X",
"9X9X9X9X9X9X9X9X9X9X9X9X9X    p./.Y.E.E.E.E.i   5.{.Y.Q.Q.Q.Q.Q.Q.Q.Q.Q.Q.Y.{.3.  f Q.T.E.E.Y./.g.    9X9X9X9X9X9X9X9X9X9X9X9X9X",
"9X9X9X9X9X9X9X9X9X9X9X9X9XO   8.+X/._.).oXN.    v./.E.E.Q.Q.Q.Q.Q.Q.Q.Q.W.E./.v.  O V.XX)._./.+Xu.    9X9X9X9X9X9X9X9X9X9X9X9X9X",
"9X9X9X9X9X9X9X9X9X9X9X9X9Xo   f 6.f.l.s.k.]   k {.Y.E.Q.E.Q.Q.Q.Q.Q.Q.E.Q.E.Y.].j   [ k.a.k.f.7.h     9X9X9X9X9X9X9X9X9X9X9X9X9X",
"9X9X9X9X9X9X9X9X9X9X9X9X9X9X                  e f.}.Q.Y.Q.E.Q.Q.Q.Q.E.Q.T.Q.}.k.r                   9X9X9X9X9X9X9X9X9X9X9X9X9X9X",
"9X9X9X9X9X9X9X9X9X9X9X9X9X9X9Xo O                 W Q._.Y.E.Q.E.E.Q.E.Y._.~.^                 O O 9X9X9X9X9X9X9X9X9X9X9X9X9X9X9X",
"9X9X9X9X9X9X9X9X9X9X9X9X9X9X9X9X9X9X9X9X9X9X9X  O   i k..X~.Y.Y.Y.Y.~..Xc.g   O   9X9X9X9X9X9X9X9X9X9X9X9X9X9X9X9X9X9X9X9X9X9X9X",
"9X9X9X9X9X9X9X9X9X9X9X9X9X9X9X9X9X9X9X9X9X9X9X9X9XO   @ / D.].}.}.].G._ #   O 9X9X9X9X9X9X9X9X9X9X9X9X9X9X9X9X9X9X9X9X9X9X9X9X9X",
"9X9X9X9X9X9X9X9X9X9X9X9X9X9X9X9X9X9X9X9X9X9X9X9X9X9XO     : M W W B >     O 9X9X9X9X9X9X9X9X9X9X9X9X9X9X9X9X9X9X9X9X9X9X9X9X9X9X",
"9X9X9X9X9X9X9X9X9X9X9X9X9X9X9X9X9X9X9X9X9X9X9X9X9X9X9X9XO             O 9X9X9X9X9X9X9X9X9X9X9X9X9X9X9X9X9X9X9X9X9X9X9X9X9X9X9X9X",
"9X9X9X9X9X9X9X9X9X9X9X9X9X9X9X9X9X9X9X9X9X9X9X9X9X9X9X9X9X9X9X@ @ 9X9X9X9X9X9X9X9X9X9X9X9X9X9X9X9X9X9X9X9X9X9X9X9X9X9X9X9X9X9X9X",
"9X9X9X9X9X9X9X9X9X9X9X9X9X9X9X9X9X9X9X9X9X9X9X9X9X9X9X9X9X9X9X9X9X9X9X9X9X9X9X9X9X9X9X9X9X9X9X9X9X9X9X9X9X9X9X9X9X9X9X9X9X9X9X9X",
"9X9X9X9X9X9X9X9X9X9X9X9X9X9X9X9X9X9X9X9X9X9X9X9X9X9X9X9X9X9X9X9X9X9X9X9X9X9X9X9X9X9X9X9X9X9X9X9X9X9X9X9X9X9X9X9X9X9X9X9X9X9X9X9X",
"9X9X9X9X9X9X9X9X9X9X9X9X9X9X9X9X9X9X9X9X9X9X9X9X9X9X9X9X9X9X9X9X9X9X9X9X9X9X9X9X9X9X9X9X9X9X9X9X9X9X9X9X9X9X9X9X9X9X9X9X9X9X9X9X",
"9X9X9X9X9X9X9X9X9X9X9X9X9X9X9X9X9X9X9X9X9X9X9X9X9X9X9X9X9X9X9X9X9X9X9X9X9X9X9X9X9X9X9X9X9X9X9X9X9X9X9X9X9X9X9X9X9X9X9X9X9X9X9X9X",
"9X9X9X9X9X9X9X9X9X9X9X9X9X9X9X9X9X9X9X9X9X9X9X9X9X9X9X9X9X9X9X9X9X9X9X9X9X9X9X9X9X9X9X9X9X9X9X9X9X9X9X9X9X9X9X9X9X9X9X9X9X9X9X9X"
};
