/* XPM */
static char *result[] = {
/* columns rows colors chars-per-pixel */
"64 64 78 1 ",
"  c #000000",
". c #090702",
"X c #0D0A04",
"o c #110D05",
"O c #1C1508",
"+ c #261D0B",
"@ c #291F0C",
"# c #2D220D",
"$ c #30240E",
"% c #382C12",
"& c #9B772F",
"* c #A57E31",
"= c #D77313",
"- c #D87615",
"; c #D97816",
": c #DB7C1A",
"> c #A78032",
", c #AA8233",
"< c #B18634",
"1 c #B38936",
"2 c #B98D37",
"3 c #B68D3B",
"4 c #BA8E38",
"5 c #BE9239",
"6 c #DE821E",
"7 c #DE8420",
"8 c #DE8924",
"9 c #C3953A",
"0 c #CE9738",
"q c #C7983C",
"w c #CB9B3D",
"e c #D09F3F",
"r c #E08621",
"t c #E28923",
"y c #E59028",
"u c #D3A13F",
"i c #DEA83F",
"p c #F5AF3F",
"a c #F6B23E",
"s c #BF9748",
"d c #D6A340",
"f c #DAA641",
"g c #DEAA43",
"h c #D4A952",
"j c #E3AD44",
"k c #E6B145",
"l c #E6B748",
"z c #F7B341",
"x c #F8B643",
"c c #FABA46",
"v c #F6BC4A",
"b c #FBBE49",
"n c #E5B759",
"m c #F9BC52",
"M c #FFC046",
"N c #FEC34D",
"B c #FEC94F",
"V c #FFC553",
"C c #FFCC51",
"Z c #FDC55A",
"A c #FFC95C",
"S c #FFD252",
"D c #FBC662",
"F c #FFCB63",
"G c #FFCF6D",
"H c #FFD266",
"J c #FFD173",
"K c #F5D998",
"L c #FFE29F",
"P c #FFE4A5",
"I c #FFE7AC",
"U c #FFEAB5",
"Y c #FFEDBC",
"T c #FFEEC1",
"R c #FFF0C5",
"E c #FFF3CC",
"W c #FFF5D1",
"Q c None",
/* pixels */
"QQQQQQQQQQQQQQQQQQQQ                        QQQQQQQQQQQQQQQQQQQQ",
"QQQQQQQQQQQQQQQQQQQQ        .               QQQQQQQQQQQQQQQQQQQQ",
"QQQQQQQQQQQQQQQQQQQQ                        QQQQQQQQQQQQQQQQQQQQ",
"QQQQQQQQQQQQQQQQQQQQooooooooooooooooooooooooQQQQQQQQQQQQQQQQQQQQ",
"QQQQQQQQQQQQ       Xwkkjkkjkkkjkkjkjkjkkkjl4        QQQQQQQQQQQQ",
"QQQQQQQQQQQQ       XkCNBBBBBBNBVNBBBBBBNNNSw        QQQQQQQQQQQQ",
"QQQQQQQQQQQQ       .jBNNbNNNbNNNNNNNNNNNNNBw        QQQQQQQQQQQQ",
"QQQQQQQQQQQQooXooooOfNbbbbbbbbbbbbbbbbbcNcNwooooooooQQQQQQQQQQQQ",
"QQQQQQQQ   .4ljjjjjj6::::::::::::::::::::6:8jjjjjjl,    QQQQQQQQ",
"QQQQQQQQ   .dCNBNBCN:=-=-------=----=-----=rBVBBBBS5    QQQQQQQQ",
"QQQQQQQQ    wBbNNNVb:=--------=-----------=rNNNNbbB5    QQQQQQQQ",
"QQQQQQQQXXXodVNNbbbcr;:::;;:::::;::::;:;::-rbbbbNNC5XoXXQQQQQQQQ",
"QQQQ    4kjjNNNNt::6zcccccxcxcccccccccccccbp::;yNNNvjgl>    QQQQ",
"QQQQ    wCBVNNNb:=;:cBNNVBBVBNBNNBNBNVVNNNCz--=tVNNNNBS1    QQQQ",
"QQQQ    wCbNBNBb:=-:cNNNNbbNNNbNbNNbNNNNNNNz--=tNNNNNbC1    QQQQ",
"QQQQ    wCbNbbbcr:;:xBNNVVVVVVVVVVVVNNNNNNVz;:-tVVVNNNC1    QQQQ",
"QQQQ    wCNNt::6zbccNNNVUYYYYTYTYYTIVNNNNNNNccxZTYTLcNC1    QQQQ",
"QQQQ    wVbN6=-;cVNNNNNZTWWEWEEEEEWYNNNNNNNNNBMGWEWINNC1    QQQQ",
"QQQQ    wCNN6=-;xNbNNNNVTEEEEWEEEEEYVNNNNNNNNNMGEEWIMNB1    QQQQ",
"QQQQXX.X0Bbb7;;:cBNNNNNVYEEETTTERTEUNbbNNNNNNVbGRTEIVVS3.XXXQQQQ",
"    ,kgg8::6acccNNNNNNNVYWETFVAAAZAV6::tNNNNNVNNAAVJYYRKigl&    ",
"    wSBCr=--xVNNNNNNBNNVTEETVbNNNbBz-=-6NNNNNNNNNNMGWEWINBS,    ",
"    5VcNr=;;xBNNNNbNNNbVTEWYVBNNNNNx--=6bNNbNNNNNNNGEEEPMNC,    ",
"    9CbN7=-;xNNNNVVVVVVATEETVNNNNbBc::-rBVVVNNNNNNbGWEWPMvS,    ",
"    9CbN7=--xBbNIYYYYYYYEEEYVNNNVNNNxxxZYYYPNNNNNNMGEEWPMNC,    ",
"    9CVb8=;;xVbVYWEWEEWEEEETVNNNNNNNVBNFEEWUNNNNNBMGEEWPNvS,    ",
"    9CNNr=-;xNNVYEEEEEEEEEWTZNNNNNNNNNMFEEWUNNNNNNMGWEWPMvC,    ",
"    9CbNr--;zBbVYEEERERRETEYVNNBNNNNNNMFETEIbbNbNNMGEEWPMNC,    ",
"    9CVbr=-;xBbNUEERGZAAAAZANNNNNNNNNNNNAAFv:6:yBNbGWEWPNbC,    ",
"    9CbNr=-;xNNVYWERCMNNMNNbNNNNNNNNNNNNNbNa-==rNVbGEEWPbNS,    ",
"    9CbNr=;;xNNVYWERANNNNNBNNbNNNNNBVNNNNNBz-;=tNBMGEEWPMNS,    ",
"    9CNNr=-;xVbVUEERAbNNNNNNNBNNVNNNNNNNNbBx--=rNNMGEEWPMbS,    ",
"    5BbNr=-;zBbVYWERZbNNVNNNNNNBNNNNNNNNNNVz=-=rBNbGWRWPNNC>    ",
"    9VNVr--;xNNVUEERZNNNNNNNVNNNNNNNNNNNNNBz--=tNNbGEEWPMNS,    ",
"    9SbNr=-;xNNNYEERANVNNNNNNNNNNNNNNNNNNNVx--=tNNMGEEWPMNC>    ",
"    9CNNr=--xVbVUERRZMNbNNNNNNNNNNNNbNbNbbNx--=rNBMGWEWPMNC>    ",
"    9CNNr=;;xVNNAAFAt66rcNNNVNNNNNVcr:r67:r:--=tNNMGEEWPNbS,    ",
"    9CbNr=-;zNNNNMNc:==;cBNNNNNNNbBx;=======;-=rBNMGERWPbNC,    ",
"    9BNNr=-;zBNNBNBb:--:cNbNNNNNNNNx;=;;;;----=rNVbGWEWPMNC, .  ",
"    9BNNr=;;zBNNNNNb6;;:bVNVNbBNNNVx:;=;;;;;-:=tNNbGEEWPMbS,    ",
"    9CbNr=;;xVNNNNNNxxxvIYYIVNNNNNBx--=6xxxxxxxcNNMGEEWPMNC,    ",
"    9CbNr=;;zNNNNNNNBNBZRWERVNNNNNVx:-=rNVNBBNBNNNMGEEWPNvS>    ",
"    9CNBr=-;xVNNNNNbNNbVTEEYVNNNNNNx;;=rbNNNNNNNNBMGWEWPMNS>    ",
"    5Nvvr-;;zNNbNNNNNNNVYEEYVNNbNNNx;-=6NNNNNNNNNBNJEREPcvB*    ",
"QQQQ+#+@0cxzt:6rxBNNNNNNAFFZt:r66666--=rNNNNNNNFYUYLAAHs+###QQQQ",
"QQQQ    wCBN7=--xNNNVNNNbNNx:==-==--;-=6NNNNNVMGWEWIMcB<    QQQQ",
"QQQQ    wBbN7--;xVNNNNNNNNVc:=-;-----;=rNNNNNNbFETWINNC1    QQQQ",
"QQQQ    wBNN7-;;cVNVNNNNNbBc:;--;;;;;;=rNNNNNVMGEEWINNC1    QQQQ",
"QQQQ    wCNNxzzxPYUUZNNNNNNNxzxzxzxxxxxxNNNFYUUPDFFANNC1    QQQQ",
"QQQQ    qCbNBVBVYWWRZMNNNNNNBVVBNBVNBNVBNBMFWEWUbMMNNbC,    QQQQ",
"QQQQ    wBNNNbNVYEERZNNNNNNNbNNbNNNNbNbNNNMFEEWINNNNNNC1    QQQQ",
"QQQQ    wVvNNNNVYEERANBNNVNNNVNVVNNNVNVNVNNFERWINNNNNvC1    QQQQ",
"QQQQQQQQ####fBbNAFFFIYUUUUUUYUUUUUYUUUUUUUYPAFFZNNCq###@QQQQQQQQ",
"QQQQQQQQ    eBNNMbMNTWEEWWWEWEEWWEWEWEWWWEWUbNMNNbB2    QQQQQQQQ",
"QQQQQQQQ   .uBNNNVNVYEEEEEEEEEEETEEEEEREEEWUNVNBNNB5    QQQQQQQQ",
"QQQQQQQQ    eVbbNNbVYEREEETEEETEEEEEREEEEEEIbNbNNvC2    QQQQQQQQ",
"QQQQQQQQQQQQ#######%nFFFFFFFFFFFFFFFFFFFFFHh##$#####QQQQQQQQQQQQ",
"QQQQQQQQQQQQ       .iNNbMMbNbbNbbbbbMMbNbbBq        QQQQQQQQQQQQ",
"QQQQQQQQQQQQ   . . ogCNNNNNNNNNNNNNVNNNNNNCw        QQQQQQQQQQQQ",
"QQQQQQQQQQQQ       XgBbNNNbNNNNNNNbNNNNNNbCw        QQQQQQQQQQQQ",
"QQQQQQQQQQQQQQQQQQQQ#$$##$$$$$$$$$$##$$$%$$#QQQQQQQQQQQQQQQQQQQQ",
"QQQQQQQQQQQQQQQQQQQQ                        QQQQQQQQQQQQQQQQQQQQ",
"QQQQQQQQQQQQQQQQQQQQ  .       .    .        QQQQQQQQQQQQQQQQQQQQ",
"QQQQQQQQQQQQQQQQQQQQ                        QQQQQQQQQQQQQQQQQQQQ"
};
