/* XPM */
static char *result[] = {
/* columns rows colors chars-per-pixel */
"60 60 102 2 ",
"   c #231F21",
".  c #262223",
"X  c #282527",
"o  c #2A2729",
"O  c #2D2A2C",
"+  c #302C2E",
"@  c #2F2C30",
"#  c #312E30",
"$  c #353233",
"%  c #39363B",
"&  c #3C3A3E",
"*  c #3D3B41",
"=  c #413E44",
"-  c #444146",
";  c #45434B",
":  c #49464A",
">  c #4B494C",
",  c #464650",
"<  c #4A4952",
"1  c #4E4E58",
"2  c #524F53",
"3  c #545154",
"4  c #52525C",
"5  c #59575A",
"6  c #5A585B",
"7  c #565661",
"8  c #5A5A62",
"9  c #5C5D69",
"0  c #64636B",
"q  c #636473",
"w  c #666877",
"e  c #6A6A71",
"r  c #676978",
"t  c #6B6D7D",
"y  c #71717D",
"u  c #78777D",
"i  c #6D7080",
"p  c #727485",
"a  c #7B7B84",
"s  c #737789",
"d  c #767A8B",
"f  c #7A7D8D",
"g  c #7B7F90",
"h  c #7E8294",
"j  c #818187",
"k  c #84838A",
"l  c #838693",
"z  c #878996",
"x  c #898B95",
"c  c #838699",
"v  c #868A9E",
"b  c #8A8C9A",
"n  c #8F919E",
"m  c #878CA1",
"M  c #898EA2",
"N  c #8C91A6",
"B  c #8E93A9",
"V  c #9295A4",
"C  c #9598A7",
"Z  c #9196AB",
"A  c #9398AD",
"S  c #999DAE",
"D  c #969BB1",
"F  c #999EB4",
"G  c #9FA1AD",
"H  c #9CA1B4",
"J  c #9DA1B8",
"K  c #A0A5BB",
"L  c #A4A8BB",
"P  c #ACAFBD",
"I  c #AFB1BF",
"U  c #A6ABC3",
"Y  c #A8ADC5",
"T  c #AAAFC8",
"R  c #AFB2C0",
"E  c #ACB2CB",
"W  c #B1B3C1",
"Q  c #B0B5CF",
"!  c #B7BBCD",
"~  c #BBBECF",
"^  c #B2B7D2",
"/  c #B5BBD6",
"(  c #BABFD2",
")  c #B7BDD8",
"_  c #B8BED9",
"`  c #BDC1D2",
"'  c #BBC2DD",
"]  c #BEC5E1",
"[  c #C1C5D6",
"{  c #C6CADE",
"}  c #C0C7E3",
"|  c #C3C9E4",
" . c #C8CDE1",
".. c #C5CBE9",
"X. c #C9CFEA",
"o. c #CCD1E6",
"O. c #CCD1EA",
"+. c #D1D7EF",
"@. c #D3D9EE",
"#. c #CDD4F1",
"$. c #D6DEFB",
"%. c None",
/* pixels */
"%.%.%.%.%.%.%.%.%.%.%.%.%.%.%.%.%.%.%.%.%.%.%.%.%.%.%.%.%.%.%.%.%.%.%.%.%.%.%.%.%.%.%.%.%.%.%.%.%.%.%.%.%.%.%.%.%.%.%.%.",
"%.%.%.%.%.%.%.%.%.%.%.%.%.%.%.%.%.%.%.%.%.%.%.%.%.%.%.%.%.%.%.%.%.%.%.%.%.%.%.%.%.%.%.%.%.%.%.%.%.%.%.%.%.%.%.%.%.%.%.%.",
"%.%.. $ $ $ $ $ $ $ $ . + + $ + # # $ + + # + + $ + # + # + X $ $ $ $ $ $ $ $ $ $ $ $ $ $ $ $ $ . + # # # + # $ O . %.%.",
"%.%.O P ` ~ ~ ~ ~ ` ( = l C N V V V V V V V V V V V V V C l - ~ ~ ~ ( ( ~ ~ ~ ~ ~ ~ ~ ~ ~ ~ ` L & V V V V V V C z O %.%.",
"%.%.O E ] _ ' ' ' ' / = h B M N N N N N m N N N N N N N B h - ) _ ' _ ' _ ' ' _ ' ' _ ' _ _ ] Y * m M N N N N N h O %.%.",
"%.%.O Y ' ) ) / / ' / * h N M M m m N m N m N m v m m N N h ; / _ ) ) ) ) ) ) _ ) ) ) ) _ ) ' U * m M N m m m N h O %.%.",
"%.%.O Y ' / / ) / / / = d N M M N m N m m N m m N m m m N h - / / / ) ) ) ) / / ) ) ) ) ) ) ' Y & m m m m m m N h o %.%.",
"%.%.# E | ' ] ' ] ] ' - h Z N B N B N V N B B B B B B N Z h ; ' ] ] ' ' ' ] ] ] ' ' [ ] ] ' ] E = N B V Z B B A c O %.%.",
"%.%.O N J F F H F F F $ w s p p p p s s d s s p p s s s d t % F F F F F F J F J H F F F F F J m # p p p p s p s r o %.%.",
"%.%.. ; > : : : : : : ; ; ; : : : : : & O - * * & - & - = & & - - - - - - = - # & > : : : > > : - : : ; ; ; : : - . %.%.",
"%.%.+ ! o.{ {  . .|  . . . . .{  .{ @.n > L S H G S S F H G S S S S S F S S K > n @.{ |  . . .{  . .{ o. . . .o.~ # %.%.",
"%.%.O Y ' / ) / / ) / / / / / / ' ^ ] c ; Z v m m m m m m m v v m m m M m v Z ; c } / / ) / ) / / / / / / / / ' U # %.%.",
"%.%.# Y ' ) / ) ' / / ' / ` ) ' / / ] v ; A M M v N N N N m N m B M M M M m A ; c | / _ _ _ _ _ _ _ ) ) ) ) ) ' Y O %.%.",
"%.%.O Y ' ) ' ) ' ) / ' ) ) / ' ` / ] c ; A m M N N v v m N N N M M M M M m A ; v | / _ ` ) _ _ _ ) _ _ ) ' ) ' Y O %.%.",
"%.%.O Y ' ) ' _ / / ) ) ' ) ' ) ' / ..c ; A v N N v N N v N v N M M M M M M A ; c | / _ ) ) _ _ _ _ _ _ ) _ ) ' Y O %.%.",
"%.%.# Y ' ) / _ ) ' ' / ) ) ) ) / ) ] v ; A v v N N v N N N v N N M M M M m A ; c } / _ ' ) _ _ _ _ _ _ ) ` ) ' Y @ %.%.",
"%.%.@ Y ] / / / / / / ' / / / / ) / | c ; B m M M M M M M M M M m M M m M m A ; c } ) ) ) ) ) ) ) ) ) ) ) ) ) ' Y O %.%.",
"%.%.@ Y ' / ` ' ' ' / / ' / ' ' ) / | c ; A M M M M M M M M M M M N N M N M A ; c | ) ) _ ) ) _ _ _ _ _ ) ) ) ' Y @ %.%.",
"%.%.@ U ' ^ / / / / / ' / / ' / ) / | c ; A v v M m m m m m M M m m m m m v Z ; c ] / ) / ) / ) ) ) _ ) ) ) ) ] Y @ %.%.",
"%.%.. = ; ; ; ; ; ; ; ; : ; : : ; ; < & o * & & * & & % & * % & % & & % & & & o % ; ; ; ; ; ; ; ; > ; , > ; ; > ; . %.%.",
"%.%.O G W I I I I I P % s b l l z z l l n x b b b b b b v h & I R I I I I I R W W P P P I P W G $ l l l z l l z a o %.%.",
"%.%.# E ] ' ] ] ' ] ' - h A N Z B B Z B B B B N N B N N Z h - ' ] ] ] ] ] ] ] ] ] ] ] ] ] ] | E = B A B B B B A v o %.%.",
"%.%.# Y ' / / / / ) / = d N m M m v N v n M M M M v v M N h - / ) ) / ) / ) ) ) / / / / / / ' Y * v m m M m M N l o %.%.",
"%.%.O Y ' ) ) ' ) / ' = h B M M N N m N M M M M N N N m N h - / _ ) ) _ _ ) ) ) _ _ _ _ _ ) ' Y * m N m M M M N h o %.%.",
"%.%.# Y ' ) ' / ' / / - h N M M N M N M N M N M N v v N N h - / _ ) _ _ _ _ ) ' _ _ _ _ ) ) ' T * v m N m m m N h O %.%.",
"%.%.O Y ' / / ' / / / - g N M M M M M M M M M M N N N M N h - / _ ) _ _ _ _ ) ` _ _ _ ) _ ) ' Y * v N m N N N N h o %.%.",
"%.%.@ Y ' / / _ / ' ` - g N m M M M M M M M M M v M M N N h ; / _ ) ) ) / ) ) ) ) ) ) ) ) ) ' Y * v N N v N m N l O %.%.",
"%.%.@ U ' / / / / / / * g N m M v M v M M v M v v M m v M h = / / / / / / / ) / / / / / / ) _ Y * v m m N m v N h o %.%.",
"%.%.O ^ X.| | | | | | ; h H A A A A A A Z Z Z Z A A A Z A v ; ] | ] | ] } | } } | | | | | ] X./ = B D B C A A D v o %.%.",
"%.%.X 7 9 9 9 9 9 8 9 . = < ; ; ; , , , < 1 < < , < , , < ; o q q 0 q q q 0 q w 9 9 9 9 9 9 9 7 . , , , ; , ; , ; . %.%.",
"%.%.o u j h h j h j h x h k k k k k h x 3 * y e e e e e e e e 0 0 0 0 0 0 0 6 + j h h j j j h j l k k k k k k l a X %.%.",
"%.%.# ` O.X.o.o.X.o.o...O.O.X.X.X.X. .$.f 9 J D D F F D H D D H S F F F F J N ;  .O.O.o.X.O.o.X.X.O.O.X.X.O.O.O.) # %.%.",
"%.%.+ U _ / / / / ^ / / ^ / / / / / Q ] i 4 A v v v m v v v v v v v v v m M g = / / / ^ ) / ^ ) / ^ / / / ^ / ) U O %.%.",
"%.%.O Y ' _ ) ) _ _ _ _ _ _ ) / ) ) / ..i 4 A m N m m N M N N M N M M N m N g ; ) ) ) _ ) _ ) ) _ _ ) _ _ _ ) ' Y O %.%.",
"%.%.@ Y ' / _ _ _ ) _ _ _ _ ) _ ' ) / | p 4 A m N N N N M M M M M M N M M B g ; ) ) ) _ _ _ _ _ _ _ _ _ _ _ ) ' Y @ %.%.",
"%.%.O Y ' ) _ _ _ _ _ _ _ _ _ _ ) ) / ..t 4 D v v m N m M N M N M N M M M B h = ) ) ) ) _ _ _ _ _ _ _ _ _ _ ) ' Y # %.%.",
"%.%.@ Y ' ) ) ) ) ) ) ) ) ) ) ) / ) / ..i 4 A M N v M m N m M M M M M M M B h ; / _ _ ) ) ) ) ) ) _ ) _ ) ) ) ' Y O %.%.",
"%.%.O Y ' / ) / / ) / ) / / / ) / ' / | y 4 A m N m m v M M m v b M M M m M g * / / / / ) ) ) / / ) / / ) / / ' Y @ %.%.",
"%.%.$ Q ..] ] ] } } } ] } | ] | ] ] ] #.s 4 H B V Z Z Z Z Z N Z A Z Z B A A c , } } } } } } ] } ] ] ] ] ] ] }  .E @ %.%.",
"%.%.o g m v v v v v v V m M m m m m m A 7 * y q w w w w w r t w w q q q q w 9 @ c v c v v v v v Z M M M M M m N l o %.%.",
"%.%.. 3 6 5 5 5 5 5 5 o - > : : ; : : ; : > > > > > > > > : o 5 6 6 6 5 5 5 5 6 5 5 5 5 5 5 5 2 X : : : : : ; : ; . %.%.",
"%.%.@ ( +.o.O.o.O.O.O.; b K F H H H H H H H H H J J J F K N > X.O.O.O.O.+.X.+.O.+.X.O.O.o.+.@.( - S J H F H G J N O %.%.",
"%.%.@ U ) / / / / / ^ = f N v v v m v v v v v v v v m m M g = ^ / / / / ^ / / ^ ^ / ^ / / / _ U * v m v v v v N g o %.%.",
"%.%.@ Y ' ) _ _ ) ) _ = f B m N N M M N N N N N N N M M M l ; ) _ ) ( ) ) ) _ _ ) _ _ _ _ _ _ T * v N N N v N N l o %.%.",
"%.%.@ Y ' ) _ _ ) ) ) ; g B m N N M M m N N N v v v N n B h ; / ) ) _ _ _ _ _ ) _ _ _ _ _ / _ T * v N m M N m N l O %.%.",
"%.%.O Y ' ) _ _ ) ) ) = g N N m M M M N v v N N N N N m N g = ) _ ) ) _ ) _ _ _ _ ) _ _ _ _ _ T * v m N M M M N h o %.%.",
"%.%.# Y ' ) _ _ ) _ ) = g N m N N M M N N N m N m N m N B h - / ) ) _ _ _ _ _ ) _ _ _ _ _ _ ] T * v N m M N M B h o %.%.",
"%.%.O Y ' ) ) ) ) ) ) = g V m m M M m m n v N v N m N v M g ; / ) ) ) ) ) ) ) ) ) ) _ _ _ _ _ U = m m N m m m N h O %.%.",
"%.%.O E ] ' _ ' ' ' ( = h Z M N N N M N N N N N N M N M B h ; _ ' ' ) ' ' ' ) ' ' ' ' ' ' _ ' E = m M N N M M A l o %.%.",
"%.%.O J E E T Y T E T & p c g l c h h l c h h h h l h c c s * Y E T E E Y E E E Y E Y Y T T E J % h h l h c g c s o %.%.",
"%.%.. = ; - - - - - ; $ & * & = & = & = % $ * & % & & & & & $ = = = = = - = = $ - - - ; - - - - $ & = & & = * * & . %.%.",
"%.%.O R [ ( ` ` ( ` ( [ ` ` [ ( ` ` ~  .y 4 H V C V V C V Z C V V V V V V C l = ~ ` ( ` ` ` ` ` [ ` ` [ [ ` ` [ R + %.%.",
"%.%.@ T ' ' _ _ _ _ _ _ _ _ ' _ _ _ ) ..p 4 A m N M M N N m m N N N N N m B h ; _ ' _ _ _ _ _ ' _ _ _ _ _ _ _ ] T @ %.%.",
"%.%.@ Y ' ) ) _ ) ) _ _ _ ) ) _ _ ) / ..y 4 A m m N M m m N m N m m m M M V h = / _ ) ) _ ) ) _ _ _ _ ) _ ) _ _ Y + %.%.",
"%.%.@ Y _ ) ) ) ) ) ) / ) _ _ / _ ) / | p 4 A m m m N m N m m m N m m M m N g ; / _ / / ) _ _ / _ / ) ) ) ) ) _ Y O %.%.",
"%.%.# E } ] [ ' } ' ' ] ' ] ' ] ' ] _ X.p 4 F N Z N N N B N B N N N N B N B h ; ' ] ' ] ' ] ' ] ' ] } ' ' ] ] } E @ %.%.",
"%.%.O Z K J J J J J J J J J J J F F F T 0 , c s d d d d d d d d f d d d d g t * J J J J J J J J F F K F J J J K Z O %.%.",
"%.%.  X O o o o O o O o O o o o O O O O X . X X o X X o X o X X X X X X X X X . o o O o o o O o O O O O O o o O o   %.%.",
"%.%.%.%.%.%.%.%.%.%.%.%.%.%.%.%.%.%.%.%.%.%.%.%.%.%.%.%.%.%.%.%.%.%.%.%.%.%.%.%.%.%.%.%.%.%.%.%.%.%.%.%.%.%.%.%.%.%.%.%.",
"%.%.%.%.%.%.%.%.%.%.%.%.%.%.%.%.%.%.%.%.%.%.%.%.%.%.%.%.%.%.%.%.%.%.%.%.%.%.%.%.%.%.%.%.%.%.%.%.%.%.%.%.%.%.%.%.%.%.%.%."
};
