/* XPM */
static char *result[] = {
/* columns rows colors chars-per-pixel */
"64 64 91 1 ",
"  c #5D373D",
". c #5B383F",
"X c #7D2F37",
"o c #6E343B",
"O c #74353D",
"+ c #7C343C",
"@ c #413E43",
"# c #4D3C42",
"$ c #533C41",
"% c #5C3B42",
"& c #643A41",
"* c #733941",
"= c #7C3840",
"- c #44535C",
"; c #664F5A",
": c #744B56",
"> c #764D5A",
", c #615364",
"< c #8F2E37",
"1 c #822F38",
"2 c #8A2F38",
"3 c #912D36",
"4 c #9C2B35",
"5 c #83313A",
"6 c #8C343D",
"7 c #94343E",
"8 c #9D343F",
"9 c #B1222B",
"0 c #BD222D",
"q c #A22A34",
"w c #AD2934",
"e c #A52E39",
"r c #B42530",
"t c #BD2631",
"y c #B02A36",
"u c #BA2834",
"i c #B52E3A",
"p c #BE2C38",
"a c #A6323D",
"s c #AD323E",
"d c #B5323E",
"f c #BA313E",
"g c #C51E2A",
"h c #CC1D29",
"j c #C2232F",
"k c #CB212E",
"l c #C32431",
"z c #C92734",
"x c #C32A37",
"c c #CC2936",
"v c #C42F3C",
"b c #CC2D3B",
"n c #D62734",
"m c #D02937",
"M c #DB2937",
"N c #D62D3C",
"B c #D82E3D",
"V c #C2303E",
"C c #CB303E",
"Z c #D9303F",
"A c #E32837",
"S c #E22C3C",
"D c #853740",
"F c #8B3640",
"G c #903540",
"H c #9C3540",
"J c #B43646",
"K c #B73847",
"L c #B83847",
"P c #B43C4B",
"I c #B93949",
"U c #A63E52",
"Y c #C33E4F",
"T c #C53F50",
"R c #824854",
"E c #864B59",
"W c #BC4556",
"Q c #C64253",
"! c #5A8FB8",
"~ c #5694BF",
"^ c #5C90B9",
"/ c #6293BA",
"( c #6F9CBF",
") c #5F99C1",
"_ c #739EC1",
"` c #7FA7C6",
"' c #7CA8C7",
"] c #7BA9C8",
"[ c #81A7C6",
"{ c #83A8C6",
"} c None",
/* pixels */
"}}}}}}}}}}}}}}}}}}}}}}}}}}}}}}}}}}}}}}}}}}}}}}}}}}}}}}}}}}}}}}}}",
"}}}}}}l}}}}}}}}}}}}}}}}}}l}}}}}}}}}}}}}}}}}}}}}}}}}}}}}}}}}}}}}}",
"}}}}ljjljcBNBBBBABNNBB}jlljjcBNBBBBBBBBBB}ljljlmBBBBBBBBBBBB}}}}",
"}}}}ljljzBBBBBBBYNNBBBmkjljcBBNBBBBBBBBBBzjlljmZBBBBBBBBBBBB}}}}",
"}}}}llljmBBBBBBBBBBBBBcjljlBBBBBNBBBBBBNBclljzBNNBBBBBABBBBB}}}}",
"}}}}ljjlNBBBBBBBBBBNBBcjljlNBNBBNBBZBBBNBzjljzBNNBBBNBYNBNBB}}}}",
"}}}}lljjNBBBNNBBBBBBBBcjljlBBNBBZBZNNBBNBzjljzBNNBBBBBBNBNBB}}}}",
"}}}}ljjlNBMAYNBNBBBBBBcjjjzBBNBBBBNNNBBBBzjjjzBNNBBBBBNNBNBB}}}}",
"}}}}lljlNBNBBBBBBBBBNBzjljlNBNBBNBBNBBBNBzjklzBNBBBBBBBBBNBN}}}}",
"}}}}jjljmBNBBBBNNNNNNBmjjjlNBNBBNZBBNNNNBm0jllNBNBBBBNNNNBNN}}}}",
"}}}}tkjjlBBBBBNNNNBBBSejjljzBBBBBBBBNBBBBekll0cBBBBNBBBNBNBN}}}}",
"}}}}OtjjjlNNNBCBBBBBBa@6jlljlNCBBbBBBBBBF@4llllzNbNBNBBZBNN=}}}}",
"}}}}fbNbcNNvO%ellllcNfffbNNNNNf&&yllxlcbdffbmNbmNs%Oullllcbd}}}}",
"}}}}BBBBBBNSd5kjjjcZBBSBBBNNBNA83kjljmBBSBBBBBBBBB6qkjljmBBS}}}}",
"}}}}BNNNBNBNZljljlBBNNNNBNNNNBNBjjl0zZBNBBBNBBNBBBN0jjjmTAMB}}}}",
"}}}}BBBBBBNBZljljzZNBBNBBBBBBNBNlkljmBBBBBBBBBBBBBbljkjNBMAY}}}}",
"}}}}BBBBNBNBNljljcBBBBBBBNBBNNBNllllcBBNBBBBYBBBNBmjljlNNNNN}}}}",
"}}}}BBBBBBBBBljljcBNBBBBZBBBBBBNjjl0mBNBBBBBABBBNBNjjjlNBNBB}}}}",
"}}}}NBBBBBNBBzjljcBBBBBBNBBBBNBNljllNBBBBBBBMBBBBBN0ljjNBNBN}}}}",
"}}}}BBNBBBNBBljjlcBBBBBBBBBBBNBNljllcBBBBBBBBBBBNBN0ljjNBNBB}}}}",
"}}}}NBBBNBNNBzjjjjBBNBBNBNBNNBBCllllzBBBBBBBMBNBNBNjjljcBNBB}}}}",
"}}}}BBBBBBBSd1kkjjcBBBBBBNBBBBSH3hjjlcBBBBBBAYMBBSFqkjjjmBBB}}}}",
"}}}}dbmNNbNCo%ezzljcNuffbNbNNmdoo0llllcbdffNmmmmNs%oullxlmbd}}}}",
"}}}}Otlt0lNCNNCNBZNNNq-2jjjjlNNBBYBBBBBB7@4jlllcNbNBNBNNBBB=}}}}",
"}}}}tklllBBNZBBBBBBBBSajjjjzBBBBBNBBNNBBBekljjcBBBBBBMNBBBBN}}}}",
"}}}}jlj0NBNBNNBNNBNNNZmjkj0NBNBNBBBNNNNNBctljlNBBBBBBNNBBBBN}}}}",
"}}}}ll0lmBNBNNBBBBBNNZcjjjlBBNZNBBBNBBBNBz0ljzBBBBBBBBBBBNBN}}}}",
"}}}}llllBBBBBBBBBBBBNNbjjjlZBNBBBBBBBBBNBzljjzBNNBBBBBBMBBBB}}}}",
"}}}}lljkNBNBBBBBNBBNBBcjljlZBBBBBBNBBBBNBzlllzMNBBBBBBBMBBBB}}}}",
"}}}}ljjlNBNBBBBBBBBBNBcjjjlBBBBBBBBBNBBNBzlljcBNNBBNBNNYBBBB}}}}",
"}}}}ltjjNBNBBBBBBBBBBBm0ljzBBNBNBBBBBBBNBc0ljlNNMYBBBBBBNBBB}}}}",
"}}}}klljzBBNNCBBNNNNNBxkljjcBBBNBNNBNNNBBxklllNMNNNNBNNBNNBB}}}}",
"}}}}<gtljcBBSSBBBBBBMY$4kljlcBBSSBBBBBBMJ.wjjjjmBBASBBBBZBSH}}}}",
"}}}}Fpczczmv6FsccccccH58xczccmfFFimcccmb7D7zzczcNsD7pmcccmVF}}}}",
"}}}}SBBBBBBBF 0ljjlNNASBBBBBBBB=ojj0gxBBBSABBBBBZN&5j0jjcBBM}}}}",
"}}}}BBNNBBBBBtkljlNBBBBBNBNNBBBmtkljxBBBBBBNBNBBBBb0kljlBBNB}}}}",
"}}}}NNBBBBBNZzjljzBBBBBBBBBBBBBNltljcBBBBBBBBBBNBBmjll0NBNBB}}}}",
"}}}}BNBBBBNNZljjjcBBBBBBBBNBBNBNlgllmBNBNABBNBBBBBNjjjjNBNBB}}}}",
"}}}}BBBBBBNNBljllcBBBBNBBNBBBNMNljl0mBNBNYBBBBBBNBN0ljjNBBBB}}}}",
"}}}}BBBBBBNBBljjjcBBMMYBBBBBBBBNllllNBNBNBBNBBBBNBbjljlNBNBB}}}}",
"}}}}BBBBBBNBBljljcBBBBBBBBBBBNANjkl0nMBNBBBNBBBBBBNjjljNBNNB}}}}",
"}}}}BBBNNNNNBztljzBBBBNBNNNBNBYBljllnYBBNBBBNNNNBBmllljmBNBB}}}}",
"}}}}BBNBNBBBbqk0jjmBBBBBNNBBBNSprzljlmBBNBBNBBBBBSdrkljlNNNN}}}}",
"}}}}NNBNBBBN*#ykljlcNNBbBBNBNNb%%rgtllmBNBNNBNBBNf#ot0t0lNNN}}}}",
"}}}}OtxlllNvfJpNmbNcNG$5txllzNViivNNNmNbD$<lxzlzmVfdvmNNNmbO}}}}",
"}}}}qkjlkmBBBSBBYBBBBB=rk0llNBBBMBBBBBBMY+jjjjlNBBBSBBBBBBSJ}}}}",
"}}}}kjljcBNNBBBBAMBBBBmlljgNBNBBYBMMBNNNMmglkkNBBBBBNNNNBBBB}}}}",
"}}}}tljlNBBBBBBBBMBBBBzjlllNBNBBAMYABBBNNzjj0xBBBBBBBBBBBBBB}}}}",
"}}}}lljjNBNBBBBBBBBBNBcll0lBBBBBBBBABBBNBzjllzBNBBBBBBBNNNBN}}}}",
"}}}}jljlNBNBBBBBBBBBNBc0llxBBBBBBBBABBBNBzjllzBBNBBBBBBBZNBB}}}}",
"}}}}jlllNBNBBBBBBBBANBclljzNBBTMBBMYBBBNBzjl0zMBBBNBBBZBNNBB}}}}",
"}}}}lljlNNNBBBBBBBBABBcljklNMMAMBBMMYNBBBc0llzMABCBBBBBZZBBB}}}}",
"}}}}lll0mBNNBBBBYAMYAYbglllbYAYABBBBBBBBYmglllNYBBBBBNNNBBBB}}}}",
"}}}}9hggjnMMnNMNMMMMAMX0ggggnAMMNMMMNMMAn1gggggMNMMMMNMMMNAp}}}}",
"}}}},UJKLLYQQQQQQQTTTE-:PKLKLYTTQQQQQQTW>-RKLLLLYQQQQQQQQQW;}}}}",
"}^!^))'`[[````[[````''['][[[[[[[[`````{]]{]`[[[[[[[`[[````]]{[}}",
"}^!!^[[[[[[[[[[[[[[[[[[[[[`[[[[[[[[[[[[[[[[[[`[[[[[[[[[[[[[[[[[}",
"^!^!([[[[[[[[[[[[[[[[[[`[[[[[[[[[[[[[[[[`[[[[[[[[[[[[[[[[[[`[[[[",
"^!^!({[`[[[[[[[[`{`{[[[[[[[[[[{`[[[[[[[[{`{`[[[[[[[{[[[[[[[[[[[[",
"^!^!({`[[[[[[[[[{`{`[[[[[[[[[[`{[[[[[[[[`{`{[[[[[[[[[[[`[[[[[[[[",
"/^!!/{{[[[[[[[[[{`[{{[{[[[[[{[{[[{[[[[[[[{`[[{[[[[[[[[[{[[[[[[[[",
"}//^^/'`[[{[[[[{[{{[`{[[[[[[[[`{{[{[[[[[{[{[{`{{[[[{{[[[[{[[[[[}",
"}}}}}}}}}}}}}}}}}}}}}}}}}}}}}}}}}}}}}}}}}}}}}}}}}}}}}}}}}}}}}}}}",
"}}}}}}}}}}}}}}}}}}}}}}}}}}}}}}}}}}}}}}}}}}}}}}}}}}}}}}}}}}}}}}}}"
};
