/* XPM */
static char *result[] = {
/* columns rows colors chars-per-pixel */
"64 64 141 2 ",
"   c #000000",
".  c #000709",
"X  c #000A0D",
"o  c #000C11",
"O  c #020F18",
"+  c #00141C",
"@  c #001C1C",
"#  c #00201F",
"$  c #041521",
"%  c #011B26",
"&  c #001E28",
"*  c #2C143C",
"=  c #002422",
"-  c #002B27",
";  c #00202C",
":  c #002C2B",
">  c #00312C",
",  c #012635",
"<  c #002836",
"1  c #012A39",
"2  c #003732",
"3  c #003834",
"4  c #003E38",
"5  c #00403C",
"6  c #2B1D43",
"7  c #361748",
"8  c #3F1A52",
"9  c #003344",
"0  c #003648",
"q  c #003F56",
"w  c #2A2147",
"e  c #31214C",
"r  c #342654",
"t  c #372859",
"y  c #3E2A60",
"u  c #401A53",
"i  c #53226D",
"p  c #5A2575",
"a  c #522F79",
"s  c #50397F",
"d  c #523079",
"f  c #61277E",
"g  c #60297F",
"h  c #004B45",
"j  c #004E48",
"k  c #00524B",
"l  c #004056",
"z  c #00455D",
"x  c #005B53",
"c  c #005F58",
"v  c #006057",
"b  c #00645C",
"n  c #006A5F",
"m  c #004A64",
"M  c #006760",
"N  c #006B65",
"B  c #007067",
"V  c #00756E",
"C  c #00796D",
"Z  c #007E75",
"A  c #008275",
"S  c #00867C",
"D  c #008A7D",
"F  c #5A3484",
"G  c #523A82",
"H  c #593E8C",
"J  c #5D3F91",
"K  c #682B87",
"L  c #6A2B8A",
"P  c #622780",
"I  c #61388E",
"U  c #6F2D91",
"Y  c #702E92",
"T  c #693B97",
"R  c #7C319F",
"E  c #7D31A1",
"W  c #0E578D",
"Q  c #0E5B92",
"!  c #006588",
"~  c #00698E",
"^  c #006C93",
"/  c #00749D",
"(  c #007AA5",
")  c #007EAB",
"_  c #1574BD",
"`  c #59408E",
"'  c #5E4294",
"]  c #604397",
"[  c #65469E",
"{  c #6746A1",
"}  c #6748A2",
"|  c #6B49A7",
" . c #6C4AA8",
".. c #7B49B5",
"X. c #7A53BE",
"o. c #1576C2",
"O. c #1579C6",
"+. c #147FCC",
"@. c #7D56C4",
"#. c #7F59C7",
"$. c #8233A7",
"%. c #8335AA",
"&. c #8A39B4",
"*. c #814CBD",
"=. c #844DC1",
"-. c #8057C7",
";. c #8259CB",
":. c #875CD1",
">. c #885DD3",
",. c #008D82",
"<. c #009185",
"1. c #00968A",
"2. c #00998D",
"3. c #009E93",
"4. c #00A095",
"5. c #00A69A",
"6. c #00A99E",
"7. c #0082AF",
"8. c #0084B3",
"9. c #008ABB",
"0. c #00ADA1",
"q. c #00B2A6",
"w. c #00B6A9",
"e. c #008FC1",
"r. c #0095C9",
"t. c #0099CE",
"y. c #1484D3",
"u. c #0994D7",
"i. c #0999DE",
"p. c #00A5DF",
"a. c #099DE3",
"s. c #00A7E2",
"d. c #00ABE7",
"f. c #00ADEA",
"g. c #00B0EE",
"h. c #00B3F2",
"j. c #00B8F7",
"k. c #00B7F8",
"l. c #00BBFC",
"z. c #00C2FF",
"x. c None",
/* pixels */
"x.                                                                                  x.x.x.x.x.x.x.                            x.",
"                                                                                      x.x.x.x.x.x.                              ",
"    k ,.S S S S S S S S S S S S S S S S S S S S S S S S S S S S S S S S D B b n n =     .           y  .[ } } [ } { T K Y u     ",
"    ,.0.5.5.5.5.5.5.5.5.5.5.5.5.5.5.5.5.5.5.5.5.5.5.5.5.5.5.5.5.5.5.5.5.6.D Z C D h                  .;.@.-.-.-.-.-.*.$.&.Y     ",
"    S 5.3.3.3.3.3.3.3.3.3.3.3.3.3.3.3.3.3.3.3.3.3.3.3.3.3.3.3.3.3.3.3.3.4.S C C A h   , 9.7.8.( X   [ -.X.X.X.X.X.@...E %.L     ",
"    S 5.3.3.4.4.4.4.4.4.3.4.4.4.4.4.4.4.4.4.4.4.4.3.4.4.4.4.4.4.4.4.3.4.4.D C C A h   0 z.l.z.f.o   [ -.X.X.X.@.X.X...E %.L     ",
"    S 5.3.4.4.4.4.4.4.4.4.4.4.4.4.4.4.4.4.4.4.4.4.4.4.4.4.4.4.4.4.4.4.3.4.D C C A h   9 k.f.h.p.o   } -.X.X.X.X.X.X...E %.L     ",
"    S 5.3.3.4.4.4.4.4.4.4.4.4.4.4.4.4.4.4.4.4.4.4.4.4.4.4.4.4.4.4.4.4.4.4.A C C A h   9 l.g.k.s.o   } -.X.X.X.X.X.@...$.%.L     ",
"    S 5.3.3.3.3.3.3.3.3.3.3.3.3.3.3.3.3.3.3.3.3.3.3.3.3.3.3.3.3.3.3.3.3.3.S C C A h   9 l.f.k.s.o   [ @.X.X.X.X.X.X...R %.L     ",
"    ,.q.5.6.6.6.6.6.6.0.6.6.6.6.6.6.6.6.6.6.6.6.6.6.6.6.6.6.6.6.6.6.6.6.0.,.Z A D h   9 l.g.k.s.o   | :.-.;.;.;.-.;.=.%.&.U     ",
"    3 N N N N N N N N N N N N N N N N N N N N N N N N N N N N N N N N N N x k k k @   m l.h.h.h.;   w H s G F G s G d i p *     ",
"x.                                                                                  o t.k.h.g.l./                             x.",
"x.x.    & 1 < < , < < , < < < < < < < < < < < , < < < < , 1 , < < < < < < < < < < l t.k.h.h.h.g.l.) 9 < , , , , , & ; $     x.x.",
"x.x.    8.z.k.k.k.k.k.k.k.k.k.k.k.k.k.k.k.k.k.k.k.k.k.k.k.k.k.k.k.k.k.k.k.k.k.k.k.z.k.h.h.h.h.h.h.k.l.k.k.k.k.l.a.+.y.Q     x.x.",
"x.x.    8.l.f.g.h.g.h.h.h.g.h.g.g.h.h.g.h.g.g.h.h.g.h.g.f.h.h.g.h.h.g.g.g.h.g.g.h.f.f.f.h.g.h.g.h.f.g.h.h.h.g.h.i.o.y.Q     x.x.",
"x.x.    8.l.h.h.k.h.h.h.h.h.g.h.h.g.h.h.h.g.h.h.h.h.k.h.h.h.k.k.h.h.h.k.h.h.h.k.h.k.k.k.h.k.h.k.k.h.k.h.h.h.h.k.i.o.y.Q     x.x.",
"x.x.    7.j.d.f.f.f.f.f.f.h.l.h.h.h.h.h.g.l.k.g.f.f.f.f.f.f.f.f.f.f.f.f.f.f.f.f.f.f.f.f.f.f.f.f.f.f.f.f.f.f.f.g.u._ +.W     x.x.",
"x.x.    O + + + + + + + + & ^ k.h.h.h.h.l.8.< + + + + + + + + + + + + + + + + $ + + + + + + + $ + + + + + + + + O O O o     x.x.",
"x.                            ! l.g.g.l.e.                                                                                    x.",
"    t [ ' ] ] ] ] ] I g L 7   & g.h.g.l.m   : A Z Z Z Z Z Z Z Z Z Z Z Z Z Z Z Z Z Z Z Z Z Z Z Z Z Z Z Z Z Z Z Z A B c v b 3     ",
"     .;.#.@.-.-.#.#.*.%.&.U . o s.k.g.l.9   n q.5.5.5.5.6.5.6.5.5.6.5.5.5.5.5.6.5.6.5.5.5.5.5.6.5.5.6.5.5.6.6.5.6.2.A C S N     ",
"    } @.X.X.X.X.X.X...E $.L   X s.k.g.l.9   b 6.3.3.3.3.3.3.3.3.3.3.3.3.3.3.3.3.3.3.3.3.3.3.3.3.3.3.3.3.3.3.3.3.4.,.C C C n     ",
"    } -.X.X.X.X.X.@...E %.L   o s.k.f.l.9   b 6.3.4.4.3.4.4.4.4.5.3.5.3.5.3.5.3.5.3.5.3.5.3.5.3.5.4.4.4.4.4.4.3.4.<.C C Z n     ",
"    } @.X.X.X.@.X.@...E %.L   o s.k.h.l.9   c 0.3.4.4.4.4.4.3.3.3.3.5.3.3.3.3.3.3.3.5.3.3.3.3.3.3.3.4.4.4.4.4.3.5.<.C C Z n     ",
"    } -.X.X.X.X.X.X...$.%.L   X s.h.f.l.9   b 0.3.3.3.5.4.3.4.5.3.3.3.3.5.3.3.3.4.4.4.4.4.4.3.5.4.4.4.4.4.4.3.3.4.<.C C C n     ",
"    [ @.X.X.X.X.X.X...R %.L   o s.k.g.l.9   v 5.3.3.3.3.3.3.3.3.3.3.3.3.3.3.3.3.3.3.3.3.3.3.3.3.3.3.3.3.3.3.3.3.4.<.C C C n     ",
"    | :.-.-.;.;.;.;.*.$.&.Y   O s.k.f.l.9   n q.5.0.5.5.5.6.6.6.0.5.0.5.5.0.0.0.5.6.6.6.6.5.0.5.6.6.5.6.6.6.6.6.6.1.Z Z D N     ",
"    7 J H H H H H ` F p g 7   & f.h.h.l.m   - Z V V V V V V V V V V V V V V V V V V V C V V V V V V V V V V V V C N x x x >     ",
"x.                            ^ l.h.h.k.r..                                                                                   x.",
"x.x.    + ; & % & & & & & , / k.h.h.h.f.l.e.9 & & & & % & & & & & & & & & & & & % ; ; % & & & & & & & & & % & ; % $ $ +     x.x.",
"x.x.    8.l.h.h.h.h.h.h.h.k.l.g.h.h.h.h.g.k.l.h.h.h.h.h.h.h.h.h.h.h.h.h.h.h.k.h.h.h.h.h.h.h.h.h.h.h.h.h.h.h.h.j.i.o.y.Q     x.x.",
"x.x.  . 8.l.g.h.h.h.h.g.h.g.h.h.h.g.h.h.h.g.g.h.h.h.h.h.h.h.h.g.h.h.h.h.h.h.f.h.h.h.h.h.h.h.h.h.h.h.h.h.h.h.g.h.i.o.y.Q     x.x.",
"x.x.    8.l.f.h.g.h.h.h.h.h.h.h.h.h.h.h.h.h.h.h.g.h.h.h.h.h.g.h.h.g.h.h.h.g.h.h.h.g.h.h.h.h.h.h.h.g.g.h.g.h.h.k.i._ y.Q     x.x.",
"x.x.    8.l.h.h.h.h.h.h.h.h.h.h.h.h.h.h.h.h.h.h.h.h.h.h.h.h.h.k.h.h.h.h.h.h.h.h.h.l.k.g.h.h.h.h.g.l.k.h.h.k.g.k.i.o.y.Q     x.x.",
"x.x.    + & & & & & & & & & & & & & & & & & & & & & & & & & & & & & & & ; & % & & 9 e.l.g.h.h.h.l./ < & & & & & $ $ $ O     x.x.",
"x.                                                                                  X e.k.g.g.l.^                             x.",
"    h V V V V V V V V V V V V V V V V V V V V V V V V V V V V V V V V C V v x x x #   m l.f.k.f.&   r ' H H H H H H F p f 7     ",
"    ,.0.5.6.5.0.6.6.6.5.0.5.5.0.6.6.5.6.5.0.5.0.6.6.6.5.5.5.0.5.5.6.5.6.6.<.C Z D j   9 l.f.k.s.o   | :.@.@.-.-.;.;.=.%.&.Y     ",
"    S 5.3.3.3.3.3.3.3.3.3.3.3.3.3.3.3.3.3.3.3.3.3.3.3.3.3.3.3.3.3.3.2.4.4.S C C A h   9 l.h.k.s.o   [ @.X.X.X.X.X.X...E %.L     ",
"    S 5.3.4.3.3.5.4.3.4.3.5.3.3.4.4.4.4.4.4.4.4.3.3.5.3.5.3.3.5.4.4.4.4.4.D C C A h   9 l.g.k.s.o   } -.X.X.X.X.X.X...E %.L     ",
"    S 5.3.4.4.4.3.5.3.3.3.3.3.5.4.4.4.4.4.4.4.4.3.3.5.3.5.3.3.3.4.4.3.4.4.D C C A h   9 l.f.k.s.o   [ -.X.X.@.X.X.@...E %.L     ",
"    S 5.3.3.4.4.3.5.3.5.3.5.3.5.4.4.4.4.4.4.3.4.5.3.3.3.3.3.3.5.4.4.4.3.4.D C C A h   9 l.h.k.s.X   [ -.X.X.X.X.X.X...E %.L     ",
"    S 5.3.3.3.3.3.3.3.3.3.3.3.3.3.3.3.3.3.3.3.3.3.3.3.3.3.3.3.3.3.3.3.3.4.S C C A h   9 l.f.k.s.o   } -.X.X.X.X.X.X...R %.L     ",
"    ,.0.5.6.5.5.5.5.6.5.5.5.5.5.5.6.5.6.6.5.5.6.5.5.0.5.0.5.5.5.5.6.5.5.6.,.C A D h   9 l.f.k.s.o    .;.-.-.-.-.-.;.*.%.&.Y     ",
"    h S Z Z Z Z Z Z Z Z Z Z Z Z Z Z Z Z Z Z Z Z Z Z Z Z Z Z Z Z Z Z Z Z Z N c v b =   m z.g.h.g.%   t [ ] ] ] ] ] ] I f K 7     ",
"x.                                                                                    9.l.g.g.l.!                             x.",
"x.x.    O + + + + + + + $ + + + + + + + + + + + + + + + + + + + + + + + + + + + + < 8.l.g.h.h.h.k.~ & + + + + + + O O X     x.x.",
"x.x.    ) k.d.f.f.f.f.f.f.f.f.f.f.f.f.f.f.f.f.f.f.f.f.f.f.f.f.f.f.f.f.f.f.f.f.f.f.k.l.h.h.h.h.h.h.l.k.f.f.f.d.f.u._ y.W     x.x.",
"x.x.    8.l.h.h.h.h.h.h.h.h.k.h.h.k.h.k.h.h.k.h.h.h.h.k.h.h.k.h.h.h.h.h.k.h.h.h.h.g.g.h.h.h.h.h.h.g.h.h.h.h.h.j.i.O.y.Q     x.x.",
"x.x.    8.l.f.h.h.h.h.h.h.g.f.h.h.h.h.g.k.f.f.h.h.g.g.g.g.h.g.g.h.h.h.g.g.g.h.h.h.h.g.h.g.g.g.h.g.h.h.g.h.h.h.h.i._ y.Q     x.x.",
"x.x.    8.z.k.k.k.k.k.k.k.l.l.h.h.h.h.h.f.k.l.k.k.k.k.k.k.k.k.k.k.k.k.k.k.k.k.k.k.k.k.k.k.k.k.k.k.k.j.k.k.k.k.k.a.O.y.Q     x.x.",
"x.x.    % 1 , , , , < , , 9 ) l.h.h.h.h.l.t.q < < < < < < < < < < < < < < < < < < < 1 , , , 1 , < < < < < < < < , % ; $     x.x.",
"x.                            / l.f.h.k.t.O                                                                                   x.",
"    6 G G G G G G G d i p *   ; h.h.g.l.m   = N N N N N N N N N N N N N N N N N N N N N N N N N N N N N N N N N N v k j x :     ",
"     .:.;.-.;.-.;.;.=.%.&.U   O s.k.f.l.0   b w.5.6.6.6.6.6.6.6.6.6.6.6.6.6.6.6.6.6.6.6.6.6.6.6.6.6.6.6.6.6.6.6.0.2.A A D N     ",
"    } @.X.X.X.X.X.X...R %.L   X s.k.h.l.9   c 5.3.3.3.3.3.3.3.3.3.3.3.3.3.3.3.3.3.3.3.4.3.3.3.3.3.3.3.3.3.3.3.3.4.<.C C C b     ",
"    [ -.X.X.X.X.X.X...E %.L . X s.k.g.l.9   b 0.3.4.4.4.4.4.4.4.4.4.4.4.4.4.4.4.4.4.4.4.4.4.4.4.4.4.4.4.4.4.4.4.4.<.C C A n     ",
"    } -.X.X.@.X.X.@...E %.U . X s.h.f.k.9   b 6.3.4.4.4.4.4.4.4.4.4.4.4.4.4.4.4.4.4.4.4.4.4.4.4.4.4.4.4.4.4.4.3.5.<.C C Z b     ",
"    [ -.X.X.X.X.X.X...E %.L   X g.z.l.z.9   b 0.3.3.4.4.4.4.3.4.4.4.4.4.4.4.4.4.4.4.4.3.4.4.4.4.4.4.4.4.4.4.3.4.4.<.C C Z n     ",
"    [ @.X.X.X.X.X.X...E %.L   . ( 8.7.9.<   v 6.3.3.3.3.3.3.3.3.3.3.3.3.3.3.3.3.3.3.3.3.3.3.3.3.3.3.3.3.3.3.3.3.4.<.C C Z b     ",
"     .;.-.-.-.-.@.#.*.$.&.U                 b q.5.5.5.5.5.5.5.5.5.5.5.5.5.5.5.5.5.5.5.5.5.5.5.5.5.5.5.5.5.5.5.5.6.1.C Z A n     ",
"    i  .[ } [ } [ } T L U 8             .   : ,.A ,.S S S S S S S S S S S S S S S S S S S S S S S S S S S S S S D C b n n 5     ",
"    .                         x.x.x.x.x.x.                                                                                      ",
"x.                            x.x.x.x.x.x.x.                                                                                  x."
};
