/* XPM */
static char *result[] = {
/* columns rows colors chars-per-pixel */
"60 60 65 1 ",
"  c #020200",
". c #0C0B03",
"X c #3F3815",
"o c #40370E",
"O c #4E4210",
"+ c #594D1A",
"@ c #6A5E1E",
"# c #7E6E28",
"$ c #B59100",
"% c #BA9500",
"& c #BE9800",
"* c #9B8522",
"= c #A28B25",
"- c #B0982F",
"; c #BCA02D",
": c #C39C00",
"> c #C89F00",
", c #CBA200",
"< c #D1A700",
"1 c #D4A900",
"2 c #DAAE00",
"3 c #DDB100",
"4 c #E3B500",
"5 c #E7B900",
"6 c #ECBC00",
"7 c #F0BF00",
"8 c #C6AA26",
"9 c #F3C300",
"0 c #F8C600",
"q c #FDCB02",
"w c #FECE0B",
"e c #FFD10C",
"r c #FECF11",
"t c #FFD015",
"y c #FFD11C",
"u c #E0C02D",
"i c #FFD324",
"p c #FFD52C",
"a c #FFDC2D",
"s c #FFD633",
"d c #FFDF31",
"f c #FFD739",
"g c #FFD83D",
"h c #FFE436",
"j c #FFE23C",
"k c #C7AF46",
"l c #D2B745",
"z c #FBD743",
"x c #FFDA44",
"c c #FFDB4B",
"v c #ECD455",
"b c #FFDC53",
"n c #FFDE5B",
"m c #FEE548",
"M c #FFE450",
"N c #FEEA51",
"B c #FEE25C",
"V c #FFEC5A",
"C c #FEDF62",
"Z c #FFE064",
"A c #FFE962",
"S c #FFE16B",
"D c #FFE373",
"F c #FFE57A",
"G c None",
/* pixels */
"GGGGGGGGGGGGGGGGGGGGGGGGGGGGGGGGGGGGGGGGGGGGGGGGGGGGGGGGGGGG",
"GGGGGGGGGGGGGGGGGGGGGGGGGGGGGGGGGGGGGGGGGGGGGGGGGGGGGGGGGGGG",
"GGGGGGGGGGGGGGGGGGGGGGGGGGGGGGGGGGGGGGGGGGGGGGGGGGGGGGGGGGGG",
"GGGGGGGGGGGGGGGGGGGGGGGGGGGGGGGGGGGGGGGGGGGGGGGGGGGGGGGGGGGG",
"GGGGGGGGGGGGGGGGGGGGGGGGGGGGGGGGGGGGGGGGGGGGGGGGGGGGGGGGGGGG",
"GGGGGGGGGGGGGGGGGGGGGGGGGGGGGGGGGGGGGGGGGGGGGGGGGGGGGGGGGGGG",
"GGGGGGGGGGGGGGGGGGGGGGGGGGGGGGGGGGGGGGGGGGGGGGGGGGGGGGGGGGGG",
"GGGGGGGGGGGGGGGGGGGGGGGGGGGGGGGGGGGGGGGGGGGGGGGGGGGGGGGGGGGG",
"GGGGGGGGGGGGGGGGGGGGGGGGGGGGGGGGGGGGGGGGGGGGGGGGGGGGGGGGGGGG",
"GGGGGGGGGGGGGGGGGGGGGGGGGGGGGGGGGGGGGGGGGGGGGGGGGGGGGGGGGGGG",
"GGGGGGGGGGGGGGGGGGGGGGGGGGGGGGGGGGGGGGGGGGGGGGGGGGGGGGGGGGGG",
"GGGGGGGGGGGGGGGGGGGGGGyiyyyGGGGGGGGGGGGGGGGGGGGGGGGGGGGGGGGG",
"GGGGGGGGGGGGGGGGGGiiiiiiiyyyytrGGGGGGGGGGGGGGGGGGGGGGGGGGGGG",
"GGGGGGGGGGGGGGGGiippppsppppiyytwwGGGGGGGGGGGGGGGGGGGGGGGGGGG",
"GGGGGGGGGGGGGGiippsssffsssppiiyywwwGGGGGGGGGGGGGGGGGGGGGGGGG",
"GGGGGGGGGGGGGiipssffggggffsppiiytwwqGGGGGGGGGGGGGGGGGGGGGGGG",
"GGGGGGGGGGGGyppssggxxxxxxgfhhaiittw0qGGGGGGGGGGGGGGGGGGGGGGG",
"GGGGGGGGGGGiipsfgxxcccbcccm-*uaiitrww0GGGGGGGGGGGGGGGGGGGGGG",
"GGGGGGGGGGyipssgxccbbnbbcM@  .8aiyrwwq0GGGGGGGGGGGGGGGGGGGGG",
"GGGGGGGGGtyipsgxxcbnnnnnBl    Odiyyrqq09GGGGGGGGGGGGGGGGGGGG",
"GGGGGGGGryiissxxcbnnZZCCAk  . Xapitreq09GGGGGGGGGGGGGGGGGGGG",
"GGGGGGGGtyipsfxxcnnCSSSSCBX   =hpiyrwwGGGGGGGGGGGGGGGGGGGGGG",
"GGGGGGGwtyipsgxcbnCSDDDDSZv#+-gspiytwGGGGGGGGGGGGGGGGGGGGGGG",
"GGGGGGGwtiipsgccbBCDDFFDSZBVNmgspiyGGGGGGGGGGGGGGGGGGGGGGGGG",
"GGGGGGGwtyipsgxcbnZSDFFDSZnbczgspiGGGGGGGGGGGGGGGGGGGGGGGGGG",
"GGGGGGwwtyipsgxcbnCSSDDDSCnbczgsGGGGGGGGGGGGGGGGGGGGGGGGGGGG",
"GGGGGGwwtyipsfxxcnnZZSSZZBncxxGGGGGGGGGGGGGGGGGGGGGGGGGGGGGG",
"GGGGGGqwryiipggxcbnnZZZCnbbcxGGGGGGGGGGGGGGGGGGGGGGGGGGGGGGG",
"GGGGGGqwwyyipsggxcbnbnnnbbcGGGGGGGGSBi0GGGGGZby9GGGGGZcr7GGG",
"GGGGGGqqwtyippsgxxccbbbbbcGGGGGGGGGZnp9GGGGGZby6GGGGbZct5GGG",
"GGGGGG0qwwtyippggxcccccccGGGGGGGGGGspe4&GGGispe3GGGGpsiq<GGG",
"GGGGGG0qwetyiipssgggxxxxxggGGGGGGGG004:GGGGG093&GGGGG992%GGG",
"GGGGGG90qwttyyippsgfgggggsssGGGGGGGG1&GGGGGGG,&GGGGGGG,%GGGG",
"GGGGGG60qqwwtyiipppsssssspppiyGGGGGGGGGGGGGGGGGGGGGGGGGGGGGG",
"GGGGGG670qqertyyiipippppppiiyytGGGGGGGGGGGGGGGGGGGGGGGGGGGGG",
"GGGGGG5690qqwwttyyyiiiiiiyyyyrwwwGGGGGGGGGGGGGGGGGGGGGGGGGGG",
"GGGGGGG5690qqwwwttyyyyyyytttrwwqq09GGGGGGGGGGGGGGGGGGGGGGGGG",
"GGGGGGG45690qqwwwerttttttrewwwqq0965GGGGGGGGGGGGGGGGGGGGGGGG",
"GGGGGGGG456700qqqweewwwwwwwqqq00765421GGGGGGGGGGGGGGGGGGGGGG",
"GGGGGGGG2356690qqqqqqqwqqqqq009765321<,GGGGGGGGGGGGGGGGGGGGG",
"GGGGGGGGG23456699000q0qq000996655321,>:&GGGGGGGGGGGGGGGGGGGG",
"GGGGGGGGG12344566999909999966543211,,:&%GGGGGGGGGGGGGGGGGGGG",
"GGGGGGGGGG<1234455666666565543321<,>:%$GGGGGGGGGGGGGGGGGGGGG",
"GGGGGGGGGGG,,122333344444333322,,,>&&$GGGGGGGGGGGGGGGGGGGGGG",
"GGGGGGGGGGGG,,,2222223233221<<,,>:&$$GGGGGGGGGGGGGGGGGGGGGGG",
"GGGGGGGGGGGGG>>,,,,1<<1<<<,,,>>:&%$$GGGGGGGGGGGGGGGGGGGGGGGG",
"GGGGGGGGGGGGGGG::,,,,,,,,,,:>&&%$$GGGGGGGGGGGGGGGGGGGGGGGGGG",
"GGGGGGGGGGGGGGGGG&&&:&::&&&%%$$$GGGGGGGGGGGGGGGGGGGGGGGGGGGG",
"GGGGGGGGGGGGGGGGGGGG%%%%%$$$$GGGGGGGGGGGGGGGGGGGGGGGGGGGGGGG",
"GGGGGGGGGGGGGGGGGGGGGGGGGGGGGGGGGGGGGGGGGGGGGGGGGGGGGGGGGGGG",
"GGGGGGGGGGGGGGGGGGGGGGGGGGGGGGGGGGGGGGGGGGGGGGGGGGGGGGGGGGGG",
"GGGGGGGGGGGGGGGGGGGGGGGGGGGGGGGGGGGGGGGGGGGGGGGGGGGGGGGGGGGG",
"GGGGGGGGGGGGGGGGGGGGGGGGGGGGGGGGGGGGGGGGGGGGGGGGGGGGGGGGGGGG",
"GGGGGGGGGGGGGGGGGGGGGGGGGGGGGGGGGGGGGGGGGGGGGGGGGGGGGGGGGGGG",
"GGGGGGGGGGGGGGGGGGGGGGGGGGGGGGGGGGGGGGGGGGGGGGGGGGGGGGGGGGGG",
"GGGGGGGGGGGGGGGGGGGGGGGGGGGGGGGGGGGGGGGGGGGGGGGGGGGGGGGGGGGG",
"GGGGGGGGGGGGGGGGGGGGGGGGGGGGGGGGGGGGGGGGGGGGGGGGGGGGGGGGGGGG",
"GGGGGGGGGGGGGGGGGGGGGGGGGGGGGGGGGGGGGGGGGGGGGGGGGGGGGGGGGGGG",
"GGGGGGGGGGGGGGGGGGGGGGGGGGGGGGGGGGGGGGGGGGGGGGGGGGGGGGGGGGGG",
"GGGGGGGGGGGGGGGGGGGGGGGGGGGGGGGGGGGGGGGGGGGGGGGGGGGGGGGGGGGG"
};
