/* XPM */
static char *result[] = {
/* columns rows colors chars-per-pixel */
"60 60 2 1 ",
"  c black",
". c None",
/* pixels */
"........                                            ........",
"........                                            ........",
"........                                            ........",
".......    ......................................    .......",
".......    ......................................    .......",
".......    ......................................    .......",
".......    ..                                  ..    .......",
".......    ..                                  ..    .......",
".......    ..                                  ..    .......",
".......    ..                                  ..    .......",
".......    ..                                  ..    .......",
".......    ..                                  ..    .......",
".......    ..                                  ..    .......",
".......    ..                                  ..    .......",
".......    ..                                  ..    .......",
".......    ..                                  ..    .......",
".......    ..                                  ..    .......",
".......    ..                                  ..    .......",
".......    ..                                  ..    .......",
".......    ..                                  ..    .......",
".......    ..                                  ..    .......",
".......    ..                                  ..    .......",
".......    ..                                  ..    .......",
".......    ..                                  ..    .......",
".......    ..                                  ..    .......",
".......    ..                                  ..    .......",
".......    ..                                  ..    .......",
".......    ..                                  ..    .......",
".......    ..                                  ..    .......",
".......    ..                                  ..    .......",
".......    ..     ..                           ..    .......",
".......    ..    ....                          ..    .......",
".......    ..    ....                          ..    .......",
".......    ..    ....                          ..    .......",
".......    ..    ....                          ..    .......",
".......    ..                                  ..    .......",
".......    ..                                  ..    .......",
".......    ..                                  ..    .......",
".......    ..                                  ..    .......",
".......    ..                                  ..    .......",
".......    ..                                  ..    .......",
".......    ..                                  ..    .......",
".......    ..                                  ..    .......",
".......    ..                                  ..    .......",
".......    ..                                  ..    .......",
".......    ..                                  ..    .......",
".......    ..                                  ..    .......",
".......    ..                                  ..    .......",
".......    ..                                  ..    .......",
".......    ..                                  ..    .......",
".......    ..                                  ..    .......",
".......    ..                                  ..    .......",
".......    ..                                  ..    .......",
".......    ..                                  ..    .......",
".......    ..                                  ..    .......",
".......    ..                                  ..    .......",
".......    ..                                  ..    .......",
"........   ..                                  ..   ........",
"........   ......................................   ........",
"........  ........................................  ........"
};
