/* XPM */
static char *result[] = {
/* columns rows colors chars-per-pixel */
"64 64 253 2 ",
"   c #0A130F",
".  c #0B1919",
"X  c #161618",
"o  c #0F0C0B",
"O  c #2A0B01",
"+  c #350D02",
"@  c #2C1102",
"#  c #3C1401",
"$  c #361604",
"%  c #311D18",
"&  c #382317",
"*  c #0F1C22",
"=  c #182625",
"-  c #192E33",
";  c #252829",
":  c #252E33",
">  c #2A3434",
",  c #273537",
"<  c #323333",
"1  c #353739",
"2  c #32372D",
"3  c #1B261F",
"4  c #461803",
"5  c #4F1506",
"6  c #671E01",
"7  c #711E02",
"8  c #512A17",
"9  c #6C2200",
"0  c #6B2808",
"q  c #742504",
"w  c #752A05",
"e  c #7B2A06",
"r  c #762B09",
"t  c #7C2C0B",
"y  c #7B2605",
"u  c #7B330E",
"i  c #77330D",
"p  c #782C14",
"a  c #7B3517",
"s  c #683215",
"d  c #52382B",
"f  c #723A25",
"g  c #38453D",
"h  c #534436",
"j  c #714B35",
"k  c #2B3E43",
"l  c #433A40",
"z  c #294748",
"x  c #324D50",
"c  c #3B706F",
"v  c #2F615F",
"b  c #47585A",
"n  c #4D5052",
"m  c #6C6C5E",
"M  c #4C5E63",
"N  c #655962",
"B  c #467878",
"V  c #577777",
"C  c #53686C",
"Z  c #6D7271",
"A  c #575950",
"S  c #822D0B",
"D  c #822805",
"F  c #84350D",
"G  c #8B3415",
"H  c #843C14",
"J  c #8B3B15",
"K  c #863818",
"L  c #923817",
"P  c #8A2E11",
"I  c #873C27",
"U  c #89421A",
"Y  c #95431B",
"T  c #A6481D",
"R  c #A84D1B",
"E  c #87432A",
"W  c #9C4C2D",
"Q  c #974827",
"!  c #9C532B",
"~  c #9A5736",
"^  c #994D30",
"/  c #A74B24",
"(  c #A6542B",
")  c #BB5A2E",
"_  c #A45533",
"`  c #AD5D3B",
"'  c #A75935",
"]  c #BD5C31",
"[  c #B25D39",
"{  c #AA4E2B",
"}  c #AC613B",
"|  c #BD6436",
" . c #B4623D",
".. c #BC643C",
"X. c #BA683C",
"o. c #9A613B",
"O. c #C25D34",
"+. c #C85C2E",
"@. c #C9612E",
"#. c #C36335",
"$. c #C3643B",
"%. c #CA663B",
"&. c #C5693C",
"*. c #CC6A3C",
"=. c #CA6435",
"-. c #D46D3D",
";. c #D66C38",
":. c #D7723B",
">. c #CD7238",
",. c #8D5C46",
"<. c #AB5C41",
"1. c #B45E41",
"2. c #8E634D",
"3. c #A96344",
"4. c #B46442",
"5. c #BB6643",
"6. c #B56945",
"7. c #BC6945",
"8. c #BC6648",
"9. c #B56B4A",
"0. c #BC6A49",
"q. c #B66649",
"w. c #BA7755",
"e. c #BC714B",
"r. c #83766C",
"t. c #C26542",
"y. c #C46B45",
"u. c #CB6D44",
"i. c #C46B4A",
"p. c #CB6D4A",
"a. c #C46647",
"s. c #D36D44",
"d. c #D56E4A",
"f. c #CB7145",
"g. c #CC714A",
"h. c #C47149",
"j. c #D47145",
"k. c #DC7A45",
"l. c #D3734A",
"z. c #DD7B4B",
"x. c #D97847",
"c. c #CA7855",
"v. c #D57953",
"b. c #C26E50",
"n. c #E37A44",
"m. c #E37C4C",
"M. c #E87C4B",
"N. c #EB7D52",
"B. c #71837A",
"V. c #52887F",
"C. c #D98456",
"Z. c #D7814D",
"A. c #EC824D",
"S. c #E7824C",
"D. c #F2844E",
"F. c #F58349",
"G. c #EC8351",
"H. c #E68554",
"J. c #F38654",
"K. c #C68666",
"L. c #D6936D",
"P. c #E89467",
"I. c #587D83",
"U. c #427D80",
"Y. c #677D84",
"T. c #747682",
"R. c #837F80",
"E. c #368B8A",
"W. c #36928D",
"Q. c #398E90",
"!. c #3A9694",
"~. c #2F8F8A",
"^. c #38ABA9",
"/. c #399FA0",
"(. c #458887",
"). c #548689",
"_. c #479898",
"`. c #5C949C",
"'. c #599899",
"]. c #508E92",
"[. c #6C8C9A",
"{. c #678C95",
"}. c #728B97",
"|. c #65939C",
" X c #6C939C",
".X c #699697",
"XX c #74959B",
"oX c #6C8B8A",
"OX c #5A99A4",
"+X c #5E95AA",
"@X c #6B8CA2",
"#X c #6799A4",
"$X c #7499A4",
"%X c #6D94AE",
"&X c #48A5A8",
"*X c #59A6AA",
"=X c #58AAB4",
"-X c #48BBB8",
";X c #58B7B9",
":X c #4CB0AB",
">X c #66A4AA",
",X c #63ADB4",
"<X c #65B5B8",
"1X c #71AEB2",
"2X c #47A095",
"3X c #3BC4B9",
"4X c #46C1B9",
"5X c #5BC5BC",
"6X c #63C6BA",
"7X c #4ABDC3",
"8X c #59BCC2",
"9X c #5AAEC0",
"0X c #67BAC6",
"qX c #6EB3C4",
"wX c #3CC1C4",
"eX c #59C7C8",
"rX c #5BD8D6",
"tX c #4BC8C8",
"yX c #66C6C9",
"uX c #68CBD4",
"iX c #67D6D8",
"pX c #6FD2D4",
"aX c #58E2D7",
"sX c #64E4DC",
"dX c #67DCE4",
"fX c #71D9E2",
"gX c #5BEAE7",
"hX c #5DF6F2",
"jX c #66E7E8",
"kX c #67E8F1",
"lX c #65F7F7",
"zX c #73EFED",
"xX c #3DBBC5",
"cX c #8E898A",
"vX c #8A8888",
"bX c #918889",
"nX c #969997",
"mX c #8D9CA4",
"MX c #9CA6A3",
"NX c #A9A7A6",
"BX c #B5B2B2",
"VX c #AFAEB0",
"CX c #ACA19F",
"ZX c #C8B4AE",
"AX c #C9C8C9",
"SX c #D9C8C5",
"DX c #CBD1CD",
"FX c #FEFFFF",
"GX c #F1F1F3",
"HX c #E9E9EA",
"JX c #DDDEE0",
"KX c #ADD7D5",
"LX c None",
/* pixels */
"LXLXLXLXLXLXLXLXLXLXLXLXLXLXLXLXLXLXLXLXLXLXLXFXFXDX1 1 k < 1 1 1 1 1 > X LXLXLXLXLXLXLXLXLXLXLXLXLXLXLXLXLXLXLXLXLXLXLXLXLXLXLX",
"LXLXLXLXLXLXLXLXLXLXLXLXLXLXLXLXLXLXLXLXFXNXm N N C Q.^.&X/./././././.^._.I.N n 2 C LXLXLXLXLXLXLXLXLXLXLXLXLXLXLXLXLXLXLXLXLXLX",
"LXLXLXLXLXLXLXLXLXLXLXLXLXLXLXLXLXFXVXn n B _.!.!.:XzXgXeXyXyXyXuXyX8XrXlXtX!._._.).n X LXLXLXLXLXLXLXLXLXLXLXLXLXLXLXLXLXLXLXLX",
"LXLXLXLXLXLXLXLXLXLXLXLXLXLXFXAXZ Z V ]._.=XpXpXuXuX8X8X<X{.oX}.{.[.<XeXeXyXyXyXyX8X_._.).n LXLXLXLXLXLXLXLXLXLXLXLXLXLXLXLXLXLX",
"LXLXLXLXLXLXLXLXLXLXLXLXLXN N M 2X!.tXlXiX*X{.}.{.@XOXiXjX*X$X$XXXOXpXzX*X[.[.`.{.>XeXlXrX2X2XB : LXLXLXLXLXLXLXLXLXLXLXLXLXLXLX",
"LXLXLXLXLXLXLXLXLXLXLXVXV (.!.&XeXyXyX0XuX;X`.XX$X$X>XU.v z z z 1 z x c |.$XXX$X#X>XyX0X0XyXyX;X/.'.c LXLXLXLXLXLXLXLXLXLXLXLXLX",
"LXLXLXLXLXLXLXLXLXGXcXB /.hXjX,X|.{.oX|.9XuX6Xx , k 1 & 5 4 # 4 4 4 # $ < g 1 z >XpXeXOX|.[..X>XrXlXtXV.LXLXLXLXLXLXLXLXLXLXLXLX",
"LXLXLXLXLXLXLXLXAXV U.*XpX8XeX0XOX#X$XmXv z b % 4 4 $ 6 e w 0 w w e r 9 4 # + & x b z oXmX$X'.,XyXeXpX;X].b LXLXLXLXLXLXLXLXLXLX",
"LXLXLXLXLXLXLXnXC ].6X,X|.{.,XyXpXB 1 n & + 4 0 e t w / ] { W ! ! ( / Q r w 0 0 5 # $ 1 z x yXuX;XOX{.>X6X_.B n LXLXLXLXLXLXLXLX",
"LXLXLXLXLXLXC ).&XyX*X|. X[.#X{.b 2 $ 5 6 9 r Q ( Q q u.J.&.7.7.7.0.0.4.t { O./ F y 0 5 # & n (.#X X X|.|.<X;X(.M LXLXLXLXLXLXLX",
"LXLXLXLXLXLX. ;XlXeX#X}.XX$XV 2 + 5 0 t Q W ! 4.c.6.e *.N...X.6.6.6.e.<.D %.J.x.) { Y w w 0 4 & b XX$X|.#X8XkXzX. B.LXLXLXLXLXLX",
"LXLXLXLXLXC (.;XeXeXyX<X.Xx & 4 i / ) ( 8.i.i.8.g...D %.G.X.6...7.6.9.3.D @.N.s.f.c.y.( ( ! i 5 & x Y.1XyXrXeX;X!.V.bXDXLXLXLXLX",
"LXLXLXLXl v zX,X}.#XqX_.x $ 6 0 w :.D.d.t.8.0.t.l.] D t.G.5.5.8.y.6.7. .y @.G.t.u.g.u.d.j.*.G 7 6 # 1 B 6X>X{.OXzXE.= JXFXLXLXLX",
"LXLXLXC I._.;X>X$X$X$Xx o 0 L Y e ;.D.*.u.y.i.y.l...D %.G.] 0.y.h...6. .e @.N.a.y.u.s.d.u.$.F Y ( i O =  XXX@X#X<X&XU.Z DXFXLXLX",
"LXLXLX* &XzXOX|.}.[.M d # 9 ' } t -.M.%.u.p.t.p.j. .t %.G.t.y.u.i.6.7.` D =.G.] 5.y.*.j.l.t.S $.v.y 4 8 n Y.|.#X`.uXiX. nXFXLXLX",
"LXLXZ E.=XyXtXeX<X}.X @ f Q [ ' e *.m.$.p.u.$.u.p.1.e *.G.$.u.j.j.y.y.` t @.G.5.5.i.f.g.f. .t ) M.Q I 4   V 1XyXuXuX-XE.B.NXGXLX",
"LXLX, hX6X>XyXiX_.n & 5 i X.i._ t *.S.t.p.g.u.f.p.<.t *.D.$.u.j.g.t.7.} t @.G...q.i.u.u.y...e ) J.y.Q 5 % k I.yXyX=X&XzXC > HXLX",
"LXA - rX;X'.[.$Xx o 8 I ! X.y.' e *.S.$.i.f.g.y.p.` t *.N.$.u.d.j.y.y.` t +.S.5.7.8.t.u.f.6.t ] G.X.( U p O , [.[.[.=XzXc 2 HXLX",
"LXZ = dX0X`.#X1XM o 8 W X.7.h.' e >.M...X.&.f.&.7.` e *.N.$.u.d.g.y.7. .t O.N...q.t.5.u.f.7.S O.H.X.i.` 0 o z $X$X[.&XzXM ; GXLX",
"LXY.U.8X>X{.[.C h # 6 Y 9.7.y.' e *.A...X.y.f.y.X.` w &.F.u.p.d.u.y.i.[ D O.G.$.0.0.$.s.j.&.S O.D.$.5.[ 0 4 < M oX|.'.5X&XB MXDX",
"LX(.lXtX5X6X0Xk @ i / ] 0.q.y.' t *.S...0.i.i.8.7.} e *.A.*.p.u.$.p.f.` t O.G.#.6.7.X.u.x.t.D ] A.#.q.1.Y u 4 . OX0X0XeXjX-X, vX",
"* Q.lXrXrXrX0Xz + F S.x.1.0.i.' e *.S.X.6.5.5.4.6.[ e *.M.*.p.$...u.u.[ D $.A.#.4.9.t.u.x.y.S ] A.| 9.5.5.I 4 = ,XiXiXrXkX3X, vX",
"X E.jX'.@X[.{., + F Z.m.y.7.h.[ S x.J.y.0.i.8.i.b.X.D u.J.k.p.y.u.g.l.$.t O.J.u.i.0.i.p.l.y.S #.J.>.6.8.7.U 4 X I. XOX2XuX-X> bX",
"  Q.lX'. X$X}.< + q [ { W Q ~ U 7 / ' Q ^ W ^ Q { I 7 _ 1./ W ^ ^ ^ Q Q 7 Q 1.Q ^ Q ^ ^ W E q Y ) W Q W Q i 4 % oXXX#X'.pX7X, bX",
"o Q.kX`.XXoXm ~ / / T T / / / / T / R R R T Y R R T / / R T T / T T / T T T T T Y R T T T R / { T T W / / R R ! 2.Z }.`.uXwX> bX",
"X Q.kX8XyXB.s x.J.Z.M.M.C.P.C.S.m.M.M.M.m.L.P.C.N.m.S.M.M.n.z.C.P.H.m.m.z.S.M.M.S.H.P.H.m.M.m.m.N.z.L.P.H.n.Z.z.i m yX;XjX7X> bX",
"X Q.hXeXfX.Xs :.Z.a.a.a.0.K.w.9.0.0.5.0.9.w.K.w.a.a.8.0.9.5.9.w.K.w.9.0.0.5.y.5.7.w.K.w.3.q.8.5.t.9.c.K.0.h.7.0.r Z pXrXjX3X> bX",
"  Q.hXOX%XY.j  .O._ { _ ~ ~ ' ^ _ ! ( _ ' ~ ~ _ ' ' _ _ _ ~ _ _ _ ' ! ! ' ! ( ' ( o.( _ _ ' ' _ ' ' _ ~ ~ ( ! ~ j C .X'.iX4X> cX",
"  Q.kX#X.X.XoXh 5 w 9 9 9 9 9 6 0 9 9 9 9 6 9 9 7 6 9 9 7 9 9 7 7 6 9 9 9 9 9 9 9 9 6 9 9 7 9 9 6 9 9 9 6 0 6 8 B.XX XOXdX4X, cX",
"  Q.kX`.{.XX[.- + u Y Q U a U H w J Y L U J K H U a w J Y L Y J K J Y Y e J Y J J K K K U H e J Q L Y L U i # X Y.XX[.`.iX4X, cX",
". ~.gX8X<X<X,Xz @ J x.x.X.4.e.' t x.G.j.p.y.7.7.0.4.t *.A.j.i.e.7.6.p.a.S #.H.&.0.0.0.0.0.4.F | G.*.i.g.0.K 4 * OX0X<X0XlX^.> bX",
". ~.lXdXiXjXuXz @ u k.x...y.u._ r >.G.s.u.u.y.5.7.1.S =.F.s.i.7.7...p.t.y #.A...q.0...0.0. .S ] J.u.i.f...L # * <XfXrXrXlX-X, cX",
". Q.gXOX|.|.`., $ u k.m.q.~ 8._ w :.n.$.u.y.7...0.1.t =.M.s.p.y.X.7.c.t.D #.A.$.0.q.5.0.0.4.S ] J.-.p.d.s.Y $   V.#X|.OXdX-X, cX",
". Q.zX#X.X$X|., @ S m.c.2.A 2.,.t s.n.$.u.y.y.5.0.[ t =.F.*.g.u.&.y.l.$.y #.A.#.q.0.0.i.0. .t O.D.:.a.p.s.U $ X V $X[.#XfX-X, cX",
"= (.kX#X X X@X: @ F m.,.x nXZ d 0 :.M.a.u.p.p.y.7.} e %.F.#.b.f.&.u.g. .w =.G.| 5.0.c.b.6. .u ) D.-.a.u.*.U $ X Y.@X@X#XiX9X> cX",
"; !.hX;X<X;X=Xz $ u z.3.j bXZ f w :.M.8.t.p.u.y.h.' e -.M...e.y.u.u.g. .w $.J.| 5.y.v.b.6. .t ) D.-.a.u.f.Y 4 X '.eX9X;XjXtX, bX",
"< ~.lXaXaXjXiXz @ u k.C.2.h 2.,.e :.M.5.8.y.p.y.f.[ w *.A.#.6.f.d.s.u.} e =.J...5.t.g.0.7. .S ) F.n.y.u.s.L 4 3 <XaXrXrXhXwX> cX",
"> W.jX*X|.#X#X: O F :.n.,.h 2.<.e -.G.4.4.y.a.u.&.} e *.A.$.6.y.d.d.i.` r O.G.| 5.y.g.7.6. .t O.D.-.p.u.u.U # X V.>X%XOXiX7X> cX",
"> Q.kX|.XXXX[.> O F n.z.3.d ,.<.r -.N. .6.7.7.p.i.] y &.G...6.y.z.j.p.` t =.A.| 8.y.g.a.y.} u O.J.%.d.d.5.U 4   V XX@X`.iXtX> cX",
"< Q.jX`.}.@X[., @ F n.z.2.h ,.<.r -.N...0.7.7.i.f. .t *.A...6.c.C.l.p.` w #.A.&.8.y.f.y.y.4.S ] D.=.p.u. .a # X Z $X%X#XiX^., cX",
"> W.hX;X=X=X=X, + F n.S.3.h ,.<.t :.N.4.5.7.5.p.f. .e u.D...5.c.C.l.u.` t $.G.| 0.y.j.u.t...t ] A.=.p.u.X.U # . '.<X,X=XrX-X: vX",
"> W.hXrXsXsXrXz @ F k.f.,.A 2.~ r ;.M.4.5.0.5.y.p.| y *.D...q.u.z.f.p.<.t @.A.$.i.u.s.u.u.4.t ] A.$.i.d.>.U # = <XjXjXrXhXtX> bX",
"< !.lX*X#X#X#X, + u z.o.h MXm d 0 -.S.5.0.5.6.5.g...D =.A...0.a.s.s.u.[ q @.D.t.y.s.-.j.u.5.t ] J.&.i.d.l.U 4 X ).*X#X&XiX7X> bX",
"< Q.jXOX}..X.X: @ H z.} h nXm d s :.H.a.q.6.4.7.g.| y *.A...9.y.u.y.i.4.t @.A.&.p.u.s.u.u.4.t ] J.#.t.d.4.K 4 X V XX%X#XiX-X> bX",
"< Q.kXOX.X.X}.: @ i M.x.2.j 2.~ e ;.A.5.8.6.4.8.p...y =.A.$.6.7.7.6.y.` w @.A.&.y.f.u.u.f. .t ) H.X.f.f.6.a 4 X Y..XXX'.iXtX> bX",
"> W.gX=X*X,X#X, + u k.k.4.4.6._ D >.n...7.5.5.7.f...D *.M.| 0.5.7.7.0.` e #.A.-.i.u.y.p.*. .r ) A.X.0.y.X.U 4 . ].=X>X=XiX-X> bX",
"> ~.lXdXgXjXiXz @ F x.x.5.t.i._ e >.m...6.5.5...f.| D %.G.| 0.5.7.7.7.` D =.D.s.a.t.i.i.*. .t ) A.&.6.5.X.J # 3 ,XfXkXiXlXxX, bX",
"> W.jX=X#X*XOX, + G n.m.8.0.f._ e ;.S.8.7.7.7.7.f.| e y.G...9.0.7.8.i.[ y =.J.j.u.5.7.g.j.y.G +.D.&.6.9.6.U $ . ).>X#X&XiX-X, bX",
"= E.zX+X}.XX X< # D j.j.` 3.5.! q &.z.4. .1.1.4.y.( t ..x. . .[ 1.1.4._ y ] m.%.y... . .#.t.P ( S.| } 4.` u 4 X B..X[.'.pX;X> cX",
"= Q.kX`..XXXB.j p S G L G G K G D L L G K G L K G G S G L P G K K G L G S G L G L G K K P L p K J F G G G H a f r.oX#X`.iX7X, cX",
". !.kX*X>XB.j &.H.n.n.k.:.Z.x.z.m.z.k.k.k.C.C.v.k.k.n.n.n.n.m.Z.v.z.z.z.n.n.n.n.n.z.C.v.n.n.n.n.x.z.v.C.m.k.N.l.U m #XOXrXtX> bX",
"  Q.lXsXsX.X0 >.G.p.p.i.Z.L.K.e.i.f.f.g.i.c.L.w.p.f.f.f.f.u.y.K.L.c.y.i.p.p.p.p.b.c.L.c.u.s.u.s.y.b.K.L.f.$.*.i.p B.sXsXhXwX, nX",
"  Q.lX*X1XZ f f.z.[ 4.5.9.9.9.3.4...4.} } 9.9.6.[ 4. .4.4.4.4.3.9.8.5.4. . .4.4.4.5.9.9.4.4.4.1.5.6.9.9.q.4.6.3.s m >X>XdX7X> NX",
"  W.gXOX X}.B.j u F t i 0 i t i a S t i u i i u S t u u t u i p i p p t F i i i u t r r t t F p p i r u i t a f Z oX{.`.iX4X: NX",
". _.dXOX$X$X{.2 + q e e w w q w 9 t t w q w w q q 9 w r q w r t r w e y w w w q w y t t e w 7 w w w w w r 0 4 @ Z mXXX`.dX-X- BX",
"  Q.gXOX#X>X|.> + F u.x.%...5.! r ] s. .` X.X. .4.~ S ) f.[  ........._ t | j.] X.8.[ 5.7.' t ) v... .` ` U 4 X ].,XOXOXdX-X; BX",
"X W.hXrXaXjXuXz O F S.S.*.v.c.' e d.m.y.i.u.g.y.7. .D *.H.t.p.l.p.g.g.X.e #.A.&.y.g.&.p.g. .t | H.t.y.7.X.J 4 = <XjXsXrXhX4X- BX",
"LXW.hX9X=X<X>Xz O P :.:.X.g.j.' q ;.M.$.t.i.u.8.X.' e &.M.$.i.g.a.g.y.[ e #.A.#.q.y.u.u.y.X.S ] G.&.6.6.5.H # * '.;X*X=XjX-X- BX",
"LX(.gX#X}.XX}.> @ F k.k.7.i.d...e *.z...i.i.a.t.0.} w &.F.$.p.p.t.i.f.[ t #.G.#.5.i.a.a.i.4.p ) A.&.6.X.4.a 4 X V  XXXOXiX:X: NX",
"LX_.jXOX.X.X|.< + G Z.:...y.s. .t ;.A.t.f.y.t.8.i.[ y %.F.-.v.p.$.p.c.y.e #.A.$.0.0.7.i.0.4.S ] D.y.6.6.9.U 4 X Y.XX X+XdX-X: CX",
"LX(.sX`.}.}.{.; O u x.k.$.y.u.} p %.J.u.y.i.t.7.e.1.t a.D.*.u.7...7.h.5.t [ G.O.i.7...5.1.<.t ' S.*.8.6.[ a @ X V XX}.{.yX:X, nX",
"LXB.z z z k k ; % 8 j E u p a 8 + s I K a a a a a s # s Q U E E E E E f 4 f ^ I f I I I I I 8 f E E I E j 8 % = k 1 1 g z C AXJX",
"LXDXNXLXLXLXLXLXLXLXCXSXSXSXSXDXAXSXSXSXSXSXSXSXSXSXAXAXZXZXLXLXLXLXLXLXLXLXLXLXLXLXLXLXLXLXLXLXLXLXLXLXLXLXLXNXBXBXBXVXVXBXFXLX",
"LXLXLXLXLXLXLXLXLXLXLXLXLXLXFXFXFXFXFXFXFXFXFXFXFXFXLXLXLXLXLXLXLXLXLXLXLXLXLXLXLXLXLXLXLXLXLXLXLXLXLXLXLXLXLXLXLXLXLXLXLXLXLXLX"
};
