/* XPM */
static char *result[] = {
/* columns rows colors chars-per-pixel */
"60 60 112 2 ",
"   c #6D3228",
".  c #6E3328",
"X  c #6E3428",
"o  c #713628",
"O  c #723628",
"+  c #733729",
"@  c #743729",
"#  c #743829",
"$  c #773A29",
"%  c #783B29",
"&  c #7A6C67",
"*  c #8A4625",
"=  c #824329",
"-  c #8C4B2B",
";  c #A65D29",
":  c #A75E29",
">  c #A85F29",
",  c #B16629",
"<  c #B26629",
"1  c #B1682B",
"2  c #B96C29",
"3  c #BA6C29",
"4  c #BB6D29",
"5  c #BD6E29",
"6  c #BD6F29",
"7  c #BE6F29",
"8  c #BE6F2A",
"9  c #BF702A",
"0  c #BE722B",
"q  c #C0712A",
"w  c #C2722A",
"e  c #C2732A",
"r  c #C3732A",
"t  c #C5742A",
"y  c #C5752A",
"u  c #C4752B",
"i  c #856F61",
"p  c #D3802B",
"a  c #D5822B",
"s  c #D3842F",
"d  c #DC8629",
"f  c #DC892D",
"g  c #E28D2C",
"h  c #E6902D",
"j  c #E9932D",
"k  c #ED962D",
"l  c #EE962D",
"z  c #EE972D",
"x  c #ED962E",
"c  c #F59221",
"v  c #F29426",
"b  c #F89622",
"n  c #F89723",
"m  c #F69827",
"M  c #FF9A22",
"N  c #F19528",
"B  c #F09529",
"V  c #F29628",
"C  c #F3982A",
"Z  c #F3992B",
"A  c #F4992B",
"S  c #F49A2B",
"D  c #F0982D",
"F  c #F0992D",
"G  c #F1992D",
"H  c #F2992D",
"J  c #F19A2D",
"K  c #F29A2D",
"L  c #F39B2D",
"P  c #F1992E",
"I  c #F2992E",
"U  c #F19A2E",
"Y  c #F09A2F",
"T  c #F19A2F",
"R  c #F29A2E",
"E  c #F39B2E",
"W  c #F49B2E",
"Q  c #F49C2E",
"!  c #F59C2E",
"~  c #F59D2E",
"^  c #F69D2E",
"/  c #F89F2E",
"(  c #EF9930",
")  c #EB9C37",
"_  c #E79F3F",
"`  c #E99D3A",
"'  c #F09A30",
"]  c #F8A02F",
"[  c #FBA12E",
"{  c #E09F46",
"}  c #DEA14B",
"|  c #DDA24C",
" . c #DEA34C",
".. c #DDA34E",
"X. c #E4A043",
"o. c #6C9FB7",
"O. c #6BA0BA",
"+. c #7CCADF",
"@. c #73CEEF",
"#. c #74CDEC",
"$. c #70CEF2",
"%. c #6DD1F7",
"&. c #62D4FF",
"*. c #6FD5FB",
"=. c #6DD5FD",
"-. c #65DDFF",
";. c #67DCFF",
":. c #B7B286",
">. c #92BFBB",
",. c #9CCCBD",
"<. c #B2C4A3",
"1. c None",
/* pixels */
"1.1.1.1.1.1.1.1.1.1.1.1.1.1.1.1.1.1.1.1.1.1.1.1.1.1.1.1.E z e 6 1.1.1.1.1.1.1.1.1.1.1.1.1.1.1.1.1.1.1.1.1.1.1.1.1.1.1.1.",
"1.1.1.1.1.1.1.1.1.1.1.1.1.1.1.1.1.1.1.1.1.1.1.1.1.I J G R z w 6 1.1.1.1.1.1.1.1.1.1.1.1.1.1.1.1.1.1.1.1.1.1.1.1.1.1.1.1.",
"1.1.1.1.1.1.1.1.1.1.1.1.1.1.1.1.1.1.1.1.1.1.G P K R R G R z w 6 1.1.1.1.1.1.1.1.1.1.1.1.1.1.1.1.1.1.1.1.1.1.1.1.1.1.1.1.",
"1.1.1.1.1.1.1.1.1.1.1.1.1.9 7 4 5 y p g z R G G R R R G R z w 7 r r r r r r r r r r r r r 9 8 1.1.1.1.1.1.1.1.1.1.1.1.1.",
"1.1.1.1.1.1.1.1.1.1.1.1.1.7 9 a h G ~ ! R G R R R R R G R z r 3 : ; ; ; ; ; ; ; ; ; : ; > 5 9 1.1.1.1.1.1.1.1.1.1.1.1.1.",
"1.1.1.1.1.1.1.1.1.1.1.1.1.6 w R ! R G G G R P R R R R G R k t , X . . . . . . . . . .   + 2 q 1.1.1.1.1.1.1.1.1.1.1.1.1.",
"1.1.1.1.1.1.1.1.1.1.1.1.1.6 w l R G R R R R R R R R R G R k t < # + @ + + + + + + + @ O % 3 q 1.1.1.1.1.1.1.1.1.1.1.1.1.",
"1.1.1.1.1.1.1.1.1.1.1.1.1.6 w z R G R R R R R R R R R G R k t < + O + + + + + + + + + o $ 3 q 1.1.1.1.1.1.1.1.1.1.1.1.1.",
"1.1.1.1.1.1.1.1.1.1.1.1.1.6 w z R G R R R R R R R R R G R k t < + O + + + + + + + + + o $ 3 q 1.1.1.1.1.1.1.1.1.1.1.1.1.",
"1.1.1.1.1.1.1.1.1.1.1.1.1.6 w z R G R R R R R R R R R G R k t < + O + + + + + + + + + o $ 3 q 1.1.1.1.1.1.1.1.1.1.1.1.1.",
"1.1.1.1.1.1.1.1.1.1.1.1.1.6 w z R G R R R R R R R R R G R k t < + O + + + + + + + + + o $ 3 q 1.1.1.1.1.1.1.1.1.1.1.1.1.",
"1.1.1.1.1.1.1.1.1.1.1.1.1.6 w z R G R R R R R R R R R G R k t < + O + + + + + + + + + o $ 3 q 1.1.1.1.1.1.1.1.1.1.1.1.1.",
"1.1.1.1.1.1.1.1.1.1.1.1.1.6 w z R G R R R R R R R R R G R k t < + O + + + + + + + + + o $ 3 q 1.1.1.1.1.1.1.1.1.1.1.1.1.",
"1.1.1.1.1.1.1.1.1.1.1.1.1.6 w z R G R R R R R R R R R G R k t < + O + + + + + + + + + o $ 3 q 1.1.1.1.1.1.1.1.1.1.1.1.1.",
"1.1.1.1.1.1.1.1.1.1.1.1.1.6 w z R G R R R R R R R R R G R k t < + O + + + + + + + + + o $ 3 q 1.1.1.1.1.1.1.1.1.1.1.1.1.",
"1.1.1.1.1.1.1.1.1.1.1.1.1.6 w z R G R R R R R R R R R G R k t < + O + + + + + + + + + o $ 3 q 1.1.1.1.1.1.1.1.1.1.1.1.1.",
"1.1.1.1.1.1.1.1.1.1.1.1.1.6 w z R G R R R R R R R R R G R k t < + O + + + + + + + + + o $ 3 q 1.1.1.1.1.1.1.1.1.1.1.1.1.",
"1.1.1.1.1.1.1.1.1.1.1.1.1.6 w z R G R R R R R R R R R G R k t < + O + + + + + + + + + o $ 3 q 1.1.1.1.1.1.1.1.1.1.1.1.1.",
"1.1.1.1.1.1.1.1.1.1.1.1.1.6 w z R G R R R R R R R R R G R k t < + O + + + + + + + + + o $ 3 q 1.1.1.1.1.1.1.1.1.1.1.1.1.",
"1.1.1.1.1.1.1.1.1.1.1.1.1.6 w z R G R R R R R R R R R G R k t < + O + + + + + + + + + o $ 3 q 1.1.1.1.1.1.1.1.1.1.1.1.1.",
"1.1.1.1.1.1.1.1.1.1.1.1.1.6 w z R G R R R R R R R R R G R k t < + O + + + + + + + + + o $ 3 q 1.1.1.1.1.1.1.1.1.1.1.1.1.",
"1.1.1.1.1.1.1.1.1.1.1.1.1.6 w z R G R R R R R R R R R G R k t < + O + + + + + + + + + o $ 3 q 1.1.1.1.1.1.1.1.1.1.1.1.1.",
"1.1.1.1.1.1.1.1.1.1.1.1.1.6 w z R G R R R R R R R R R G R k t < + O + + + + + + + + + o $ 3 q 1.1.1.1.1.1.1.1.1.1.1.1.1.",
"1.1.1.1.1.1.1.1.1.1.1.1.1.6 w z R G R R R R R R R R R G R k t < + O + + + + + + + + + o $ 3 q 1.1.1.1.1.1.1.1.1.1.1.1.1.",
"1.1.1.1.1.1.1.1.1.1.1.1.1.6 w z R G R R R R R R R R R G R k t < + O + + + + + + + + + o $ 3 q 1.1.1.1.1.1.1.1.1.1.1.1.1.",
"1.1.1.1.1.1.1.1.1.1.1.1.1.6 w z R G R R R R R U H U T Y R k t < + O + + + + + + + + + o $ 3 q 1.1.1.1.1.1.1.1.1.1.1.1.1.",
"1.1.1.1.1.1.1.1.1.1.1.1.1.6 w z R G R R P R G F P U m m R l t < + O + + + + + + + + + o $ 3 q 1.1.1.1.1.1.1.1.1.1.1.1.1.",
"1.1.1.1.1.1.1.1.1.1.1.1.1.6 w z R G P R R D W / L V { } S x t < + O + + + + + + + + + o $ 3 q 1.1.1.1.1.1.1.1.1.1.1.1.1.",
"1.1.1.1.1.1.1.1.1.1.1.1.1.6 w z R G R G G [ j s c <.;.#.X.N u < + O + + + + + + + + + o $ 3 q 1.1.1.1.1.1.1.1.1.1.1.1.1.",
"1.1.1.1.1.1.1.1.1.1.1.1.1.6 w z R G G G Q 1 = - * & O.=.| v u < + O + + + + + + + + + o $ 3 q 1.1.1.1.1.1.1.1.1.1.1.1.1.",
"1.1.1.1.1.1.1.1.1.1.1.1.1.6 w z R G G R R 0 f ] d i o.*.} v u < + O + + + + + + + + + o $ 3 q 1.1.1.1.1.1.1.1.1.1.1.1.1.",
"1.1.1.1.1.1.1.1.1.1.1.1.1.6 w z R G R P G [ ^ ( M ,.-.$. .v u < + O + + + + + + + + + o $ 3 q 1.1.1.1.1.1.1.1.1.1.1.1.1.",
"1.1.1.1.1.1.1.1.1.1.1.1.1.6 w z R G P R R D P ' b >.&.%...v u < + O + + + + + + + + + o $ 3 q 1.1.1.1.1.1.1.1.1.1.1.1.1.",
"1.1.1.1.1.1.1.1.1.1.1.1.1.6 w z R G R R R R U ' n :.@.+._ B u < + O + + + + + + + + + o $ 3 q 1.1.1.1.1.1.1.1.1.1.1.1.1.",
"1.1.1.1.1.1.1.1.1.1.1.1.1.6 w z R G R R R R K H U m ) ` A x t < + O + + + + + + + + + o $ 3 q 1.1.1.1.1.1.1.1.1.1.1.1.1.",
"1.1.1.1.1.1.1.1.1.1.1.1.1.6 w z R G R R R R R R H T Z C R l t < + O + + + + + + + + + o $ 3 q 1.1.1.1.1.1.1.1.1.1.1.1.1.",
"1.1.1.1.1.1.1.1.1.1.1.1.1.6 w z R G R R R R R U H U U U R k t < + O + + + + + + + + + o $ 3 q 1.1.1.1.1.1.1.1.1.1.1.1.1.",
"1.1.1.1.1.1.1.1.1.1.1.1.1.6 w z R G R R R R R R R R R G R k t < + O + + + + + + + + + o $ 3 q 1.1.1.1.1.1.1.1.1.1.1.1.1.",
"1.1.1.1.1.1.1.1.1.1.1.1.1.6 w z R G R R R R R R R R R G R k t < + O + + + + + + + + + o $ 3 q 1.1.1.1.1.1.1.1.1.1.1.1.1.",
"1.1.1.1.1.1.1.1.1.1.1.1.1.6 w z R G R R R R R R R R R G R k t < + O + + + + + + + + + o $ 3 q 1.1.1.1.1.1.1.1.1.1.1.1.1.",
"1.1.1.1.1.1.1.1.1.1.1.1.1.6 w z R G R R R R R R R R R G R k t < + O + + + + + + + + + o $ 3 q 1.1.1.1.1.1.1.1.1.1.1.1.1.",
"1.1.1.1.1.1.1.1.1.1.1.1.1.6 w z R G R R R R R R R R R G R k t < + O + + + + + + + + + o $ 3 q 1.1.1.1.1.1.1.1.1.1.1.1.1.",
"1.1.1.1.1.1.1.1.1.1.1.1.1.6 w z R G R R R R R R R R R G R k t < + O + + + + + + + + + o $ 3 q 1.1.1.1.1.1.1.1.1.1.1.1.1.",
"1.1.1.1.1.1.1.1.1.1.1.1.1.6 w z R G R R R R R R R R R G R k t < + O + + + + + + + + + o $ 3 q 1.1.1.1.1.1.1.1.1.1.1.1.1.",
"1.1.1.1.1.1.1.1.1.1.1.1.1.6 w z R G R R R R R R R R R G R k t < + O + + + + + + + + + o $ 3 q 1.1.1.1.1.1.1.1.1.1.1.1.1.",
"1.1.1.1.1.1.1.1.1.1.1.1.1.6 w z R G R R R R R R R R R G R k t < + O + + + + + + + + + o $ 3 q 1.1.1.1.1.1.1.1.1.1.1.1.1.",
"1.1.1.1.1.1.1.1.1.1.1.1.1.6 w z R G R R R R R R R R R G R k t < + O + + + + + + + + + o $ 3 q 1.1.1.1.1.1.1.1.1.1.1.1.1.",
"1.1.1.1.1.1.1.1.1.1.1.1.1.6 w z R G R R R R R R R R R G R k t < + O + + + + + + + + + o $ 3 q 1.1.1.1.1.1.1.1.1.1.1.1.1.",
"1.1.1.1.1.1.1.1.1.1.1.1.1.6 w z R G R R R R R R R R R G R k t < + O + + + + + + + + + o $ 3 q 1.1.1.1.1.1.1.1.1.1.1.1.1.",
"1.1.1.1.1.1.1.1.1.1.1.1.1.6 w z R G R R R R R R R R R G R k t < + O + + + + + + + + + o $ 3 q 1.1.1.1.1.1.1.1.1.1.1.1.1.",
"1.1.1.1.1.1.1.1.1.1.1.1.1.6 w z R G R R R R R R R R R G R k t < + O + + + + + + + + + o $ 3 q 1.1.1.1.1.1.1.1.1.1.1.1.1.",
"1.1.1.1.1.1.1.1.1.1.1.1.1.6 w z R G R R R R R R R R R G R k t < + O + + + + + + + + + o $ 3 q 1.1.1.1.1.1.1.1.1.1.1.1.1.",
"1.1.1.1.1.1.1.1.1.1.1.1.1.6 w z R G R R R R R R R R R G R k t < + O + + + + + + + + + o $ 3 q 1.1.1.1.1.1.1.1.1.1.1.1.1.",
"1.1.1.1.1.1.1.1.1.1.1.1.1.6 w l R G R R R R R R R R R G R k t < # + @ + + + + + + + @ O % 3 q 1.1.1.1.1.1.1.1.1.1.1.1.1.",
"1.1.1.1.1.1.1.1.1.1.1.1.1.6 w R ! R G G G R P R R R R G R k t , X . . . . . . . . . .   + 2 q 1.1.1.1.1.1.1.1.1.1.1.1.1.",
"1.1.1.1.1.1.1.1.1.1.1.1.1.7 9 a h G ~ ! R G R R R R R G R z r 3 : ; ; ; ; ; ; ; ; ; : ; > 5 9 1.1.1.1.1.1.1.1.1.1.1.1.1.",
"1.1.1.1.1.1.1.1.1.1.1.1.1.9 7 4 5 y p g z R G G R R R G R z w 7 r r r r r r r r r r r r r 9 8 1.1.1.1.1.1.1.1.1.1.1.1.1.",
"1.1.1.1.1.1.1.1.1.1.1.1.1.1.1.1.1.1.1.1.1.1.G P K R R G R z w 6 1.1.1.1.1.1.1.1.1.1.1.1.1.1.1.1.1.1.1.1.1.1.1.1.1.1.1.1.",
"1.1.1.1.1.1.1.1.1.1.1.1.1.1.1.1.1.1.1.1.1.1.1.1.1.I J G R z w 6 1.1.1.1.1.1.1.1.1.1.1.1.1.1.1.1.1.1.1.1.1.1.1.1.1.1.1.1.",
"1.1.1.1.1.1.1.1.1.1.1.1.1.1.1.1.1.1.1.1.1.1.1.1.1.1.1.1.E z e 6 1.1.1.1.1.1.1.1.1.1.1.1.1.1.1.1.1.1.1.1.1.1.1.1.1.1.1.1."
};
