/* XPM */
static char *result[] = {
/* columns rows colors chars-per-pixel */
"64 64 128 2 ",
"   c #010101",
".  c #090506",
"X  c #070708",
"o  c #0C0708",
"O  c #0D090A",
"+  c #120B0C",
"@  c #0F0F13",
"#  c #170E10",
"$  c #190F11",
"%  c #131314",
"&  c #1B1113",
"*  c #181618",
"=  c #1D1C1D",
"-  c #221417",
";  c #251619",
":  c #26191C",
">  c #2B1A1D",
",  c #2D1D20",
"<  c #311E22",
"1  c #252425",
"2  c #2B2A2B",
"3  c #352125",
"4  c #392327",
"5  c #372428",
"6  c #3C2529",
"7  c #3F292E",
"8  c #2E313D",
"9  c #313132",
"0  c #3B3B3D",
"q  c #40272C",
"w  c #42292E",
"e  c #462B30",
"r  c #4B2E33",
"t  c #4E3036",
"y  c #503137",
"u  c #55353B",
"i  c #59373E",
"p  c #5B383F",
"a  c #323643",
"s  c #3F3E40",
"d  c #353A48",
"f  c #383C4B",
"g  c #5D3940",
"h  c #633D44",
"j  c #444346",
"k  c #47474A",
"l  c #4D4C4F",
"z  c #4E4E51",
"x  c #43485A",
"c  c #535356",
"v  c #565659",
"b  c #5C5B5E",
"n  c #674047",
"m  c #684047",
"M  c #67424A",
"N  c #6B424A",
"B  c #72464E",
"V  c #6E4851",
"C  c #754851",
"Z  c #7B4C55",
"A  c #474D60",
"S  c #5E5E61",
"D  c #5D647D",
"F  c #757579",
"G  c #814E57",
"H  c #804E58",
"J  c #85525C",
"K  c #88545E",
"L  c #8E5963",
"P  c #935B66",
"I  c #955D68",
"U  c #9B5F6B",
"Y  c #9D616D",
"T  c #A1636F",
"R  c #A46571",
"E  c #A86773",
"W  c #AB6A77",
"Q  c #AE6D7A",
"!  c #B16E7B",
"~  c #B7717F",
"^  c #B9717F",
"/  c #7C7C80",
"(  c #B77381",
")  c #BB7482",
"_  c #BF7987",
"`  c #C17785",
"'  c #C47887",
"]  c #C57B8A",
"[  c #CB7D8D",
"{  c #7983A3",
"}  c #7C86A8",
"|  c #88888C",
" . c #99999E",
".. c #A4A4AA",
"X. c #AEAEB4",
"o. c #B2B2B9",
"O. c #CD808F",
"+. c #CE8191",
"@. c #D48393",
"#. c #D98596",
"$. c #DD899A",
"%. c #E38C9D",
"&. c #E48EA0",
"*. c #E88FA0",
"=. c #E792A3",
"-. c #EC92A4",
";. c #ED96A9",
":. c #EF98AA",
">. c #F194A7",
",. c #F396A9",
"<. c #F59AAD",
"1. c #FD9BAE",
"2. c #FF9DB0",
"3. c #FFA2B5",
"4. c #FFA6BA",
"5. c #FFA8BC",
"6. c #97A3CC",
"7. c #FFACC1",
"8. c #FFB3C9",
"9. c #C4C4CB",
"0. c #CCCCD3",
"q. c #D4D4DC",
"w. c #E3E3EA",
"e. c #ECECF4",
"r. c #EFEFF8",
"t. c #F5F5FD",
"y. c #FDFDFF",
"u. c None",
/* pixels */
"u.u.u.u.u.u.u.u.u.u.u.u.u.u.u.u.u.u.u.u.u.u.u.u.u.u.. u.u.u.u..   u.u.u.u.. u.u.u.u.u.u.u.u.u.u.u.u.u.u.u.u.u.u.u.u.u.u.u.u.u.u.",
"u.u.u.u.u.u.u.u.u.u.u.u.u.u.u.u.u.u.u.u.u.u.  .       , 7.3.)     ) 4.2.+       .   u.u.u.u.u.u.u.u.u.u.u.u.u.u.u.u.u.u.u.u.u.u.",
"u.u.u.u.u.u.u.u.u.u.u.u.u.u.u.u.u.u.u.  .         . + T 4.1.3.R R 3.1.3.H + .             u.u.u.u.u.u.u.u.u.u.u.u.u.u.u.u.u.u.u.",
"u.u.u.u.u.u.u.u.u.u.u.u.u.u.u.u.  .         ; m R @.<.3.1.1.1.4.4.1.1.1.3.,.@.R m :             u.u.u.u.u.u.u.u.u.u.u.u.u.u.u.u.",
"u.u.u.u.u.u.u.u.u.u.u.u.u.u.u.        & Z [ 2.4.4.3.2.1.2.2.1.1.1.1.2.1.1.2.3.5.5.2.[ Z -         u.u.u.u.u.u.u.u.u.u.u.u.u.u.u.",
"u.u.u.u.u.u.u.u.u.u.u.u.u.        5 W 1.5.3.2.1.1.1.1.1.2.2.2.2.2.2.1.2.2.1.1.1.1.2.3.5.1.W 6         u.u.u.u.u.u.u.u.u.u.u.u.u.",
"u.u.u.u.u.u.u.u.u.u.u.        < ~ 3.4.2.1.1.1.2.1.2.2.2.2.2.2.2.2.2.2.2.2.2.2.1.2.1.1.1.1.4.3.^ 4         u.u.u.u.u.u.u.u.u.u.u.",
"u.u.u.u.u.u.u.u.u.u.      + P 3.4.1.1.1.2.1.2.2.1.2.2.2.2.2.2.1.2.2.2.2.2.2.2.2.2.1.1.2.1.1.1.4.3.P O       u.u.u.u.u.u.u.u.u.u.",
"u.u.u.u.u.u.u.u.u.      4 $.4.1.1.1.1.1.2.2.2.2.2.2.2.2.2.2.2.2.2.2.2.2.2.2.1.2.2.2.2.2.1.2.1.1.1.4.$.4       u.u.u.u.u.u.u.u.u.",
"u.u.u.u.u.u.u.u.      G 7.7.3.3.1.1.2.2.2.1.2.2.2.1.2.2.2.2.2.2.2.1.2.2.2.2.2.2.1.2.2.1.2.1.2.2.2.4.7.7.G       u.u.u.u.u.u.u.u.",
"u.u.u.u.u.u.u.      > R I P U -.3.1.2.1.3.2.2.2.1.2.2.2.1.2.2.2.1.2.2.2.2.2.2.1.2.2.2.3.1.1.1.3.-.U P P R >       u.u.u.u.u.u.u.",
"u.u.u.u.u.u.                  g 4.1.1.3.%.<.2.2.2.2.2.2.2.2.2.1.2.2.2.2.2.2.2.2.2.2.<.%.3.1.1.4.h                   u.u.u.u.u.u.",
"u.u.u.u.u.u.u.            .   K 4.1.3.)   e 3.1.1.1.1.2.2.2.2.2.2.2.2.2.2.1.2.1.1.3.e   ^ 4.1.3.J   .             u.u.u.u.u.u.u.",
"u.u.u.u.u.u.u.u.u.u.u.      J 4.1.1.4.P     P 7.1.1.2.1.2.2.2.2.2.2.2.2.2.2.1.1.5.P     I 4.1.1.4.J       u.u.u.u.u.u.u.u.u.u.u.",
"u.u.u.u.u.u.u.u.u.u.      J 5.1.1.1.2.,.;   . Q 7.2.1.1.1.2.2.2.2.2.1.1.1.1.1.7.Q .   ; ,.2.1.1.1.5.J       u.u.u.u.u.u.u.u.u.u.",
"u.u.u.u.u.u.u.u.u.      C 5.1.1.2.1.1.4._       Z <.5.3.2.1.1.1.2.1.1.2.3.5.<.Z       _ 4.1.2.2.1.1.5.C       u.u.u.u.u.u.u.u.u.",
"u.u.u.u.u.u.u.u.      u 4.1.1.2.2.1.2.1.4.W .     - J @.<.3.3.1.1.3.3.1.@.J -     . Q 5.1.1.1.1.2.1.1.4.u       u.u.u.u.u.u.u.u.",
"u.u.u.u.u.u.u.u.    < <.2.1.2.1.2.2.2.2.1.4.[ <       . - 6 ` 3.3.` 6 - .       < O.4.1.1.1.3.1.1.2.1.2.<.<     u.u.u.u.u.u.u.u.",
"u.u.u.u.u.u.u.    . @.3.1.2.2.2.2.2.1.1.1.1.4.2.T 4 .   .   p 3.3.g .       4 R 2.3.1.1.1.1.3.1.2.1.2.1.3.+..     u.u.u.u.u.u.u.",
"u.u.u.u.u.u.      I 5.1.2.1.1.2.1.2.1.2.1.1.1.2.4.3.@.I h r [ 3.3.[ r h I @.3.4.1.1.2.1.2.1.1.1.1.2.1.2.1.5.I       u.u.u.u.u.u.",
"u.u.u.u.u.u.    w 3.1.2.1.1.2.2.2.2.2.2.2.2.2.1.1.1.3.5.5.4.3.1.1.3.4.5.5.3.1.1.2.2.2.2.2.2.1.1.2.2.1.1.2.1.4.e     u.u.u.u.u.u.",
"u.u.u.u.u.    . +.3.1.2.3.3.2.2.2.2.2.2.2.2.2.2.2.2.2.1.1.3.1.1.1.1.3.1.1.1.2.2.2.2.2.2.1.1.3.1.2.2.3.3.1.1.3.+..     u.u.u.u.u.",
"u.u.u.u.u.    N 5.1.1.3.^ , > > > , , > > > , , > > > > ; J 3.1.1.3.J ; , > > > , > : > > 3 > > > > , ) 3.1.1.5.N     u.u.u.u.u.",
"u.u.u.u.    + &.3.1.1.5.h                                 ; 1.2.1.1.;                                 h 5.1.1.2.&.+     u.u.u.u.",
"u.u.u.u.    C 5.1.2.1.3.@.n >   . l b 2     8 a a @   + u ! 3.1.1.3.! i +   @ a 8 d X   = b l .   > M @.3.1.1.1.5.C     u.u.u.u.",
"u.u.u.    . #.3.1.1.2.1.3.8.M   1 e.y...    A 6.6.f   : 4.4.1.1.1.1.5.3.:   a 6.6.D     F y.e.1   M 8.2.1.2.1.1.3.#..     u.u.u.",
"u.u.u.    u 4.1.2.1.1.2.<.3.h   1 w.w.w.9     d { a   ; <.1.1.1.1.2.1.<.-   8 } x .   % q.e.w.1   h 4.1.2.1.1.2.1.4.y     u.u.u.",
"u.u.u.    Q 4.1.1.2.2.2.1.5.K   . 9.r.e.9.@       .   e 3.1.2.2.2.1.1.3.w   . .       ..t.e.9.    J 5.1.2.2.2.1.1.4.Q     u.u.u.",
"u.u.    & ;.2.1.2.2.2.2.1.3.+.    z t.e.r.9.0 .       P 4.1.2.2.2.2.1.4.P       . 1 X.t.e.t.z     O.3.1.2.2.2.1.1.2.;.&     u.u.",
"u.u.    i 4.1.1.2.2.2.2.2.1.3.i     v q.e.y.e.c     ; :.2.1.1.2.2.1.1.2.,.:     k w.y.e.q.v     i 4.1.2.2.2.2.2.1.1.4.u     u.u.",
"u.u..   U 4.1.1.2.2.2.2.2.1.3.-.:     O s j =     . ] 4.1.2.2.2.2.2.2.1.4.] .     = j 0 @     > -.2.1.2.2.2.2.2.2.1.5.Y   . u.u.",
"u.u.    @.3.1.1.2.2.1.2.1.2.1.3.=.r             : [ 4.1.2.1.2.2.2.2.1.1.1.4.[ ;             e =.3.1.2.1.2.2.1.2.1.1.3.O.    u.u.",
"u.    # ,.2.1.2.2.2.2.2.2.2.2.1.3.3.) n w 6 u T <.3.1.2.1.2.2.2.2.2.1.1.2.1.3.<.T u 6 w n ) 3.3.1.2.1.2.2.2.2.2.2.1.2.:.#     u.",
"u.    4 3.1.2.2.2.2.2.2.2.2.1.2.1.1.4.4.3.3.4.4.2.1.1.2.2.1.2.2.2.1.2.2.2.2.1.2.4.4.3.3.4.4.1.1.2.1.2.2.2.2.2.2.2.1.2.3.4     u.",
"u..   u 3.<.1.1.1.1.2.2.2.2.2.1.1.1.1.1.1.1.1.1.2.2.1.2.2.2.2.2.2.2.2.2.2.1.2.1.1.1.1.1.1.1.1.2.1.2.2.2.1.2.1.1.1.1.<.3.u   . u.",
"u.    V 8.4.5.5.5.2.1.1.2.2.2.2.2.1.2.1.1.1.2.1.1.2.2.2.2.2.2.2.2.2.2.2.2.2.2.2.2.1.1.1.1.2.1.2.2.2.2.2.2.2.2.4.4.5.3.8.N   . u.",
"u.    4 Z N B N J ,.2.1.2.2.2.2.1.2.1.3.5.3.1.1.2.2.2.2.2.2.1.2.1.2.3.1.2.2.2.2.2.1.4.4.3.1.2.1.2.2.2.2.1.2.,.J N B B C 3     u.",
"u.                U 4.1.2.2.2.1.2.1.3.@.w R 4.1.2.1.2.2.2.2.2.2.3.1.1.2.2.2.1.2.1.3.J t =.3.2.1.2.2.2.2.1.5.U                 u.",
"u.      .     .   E 4.1.2.2.2.1.1.2.3.7   + $.3.1.2.2.2.1.2.1.1.1.1.2.2.2.2.2.1.4._     h 5.1.2.1.2.2.2.1.4.E   . . .         u.",
"u.u.u.u.u.u.u.    [ 3.1.2.2.2.1.1.4.E   O   m 4.1.2.1.1.1.1.1.1.1.1.1.1.1.1.1.1.3.w   .   O.3.1.2.2.2.1.1.3.O.    u.u.u.u.u.u.u.",
"u.u.u.u.u.u.u.  . $.2.1.1.2.1.<.1.<.>       . +.3.1.1.2.3.5.5.5.5.5.5.3.2.1.1.3.Q         t 4.1.1.1.2.1.1.3.#..   u.u.u.u.u.u.u.",
"u.u.u.u.u.u.u.  + *.3.1.2.1.3.4.7.I     v %   u 5.4.4.=.` U J C C J T ] >.4.4.3.3   1 z     ) 5.5.3.1.1.1.3.*.O   u.u.u.u.u.u.u.",
"u.u.u.u.u.u.u.  . %.3.1.1.3.[ J @.-   1 t.S     W R e +                 # y ~ P     | w.O   w [ C %.3.1.1.3.%.O   u.u.u.u.u.u.u.",
"u.u.u.u.u.u.u.  . %.3.1.1.3.4   O .    .y.o.    .           O & & O           .   % 0.y.F   X O   p 3.1.1.3.%..   u.u.u.u.u.u.u.",
"u.u.u.u.u.u.u.    @.3.1.1.3.Z       . 2 2 % .       # g T [ *.>.>.%.] P y +       . * 2 1         Y 3.1.1.3.@.    u.u.u.u.u.u.u.",
"u.u.u.u.u.u.u.    ( 4.1.1.1.4.Y #             o u ! ,.4.5.3.2.2.3.2.4.4.4.-.R e .             ; ~ 4.1.2.1.4.~     u.u.u.u.u.u.u.",
"u.u.u.u.u.u.u..   L 4.1.2.2.1.5.,.E N i g Z W *.3.5.2.<.2.1.1.2.1.1.1.1.1.2.5.4.%.R C i g C ~ <.4.1.2.1.1.4.L   . u.u.u.u.u.u.u.",
"u.u.u.u.u.u.u.    u 4.1.1.2.1.1.2.5.5.4.4.4.4.3.1.<.2.2.1.2.2.2.1.2.1.2.1.1.1.1.2.4.5.4.4.5.4.1.1.2.1.2.1.4.u     u.u.u.u.u.u.u.",
"u.u.u.u.u.u.u.    & ,.2.2.1.1.2.1.1.1.1.1.1.1.1.1.2.1.2.2.2.2.2.2.2.2.2.2.2.2.1.1.1.1.1.1.1.1.1.2.1.2.1.2.,.*     u.u.u.u.u.u.u.",
"u.u.u.u.u.u.u.u.    ! 4.1.2.2.2.2.2.1.1.1.1.2.2.2.2.2.2.2.2.2.2.1.2.2.2.2.2.2.2.2.2.1.1.1.2.2.2.1.2.2.1.4.!     u.u.u.u.u.u.u.u.",
"u.u.u.u.u.u.u.u.    t 4.1.1.1.2.2.2.2.2.2.2.2.2.2.2.2.2.2.2.2.2.2.2.2.2.2.2.2.2.1.2.2.2.1.2.2.2.2.1.2.1.4.r     u.u.u.u.u.u.u.u.",
"u.u.u.u.u.u.u.u.      ] 3.1.2.2.2.1.1.1.1.2.2.2.2.2.2.1.2.2.2.2.2.2.2.2.1.2.2.2.2.2.2.1.2.1.1.1.1.2.1.3.]       u.u.u.u.u.u.u.u.",
"u.u.u.u.u.u.u.u.u.    6 3.2.2.1.1.1.2.2.1.1.1.2.1.1.2.2.2.2.2.2.2.2.2.2.2.2.1.1.2.1.1.1.1.2.1.1.1.2.2.3.6     u.u.u.u.u.u.u.u.u.",
"u.u.u.u.u.u.u.u.u.      J 5.,.3.5.3.1.1.3.4.3.1.1.2.1.2.2.1.2.2.1.1.1.2.2.2.2.1.1.3.4.3.1.1.3.5.3.1.5.J       u.u.u.u.u.u.u.u.u.",
"u.u.u.u.u.u.u.u.u.u.      W 7.$.Z 6 : : 7 Z $.4.2.2.2.3.2.2.3.2.2.2.2.3.3.2.2.2.4.$.Z w : : q C @.7.E       u.u.u.u.u.u.u.u.u.u.",
"u.u.u.u.u.u.u.u.u.u.u.    + g o             . H ,.-.-.-.-.-.-.-.;.-.-.-.-.-.-.,.J .             . h +     u.u.u.u.u.u.u.u.u.u.u.",
"u.u.u.u.u.u.u.u.u.u.u.u.        . 4 h h 6 .     O + + + + + + + + + + + + + + O       4 h m 6 .         u.u.u.u.u.u.u.u.u.u.u.u.",
"u.u.u.u.u.u.u.u.u.u.u.u.      > ] 3.5.5.3.' >                                     : ] 3.5.5.3.[ <       u.u.u.u.u.u.u.u.u.u.u.u.",
"u.u.u.u.u.u.u.u.u.u.u.u.    < :.3.2.1.1.1.4.:.,       u.                u.      > -.4.1.1.1.1.3.,.3     u.u.u.u.u.u.u.u.u.u.u.u.",
"u.u.u.u.u.u.u.u.u.u.u.u.    _ 3.,.1.<.1.1.>.3.)     u.u.u.u.u.u.u.u.u.u.u.u.    ( 3.,.1.1.<.<.>.3.]       u.u.u.u.u.u.u.u.u.u.u.",
"u.u.u.u.u.u.u.u.u.u.u.    6 7.5.5.5.5.5.5.5.4.7.4     u.u.u.u.u.u.u.u.u.u.    4 7.5.5.5.5.5.5.5.4.8.7     u.u.u.u.u.u.u.u.u.u.u.",
"u.u.u.u.u.u.u.u.u.u.u.    > K Z H Z H H Z J Z J >     u.u.u.u.u.u.u.u.u.u.    > J Z H H H H H Z Z K <     u.u.u.u.u.u.u.u.u.u.u.",
"u.u.u.u.u.u.u.u.u.u.u.                                u.u.u.u.u.u.u.u.u.u.                                u.u.u.u.u.u.u.u.u.u.u.",
"u.u.u.u.u.u.u.u.u.u.u.u.    .     .     .   .       u.u.u.u.u.u.u.u.u.u.u.u.      .     .     .         u.u.u.u.u.u.u.u.u.u.u.u."
};
