/* XPM */
static char *result[] = {
/* columns rows colors chars-per-pixel */
"60 60 218 2 ",
"   c #E87D4A",
".  c #E87F4A",
"X  c #E9814A",
"o  c #E9824A",
"O  c #E9834A",
"+  c #EA834A",
"@  c #EA844A",
"#  c #EA854A",
"$  c #EA864A",
"%  c #EA864B",
"&  c #EB864B",
"*  c #EB874B",
"=  c #EB884B",
"-  c #EB894B",
";  c #EB8A4B",
":  c #EC8A4B",
">  c #EC8B4B",
",  c #EC8C4B",
"<  c #EC8D4B",
"1  c #ED8D4B",
"2  c #ED8E4B",
"3  c #ED8F4B",
"4  c #ED904B",
"5  c #EE904B",
"6  c #EE914B",
"7  c #EE924B",
"8  c #EE934B",
"9  c #EF944C",
"0  c #EF964C",
"q  c #EF974C",
"w  c #F0984C",
"e  c #F0994C",
"r  c #F09A4C",
"t  c #F19B4C",
"y  c #F19C4C",
"u  c #F19D4C",
"i  c #F29D4C",
"p  c #F29E4C",
"a  c #F29F4C",
"s  c #F2A04C",
"d  c #F2A14D",
"f  c #F3A24D",
"g  c #F3A34D",
"h  c #F4A44D",
"j  c #F4A54D",
"k  c #F4A64D",
"l  c #F5A74D",
"z  c #F5A84D",
"x  c #F5A94D",
"c  c #F5AA4D",
"v  c #F6AA4D",
"b  c #F6AB4D",
"n  c #F6AC4D",
"m  c #F6AD4D",
"M  c #F6AC4E",
"N  c #F6AE4E",
"B  c #F7AE4E",
"V  c #F7AF4E",
"C  c #F7B04E",
"Z  c #F7B14E",
"A  c #F7B24E",
"S  c #F8B14E",
"D  c #F8B24E",
"F  c #F8B34E",
"G  c #F8B44E",
"H  c #F9B44E",
"J  c #F9B54E",
"K  c #F9B64E",
"L  c #F8B74E",
"P  c #F9B74E",
"I  c #F9B74F",
"U  c #F9B94F",
"Y  c #FAB84E",
"T  c #FAB94E",
"R  c #FABA4E",
"E  c #FABA4F",
"W  c #FBBB4F",
"Q  c #FBBC4F",
"!  c #FBBD4F",
"~  c #FBBE4F",
"^  c #FBBF4F",
"/  c #FCBE4F",
"(  c #FCBF4F",
")  c #FCC04F",
"_  c #FCC14F",
"`  c #FDC24F",
"'  c #FDC34F",
"]  c #FEC54D",
"[  c #FFC54D",
"{  c #FDC44F",
"}  c #FEC54E",
"|  c #FEC54F",
" . c #FDC64F",
".. c #FEC64E",
"X. c #FFC64E",
"o. c #FEC74E",
"O. c #FFC74E",
"+. c #FEC64F",
"@. c #FEC74F",
"#. c #FFC74F",
"$. c #FEC84E",
"%. c #FFC84E",
"&. c #FEC94E",
"*. c #FFC94E",
"=. c #FEC84F",
"-. c #FFC84F",
";. c #FFC94F",
":. c #FFCA4E",
">. c #FFCA4F",
",. c #FECB4F",
"<. c #FFCB4F",
"1. c #FFCC4F",
"2. c #FDC250",
"3. c #FDC450",
"4. c #FDC550",
"5. c #FEC650",
"6. c #FEC750",
"7. c #FEC850",
"8. c #FFC850",
"9. c #FEC950",
"0. c #FFC950",
"q. c #FEC851",
"w. c #FEC951",
"e. c #FECA50",
"r. c #FFCA50",
"t. c #FECB50",
"y. c #FFCB50",
"u. c #FEC952",
"i. c #FFCA52",
"p. c #FECA53",
"a. c #FECB53",
"s. c #FFCB53",
"d. c #FECC50",
"f. c #FFCC50",
"g. c #FECD50",
"h. c #FFCD50",
"j. c #FFCE50",
"k. c #FECF50",
"l. c #FFCF50",
"z. c #FECB54",
"x. c #FECC54",
"c. c #FFCC54",
"v. c #FECC55",
"b. c #FECD55",
"n. c #FFCD55",
"m. c #FECE56",
"M. c #FFCE56",
"N. c #FECF57",
"B. c #FFCF57",
"V. c #FFD050",
"C. c #FED058",
"Z. c #FFD058",
"A. c #FED059",
"S. c #FED159",
"D. c #FFD159",
"F. c #FFD259",
"G. c #FED15A",
"H. c #FED25A",
"J. c #FFD25A",
"K. c #FED25B",
"L. c #FED35B",
"P. c #FFD35B",
"I. c #FED45C",
"U. c #FFD45C",
"Y. c #FED45D",
"T. c #FED55D",
"R. c #FFD55D",
"E. c #FED65E",
"W. c #FFD65E",
"Q. c #FED75F",
"!. c #FFD75F",
"~. c #FFD85F",
"^. c #FED860",
"/. c #FFD860",
"(. c #FFD960",
"). c #FED961",
"_. c #FFD961",
"`. c #FFDA61",
"'. c #FFD962",
"]. c #FFDA62",
"[. c #FFDB62",
"{. c #FFDB63",
"}. c #FFDC63",
"|. c #FFDC64",
" X c #FFDD64",
".X c #FFDC65",
"XX c #FEDD65",
"oX c #FFDD65",
"OX c #FFDD66",
"+X c #FEDE66",
"@X c #FFDE66",
"#X c #FFDE67",
"$X c #FFDE68",
"%X c #FFDF68",
"&X c #FFE16B",
"*X c #FFE26D",
"=X c #FFE36F",
"-X c #FFE471",
";X c #FFE572",
":X c #FFE673",
">X c #FFE674",
",X c #FFE774",
"<X c #FFE978",
"1X c #FFEA79",
"2X c #FFEA7A",
"3X c #FFEC7C",
"4X c #FFED7E",
"5X c #FFEE7F",
"6X c #FFEE80",
"7X c #FFEF80",
"8X c #FFEF81",
"9X c #FFEF82",
"0X c #FFF082",
"qX c #FFF083",
"wX c #FFF183",
"eX c #FFF184",
"rX c #FFF285",
"tX c None",
/* pixels */
"tXtXtXtXtXtXtXtXtXtXtXtXtXtXtXtXtXtXtXtXtXtXtXtXtXtXtXtXtXtXtXtXtXtXtXtXtXtXtXtXtXtXtXtXtXtXtXtXtXtXtXtXtXtXtXtXtXtXtXtX",
"tXtXtXtXtXtXtXtXtXtXtXtXtXtXtXtXtXtXtXtXtXtXtXtXtXtXtXtXtXtXtXtX* tXtXtXtXtXtXtXtXtXtXtXtXtXtXtXtXtXtXtXtXtXtXtXtXtXtXtX",
"tXtXtXtXtXtXtXtXtXtXtXtXtXtXtXtXtXtXtXtXtXtXtXtXtXtXtXtXtXtXtXtX* * tXtXtXtXtXtXtXtXtXtXtXtXtXtXtXtXtXtXtXtXtXtXtXtXtXtX",
"tXtXtXtXtXtXtXtXtXtXtXtXtXtXtXtXtXtXtXtXtXtXtXtXtXtXtXtXtXtXtXtX* * tXtXtXtXtXtXtXtXtXtXtXtXtXtXtXtXtXtXtXtXtXtXtXtXtXtX",
"tXtXtXtXtXtXtXtXtXtXtXtXtXtXtXtXtXtXtXtXtXtXtXtXtXtXtXtXtXtXtX* * * tXtXtXtXtXtXtXtXtXtXtXtXtXtXtXtXtXtXtXtXtXtXtXtXtXtX",
"tXtXtXtXtXtXtXtXtXtXtXtXtX* tXtXtXtXtXtXtXtXtXtXtXtXtXtXtXtXtX* * * tXtXtXtXtXtXtXtXtXtXtXtXtXtXtXtXtXtXtXtXtXtXtXtXtXtX",
"tXtXtXtXtXtXtXtXtXtXtXtXtX* * tXtXtXtXtXtXtXtXtXtXtXtXtXtXtX* * * * tXtXtXtXtXtXtXtXtXtXtXtXtXtXtXtXtXtXtXtXtXtXtXtXtXtX",
"tXtXtXtXtXtXtXtXtXtXtXtXtX* * * tXtXtXtXtXtXtXtXtXtXtXtXtXtX* * * * * tXtXtXtXtXtXtXtXtXtXtXtXtXtXtXtXtXtXtXtXtXtXtXtXtX",
"tXtXtXtXtXtXtXtXtXtXtXtXtXtX* * * tXtXtXtXtXtXtXtXtXtXtXtX* % * * % * tXtXtXtXtXtXtXtXtXtXtXtXtXtXtXtXtXtXtXtXtXtXtXtXtX",
"tXtXtXtXtXtXtXtXtXtXtXtXtXtX* * * * * tXtXtXtXtXtXtXtXtXtX& * * $ * & tXtXtXtXtXtXtXtXtXtXtXtXtXtXtXtXtXtXtXtXtXtXtXtXtX",
"tXtXtXtXtXtXtXtXtXtXtXtXtXtX* * * * * * tXtXtXtXtXtXtXtX* % * $ * $ * tXtXtXtXtXtXtXtXtXtXtXtXtXtXtX* tXtXtXtXtXtXtXtXtX",
"tXtXtXtXtXtXtXtXtXtXtXtXtXtXtX* * % * * $ tXtXtXtXtXtXtX% * o t q O * tXtXtXtXtXtXtXtXtXtXtXtXtX* * * tXtXtXtXtXtXtXtXtX",
"tXtXtXtXtXtXtXtXtXtXtXtXtXtXtX* % * $ $ * $ tXtXtXtXtX* * * + ! g X * * tXtXtXtXtXtXtXtXtXtX* * * * tXtXtXtXtXtXtXtXtXtX",
"tXtXtXtXtXtXtXtXtXtXtXtXtXtXtX* * $ - $ # * $ tXtXtXtX& * O 0 l.b o * * tXtXtXtXtXtXtX* * * * * * * tXtXtXtXtXtXtXtXtXtX",
"tXtXtXtXtXtXtXtXtXtXtXtXtXtXtX* * # , V > O = $ & tX* * * + G l.P @ * * tXtXtXtXtX* % * * % * * * tXtXtXtXtXtXtXtXtXtXtX",
"tXtXtXtXtXtXtXtXtXtXtXtXtXtXtXtX* * o L ' 5 o = * $ * * @ 9 0.0._ - $ * tXtXtX* % * = $ $ * % * * tXtXtXtXtXtXtXtXtXtXtX",
"tXtXtXtXtXtXtXtXtXtXtXtXtXtXtXtX* = o s l. .y o * * $ * O A f.6.8.7 @ * * * % * = $ o = = $ * * tXtXtXtXtXtXtXtXtXtXtXtX",
"tXtXtXtXtXtXtXtXtXtXtXtXtXtXtXtX* * @ 7 @.7.y.l O $ = @ 6 7.#.+.y.u o * % * = # o * g n $ * * tXtXtXtXtXtXtXtXtXtXtXtXtX",
"tXtXtXtXtXtXtXtXtXtXtXtXtXtXtXtX* * $ * ! 0.+.h.F = # O V f.q.p.1.x o = * @ o > j ) h.0 O * % tXtXtXtXtXtXtXtXtXtXtXtXtX",
"tXtXtXtXtXtXtXtXtXtXtXtXtXtXtXtXtX* = o N f.6.+.f.~ 1 , 6.X.C.K.*.J @ @ o 3 v { t.j.m X = $ tXtXtXtXtXtXtXtXtXtXtXtXtXtX",
"tXtXtXtXtXtXtXtXtXtXtXtXtXtXtXtXtX* * o y y.+.C.q.>._ K r.+._.E.%.( $ 7 C 6.f.7.@.{ < # * * tXtXtXtXtXtXtXtXtXtXtXtXtXtX",
"tX* * * * * * * * * * * * * * * * * * # 2 5.X.G.].u.o.t...n.XX^.8.| Y 7.<.o.6.+.f.j o = $ tXtXtXtXtXtXtXtXtXtXtXtXtXtXtX",
"tXtX* * * * * * * * $ * * * * * * * * = # E >.p.XX{.b.} #.Q.oX{.i.@.>...q.L.v.;.^ = $ * * tXtXtXtXtXtXtXtXtXtXtXtXtXtXtX",
"tXtXtX* * * * * * $ * @ X o O O O O O @ . k f.6._.|.|.Z.n.|.{.oXc.] p.L.|.^.+.f.y o = $ tXtXtXtXtXtXtXtXtXtXtXtXtXtXtXtX",
"tXtXtXtXtX* * * * $ - z J C S D F G H K J Q 0.+.U.oX{.|.{.|.{.|.U.U.|.oX|.p.>.U # * * * tXtXtXtXtXtXtXtXtXtXtXtXtXtXtXtX",
"tXtXtXtXtXtX* * * * $ 3 K V.g.e.y.y.<.*.:.%.X.[ n.oX{.{.{.|.$X|.|. X{.oXI.X.6.4 X * * * * * * * tXtXtXtXtXtXtXtXtXtXtXtX",
"tXtXtXtXtXtXtXtX* $ * @ o i { r.+.+.z.G.A.A.F.S.P.|.{.=XOX#X<X(.{..X}.].w.-.2.d 7 * o o # * = * * * & tXtXtXtXtXtXtXtXtX",
"tXtXtXtXtXtXtXtXtX* $ * * o 1 K f.=.7.P.XX@XoXoXoX{.~.*X4X<X5X*X1X#X|.U.#.X.o.1.=./ B i 3 # o o @ $ * % * * * tXtXtXtXtX",
"tXtXtXtXtXtXtXtXtXtX* % * = # @ g 7.>.} s./.oX{.{.%X-X;X0XqX8XrX;X~.{.{.).U.N.u.7.r.d.f.+.T c y 4 * $ * * * * * * * * tX",
"tXtXtXtXtXtXtXtXtXtXtXtX* $ * * o 6 Q y...8.P.{.{..X:X8X8X8X8X8X3X,X#X{.|.oX@XoXQ.z.| +.9.k.l.` h = $ * * * * * * * tXtX",
"tXtXtXtXtXtXtXtXtXtXtXtXtX* % * = # o F y.@.[ R.oX].OX5XqX8X8X0X1X*XoX|.oX{.W.N.u.7.t.f.{ C w * O $ * % * * * tXtXtXtXtX",
"tXtXtXtXtXtXtXtXtXtXtXtXtX* $ * * o p 3.-.@.U.|.{.#X1X2X6XwX8XeX1X`.}.'.D.s.#.&.1.=.Y s , o O $ * * % * * tXtXtXtXtXtXtX",
"tXtXtXtXtXtXtXtXtXtXtXtX* $ * $ O l f.$.6.W.oX{.{..X{.|.7X2X9X*X>X*X{._.@...8.! z 6 @ o # * * * % * tXtXtXtXtXtXtXtXtXtX",
"tXtXtXtXtXtXtXtXtXtXtX* $ = # $ Z h.+.a.].+X|.oX|.|.].&X:X`.1X$X(.|.{.oXT...y.p   # * = * * * tXtXtXtXtXtXtXtXtXtXtXtXtX",
"tXtXtXtXtXtXtXtXtXtX* $ = + > T f.+.w.L.I.A.C.M.x./.|..X{.[.#XOX{.|.oX|.oXN.O.4.2 # * $ * tXtXtXtXtXtXtXtXtXtXtXtXtXtXtX",
"tXtXtXtXtXtXtXtXtX% * * X 4 ( r.| @.7.#.O.*.O.X.#._.|.{.oX|.{.|.].B.U.].oX|.u.>.P @ * * tXtXtXtXtXtXtXtXtXtXtXtXtXtXtXtX",
"tXtXtXtXtXtXtXtX* * * # i t.l.t.t.r.@.| ` ! 3.-.p.{.{.oXD.W.oX|.).#...q.m.E.W.6.f.j o = $ tXtXtXtXtXtXtXtXtXtXtXtXtXtXtX",
"tXtXtXtXtXtX* * * * # 7 D n h s t 0 6 1 : # E ;.v.|.oXH.] s.|.|.!.#.9.d.%.} u.w.@.7.8 + * $ tXtXtXtXtXtXtXtXtXtXtXtXtXtX",
"tXtXtXtXtX* * * * & $ * O X o o O + @ # # : ' O.C.@XS...7...J.@XT.-.` M ) y.,.;.+.0.! * $ * & tXtXtXtXtXtXtXtXtXtXtXtXtX",
"tXtXtXtX* * * * * * * $ * = = * * * * * @ 7 8.X.T.H.} e.7.@.7.{.Y.*.W X = e V ` y.e.h.n X * % tXtXtXtXtXtXtXtXtXtXtXtXtX",
"tXtXtX* * * * * * * * * * * * * * * * * O t y.6.x.+.h.B t y.} C.L.*.I # * O o ; t S ' l.p o * % tXtXtXtXtXtXtXtXtXtXtXtX",
"tXtX* * * * * tXtXtXtXtXtXtXtXtXtXtX* = o k f.+.+.h.Z # o G y.6.p.<.Z O = * * $ O O > a V > $ * * tXtXtXtXtXtXtXtXtXtXtX",
"tXtXtXtXtXtXtXtXtXtXtXtXtXtXtXtXtXtX* * o C f.| h.C @ * # 3 +.-.+.f.b o = * * * * * # o # = $ * * tXtXtXtXtXtXtXtXtXtXtX",
"tXtXtXtXtXtXtXtXtXtXtXtXtXtXtXtXtXtX* * # R 0.f.V + $ * = o k f.| f.j o = * tX* * * * = * $ * % * * tXtXtXtXtXtXtXtXtXtX",
"tXtXtXtXtXtXtXtXtXtXtXtXtXtXtXtXtX* * $ : _ j.B + $ * $ * $ * ~ 0.y.s o * * tXtXtXtX* % * * % * * * * tXtXtXtXtXtXtXtXtX",
"tXtXtXtXtXtXtXtXtXtXtXtXtXtXtXtXtX* * @ 6 h.m O * * $ * $ = O r r.r.r O * tXtXtXtXtXtXtXtX* * * * * * * tXtXtXtXtXtXtXtX",
"tXtXtXtXtXtXtXtXtXtXtXtXtXtXtXtXtX* * o a C o * * $ tXtX* % * O F h.9 + * tXtXtXtXtXtXtXtXtXtXtX* * * * tXtXtXtXtXtXtXtX",
"tXtXtXtXtXtXtXtXtXtXtXtXtXtXtXtXtX* * # 3 * $ * $ tXtXtXtX% * @ 3  .6 @ * tXtXtXtXtXtXtXtXtXtXtXtXtXtX* * tXtXtXtXtXtXtX",
"tXtXtXtXtXtXtXtXtXtXtXtXtXtXtXtXtX* $ * # $ * $ tXtXtXtXtX* $ * O f 4 @ * tXtXtXtXtXtXtXtXtXtXtXtXtXtXtXtXtXtXtXtXtXtXtX",
"tXtXtXtXtXtXtXtXtXtXtXtXtXtXtXtXtX* * $ * * $ tXtXtXtXtXtXtX* * % $ * $ * tXtXtXtXtXtXtXtXtXtXtXtXtXtXtXtXtXtXtXtXtXtXtX",
"tXtXtXtXtXtXtXtXtXtXtXtXtXtXtXtX* * * * * * tXtXtXtXtXtXtXtXtX% * * $ * & tXtXtXtXtXtXtXtXtXtXtXtXtXtXtXtXtXtXtXtXtXtXtX",
"tXtXtXtXtXtXtXtXtXtXtXtXtXtXtXtX* * * * * tXtXtXtXtXtXtXtXtXtX* % * * % * tXtXtXtXtXtXtXtXtXtXtXtXtXtXtXtXtXtXtXtXtXtXtX",
"tXtXtXtXtXtXtXtXtXtXtXtXtXtXtXtX* * * * tXtXtXtXtXtXtXtXtXtXtXtX* * * * * tXtXtXtXtXtXtXtXtXtXtXtXtXtXtXtXtXtXtXtXtXtXtX",
"tXtXtXtXtXtXtXtXtXtXtXtXtXtXtXtX* * * tXtXtXtXtXtXtXtXtXtXtXtXtX* * * * * tXtXtXtXtXtXtXtXtXtXtXtXtXtXtXtXtXtXtXtXtXtXtX",
"tXtXtXtXtXtXtXtXtXtXtXtXtXtXtXtX* * tXtXtXtXtXtXtXtXtXtXtXtXtXtXtX* * * * tXtXtXtXtXtXtXtXtXtXtXtXtXtXtXtXtXtXtXtXtXtXtX",
"tXtXtXtXtXtXtXtXtXtXtXtXtXtXtXtX* tXtXtXtXtXtXtXtXtXtXtXtXtXtXtXtXtX* * * tXtXtXtXtXtXtXtXtXtXtXtXtXtXtXtXtXtXtXtXtXtXtX",
"tXtXtXtXtXtXtXtXtXtXtXtXtXtXtXtXtXtXtXtXtXtXtXtXtXtXtXtXtXtXtXtXtXtX* * tXtXtXtXtXtXtXtXtXtXtXtXtXtXtXtXtXtXtXtXtXtXtXtX",
"tXtXtXtXtXtXtXtXtXtXtXtXtXtXtXtXtXtXtXtXtXtXtXtXtXtXtXtXtXtXtXtXtXtXtX* tXtXtXtXtXtXtXtXtXtXtXtXtXtXtXtXtXtXtXtXtXtXtXtX",
"tXtXtXtXtXtXtXtXtXtXtXtXtXtXtXtXtXtXtXtXtXtXtXtXtXtXtXtXtXtXtXtXtXtXtX* tXtXtXtXtXtXtXtXtXtXtXtXtXtXtXtXtXtXtXtXtXtXtXtX",
"tXtXtXtXtXtXtXtXtXtXtXtXtXtXtXtXtXtXtXtXtXtXtXtXtXtXtXtXtXtXtXtXtXtXtXtXtXtXtXtXtXtXtXtXtXtXtXtXtXtXtXtXtXtXtXtXtXtXtXtX"
};
