/* XPM */
static char *result[] = {
/* columns rows colors chars-per-pixel */
"64 64 122 2 ",
"   c #835234",
".  c #8F5D39",
"X  c #94613B",
"o  c #98653C",
"O  c #98653D",
"+  c #9E6A3F",
"@  c #A06C40",
"#  c #A16C40",
"$  c #A26D40",
"%  c #A26D41",
"&  c #A36D41",
"*  c #A36E41",
"=  c #A46E41",
"-  c #A56E41",
";  c #A46F41",
":  c #A56F41",
">  c #A56E42",
",  c #A46F42",
"<  c #A56F42",
"1  c #A66F42",
"2  c #A67042",
"3  c #AB7344",
"4  c #AC7445",
"5  c #AD7445",
"6  c #AC7644",
"7  c #AF7946",
"8  c #B07646",
"9  c #B17646",
"0  c #B17746",
"q  c #B27847",
"w  c #B37847",
"e  c #B27B46",
"r  c #B27B47",
"t  c #B67A48",
"y  c #B77B49",
"u  c #B97C49",
"i  c #BB7D4A",
"p  c #BD7D4B",
"a  c #BC7E4B",
"s  c #BD7E4B",
"d  c #BD7F4B",
"f  c #BE7E4B",
"g  c #BE7F4B",
"h  c #BF7F4B",
"j  c #BE7F4C",
"k  c #BF7F4C",
"l  c #B78049",
"z  c #B88049",
"x  c #B88149",
"c  c #BE804B",
"v  c #BF804B",
"b  c #BE804C",
"n  c #BF804C",
"m  c #BF814C",
"M  c #BF864C",
"N  c #BF874C",
"B  c #C0804C",
"V  c #C0814C",
"C  c #C0824C",
"Z  c #C1824C",
"A  c #C1834D",
"S  c #C2834D",
"D  c #C2844D",
"F  c #C3854D",
"G  c #C4864E",
"H  c #C4874E",
"J  c #C5874E",
"K  c #C0884C",
"L  c #C6884E",
"P  c #C6894F",
"I  c #C78A4F",
"U  c #C88A4F",
"Y  c #C88B4F",
"T  c #C88B50",
"R  c #C98B50",
"E  c #C98C50",
"W  c #CA8D50",
"Q  c #CA8E50",
"!  c #CB8E50",
"~  c #CB8E51",
"^  c #CC8F51",
"/  c #CB9150",
"(  c #CB9151",
")  c #CC9051",
"_  c #CD9051",
"`  c #CD9151",
"'  c #CD9152",
"]  c #CE9152",
"[  c #CE9252",
"{  c #CE9452",
"}  c #CF9552",
"|  c #D09352",
" . c #D09452",
".. c #D09453",
"X. c #D19553",
"o. c #D19653",
"O. c #D39754",
"+. c #D39854",
"@. c #D39954",
"#. c #D59A54",
"$. c #D59A55",
"%. c #D69A55",
"&. c #D69B55",
"*. c #D69C55",
"=. c #D79C55",
"-. c #D89C56",
";. c #D89D56",
":. c #D99D56",
">. c #D89E56",
",. c #D99E56",
"<. c #D99F56",
"1. c #DA9E56",
"2. c #DA9F56",
"3. c #DA9F57",
"4. c #DB9F57",
"5. c #DBA057",
"6. c #DBA157",
"7. c #DCA057",
"8. c #DCA157",
"9. c #DDA258",
"0. c #DEA358",
"q. c None",
/* pixels */
"q.q.q.q.q.q.q.q.q.q.q.q.q.q.q.q.q.q.q.q.q.q.q.q.q.q.q.q.q.q.q.q.q.q.q.q.q.q.q.q.q.q.q.q.q.q.q.q.q.q.q.q.q.q.q.q.q.q.q.q.q.q.q.q.",
"q.q.q.q.q.q.q.q.q.q.q.q.q.q.q.q.q.q.q.q.q.q.q.q.q.q.q.q.q.q.q.q.q.q.q.q.q.q.q.q.q.q.q.q.q.q.q.q.q.q.q.q.q.q.q.q.q.q.q.q.q.q.q.q.",
"q.q.q.q.q.q.q.q.q.q.q.q.q.q.q.q.q.q.q.q.q.q.q.q.q.q.q.q.q.q.q.q.q.q.q.q.q.q.q.q.q.q.q.q.q.q.q.q.q.q.q.q.q.q.q.q.q.q.q.q.q.q.q.q.",
"q.q.q.q.q.q.q.q.q.q.q.q.q.q.q.q.q.q.q.q.q.q.q.q.q.q.q.q.q.q.q.q.q.q.q.q.q.q.q.q.q.q.q.q.q.q.q.q.q.q.q.q.q.q.q.q.q.q.q.q.q.q.q.q.",
"q.q.q.q.q.q.q.q.q.q.q.q.q.q.q.q.q.q.q.q.q.q.q.q.q.q.q.q.q.q.q.q.q.q.q.q.q.q.q.q.q.q.q.q.q.q.q.q.q.q.q.q.q.q.q.q.q.q.q.q.q.q.q.q.",
"q.q.q.q.q.q.q.q.q.q.q.q.q.q.q.q.q.q.q.q.q.q.q.q.q.q.q.q.q.q.q.q.q.q.q.q.q.q.q.q.q.q.q.q.q.q.q.q.q.q.q.q.q.q.q.q.q.q.q.q.q.q.q.q.",
"q.q.q.q.q.q.q.q.n v q.q.q.q.q.q.q.q.q.q.q.q.q.b v q.q.q.q.q.q.q.q.q.q.q.q.q.q.b n q.q.q.q.q.q.q.q.q.q.q.q.q.b n q.q.q.q.q.q.q.q.",
"q.q.q.q.q.q.q.v k j b q.q.q.q.q.q.q.q.q.q.q.n v k b q.q.q.q.q.q.q.q.q.q.q.q.n h k c q.q.q.q.q.q.q.q.q.q.q.b h n c q.q.q.q.q.q.q.",
"q.q.q.q.q.q.b b n n k b q.q.q.q.q.q.q.q.q.q.n n n n c q.q.q.q.q.q.q.q.q.q.b k n n v q.q.q.q.q.q.q.q.q.q.b k n n k v q.q.q.q.q.q.",
"q.q.q.q.q.q.v k n n b n q.q.q.q.q.q.q.q.q.n g n n n n b q.q.q.q.q.q.q.q.v v n n n k b q.q.q.q.q.q.q.q.q.v n n n j n q.q.q.q.q.q.",
"q.q.q.q.q.q.n n n n n n b q.q.q.q.q.q.q.q.v n n n n n c q.q.q.q.q.q.q.q.v b n n n n b q.q.q.q.q.q.q.q.n n n n n n k q.q.q.q.q.q.",
"q.q.q.q.q.v n n n n n v n q.q.q.q.q.q.q.n n n n n n n n q.q.q.q.q.q.q.q.v n n n n n n b q.q.q.q.q.q.q.n n n n n n k n q.q.q.q.q.",
"q.q.q.q.q.v n g n n g n n q.q.q.q.q.q.q.n v g n n n n n b q.q.q.q.q.q.c n n n n n g b n q.q.q.q.q.q.q.v n g n n g n n q.q.q.q.q.",
"q.q.q.q.q.n g n g g n g n v q.q.q.q.q.q.n g n n g n g n n q.q.q.q.q.q.c n g n g n n g n q.q.q.q.q.q.n n g n g g n g n q.q.q.q.q.",
"q.q.q.q.b g n g V Z g n g c q.q.q.q.q.q.n n g g A g n g n q.q.q.q.q.q.n g n g A g g n n q.q.q.q.q.q.b g n g Z V g n j c q.q.q.q.",
"q.q.q.q.n n n g X.%.C g n n q.q.q.q.q.n g n s ! ,.J s n g q.q.q.q.q.q.g n s J ,.! s n j v q.q.q.q.q.n n g C %.X.g n n b q.q.q.q.",
"q.q.q.q.n n s I ,.<._ p n n q.q.q.q.q.b n g S =.<.O.g n n b q.q.q.q.v n n g O.<.=.S g n b q.q.q.q.q.v n p _ <.,.I s n c q.q.q.q.",
"q.q.q.q.n n f X.,.;.%.V g n q.q.q.q.q.n n p ~ <.=.,.J s n v q.q.q.q.v n s J ,.=.<.~ p n v q.q.q.q.q.n g V %.;.,.X.f n n q.q.q.q.",
"q.q.q.q.n g S =.;.=.,.P s n q.q.q.q.q.n n g O.>.=.<._ p n g q.q.q.q.g n p _ <.=.>.O.g n n q.q.q.q.q.n s P ,.=.;.=.S g n q.q.q.q.",
"q.q.q.q.n s Y ,.=.=.,.' p n q.q.q.q.q.n g D =.;.=.>.+.g j v q.q.q.q.v j g +.>.=.;.=.D g n q.q.q.q.q.n p ` ,.=.=.,.Y s n q.q.q.q.",
"q.q.q.q.n s [ ,.=.=.,.O.g n i q.q.q.q.n s U ,.=.=.;.=.S g g q.q.q.q.g g D =.;.=.=.,.U s n q.q.q.q.i n g O.,.=.=.,.[ s n q.q.q.q.",
"q.< * 3 B g O.,.=.=.;.&.C B 9 & < = 1 d s ) <.=.=.=.,.L g y * < < * y g L ,.=.=.=.<.) s d 1 = < & 9 B C &.;.=.=.,.O.g B 3 * < q.",
": < * 3 n V $.;.:.,.=.;.F k 8 & < = 1 s f  .,.;.2.=.<.E f y * < < * y f E <.=.2.;.,. .f s 1 = < & 8 k F ;.=.,.:.;.$.V n 3 * < , ",
"< < * 3 n C &.,.+.o.:.;.G k 9 & < = 1 a g X.,.&.} -.<.! f y * < < * y f ! <.-.} &.,.X.g a 1 = < & 9 k G ;.;.o.@.,.&.C n 3 * < < ",
"< < * 3 n C #.9.@ . ;.,.G k 9 & < = 1 a g ..0.l   ( 8.W f y * < < * y f W 8.(   l 0...g a 1 = < & 9 k G ,.;.. # 9.#.C n 3 * < < ",
"< < * 3 n C %.4.K x ,.;.G k 9 & < = 1 a g X.5./ r @.3.W f y * < < * y f W 3.@.e / 5.X.g a 1 = < & 9 k G ;.,.z K 4.%.C n 3 * < < ",
"< < * 3 n C &.;.5.8.=.>.G k 0 & < = 1 a g X.>.,.9.;.,.! f y * < < * y f ! ,.;.9.,.>.X.g a 1 = < & 0 k G >.=.8.5.;.&.C n 3 * < = ",
"; < * 3 n C &.;.=.*.=.>.G k 8 & < = 1 a g X.,.=.&.=.<.! f y * < < * y f ! <.=.&.=.,.X.g a 1 = < & 8 k G >.=.*.=.;.&.C n 3 * < ; ",
"q.q.q.8 j C &.;.=.=.=.>.H g t q.q.q.q.g f X.,.=.;.=.<.! s i q.q.q.q.i s ! <.=.;.=.,.X.f g q.q.q.q.t g H >.=.=.=.;.&.C j 8 q.q.q.",
"q.q.q.q.g Z &.;.=.=.=.>.J s q.q.q.q.q.n s X.,.=.;.=.<.! p n q.q.q.q.n p ! <.=.;.=.,.X.s n q.q.q.q.q.s J >.=.=.=.;.&.Z g q.q.q.q.",
"q.q.q.q.g Z &.;.=.=.=.>.J s q.q.q.q.q.n f X.,.=.;.=.<.! s n q.q.q.q.n s ! <.=.;.=.,.X.f n q.q.q.q.q.s J >.=.=.=.;.&.Z g q.q.q.q.",
"q.q.q.q.g Z &.;.=.=.=.>.J s q.q.q.q.q.n f X.,.=.;.=.<.! p n q.q.q.q.n p ! <.=.;.=.,.X.f n q.q.q.q.q.s J >.=.=.=.;.&.Z g q.q.q.q.",
"q.q.q.q.g Z &.;.=.=.=.>.J s q.q.q.q.q.n f X.,.=.;.=.<.! p n q.q.q.q.n p ! <.=.;.=.,.X.f n q.q.q.q.q.s J >.=.=.=.;.&.Z g q.q.q.q.",
"q.q.q.q.g Z &.;.=.=.=.>.J s q.q.q.q.q.n f X.,.=.;.=.<.! p n q.q.q.q.n p ! <.=.;.=.,.X.f n q.q.q.q.q.s J >.=.=.=.;.&.Z g q.q.q.q.",
"q.q.q.q.g Z &.;.=.=.=.>.J s q.q.q.q.q.n f X.,.=.;.=.<.! p n q.q.q.q.n p ! <.=.;.=.,.X.f n q.q.q.q.q.s J >.=.=.=.;.&.Z g q.q.q.q.",
"q.q.q.q.g Z &.;.=.=.=.>.J s q.q.q.q.q.n f X.,.=.;.=.<.! p n q.q.q.q.n p ! <.=.;.=.,.X.f n q.q.q.q.q.s J >.=.=.=.;.&.Z g q.q.q.q.",
"q.q.q.q.g Z &.;.=.=.=.>.J s q.q.q.q.q.n f X.,.=.;.=.<.! p n q.q.q.q.n p ! <.=.;.=.,.X.f n q.q.q.q.q.s J >.=.=.=.;.&.Z g q.q.q.q.",
"q.q.q.q.g Z &.;.=.=.=.>.J s q.q.q.q.q.n f X.,.=.;.=.<.! p n q.q.q.q.n p ! <.=.;.=.,.X.f n q.q.q.q.q.s J >.=.=.=.;.&.Z g q.q.q.q.",
"q.q.q.q.g Z &.;.=.=.=.>.J s q.q.q.q.q.n f X.,.=.;.=.<.! p n q.q.q.q.n p ! <.=.;.=.,.X.f n q.q.q.q.q.s J >.=.=.=.;.&.Z g q.q.q.q.",
"q.q.q.q.g Z &.;.=.=.=.>.J s q.q.q.q.q.n f X.,.=.;.=.<.! p n q.q.q.q.n p ! <.=.;.=.,.X.f n q.q.q.q.q.s J >.=.=.=.;.&.Z g q.q.q.q.",
"q.q.q.q.g Z &.;.=.=.=.>.J s q.q.q.q.q.n f X.,.=.;.=.<.! p n q.q.q.q.n p ! <.=.;.=.,.X.f n q.q.q.q.q.s J >.=.=.=.;.&.Z g q.q.q.q.",
"q.q.q.q.g Z &.;.=.=.=.>.J s q.q.q.q.q.n f X.,.=.;.=.<.! p n q.q.q.q.n p ! <.=.;.=.,.X.f n q.q.q.q.q.s J >.=.=.=.;.&.Z g q.q.q.q.",
"q.q.q.q.g Z &.;.=.=.=.>.J s q.q.q.q.q.n f X.,.=.;.=.<.! p n q.q.q.q.n p ! <.=.;.=.,.X.f n q.q.q.q.q.s J >.=.=.=.;.&.Z g q.q.q.q.",
"q.< & 4 k C &.;.=.=.=.>.G k q % < = 2 d g X.,.=.=.=.<.! f u & < < & u f ! <.=.=.=.,.X.g d 2 = < % q k G >.=.=.=.;.&.C k 4 & < q.",
"- < * 3 n C &.;.=.=.=.>.G k 9 & < = 1 a g X.,.=.=.=.<.! f y * < < * y f ! <.=.=.=.,.X.g a 1 = < & 9 k G >.=.=.=.;.&.C n 3 * < > ",
": < * 3 n C &.;.2.3.;.;.G k 0 & < = 1 a g X.,.,.3.;.,.! f y * < < * y f ! ,.;.3.,.,.X.g a 1 = < & 0 k G ;.;.3.2.;.&.C n 3 * < - ",
"< < * 3 n C $.8.6 + ;.>.G k 9 & < = 1 a g ..9.M X { 6.W f y * < < * y f W 6.{ X N 9...g a 1 = < & 9 k G >.;.+ 6 8.$.C n 3 * < < ",
"< < * 3 n C $.8.7 $ ;.>.G k 9 & < = 1 a g ..9.K O } 5.W f y * < < * y f W 5.} o K 9...g a 1 = < & 9 k G >.;.$ 7 8.$.C n 3 * < < ",
"; < * 3 n C &.;.4.5.;.;.G k 0 & < = 1 a g X.>.1.7.;.,.! f y * < < * y f ! ,.;.7.1.>.X.g a 1 = < & 0 k G ;.;.5.4.;.&.C n 3 * < , ",
"; < * 3 n C &.;.=.=.=.>.G k 8 & < = 1 a g X.,.=.=.=.<.Q f y * < < * y f Q <.=.=.=.,.X.g a 1 = < & 8 k G >.=.=.=.;.&.C n 3 * < > ",
"q.< & 5 k Z &.=.=.=.=.;.J h w % < = 2 d g X.>.=.=.=.,.! f u & < < & u f ! ,.=.=.=.>.X.g d 2 = < % w h J ;.=.=.=.=.&.Z k 5 & < q.",
"q.q.q.q.g n %.3.,.,.<.,.F f q.q.q.q.q.n s  .5.,.,.,.5.E s n q.q.q.q.n s E 5.,.,.,.5.| s n q.q.q.q.q.f F ,.<.,.,.3.%.n g q.q.q.q.",
"q.q.q.q.n f L [ ' ' [ T g n q.q.q.q.q.n g D ' ] ' [ ^ m g v q.q.q.q.v g m ^ [ ' ] ' D g n q.q.q.q.q.n g R [ ' ' [ L f n q.q.q.q.",
"q.q.q.q.j n s p s s p s n n q.q.q.q.q.g n g p s s s s g n g q.q.q.q.g n g s s s s p g n g q.q.q.q.q.n n s p s s p s n j q.q.q.q.",
"q.q.q.q.n g n n n n n n n k q.q.q.q.q.n g n n n n n n n j v q.q.q.q.v j n n n n n n n g n q.q.q.q.q.k n n n n n n n g n q.q.q.q.",
"q.q.q.q.n v n n n n n n n n q.q.q.q.q.k n n n n n n n v n h q.q.q.q.h n v n n n n n n n n q.q.q.q.q.n n n n n n n n v n q.q.q.q.",
"q.q.q.q.n k k k k k k k k n q.q.q.q.q.n g k k k k k k k b v q.q.q.q.b b k k k k k k k h b q.q.q.q.q.n k k k k k k k j n q.q.q.q.",
"q.q.q.q.q.v c c c c c c n n q.q.q.q.q.q.n c c c c c c v c q.q.q.q.q.q.n v c c c c c c b q.q.q.q.q.q.n c c c c c c c v q.q.q.q.q.",
"q.q.q.q.q.q.q.q.q.q.q.q.q.q.q.q.q.q.q.q.q.q.q.q.q.q.q.q.q.q.q.q.q.q.q.q.q.q.q.q.q.q.q.q.q.q.q.q.q.q.q.q.q.q.q.q.q.q.q.q.q.q.q.q.",
"q.q.q.q.q.q.q.q.q.q.q.q.q.q.q.q.q.q.q.q.q.q.q.q.q.q.q.q.q.q.q.q.q.q.q.q.q.q.q.q.q.q.q.q.q.q.q.q.q.q.q.q.q.q.q.q.q.q.q.q.q.q.q.q.",
"q.q.q.q.q.q.q.q.q.q.q.q.q.q.q.q.q.q.q.q.q.q.q.q.q.q.q.q.q.q.q.q.q.q.q.q.q.q.q.q.q.q.q.q.q.q.q.q.q.q.q.q.q.q.q.q.q.q.q.q.q.q.q.q.",
"q.q.q.q.q.q.q.q.q.q.q.q.q.q.q.q.q.q.q.q.q.q.q.q.q.q.q.q.q.q.q.q.q.q.q.q.q.q.q.q.q.q.q.q.q.q.q.q.q.q.q.q.q.q.q.q.q.q.q.q.q.q.q.q.",
"q.q.q.q.q.q.q.q.q.q.q.q.q.q.q.q.q.q.q.q.q.q.q.q.q.q.q.q.q.q.q.q.q.q.q.q.q.q.q.q.q.q.q.q.q.q.q.q.q.q.q.q.q.q.q.q.q.q.q.q.q.q.q.q.",
"q.q.q.q.q.q.q.q.q.q.q.q.q.q.q.q.q.q.q.q.q.q.q.q.q.q.q.q.q.q.q.q.q.q.q.q.q.q.q.q.q.q.q.q.q.q.q.q.q.q.q.q.q.q.q.q.q.q.q.q.q.q.q.q."
};
