/* XPM */
static char *result[] = {
/* columns rows colors chars-per-pixel */
"60 60 219 2 ",
"   c #000000",
".  c #0C0404",
"X  c #050A05",
"o  c #0C0B05",
"O  c #0F0208",
"+  c #0C0A09",
"@  c #120A0B",
"#  c #1D0B0D",
"$  c #130605",
"%  c #0C1309",
"&  c #16170C",
"*  c #191A11",
"=  c #1F0E11",
"-  c #220C0E",
";  c #200E07",
":  c #251508",
">  c #37170C",
",  c #240E10",
"<  c #261617",
"1  c #2C1314",
"2  c #291718",
"3  c #2D191A",
"4  c #241A15",
"5  c #391719",
"6  c #3C191C",
"7  c #33191B",
"8  c #11250C",
"9  c #14290E",
"0  c #1A2515",
"q  c #1E3814",
"w  c #322C0D",
"e  c #252616",
"r  c #24331E",
"t  c #39361E",
"y  c #332E1A",
"u  c #3D2123",
"i  c #293822",
"p  c #373523",
"a  c #421B1E",
"s  c #451C0E",
"d  c #4D2010",
"f  c #572613",
"g  c #77341B",
"h  c #6D3019",
"j  c #491F22",
"k  c #4C2225",
"l  c #4E2A2D",
"z  c #472427",
"x  c #502125",
"c  c #5C272B",
"v  c #512B2E",
"b  c #5A272B",
"n  c #552E31",
"m  c #582F32",
"M  c #5B3135",
"N  c #573032",
"B  c #622A2E",
"V  c #662C30",
"C  c #692D31",
"Z  c #6E393C",
"A  c #34482B",
"S  c #3F5935",
"D  c #3E5432",
"F  c #365C24",
"G  c #30571F",
"H  c #584D16",
"J  c #665917",
"K  c #685B18",
"L  c #63581B",
"P  c #70641D",
"I  c #4D4729",
"U  c #415B35",
"Y  c #435D38",
"T  c #58522E",
"R  c #635B33",
"E  c #47623A",
"W  c #407529",
"Q  c #756B3C",
"!  c #706632",
"~  c #773C40",
"^  c #7C4447",
"/  c #537344",
"(  c #587B48",
")  c #577948",
"_  c #506D42",
"`  c #8A3B1E",
"'  c #8C3C2A",
"]  c #9B4222",
"[  c #AD4B27",
"{  c #B74F29",
"}  c #897926",
"|  c #CB572D",
" . c #DB5E31",
".. c #E86434",
"X. c #FE6D39",
"o. c #F66937",
"O. c #FF733D",
"+. c #E05F32",
"@. c #8A3D43",
"#. c #873B41",
"$. c #923F45",
"%. c #86494D",
"&. c #95464B",
"*. c #965156",
"=. c #9A5459",
"-. c #984E53",
";. c #A2565C",
":. c #B7555C",
">. c #AE4F56",
",. c #867D46",
"<. c #AA5D62",
"1. c #B95D62",
"2. c #BA666B",
"3. c #B9656A",
"4. c #C55E66",
"5. c #C85F67",
"6. c #C2666D",
"7. c #D5666E",
"8. c #C66B72",
"9. c #CA6D74",
"0. c #DA6C74",
"q. c #D6747B",
"w. c #DD797F",
"e. c #D8757D",
"r. c #CD7076",
"t. c #E26D76",
"y. c #E56F78",
"u. c #EC6A74",
"i. c #EB727B",
"p. c #E6717A",
"a. c #F26C77",
"s. c #C5565F",
"d. c #4A8930",
"f. c #58A439",
"g. c #5E824D",
"h. c #638A52",
"j. c #6C965A",
"k. c #769156",
"l. c #67B846",
"z. c #74A55F",
"x. c #77AA60",
"c. c #7BAC65",
"v. c #76A462",
"b. c #7BB066",
"n. c #79D454",
"m. c #78D553",
"M. c #72CD4E",
"N. c #99872A",
"B. c #AD992E",
"V. c #CDB638",
"C. c #E0C63E",
"Z. c #93884D",
"A. c #998E50",
"S. c #A59957",
"D. c #ACA25B",
"F. c #B5A657",
"G. c #81B66B",
"H. c #86BE71",
"J. c #B8B264",
"K. c #C7B767",
"L. c #8CC675",
"P. c #92CE7A",
"I. c #95D37D",
"U. c #92D677",
"Y. c #8BD56D",
"T. c #8CE36A",
"R. c #94E375",
"E. c #84E05F",
"W. c #F3D845",
"Q. c #FDE94A",
"!. c #FFF54C",
"~. c #FFF35C",
"^. c #D4C36D",
"/. c #DDCC73",
"(. c #D7C971",
"). c #EAD97B",
"_. c #F3DD7C",
"`. c #E2CF75",
"'. c #FFF46B",
"]. c #FFF66B",
"[. c #F4E27F",
"{. c #FFFF72",
"}. c #FEF177",
"|. c #FFEF6A",
" X c #DE7B81",
".X c #E57D85",
"XX c #E97E86",
"oX c #EE7B84",
"OX c #F57C85",
"+X c #FB7C86",
"@X c #F77C86",
"#X c #EC8189",
"$X c #E98087",
"%X c #F3848C",
"&X c #FA828B",
"*X c #FA8790",
"=X c #FD8A93",
"-X c #FA8B93",
";X c #FF9099",
":X c #9CDC82",
">X c #A2E486",
",X c #A8ED8C",
"<X c #A5E98A",
"1X c #ACF28F",
"2X c #ACF390",
"3X c #9CE181",
"4X c #EDDC80",
"5X c #F6E481",
"6X c #FAE682",
"7X c #FEEB84",
"8X c #FBEC89",
"9X c #FFF48A",
"0X c #FFFA8D",
"qX c #FEF286",
"wX c #FFFF93",
"eX c #FFF790",
"rX c #EFE083",
"tX c #D6F58E",
"yX c None",
/* pixels */
"yXyXyXyXyXyXyXyXyXyXyXyXyXyXyXyXyXyXyXyXyXyXyXyXyXyXyXyXyXyXyXyXyXyXyXyXyXyXyXyXyXyXyXyXyXyXyXyXyXyXyXyXyXyXyXyXyXyXyXyX",
"yXyXyXyXyXyXyXyXyXyXyXyXyXyXyXyXyXyXyXyXyXyXyXyXyXyXyXyXyXyXyXyXyXyXyXyXyXyXyXyXyXyXyXyXyXyXyXyXyXyXyXyXyXyXyXyXyXyXyXyX",
"yXyXyXyXyXyXyXyXyXyXyXyXyXyXyXyXyXyXyXyXyXyXyXyXyXyXyXyXyXyXyXyXyXyXyXyXyXyXyXyXyXyXyXyXyXyXyXyXyXyXyXyXyXyXyXyXyXyXyXyX",
"yXyXyXyXyXyXyXyXyXyXyXyXyXyXyXyXyXyXyXyXyXyXyXyXyXyXyXyXyXyXyXyXyXyXyXyXyXyXyXyXyXyXyXyXyXyXyXyXyXyXyXyXyXyXyXyXyXyXyXyX",
"yXyXyXyXyXyXyXyXyXyXyXyXyXyXyXyXyXyXyXyXyXyXyXyXyXyXyXyXyXyXyXyXyXyXyXyXyXyXyXyXyXyXyXyXyXyXyXyXyXyXyXyXyXyXyXyXyXyXyXyX",
"yXyXyXyXyXyXyXyXyXyXyXyXyXyXyXyXyXyXyXyXyXyXyXyXyXyXyXyXyXyXyXyXyXyXyXyXyXyXyXyXyXyXyXyXyXyXyXyXyXyXyXyXyXyXyXyXyXyXyXyX",
"yXyXyXyXyXyXyXyXyXyXyXyXyXyXyXyXyXyXyXyXyXyXyXyXyXyXyXyXyXyXyXyXyXyXyXyXyXyXyXyXyXyXyXyXyXyXyXyXyXyXyXyXyXyXyXyXyXyXyXyX",
"yXyXyXyXyXyXyXyXyXyXyXyXyXyXyXyXyXyXyXyXyXyXyXyXyXyXyXyXyXyXyXyXyXyXyXyXyXyXyXyXyXyXyXyXyXyXyXyXyXyXyXyXyXyXyXyXyXyXyXyX",
"            yXyXyX                                                                                                      ",
"  = M m n Z w.%X9.N m m m m m m m m m @   v M m m m N N m M N m n N N N m M a   7 M n n m m m n m m m m m M m m N v .   ",
"  m ;X%X*X*XoXXX%X*X*X*X*X*X*X*X&X*X+Xj   .X=X%X%X*X=X;X;XoX#X;X;X*X*X%X%X=X>.  %.;X%X*X*X*X*X*X*X*X*X*X*X*X*X&X&XOX-   ",
"  l %X.X.X.X$XXX.X.X.X.X.X.X.X.X.X$XOX6   9.#X#X%X#Xr.%.z   @ m =.q.%X*X#X%X-.  ^ -X XXX.XXX.X.X.X.X.X.X.X.X.X.XXXy.#   ",
"  l &X.X.XXXXXXXXX.X.XXXXXXX.X.X.X.XOX6   .X#X3.^ 3       * %     . u %.8.*X>.  ^ %X.X.XXXXXXX.X.XXX.XXXXX.X.X.X$Xp.#   ",
"  v =X#X%X%X%X%X%X%X%X%X%X%X%X%X%X%X+Xj   N =       i / b.:X:Xv.E 0       7 k   ^ ;X%X%X%X#X%X%X%X%X%X%X%X%X%X%X%Xi.-   ",
"  z 7.4.6.5.5.5.5.4.4.4.4.5.4.4.3.&.j       X A h.H.>X2X>XL.L.,X2X:XG.) i X     @ m -.5.5.5.5.5.4.4.4.5.5.5.5.4.5.s.#   ",
"                                      * Y j.P.,X,X:Xb./ i   X A g.H.>X2X>XL.h.A %                                       ",
"  # n n l n l n m 1   7 n n u   * ) c.:X2X,XI.z.Y *       y e       0 / c.:X1X,XU.v.F o X l v b =   u m l n l n v x .   ",
"  n ;X%X%X*X%X%X=X&.  ;.;X=X8.  E 1X:XL.h.A %     o I A.(.7X7XK.,.t X     % U j.P.R.m.9 O XX%X=XV   r.=X%X*X%X%X*XoX-   ",
"  l %X.XXXXX.X.X&X#.  *.%X#X3.  S <Xj.      * R D.).9X0XqX7X7X9X0XqX/.S.I $   X * G.M.8 O  XXXOXb   2.%X.XXXXX.X$Xt.#   ",
"  l %X.XXXXXXX.X%X@.  =.%X#X2.  S 1X)   R K.[.0X0X7X7X6X7X_.5X7X6X7X7X0X0XrXF.w   v.m.8 O  X$X@Xb   2.%X.XXXXXXX$Xp.#   ",
"  n *X$XoX#X#X$X&X@.  =.*X%X2.  S 1X(   D.wX6X6X6X7X7X7X5X* T 0X7X7X6X6X6X8X{.K   x.n.8 . .X#X@Xc   8.%XoX#X#XoX#Xu.-   ",
"  z i.0.t.t.0.t.a.#.  &.i.y.:.  U 1X(   S.9X6X7X7X7X[.0XD.  o `.8X6X7X7X7X6X'.J   x.n.8 . 7.t.u.c   :.i.0.t.t.t.t.7.-   ",
"    O . . . . . $     . . . +   U <XH.k._.7X6X7X[.).9X9XT     Z.0XqX`.6X7X6X'.K   x.m.9   . . .     . . O . . . . $     ",
"  + 1 < < < 2 < < 2 3 < < < <   U >XI.tXqX7X7XqXI X ^.5Xo $   t wXA.  ,.0X5X'.K   x.m.8   < 2 < 3 3 2 < < < < < < <     ",
"  v =X$X#X#X#X%X#X%X#X#X#X*X2.  Y >XP.J.7X6X0XD.    4 Q   ` s X Q X   o /.8X'.K   x.n.8 O .X%X#X#XoX#X%X#X#X%XoX%Xi.#   ",
"  v *X.XXXXXXXXXoXXXXXXXXX%X2.  S 2Xh.  J.9X7Xp   h X      .]     # h   Q eX'.K   z.n.8 O  X#XXXXX$XXXXXXXXXXX$X#Xy.#   ",
"  l &X.XXXXXXXXXXXXXXXXX.X%X2.  S 2X)   S.0XJ.  d O.]   > X.+.. . | X.$ % 4X{.L   x.n.8 O  XXXXXXXXXXXXXXXXXXXXXXXp.#   ",
"  v *X$X$X#X$X$X$X$X#X$XXX%X2.  S 2X)   S.wX!   [ X.X.[ | o.o.{ | X.X.g   S.{.J   x.n.8 O  X#XXX$X#X#X$X$X#X$X#X#Xy.#   ",
"  k +Xy.i.i.i.i.i.i.i.i.i.OX1.  S 2X(   S.0Xy   ..o.o.O.X.; f O.O.o.X.{   R {.J   x.n.8 . t.i.i.i.i.i.i.oXi.i.i.i.u.#   ",
"  . , = - - - , - - , - - - #   S 2X(   S.7XX > X.X.+.` ]   $ [ ` o.X...  p {.K   x.n.8   - , , , , , , # - # , - -     ",
"  X @ @ @ + @ @ @ .   . @ @ %   S 1X(   S._.  d X.X.f   $ X X .   ` X...$ e ].K   x.n.8   @ @ @ X   @ @ O + @ @ @ @     ",
"  l OX.X.X.X.X.X%X@.  *.%XXX3.  S 1X(   D.[.  s O.|   .   o .     , o.o.. e ].K   x.n.8 O e..XOXc   2.oX.X.X.X.XXXt.#   ",
"  l =X.XoXXXoX$X&X@.  =.&X%X2.  S 2X(   S.9X& . X.`   N.} N.} N.K   |  .  I {.J   x.n.8 O  X$X@Xc   6.&X$X#XoXXX#Xy.-   ",
"  l &X.XXXXX$XXX%X@.  =.%X%X3.  S 1X(   S.wXR   { h   V.!.Q.Q.!.N.X [ g   A.{.L   x.n.8 O w.$X@Xc   2.%X.XXXXX.X#Xy.#   ",
"  l *X.XXXXX$X.X&X#.  =.%X%X3.  U 1X)   S.wXK.  : >   V.Q.W.W.!.N.  f . 4 [.].K   x.n.8 .  X#XOXc   2.%X.XXXXXXX$Xy.#   ",
"  v +XoXoXoXOXoX+X$.  -.&X+X3.  S 2X(   S.qX9XZ.  .   L Q.!.Q.W.w     X J.0X'.K   x.n.8 O p.OX+XV   6.+XoXOXoXOXoXu.,   ",
"  @ 6 5 5 5 5 5 6 <   , 6 6 1   S 1X)   S.wX5XqXZ.      w P P :     % J.0X5X~.K   z.n.8   5 5 6 #   1 6 5 5 5 5 5 5 X   ",
"                    @       X   S ,Xg.  % A.qXqXqX^.R *   .     e Q `.0X}.W.P X X c.n.9         X .                     ",
"  z .Xq.e.e.e.e.q.q.q.q.q..X<.  Y 1XI./ X   t ^.0XqX9XrX^.K.J./.6X0X}.~.B.&   & j.Y.M.9 O 9. Xq.e.q.q.q.e.e.e.q.e.7.#   ",
"  v =X#X#X#X%XoXoX%X#X#XXX*X6.  + ) :X,XG.A   X Q 5X0X6XqX9XqX8X7X|.W.f X X E P.T.l.F   = .X%X#X#XoX%X#X%X#X#X#X%Xi.#   ",
"  l %X.XXX.XXXXXXXXXXXXX.X.X#X%.o   r v.<X>Xj.&   4 D.9X7X[.rX}.Q.} .   r c.R.n.W %   = <.#X$XXX.XXXXXXX.XXXXXXX$Xy.#   ",
"  l *X.X$X.X$X.X$X.X.X$X$X.X$X&Xq.l     S P.1XI.E X   I `.qX~.V.w   % h.U.E.f.q   X Z .X-X X.X$X$X.X.X$X$X.X$X.X$Xt.#   ",
"  v &X+X@X@X@X@X@X+X@X@X@X@X@XOX&X&X:.1   & h.>X<Xc.i   + } P     D L.T.M.F X   z 7.*X@XOX@XOXOX@X@X@X+X@X@X@X@X+Xa.,   ",
"  # x x x k x x x k k x x x k k x j c j       i G.,X:Xg.%     0 v.R.m.d.8     . b b d k k x x k x x k k x x k x x k .   ",
"                                                X _ I.1XL.U _ U.E.l.i                                                   ",
"  z q.8.8.8.8.8.0.Z   %.q.8.8.8.8.8.9.8.8.8.9.*.@   0 j.<X<XR.M.W %   2 <.8.8.8.8.8.8.9.9.9.8.0.x   ;.q.8.8.8.8.9.6.#   ",
"  v =X#X%X%X%X$X=X$.  =.=XoX%X%X%X%X%X%X%X%X%X*X XM     A l.f.0   o ^ #X%X%X%X%X%X%X%X%X%X#X#X*XB   8.&X%X%X%X%X%Xi.#   ",
"  v %X.X.XXX.X.X&X@.  *.*X.X.XXX.XXX.XXX.X.XXX.X#X&X3.3   % X   z r.*X$X.XXX.XXX.XXXXXXXXXXXXXOXc   2.%X.X.XXXXX$Xy.#   ",
"  l %X.XXX.X.X.X&X#.  *.%X.X.X.X.X$XXXXX.X.X.X.X.X.X%X$X~   + =.%X#X.X.X.X.X.X.X.XXXXXXXXXXX.X@Xb   6.%X.XXXXX.X$Xt.#   ",
"  v =X@X&X&X&XOX+X&.  ;.=X@X@X&X@X&X@X&X%X&X@X&X@X&XOX&Xa.  u =X@X&X+X&X&X&X&X&XoXoXoX@X@X%X@X+XV   9.*X@XOX&X%X&Xa.,   ",
"  , C C V C V V C a   j C C C C C C V C C C C C C V V C c   # C C C V C V C V B :.u.7.' V C C Z <   b C V C V C C C .   ",
"                                                                                j yXyX                                  ",
"yXyXyXyXyXyXyXyXyXyXyXyXyXyXyXyXyXyXyXyXyXyXyXyXyXyXyXyXyXyXyXyXyXyXyXyXyXyXyXyXyXyXyXyXyXyXyXyXyXyXyXyXyXyXyXyXyXyXyXyX",
"yXyXyXyXyXyXyXyXyXyXyXyXyXyXyXyXyXyXyXyXyXyXyXyXyXyXyXyXyXyXyXyXyXyXyXyXyXyXyXyXyXyXyXyXyXyXyXyXyXyXyXyXyXyXyXyXyXyXyXyX",
"yXyXyXyXyXyXyXyXyXyXyXyXyXyXyXyXyXyXyXyXyXyXyXyXyXyXyXyXyXyXyXyXyXyXyXyXyXyXyXyXyXyXyXyXyXyXyXyXyXyXyXyXyXyXyXyXyXyXyXyX",
"yXyXyXyXyXyXyXyXyXyXyXyXyXyXyXyXyXyXyXyXyXyXyXyXyXyXyXyXyXyXyXyXyXyXyXyXyXyXyXyXyXyXyXyXyXyXyXyXyXyXyXyXyXyXyXyXyXyXyXyX",
"yXyXyXyXyXyXyXyXyXyXyXyXyXyXyXyXyXyXyXyXyXyXyXyXyXyXyXyXyXyXyXyXyXyXyXyXyXyXyXyXyXyXyXyXyXyXyXyXyXyXyXyXyXyXyXyXyXyXyXyX",
"yXyXyXyXyXyXyXyXyXyXyXyXyXyXyXyXyXyXyXyXyXyXyXyXyXyXyXyXyXyXyXyXyXyXyXyXyXyXyXyXyXyXyXyXyXyXyXyXyXyXyXyXyXyXyXyXyXyXyXyX",
"yXyXyXyXyXyXyXyXyXyXyXyXyXyXyXyXyXyXyXyXyXyXyXyXyXyXyXyXyXyXyXyXyXyXyXyXyXyXyXyXyXyXyXyXyXyXyXyXyXyXyXyXyXyXyXyXyXyXyXyX",
"yXyXyXyXyXyXyXyXyXyXyXyXyXyXyXyXyXyXyXyXyXyXyXyXyXyXyXyXyXyXyXyXyXyXyXyXyXyXyXyXyXyXyXyXyXyXyXyXyXyXyXyXyXyXyXyXyXyXyXyX"
};
