/* XPM */
static char *result[] = {
/* columns rows colors chars-per-pixel */
"64 64 138 2 ",
"   c #4A0072",
".  c #540079",
"X  c #59007D",
"o  c #5E0081",
"O  c #640185",
"+  c #680084",
"@  c #670588",
"#  c #680588",
"$  c #6C0B8A",
"%  c #7B0484",
"&  c #770688",
"*  c #720A8A",
"=  c #7A0E8B",
"-  c #6E118C",
";  c #71138E",
":  c #7C118D",
">  c #75188F",
",  c #731791",
"<  c #741B91",
"1  c #781F94",
"2  c #7B2496",
"3  c #7D2A97",
"4  c #7F2A99",
"5  c #880987",
"6  c #850C88",
"7  c #8A0B88",
"8  c #940684",
"9  c #930C87",
"0  c #990D88",
"q  c #94168C",
"w  c #99198D",
"e  c #A40F87",
"r  c #A11188",
"t  c #A91288",
"y  c #802E9A",
"u  c #81309A",
"i  c #863C9C",
"p  c #883F9D",
"a  c #B72590",
"s  c #B82590",
"d  c #BC2891",
"f  c #8636A0",
"g  c #8839A1",
"h  c #D02F92",
"j  c #E43893",
"k  c #F13C95",
"l  c #88409D",
"z  c #8C489F",
"x  c #8D4DA8",
"c  c #9046A5",
"v  c #924DA5",
"b  c #9047A8",
"n  c #934CAA",
"m  c #9553AB",
"M  c #9855AC",
"N  c #9659AA",
"B  c #9C5AAD",
"V  c #9A55B0",
"C  c #9D5CB2",
"Z  c #9B64A9",
"A  c #9E6AAA",
"S  c #9F61B0",
"D  c #A062B0",
"F  c #A56BB3",
"G  c #A970B7",
"H  c #A97EB2",
"J  c #A476BA",
"K  c #AB75B9",
"L  c #AC79BB",
"P  c #B17EBC",
"I  c #FE4397",
"U  c #FF4698",
"Y  c #FF4999",
"T  c #AA80B3",
"R  c #AD81BE",
"E  c #B383BE",
"W  c #B89BBB",
"Q  c #BBA0BE",
"!  c #B482C4",
"~  c #B788C1",
"^  c #BB8FC4",
"/  c #B491C5",
"(  c #BD94C5",
")  c #BC96CB",
"_  c #C097C7",
"`  c #C29BCA",
"'  c #C49CD1",
"]  c #C2ADC2",
"[  c #C5A5CF",
"{  c #C9A6CE",
"}  c #C9BAC7",
"|  c #C6ADD1",
" . c #CCAED2",
".. c #CEB2D3",
"X. c #D3B7D5",
"o. c #D4B9D6",
"O. c #D6BBDF",
"+. c #D7BCE0",
"@. c #D0C5CB",
"#. c #D1C8CB",
"$. c #D7D5CF",
"%. c #D8D7CF",
"&. c #D8CCD3",
"*. c #D5C1DA",
"=. c #D9C2D9",
"-. c #DECCDE",
";. c #DDD7D6",
":. c #DADBD1",
">. c #DFD9D8",
",. c #E1CEDF",
"<. c #E0D0DD",
"1. c #E0DAD9",
"2. c #DEE1D3",
"3. c #E1E5D6",
"4. c #E2E6D8",
"5. c #E5E9DB",
"6. c #E8ECDE",
"7. c #E4D4E1",
"8. c #E6D9E3",
"9. c #E9DDE5",
"0. c #E5D3EA",
"q. c #EADDEF",
"w. c #EBE2E6",
"e. c #EEE6E9",
"r. c #EFE8E9",
"t. c #F3EEED",
"y. c #F5F1EE",
"u. c #F8F4EF",
"i. c #F4F8EA",
"p. c #F9FBEF",
"a. c #ECE0F1",
"s. c #F2EAF4",
"d. c #F6F1F1",
"f. c #F9F6F4",
"g. c #FDFDF3",
"h. c #F9F5FB",
"j. c #FFFFFE",
"k. c None",
/* pixels */
"k.k.k.k.k.k.k.k.k.k.k.k.k.k.k.k.k.k.k.k.k.k.k.k.k.k.k.k.k.k.k.k.k.k.k.k.k.k.k.k.k.k.k.k.k.k.k.k.k.k.k.k.k.k.k.k.k.k.k.k.k.k.k.k.",
"k.k.k.k.k.k.k.k.k.k.k.k.k.k.k.k.k.k.k.k.k.k.k.O , y b M B B B B B B B M M b y $ X k.k.k.k.k.k.k.k.k.k.k.k.k.k.k.k.k.k.k.k.k.k.k.",
"k.k.k.k.k.k.k.k.k.k.k.k.k.k.k.k.k.k.k.k.X , C { 7.t.g.g.g.g.g.g.g.g.g.g.g.g.y.<.( v - o k.k.k.k.k.k.k.k.k.k.k.k.k.k.k.k.k.k.k.k.",
"k.k.k.k.k.k.k.k.k.k.k.k.k.k.k.k.k.k.X , ! e.g.g.f.t.t.t.r.t.t.t.t.t.t.t.t.t.y.u.g.p.&.A ; o k.k.k.k.k.k.k.k.k.k.k.k.k.k.k.k.k.k.",
"k.k.k.k.k.k.k.k.k.k.k.k.k.k.k.k.k.o C s.g.y.t.t.t.t.t.t.t.t.t.t.t.t.t.t.t.t.t.t.r.t.u.i.@.z O k.k.k.k.k.k.k.k.k.k.k.k.k.k.k.k.k.",
"k.k.k.k.k.k.k.k.k.k.k.k.k.k.k.k.@ ' j.d.t.t.t.t.t.t.t.t.t.t.t.t.t.t.t.t.t.t.t.t.t.t.t.t.y.5.T @ k.k.k.k.k.k.k.k.k.k.k.k.k.k.k.k.",
"k.k.k.k.k.k.k.k.k.k.k.k.k.k.k.$ +.j.r.t.t.t.t.t.t.y.t.y.y.t.y.y.y.t.y.t.t.t.t.t.t.t.t.t.t.r.5.W $ k.k.k.k.k.k.k.k.k.k.k.k.k.k.k.",
"k.k.k.k.k.k.k.k.k.k.k.k.k.k.@ O.j.e.t.t.t.t.y.t.t.t.t.t.t.t.t.t.t.t.t.t.y.t.t.t.y.t.t.t.t.y.r.4.W @ k.k.k.k.k.k.k.k.k.k.k.k.k.k.",
"k.k.k.k.k.k.k.k.k.k.k.k.k.o ) j.t.t.t.t.t.t.y.t.t.y.y.t.y.t.y.t.y.y.t.t.t.t.y.t.y.y.t.t.t.t.y.w.2.H o k.k.k.k.k.k.k.k.k.k.k.k.k.",
"k.k.k.k.k.k.k.k.k.k.k.k.X M j.d.t.t.t.t.t.t.t.t.t.t.t.t.t.t.t.t.t.t.y.t.t.y.t.t.t.t.t.t.t.t.t.y.4.2.c o k.k.k.k.k.k.k.k.k.k.k.k.",
"k.k.k.k.k.k.k.k.k.k.k.k.; a.j.t.t.y.y.t.t.t.t.t.t.y.y.t.t.t.y.t.t.t.t.t.t.t.t.t.t.t.t.y.t.t.t.t.t.;.} - k.k.k.k.k.k.k.k.k.k.k.k.",
"k.k.k.k.k.k.k.k.k.k.k.X L j.t.t.t.t.t.t.t.d.t.y.t.t.t.t.t.y.t.t.y.t.y.t.t.y.t.y.t.y.t.t.t.y.t.t.y.8.2.Z o k.k.k.k.k.k.k.k.k.k.k.",
"k.k.k.k.k.k.k.k.k.k.k.- q.j.t.t.y.t.t.t.t.t.t.t.t.t.t.y.t.y.t.y.t.t.y.t.t.t.t.t.y.t.t.y.t.t.t.t.y.t.:.} $ k.k.k.k.k.k.k.k.k.k.k.",
"k.k.k.k.k.k.k.k.k.k.k.m j.h.t.t.t.t.t.y.y.t.y.t.y.t.t.t.t.t.t.t.y.t.t.t.t.y.t.y.t.t.t.y.y.t.t.t.t.y.>.:.z k.k.k.k.k.k.k.k.k.k.k.",
"k.k.k.k.k.k.k.k.k.k.X ` j.t.t.t.t.t.t.t.t.t.t.y.t.t.t.y.t.y.t.t.t.y.t.t.t.y.t.t.y.t.y.t.t.t.t.t.t.y.w.2.T o k.k.k.k.k.k.k.k.k.k.",
"k.k.k.k.k.k.k.k.k.k.# 0.j.t.t.t.y.t.t.t.y.t.t.t.y.t.t.t.t.t.y.t.t.t.t.y.t.t.t.t.t.t.t.t.t.t.t.y.t.y.r.:.] $ k.k.k.k.k.k.k.k.k.k.",
"k.k.k.k.k.k.k.k.k.k.2 h.j.t.t.y.t.t.t.t.t.t.t.t.t.t.t.t.t.t.t.t.t.t.t.t.t.t.y.s.t.t.t.t.t.t.t.t.t.t.t.:.#.2 k.k.k.k.k.k.k.k.k.k.",
"k.k.k.k.k.k.k.k.k.k.g j.h.t.t.t.t.t.f.g.t.t.t.t.t.f.g.t.t.t.t.t.t.t.t.t.t.g.u.t.t.t.t.t.p.y.t.t.t.t.t.;.%.4 k.k.k.k.k.k.k.k.k.k.",
"k.k.k.k.k.k.k.k.k.k.b j.f.t.t.t.t.g.{ P g.t.t.e.g.o.G u.t.t.t.t.t.t.t.t.u.G o.g.t.t.t.g.P { g.t.t.t.t.>.:.i k.k.k.k.k.k.k.k.k.k.",
"k.k.k.k.k.k.k.k.k.k.n j.f.t.t.t.t.y.<.; L g.e.g.=.$ ^ g.t.t.t.t.t.t.t.t.p.( $ =.g.w.g.L ; ,.y.t.y.y.s.1.:.l k.k.k.k.k.k.k.k.k.k.",
"k.k.k.k.k.k.k.k.k.k.n j.f.t.t.y.t.t.g.8.; G g.=.# _ g.t.y.t.y.t.t.t.t.y.t.g._ # =.g.K , 9.g.t.t.t.t.y.;.:.l k.k.k.k.k.k.k.k.k.k.",
"k.k.k.k.k.k.k.k.k.k.n j.f.t.t.t.t.t.t.g.8.2 F 2 ( g.s.t.t.t.t.t.y.t.t.t.t.t.g.( 2 F 2 7.u.t.t.t.t.t.y.1.:.l k.k.k.k.k.k.k.k.k.k.",
"k.k.k.k.k.k.k.k.k.k.n j.h.t.t.t.t.t.s.r.g. .  N g.t.t.t.t.t.y.t.t.y.t.t.t.t.r.j.N    .g.e.t.t.t.t.t.y.1.:.l k.k.k.k.k.k.k.k.k.k.",
"k.k.k.k.k.k.k.k.k.k.n j.f.t.t.t.t.t.t.g.=.; ^ y K g.t.t.t.t.t.t.t.t.t.t.t.t.g.G y ^ , =.p.t.t.t.t.t.y.;.:.l k.k.k.k.k.k.k.k.k.k.",
"k.k.k.k.k.k.k.k.k.k.n j.f.t.t.t.t.t.g.=.$ ( g.8., K g.t.t.t.t.t.t.y.t.t.t.g.L , 7.g.) $ =.g.t.t.t.t.y.1.:.l k.k.k.k.k.k.k.k.k.k.",
"k.k.k.k.k.k.k.k.k.k.n j.h.t.t.t.t.y.=.$ _ g.e.g.9., K f.t.t.t.t.t.t.t.t.g.G ; 9.g.w.g.` # =.y.t.t.t.y.1.:.l k.k.k.k.k.k.k.k.k.k.",
"k.k.k.k.k.k.k.k.k.k.n j.f.t.t.t.t.p. .` g.r.t.t.g.,.~ f.t.t.t.t.t.t.t.t.y.~ ,.g.t.t.t.g.` X.f.t.t.t.t.1.:.l k.k.k.k.k.k.k.k.k.k.",
"k.k.k.k.k.k.k.k.k.k.n j.f.t.y.t.t.t.f.p.t.t.t.t.t.y.g.t.y.t.t.t.y.t.t.y.t.g.y.t.t.t.t.t.g.f.t.t.t.t.y.>.:.l k.k.k.k.k.k.k.k.k.k.",
"k.k.k.k.k.k.k.k.k.k.n j.f.t.t.y.t.t.t.t.t.t.t.t.t.t.t.t.t.t.t.t.t.t.t.t.t.t.t.t.t.t.t.t.t.t.t.t.t.t.y.>.:.l k.k.k.k.k.k.k.k.k.k.",
"k.k.k.k.k.k.k.k.k.k.n j.f.t.t.t.t.t.t.t.t.t.t.y.t.t.t.t.t.t.t.t.t.t.t.t.t.t.t.t.y.t.t.t.t.y.t.t.t.t.y.1.:.l k.k.k.k.k.k.k.k.k.k.",
"k.k.k.k.k.k.k.k.k.k.n j.h.t.t.t.y.y.t.y.t.t.t.t.t.t.t.t.t.t.t.t.t.t.t.t.t.t.t.t.t.t.y.t.t.t.y.t.t.t.y.>.:.l k.k.k.k.k.k.k.k.k.k.",
"k.k.k.k.k.k.k.k.k.k.n j.f.t.t.t.t.t.t.t.t.t.t.t.t.t.t.t.t.t.t.t.t.t.t.t.t.t.t.t.t.t.t.t.t.t.t.t.t.t.y.1.:.l k.k.k.k.k.k.k.k.k.k.",
"k.k.k.k.k.k.k.k.k.k.n j.f.t.t.y.t.t.t.t.t.t.t.y.p.u.f.f.u.p.u.u.f.u.f.u.u.g.u.u.y.t.t.t.y.t.t.y.t.t.y.>.:.l k.k.k.k.k.k.k.k.k.k.",
"k.k.k.k.k.k.k.k.k.k.n j.f.t.t.t.y.t.y.t.t.t.y.r.-.-.-.,.-.-.-.-.-.-.-.-.-.-.-.-.r.y.t.t.y.t.t.t.t.t.y.>.:.l k.k.k.k.k.k.k.k.k.k.",
"k.k.k.k.k.k.k.k.k.k.n j.h.t.t.t.t.t.t.y.t.t.g.` < y 2 2 3 2 3 2 $ = = * $ = : O ! g.r.t.t.y.t.y.t.t.y.>.:.l k.k.k.k.k.k.k.k.k.k.",
"k.k.k.k.k.k.k.k.k.k.n j.f.t.t.t.t.y.t.t.t.t.t.t.r.w.r.w.r.r.u.[ 5 I I a q I U e J g.t.t.t.t.t.t.t.t.y.>.:.l k.k.k.k.k.k.k.k.k.k.",
"k.k.k.k.k.k.k.k.k.k.n j.f.t.t.t.t.t.t.t.y.t.t.t.t.y.y.y.y.t.g.| 5 Y Y d w Y Y t J g.t.t.t.y.t.y.t.t.y.>.:.l k.k.k.k.k.k.k.k.k.k.",
"k.k.k.k.k.k.k.k.k.k.n j.h.t.t.t.t.y.t.y.t.t.t.t.t.t.t.t.t.r.g.| 7 I Y s q I Y t J g.t.t.t.t.t.t.y.t.y.1.:.l k.k.k.k.k.k.k.k.k.k.",
"k.k.k.k.k.k.k.k.k.k.n j.f.t.t.t.y.t.t.t.t.t.t.y.t.y.t.t.t.t.g.| 7 Y I h s I Y t J g.r.t.t.y.t.t.t.t.y.>.:.l k.k.k.k.k.k.k.k.k.k.",
"k.k.k.k.k.k.k.k.k.k.n j.f.t.y.t.t.t.t.y.y.t.t.t.t.t.t.t.y.r.g...6 I I I Y I Y r R g.t.y.t.t.y.t.t.t.t.>.:.l k.k.k.k.k.k.k.k.k.k.",
"k.k.k.k.k.k.k.k.k.k.n j.f.t.t.y.t.t.t.t.t.t.t.y.t.y.t.t.t.t.y.9.> j Y I I I U % ..g.t.t.t.t.t.t.t.t.y.1.:.l k.k.k.k.k.k.k.k.k.k.",
"k.k.k.k.k.k.k.k.k.k.n j.f.t.t.t.t.y.y.t.y.t.t.t.t.t.t.y.t.t.t.g.R % k Y U U 9 x g.r.t.y.y.t.y.t.t.t.y.1.:.l k.k.k.k.k.k.k.k.k.k.",
"k.k.k.k.k.k.k.k.k.k.n j.h.t.t.t.t.t.t.t.t.t.t.y.t.y.t.t.t.t.t.t.p.L * 9 0 & x t.y.t.t.t.y.t.y.t.t.t.t.1.:.l k.k.k.k.k.k.k.k.k.k.",
"k.k.k.k.k.k.k.k.k.k.n j.f.t.t.t.y.t.y.t.t.y.t.t.t.t.y.t.y.t.t.t.t.g.7./ / o.g.t.r.y.t.t.t.t.t.t.t.t.y.>.:.l k.k.k.k.k.k.k.k.k.k.",
"k.k.k.k.k.k.k.k.k.k.n j.f.t.t.t.t.t.t.t.y.t.t.y.t.t.t.t.t.t.t.t.t.t.y.g.g.g.t.t.y.t.t.y.t.t.y.t.t.t.y.>.:.l k.k.k.k.k.k.k.k.k.k.",
"k.k.k.k.k.k.k.k.k.k.n j.f.t.t.y.t.t.t.t.t.t.t.t.t.t.t.t.y.t.y.t.t.t.t.t.r.t.t.t.r.t.t.y.t.t.t.t.t.t.y.1.:.l k.k.k.k.k.k.k.k.k.k.",
"k.k.k.k.k.k.k.k.k.k.n j.f.t.t.t.t.t.t.t.t.t.f.g.u.t.t.t.t.t.t.t.t.t.t.t.t.t.t.y.g.p.y.r.y.y.t.t.t.t.y.>.:.l k.k.k.k.k.k.k.k.k.k.",
"k.k.k.k.k.k.k.k.k.k.n j.f.t.y.t.t.t.t.t.g.y.=.X.8.g.y.t.t.t.t.y.t.t.t.t.t.y.g.7.X.=.y.g.r.y.t.t.t.t.y.1.:.l k.k.k.k.k.k.k.k.k.k.",
"k.k.k.k.k.k.k.k.k.k.n j.f.t.t.t.t.t.t.g.[ 4 # O ; M 9.f.t.t.t.t.t.t.y.r.f.9.M - O $ 4 { g.t.t.t.t.t.y.1.:.l k.k.k.k.k.k.k.k.k.k.",
"k.k.k.k.k.k.k.k.k.k.n j.h.t.y.t.t.t.g.( o k.k.k.k.. 3 w.y.t.t.t.t.y.t.u.w.3 . k.k.k.k.o ( g.t.t.t.t.y.1.:.l k.k.k.k.k.k.k.k.k.k.",
"k.k.k.k.k.k.k.k.k.k.n j.f.t.t.t.t.u.7.- k.k.k.k.k.k.. B g.t.t.t.t.t.t.g.B . k.k.k.k.k.k.$ 7.y.t.t.t.t.1.:.l k.k.k.k.k.k.k.k.k.k.",
"k.k.k.k.k.k.k.k.k.k.n j.f.t.y.t.t.g.E X k.k.k.k.k.k.k.> 8.y.t.t.t.t.u.9., k.k.k.k.k.k.k.X E g.t.t.t.y.1.:.l k.k.k.k.k.k.k.k.k.k.",
"k.k.k.k.k.k.k.k.k.k.n j.f.t.t.t.t.g.S k.k.k.k.k.k.k.k.# =.g.t.t.t.r.g.=.# k.k.k.k.k.k.k.k.D g.t.t.t.t.1.:.l k.k.k.k.k.k.k.k.k.k.",
"k.k.k.k.k.k.k.k.k.k.n j.f.t.t.t.t.g.S k.k.k.k.k.k.k.k.# o.p.t.t.t.t.g.*.# k.k.k.k.k.k.k.k.D g.t.t.t.y.1.:.l k.k.k.k.k.k.k.k.k.k.",
"k.k.k.k.k.k.k.k.k.k.n j.h.t.t.t.t.g.D k.k.k.k.k.k.k.k.# =.f.t.t.y.r.p.o.# k.k.k.k.k.k.k.k.D g.t.t.t.t.>.:.l k.k.k.k.k.k.k.k.k.k.",
"k.k.k.k.k.k.k.k.k.k.n j.f.t.t.t.t.g.D k.k.k.k.k.k.k.k.# =.g.t.t.y.t.g.=.# k.k.k.k.k.k.k.k.C g.r.t.t.y.>.:.l k.k.k.k.k.k.k.k.k.k.",
"k.k.k.k.k.k.k.k.k.k.n j.f.t.t.t.t.g.B k.k.k.k.k.k.k.k.# =.f.t.t.t.r.g.*.# k.k.k.k.k.k.k.k.S g.t.t.t.t.1.:.l k.k.k.k.k.k.k.k.k.k.",
"k.k.k.k.k.k.k.k.k.k.n j.h.t.t.t.t.g.D k.k.k.k.k.k.k.k.O o.d.t.t.y.y.g.o.# k.k.k.k.k.k.k.k.S g.t.t.t.y.1.:.l k.k.k.k.k.k.k.k.k.k.",
"k.k.k.k.k.k.k.k.k.k.n j.f.t.t.t.t.g.D k.k.k.k.k.k.k.k.# =.g.t.t.t.t.p.*.# k.k.k.k.k.k.k.k.D g.t.t.t.y.1.:.l k.k.k.k.k.k.k.k.k.k.",
"k.k.k.k.k.k.k.k.k.k.f j.h.t.t.t.t.g.n k.k.k.k.k.k.k.k.O  .g.t.t.t.r.g. .O k.k.k.k.k.k.k.k.n g.t.t.t.y.;.%.y k.k.k.k.k.k.k.k.k.k.",
"k.k.k.k.k.k.k.k.k.k.O O.j.t.t.r.g.7.$ k.k.k.k.k.k.k.k.k.m g.t.t.t.t.g.m k.k.k.k.k.k.k.k.k.$ 7.g.e.t.e.3.Q O k.k.k.k.k.k.k.k.k.k.",
"k.k.k.k.k.k.k.k.k.k.k.2 0.j.g.g.8.y k.k.k.k.k.k.k.k.k.k.O L g.g.g.g.L O k.k.k.k.k.k.k.k.k.k.u 8.g.g.6.] < k.k.k.k.k.k.k.k.k.k.k.",
"k.k.k.k.k.k.k.k.k.k.k.k.$ V L M ; k.k.k.k.k.k.k.k.k.k.k.k.o u F F y o k.k.k.k.k.k.k.k.k.k.k.k.- M F z $ k.k.k.k.k.k.k.k.k.k.k.k.",
"k.k.k.k.k.k.k.k.k.k.k.k.k.k.X k.k.k.k.k.k.k.k.k.k.k.k.k.k.k.k.. X k.k.k.k.k.k.k.k.k.k.k.k.k.k.k.k.X k.k.k.k.k.k.k.k.k.k.k.k.k.k."
};
