/* XPM */
static char *result[] = {
/* columns rows colors chars-per-pixel */
"64 64 102 2 ",
"   c #000000",
".  c #0B0803",
"X  c #130B03",
"o  c #161106",
"O  c #191307",
"+  c #1A1408",
"@  c #281F0C",
"#  c #582F07",
"$  c #562F08",
"%  c #593008",
"&  c #6F3D0B",
"*  c #733F0B",
"=  c #74400C",
"-  c #7D450C",
";  c #60491D",
":  c #684F1F",
">  c #69501F",
",  c #6A5120",
"<  c #785C24",
"1  c #876729",
"2  c #896829",
"3  c #A07B30",
"4  c #D66F0C",
"5  c #D7710E",
"6  c #C66C14",
"7  c #C96E14",
"8  c #D77414",
"9  c #D97716",
"0  c #DB7916",
"q  c #DB7B19",
"w  c #E27C16",
"e  c #E97F17",
"r  c #DB7F21",
"t  c #B08635",
"y  c #B18835",
"u  c #B98D37",
"i  c #BA8E38",
"p  c #BE9139",
"a  c #DE821E",
"s  c #E8871F",
"d  c #DE8322",
"f  c #DD8925",
"g  c #DD842A",
"h  c #DE882F",
"j  c #DE8830",
"k  c #C6973B",
"l  c #CD9C3D",
"z  c #D19F3E",
"x  c #E08621",
"c  c #E28A24",
"v  c #E7932B",
"b  c #E1923F",
"n  c #CDA03F",
"m  c #D3A13F",
"M  c #E3A33B",
"N  c #F4AF3D",
"B  c #F7B33E",
"V  c #E29441",
"C  c #E59C46",
"Z  c #CEA441",
"A  c #D4A441",
"S  c #DAA642",
"D  c #EBB447",
"F  c #EEB648",
"G  c #ECB949",
"H  c #F6B140",
"J  c #F9B643",
"K  c #FBBB45",
"L  c #F3B649",
"P  c #F0BD4A",
"I  c #FCBD49",
"U  c #FFC047",
"Y  c #FEC24C",
"T  c #FFCA4F",
"R  c #FFC552",
"E  c #FFCB50",
"W  c #FDC55A",
"Q  c #FFC95E",
"!  c #FFD353",
"~  c #FFCB63",
"^  c #FFCE6B",
"/  c #FFD16D",
"(  c #FFD479",
")  c #F0C285",
"_  c #F1C78C",
"`  c #F1C88D",
"'  c #FFDC91",
"]  c #F6D49B",
"[  c #FFE19F",
"{  c #F5D6A2",
"}  c #FFE2A0",
"|  c #FBE1A9",
" . c #FFEAB5",
".. c #FBE7BA",
"X. c #FEECBB",
"o. c #FEEDC1",
"O. c #FFF1C6",
"+. c #FFF2CB",
"@. c #FFF5D2",
"#. c #FFF9D5",
"$. c #FFFBD8",
"%. c None",
/* pixels */
"%.%.%.%.%.%.%.%.%.%.%.%.%.%.%.%.%.                                                              %.%.%.%.%.%.%.%.%.%.%.%.%.%.%.%.",
"%.%.%.%.%.%.%.%.%.%.%.%.%.%.%.%.                                                                %.%.%.%.%.%.%.%.%.%.%.%.%.%.%.%.",
"%.%.%.%.%.%.%.%.%.%.%.%.%.%.%.%.                                                                %.%.%.%.%.%.%.%.%.%.%.%.%.%.%.%.",
"%.%.%.%.%.%.%.%.%.%.%.%.%.%.%.%.                                                                %.%.%.%.%.%.%.%.%.%.%.%.%.%.%.%.",
"%.%.%.%.%.%.%.%.%.              < Z n n l l l l l l l l l l l l l l l l l l l l l l l l l l n t X               %.%.%.%.%.%.%.%.",
"%.%.%.%.%.%.%.%.%.              2 ! E E E E E E E E E E T R E E E T T E T T T T E E R E T T ! S X               %.%.%.%.%.%.%.%.",
"%.%.%.%.%.%.%.%.%.              1 E I Y Y I Y Y Y Y I Y Y Y Y I Y Y Y I Y I Y Y Y Y I Y Y I Y Z X               %.%.%.%.%.%.%.%.",
"%.%.%.%.%.%.%.%.%.              2 E I Y Y R Y Y Y Y R Y Y Y Y Y Y Y Y Y Y Y Y Y Y Y Y Y Y Y T m X               %.%.%.%.%.%.%.%.",
"%.%.%.%.%.%.%.%.%.              2 ! Y Y Y Y Y Y Y Y Y Y Y Y Y Y v a d d d a a c K T Y Y Y Y Y m X               %.%.%.%.%.%.%.%.",
"%.%.%.%.%.%.%.%.%.              2 E I R Y Y Y Y Y Y Y Y Y Y Y Y d 4 8 8 9 9 8 q J Y Y Y Y Y T m X               %.%.%.%.%.%.%.%.",
"%.%.%.%.%.%.%.%.%.              1 E Y Y R Y Y Y Y Y Y Y Y Y Y Y f 8 9 9 9 9 9 q J Y Y Y Y Y T m X               %.%.%.%.%.%.%.%.",
"%.%.%.%.%.%.%.%.%.          .   2 E Y Y Y Y Y Y Y Y Y Y Y Y Y Y c 8 9 9 9 9 9 q J Y Y Y Y Y Y m o   .           %.%.%.%.%.%.%.%.",
"%.              ; A l n m m n z D Y Y Y Y Y Y U ' X. . . . . . .W B J J J J J H c d a a a f a f l A l A l l A 3                 ",
"%.          .   , ! E E T T T T E Y Y Y Y Y Y Y } $.+.@.+.#.@.+./ Y R E R Y E I a 8 8 8 8 8 8 a Y E E E E E ! p                 ",
"%.              , E I Y Y Y Y Y Y Y Y Y Y Y Y Y [ @.+.+.+.+.+.O.^ U Y Y Y Y Y K a 8 9 9 0 9 8 a K R I Y Y I E i .               ",
"%.              : E I Y Y Y Y Y Y Y Y Y Y Y Y Y } @.+.+.+.+.+.O.^ U Y Y Y Y Y I a 8 9 9 0 8 8 s I Y Y Y Y I E i                 ",
"%.              : E Y Y Y Y Y Y Y Y Y Y Y Y Y Y } @.+.+.+.+.@.+.X. . . . . .X.{ h 8 0 9 9 9 8 a I Y Y Y Y Y T i                 ",
"%.              : E Y Y Y Y E Y R Y R Y Y Y Y Y } @.+.+.+.+.+.+.@.+.@.@.@.@.#.o.j 8 9 9 9 9 8 x I Y Y Y Y Y T y                 ",
"%.          .   : T Y Y Y Y Y Y Y Y Y Y Y Y Y Y [ @.+.+.+.+.@.+.+.+.+.+.+.+.+...h 8 9 9 9 9 8 a I Y Y Y Y Y T i .               ",
"%.              : E I Y Y Y Y Y Y Y Y Y Y Y Y Y [ #.+.+.+.+.+.+.+.+.O.+.+.O.+...h 5 9 9 9 9 8 a I Y Y Y Y Y T i                 ",
"%.              > E Y Y Y Y Y R Y Y Y Y Y Y Y Y [ @.+.+.+.+.+.+.( Q Q Q Q ~ ~ W a 9 9 9 9 9 9 a I R Y Y Y Y T i                 ",
"%.              > E Y Y Y Y Y Y R Y Y Y Y Y Y Y [ @.+.+.+.+.+.+.^ K U Y I Y U K q 9 9 9 9 9 8 d I Y Y Y Y Y E u                 ",
"%.          .   > E Y Y Y Y Y Y Y Y Y Y Y Y Y Y [ #.+.+.+.+.+.+.^ Y Y Y Y Y Y I q 8 9 9 9 9 8 a I Y Y Y Y Y T u .               ",
"%.              : T Y Y Y R Y Y Y Y T Y Y Y Y U [ #.+.+.+.+.+.+.^ Y E Y R Y R I x 9 9 9 9 9 8 a I Y Y Y Y Y T u                 ",
"%.              > E Y Y Y Y Y Y Y Y Y Y Y Y Y U [ @.+.+.@.+.+.+.X. .X. .X.X.X.| h 5 9 9 9 9 8 a I Y Y Y Y Y T i                 ",
"%.              > E Y Y Y Y Y Y Y Y Y Y Y Y Y Y } @.+.+.+.+.+.+.@.+.@.+.+.+.#...h 5 0 9 9 0 9 a I Y Y Y Y Y T i                 ",
"%.              , E Y Y Y Y Y Y Y Y Y Y Y Y Y Y } @.+.+.+.+.+.+.+.+.+.+.+.+.+...h 8 9 9 9 9 9 a I Y Y Y Y Y T i .               ",
"%.          .   : T I I Y I Y I Y Y Y Y I Y Y I [ @.+.+.+.+.+.+.+.+.O.O.+.+.+...h 8 0 9 9 9 8 d Y Y Y Y Y I E i                 ",
"%.              % c q a a a a a a a a a a a a q ` $.+.+.+.+.+.+.( W Q Q Q Q Q W d 8 9 9 9 9 9 a I Y Y Y Y I T u                 ",
"%.              # w 8 9 8 9 8 9 8 8 8 9 8 8 9 5 ` #.+.+.+.+.+.O.~ K Y Y U Y Y K q 8 9 9 9 9 8 a I Y Y Y Y Y T u                 ",
"%.              # w 9 9 9 9 9 9 9 9 9 9 9 9 9 8 ` #.O.+.+.+.+.+./ U R Y Y Y Y K a 8 9 9 9 9 8 a Y Y Y Y Y Y T i .               ",
"%.              # w 9 9 9 9 9 9 9 9 9 9 9 9 9 8 ` #.+.+.+.+.+.+./ U Y Y Y Y Y I a 9 9 9 9 9 9 a I Y Y Y Y Y T i                 ",
"%.          .   % w 8 9 0 9 9 9 0 9 9 9 0 8 0 8 _ #.+.+.+.+.+.+.^ U Y Y Y Y Y I q 9 9 9 9 9 8 r I Y Y Y Y Y T u                 ",
"%.              % q 8 8 9 9 9 9 9 9 9 0 9 0 8 8 _ #.+.+.+.+.+.+.^ U Y Y Y Y Y I a 8 9 9 0 9 8 s I Y Y Y Y I T u                 ",
"%.              % w 9 9 9 9 9 9 9 9 9 9 q 8 9 8 _ #.+.+.+.+.+.+.^ U Y Y Y Y Y Y x 8 9 9 9 9 9 d I Y Y Y Y Y E i .               ",
"%.              % w 9 9 9 9 9 9 9 9 9 9 9 9 9 5 _ #.+.+.+.+.+.+.^ K Y U Y I Y K q 9 9 9 9 9 8 x I Y Y Y Y Y E i                 ",
"%.              % w 9 9 9 9 0 9 q 9 9 9 9 9 q 8 _ #.+.+.+.+.+.o.C 9 a a q a a a 9 9 9 9 9 9 8 r I Y Y Y Y Y E u                 ",
"%.              % w 8 9 0 9 9 0 9 9 9 9 9 9 9 8 ` #.+.+.+.+.@.+.b 4 9 9 8 8 8 8 9 9 9 9 9 9 8 x I Y Y Y Y Y E u                 ",
"%.              # w 8 9 9 0 9 9 9 9 9 9 q 8 8 8 _ #.+.+.+.+.+.+.V 5 0 9 9 9 8 9 9 9 0 9 9 9 8 x I Y Y Y Y Y T u .               ",
"%.              # q 8 9 9 9 0 9 9 9 9 9 8 q 8 7 _ #.+.+.+.+.+.o.V 5 9 9 9 9 9 9 9 9 9 9 9 9 9 q I Y Y Y Y Y T u                 ",
"%.              # w 9 9 9 9 9 9 9 q 9 9 9 9 9 9 _ #.+.+.+.+.+.+.V 5 9 9 9 9 9 9 9 9 9 9 9 9 8 x I Y Y Y Y Y T i                 ",
"%.              # w 8 9 9 9 9 9 9 9 9 9 0 9 9 8 _ #.+.+.+.+.+.+.V 5 0 9 9 9 0 9 9 9 9 9 9 9 8 x I Y Y Y Y Y T i                 ",
"%.              # w 9 9 9 9 9 9 9 9 9 9 9 8 9 8 _ #.+.+.+.+.+.+.b 5 0 0 9 9 9 9 9 9 9 q 9 9 8 a I Y Y Y Y Y T i .               ",
"%.              # q 8 8 9 9 9 9 9 9 9 9 9 0 0 8 _ #.+.+.+.+.+.+.V 8 9 9 9 9 9 9 9 9 9 9 9 9 8 a Y Y Y Y Y I E i                 ",
"%.              % w 9 9 9 9 9 9 0 9 9 9 9 9 9 0 _ #.+.+.+.+.+.+.V 5 9 9 9 9 9 9 9 9 9 9 9 9 8 x I Y Y Y Y I T u                 ",
"%.              # w 9 9 9 9 0 9 9 9 9 9 9 9 9 5 _ #.+.+.+.+.+.+.V 5 9 9 0 9 9 9 9 9 9 9 9 9 8 a I Y Y Y Y Y T u                 ",
"%.              # w 9 9 0 9 9 9 9 9 9 9 9 8 9 8 _ #.+.+.+.+.+.+.V 5 9 8 9 9 9 9 9 9 9 9 9 9 8 d Y Y Y Y Y Y T i .               ",
"%.              # q 9 9 9 9 9 0 9 9 9 9 9 0 0 8 _ #.+.+.+.+.+.o.V 0 q q q q 9 q q q q q q q 9 f I Y Y Y Y Y T i                 ",
"%.              % w 9 9 9 9 9 9 9 9 9 9 9 9 9 8 ` #.O.+.+.+.+.+.~ K I K I K K K K K K I K K K K Y Y Y Y Y Y T i                 ",
"%.              % w 8 8 8 9 9 9 9 9 8 9 9 9 9 8 ` #.+.+.+.+.+.+.^ Y Y R Y Y Y Y Y R Y Y Y R Y Y Y Y Y Y Y Y T y                 ",
"%.              % w 9 q 0 w 9 q 9 9 9 9 9 9 9 8 ` #.+.@.+.+.@.+.^ K Y Y Y Y Y Y Y Y Y Y Y Y Y Y T Y Y Y Y Y E p .               ",
"%.              $ 9 7 7 7 7 7 7 8 9 9 9 9 9 9 9 ) +...o.o.o.o...^ Y R R R R R R Y Y Y Y Y Y Y Y L F F G D D Y y                 ",
"%.%.%.%.%.%.%.%.%.o X X X X X X - w 9 9 9 9 9 9 r g d g g g g g ] O.X.O.X.O.X. .Q Y Y Y Y Y Y S @ O + + + + + + %.%.%.%.%.%.%.%.",
"%.%.%.%.%.%.%.%.%.              * w 9 9 9 8 9 9 8 8 8 8 5 8 8 9 { $.+.+.+.+.@.O.~ I Y Y Y Y E m .               %.%.%.%.%.%.%.%.",
"%.%.%.%.%.%.%.%.%.              * w 9 9 9 9 9 9 9 9 9 9 9 9 9 q { #.+.+.+.+.+.o.Q U Y Y Y Y T m X               %.%.%.%.%.%.%.%.",
"%.%.%.%.%.%.%.%.%.          .   * w 9 9 9 9 9 9 9 9 9 9 9 9 9 0 ] +.o.O.O.O.O.X.Q Y Y Y Y Y T m X               %.%.%.%.%.%.%.%.",
"%.%.%.%.%.%.%.%.%.              * w 9 9 9 9 9 9 9 9 8 0 9 9 8 q L Q W W W R Q R Y Y Y Y Y Y T m X               %.%.%.%.%.%.%.%.",
"%.%.%.%.%.%.%.%.%.              * w 8 9 9 9 9 9 8 9 8 8 9 9 8 9 B Y U Y U Y Y Y Y Y Y Y Y Y T m X               %.%.%.%.%.%.%.%.",
"%.%.%.%.%.%.%.%.%.              * e 8 w 9 9 0 q q 0 0 0 q 0 9 q B E Y T R E Y Y T Y Y Y R Y E m .               %.%.%.%.%.%.%.%.",
"%.%.%.%.%.%.%.%.%.              & 8 6 7 6 7 7 7 7 7 7 7 7 7 7 7 M D D D D D D D D D D D D D G k o               %.%.%.%.%.%.%.%.",
"%.%.%.%.%.%.%.%.%.%.%.%.%.%.%.%.X X X X X X X X X X X X X X X X X O O O O O O X O O o O O O O O %.%.%.%.%.%.%.%.%.%.%.%.%.%.%.%.",
"%.%.%.%.%.%.%.%.%.%.%.%.%.%.%.%.                                                                %.%.%.%.%.%.%.%.%.%.%.%.%.%.%.%.",
"%.%.%.%.%.%.%.%.%.%.%.%.%.%.%.%.                                                                %.%.%.%.%.%.%.%.%.%.%.%.%.%.%.%.",
"%.%.%.%.%.%.%.%.%.%.%.%.%.%.%.%.                                                                %.%.%.%.%.%.%.%.%.%.%.%.%.%.%.%."
};
