/* XPM */
static char *result[] = {
/* columns rows colors chars-per-pixel */
"64 64 128 2 ",
"   c #000000",
".  c #080602",
"X  c #140B02",
"o  c #1A0E02",
"O  c #161106",
"+  c #191307",
"@  c #1C1508",
"#  c #241403",
"$  c #291704",
"%  c #221A0A",
"&  c #311A05",
"*  c #2F240E",
"=  c #3B2106",
"-  c #31250E",
";  c #372A10",
":  c #392B11",
">  c #7F450D",
",  c #735822",
"<  c #7C5F25",
"1  c #7E6025",
"2  c #83470C",
"3  c #874A0E",
"4  c #8D4D0E",
"5  c #904F0E",
"6  c #905211",
"7  c #9A5913",
"8  c #826327",
"9  c #846528",
"0  c #8C6B2A",
"q  c #906E2B",
"w  c #92702C",
"e  c #9A742D",
"r  c #9E782F",
"t  c #8E6F31",
"y  c #A47D31",
"u  c #D66F0B",
"i  c #D7700B",
"p  c #D8730D",
"a  c #C66C13",
"s  c #CA6E13",
"d  c #D56F10",
"f  c #CD7115",
"g  c #CE781C",
"h  c #D67313",
"j  c #D97615",
"k  c #D97817",
"l  c #D47E1E",
"z  c #DB7C1A",
"x  c #E47D16",
"c  c #E87F17",
"v  c #A78032",
"b  c #AA8133",
"n  c #DE811D",
"m  c #E2841F",
"M  c #E9841B",
"N  c #DF8421",
"B  c #DD8429",
"V  c #D7912F",
"C  c #DA912D",
"Z  c #C3953B",
"A  c #CD9C3D",
"S  c #D29D3B",
"D  c #E08520",
"F  c #E28A24",
"G  c #E38D28",
"H  c #E6952C",
"J  c #E8972D",
"K  c #E9982E",
"L  c #EC9D31",
"P  c #CFA03F",
"I  c #D4A23F",
"U  c #EEA236",
"Y  c #EFA53D",
"T  c #F2A739",
"R  c #F2A93A",
"E  c #EBB13F",
"W  c #F9B53E",
"Q  c #CC9F40",
"!  c #CEA541",
"~  c #D4A340",
"^  c #D9A641",
"/  c #D4A943",
"(  c #DEAA43",
")  c #F2AB41",
"_  c #EBB447",
"`  c #EDB648",
"'  c #EEBC4A",
"]  c #F7B443",
"[  c #F8B543",
"{  c #FBBB45",
"}  c #F0B748",
"|  c #F4BB4A",
" . c #FBBE4A",
".. c #E7A65B",
"X. c #E8A85D",
"o. c #EAAD60",
"O. c #FFC046",
"+. c #F1C24C",
"@. c #FEC34C",
"#. c #FFCA4F",
"$. c #FFC652",
"%. c #FFCC51",
"&. c #FEC759",
"*. c #FFC95D",
"=. c #FFD454",
"-. c #FFD35E",
";. c #FFCB64",
":. c #FFCD69",
">. c #FBCD75",
",. c #FCCF79",
"<. c #FFD57D",
"1. c #F6D386",
"2. c #FED682",
"3. c #FFD986",
"4. c #FFDA8C",
"5. c #FFDD92",
"6. c #FFE09B",
"7. c #FDE2A3",
"8. c #FEE6AC",
"9. c #FFEAB5",
"0. c #FFEDBC",
"q. c #FEEEC2",
"w. c #FFF1C6",
"e. c #FFF2CB",
"r. c #FFF5D2",
"t. c #FFF9D4",
"y. c #FFF7D8",
"u. c None",
/* pixels */
"u.u.u.u.u.u.u.u.u.u.u.u.u.u.u.u.u.u.                                                      u.u.u.u.u.u.u.u.u.u.u.u.u.u.u.u.u.u.u.",
"u.u.u.u.u.u.u.u.u.u.u.u.u.u.u.u.u.u.                                                        u.u.u.u.u.u.u.u.u.u.u.u.u.u.u.u.u.u.",
"u.u.u.u.u.u.u.u.u.u.u.u.u.u.u.u.u.u.                                                        u.u.u.u.u.u.u.u.u.u.u.u.u.u.u.u.u.u.",
"u.u.u.u.u.u.u.u.u.u.u.u.u.u.u.u.u.u.                                                        u.u.u.u.u.u.u.u.u.u.u.u.u.u.u.u.u.u.",
"u.u.u.u.u.u.u.u.u.u.u.u.u.u.        9 ! A A A A A A A A A A A A A A A A A A A A A A A Z ! ,         u.u.u.u.u.u.u.u.u.u.u.u.u.u.",
"u.u.u.u.u.u.u.u.u.u.u.u.u.u.    .   y =.#.%.#.%.#.#.%.%.#.#.#.$.#.#.#.$.#.#.#.#.#.$.#.#.=.9   .     u.u.u.u.u.u.u.u.u.u.u.u.u.u.",
"u.u.u.u.u.u.u.u.u.u.u.u.u.u.        r %.|  .@.@.@. .@. . .@. .@.@.+.@. .@.@.@.@. .@.@. .%.1         u.u.u.u.u.u.u.u.u.u.u.u.u.u.",
"u.u.u.u.u.u.u.u.u.u.u.u.u.u.        r %. .@.@.@.@.@.@.@.@.@.@.@.@.@.@. .@. .@.@.@.@.@. .=.9   .     u.u.u.u.u.u.u.u.u.u.u.u.u.u.",
"u.u.u.u.u.u.u.u.u.        * A A A A _ #. .#.[ D D D D D D D D D m D D D D D D D D D D D n V Q A ! Z @       u.u.u.u.u.u.u.u.u.u.",
"u.u.u.u.u.u.u.u.u.        - #.%.#.%.@.@.@.@.[ j h j h h j h h h h h h h h h h h h j h h d L %.#.%.| @         u.u.u.u.u.u.u.u.u.",
"u.u.u.u.u.u.u.u.u.        *  .@. .@.@.@. .$.[ z j j k j j j j k k j k k j k j j k j k k d L @. .@._ +         u.u.u.u.u.u.u.u.u.",
"u.u.u.u.u.u.u.u.u.    .   *  .@.@.@.@.@.$.@.[ z j k k j k j j j j j k k k j k j k k j k h L %.@.#.` @   .     u.u.u.u.u.u.u.u.u.",
"u.u.u.u.u.        w / A P ^ @.@.#. .4.0.9.9.7.[ ] [ [ [ [ [ [ ] [ [ ] ] [ ] ] ] [ [ [ ] [ L n N n N S ~ A / 1         u.u.u.u.u.",
"u.u.u.u.u.        b =.$.%.#.@.@.@. .6.y.e.y.q.$.@.$.$.@.$.@.#.@.@.#.#.$.#.$.#.$.@.$.@.$.%.L u j h j  .%.#.=.0   .     u.u.u.u.u.",
"u.u.u.u.u.        v %. .@. .@.@.@.O.5.r.e.e.9.@.@.@.@.@.@.@.@. .@.@.@.@. .@.@.@.@.@.@.@.$.L h k j z { @. .%.0         u.u.u.u.u.",
"u.u.u.u.u.        v %. .$.@.@.@.@.@.6.r.e.r.0.@.@.@.@.@.@.@.@.#.@.@.@.@.@.@.@.@.@.@.@. .$.L h k h z { @. .=.0         u.u.u.u.u.",
"u.u.u.u.u.        v %. .#.@.@.$.@. .6.r.e.r.9.$.@.@.@.@.@.@.O.&.9.9.9.9.9.9.9.9.8.$.@.@.$.L h k j z { $. .%.0         u.u.u.u.u.",
"u.u.u.u.u.        b %.@. .@.@.@.@. .6.r.w.e.9.$.@.@.@.@.@.@.@.*.w.r.e.e.e.r.r.r.w.$.O. .$.L h k j z | @. .=.0   .     u.u.u.u.u.",
"u.u.u.u.u.        y %.$.$.@.@. .@. .6.r.e.e.0.$.@.@.@.@.@.@.@.&.w.e.e.e.e.e.e.e.q.$.@.@.$.L d k h z { $.@.%.0         u.u.u.u.u.",
"u.u.u.u.u.. . . . y %. .@.@.$.@.#. .6.e.q.e.9.$.@.@.@.@.@.@. .&.q.e.e.e.e.e.e.r.q.&.@.@.#.L h k k z {  . .%.0   . . . u.u.u.u.u.",
"        ; ~ ~ ~ ~ } @.@.@.;.9.9.9.9.2.*.;.;.*.@.@.@.$.L z m n F *.;.;.&.6.r.e.e.q.&.@.@.@. .[ [ [ ] D m N m C / I ~ A %         ",
"        : #.#.#.#.#. .@.O.;.e.r.r.t.<.W @.@. .@.@.@.$.H h j h z { @.@.W 4.r.w.e.q.$.@.@.@.@.#.@.$. .z h h u K %.#.%.@.%         ",
"        :  .@.@. .@.@.@.O.;.w.e.e.r.<.O.$.@.@.@.@. .#.J h j j n  .#.#.O.5.r.e.e.q.$.@.@.@. .@.@.@. .z j z h K $. .@.| %         ",
"        : @.@.@.@.@.#.@.@.;.e.e.e.r.<. .@. .@.#.@.$.$.K h z j n  .@.@.O.5.r.e.e.q.&.@.@.$.@.$.$.$. .n j k d K $.@.@.| %         ",
"        : @.@.@.@.@.@.$.O.;.e.e.e.r.<.O.$.@.&.9.9.9.0.>.W [ [ [ @.@.@.O.4.r.e.e.e.9.9.0.9.9.9.9.0.8.B j j h K $. .#.| %         ",
"        : @. .@.@.@.@.@.@.;.e.e.w.r.<.O.@.O.;.e.r.e.y.3. .#.#.@.@.@.@.O.5.r.w.e.e.e.r.r.e.r.e.e.r.q.B h k h J #. .@.| %         ",
"        : #.@.@.@.@. .$.O.;.e.e.e.r.<.O.$.@.;.w.e.e.r.2.{ #.@.@. .@.@.O.4.y.e.e.e.e.e.e.e.e.e.e.e.0.B p k h J $.@.@.| %         ",
"        : @. .@. .@.@.@.@.;.w.e.e.e.<.{ @.{ *.q.e.w.e.2. .@.@.@.@.@.$. .4.e.w.e.e.q.e.w.e.e.e.e.e.q.B j j h J $.@.@.| %         ",
"        & m n n z ) #.@. .;.e.e.w.r.X.k n n G *.*.*.*.$.@.@.$.@.@.$.@.@.&.;.*.*.*.*.*.*.*.5.r.w.e.q.l h j h J %.@.@.| %         ",
"        & j h j h R $. .@.;.e.e.e.t...i k h n { @.@.@.@.@.@.@.@.@.@.@.@.@.O.O.@. .@.@.@.{ 4.r.e.e.q.B h j h J $. .#.| %         ",
"        & j j k j R #.@.O.;.e.e.e.t...i k j n @.@.@.@.@.@.@.@.@.@.@.@.@.@.@.@.@.@.@.@.@. .3.r.w.e.q.B h z h J $.@.@.| %         ",
"        & j k j h R $.@.@.;.e.e.w.t...i k j n @.@.@.@.@.@.@.@.@.@.@.@.@.@.@.#.@.@.@.@.#.{ 4.r.w.r.q.B h j h J #.@.@.| %         ",
"        & j j k h R $.@.@.;.e.e.e.t...u z h n @.@.@.@.@.@.@.@.@.@.@.@.@.@.@.@.@.@.@.@.$. .3.r.e.e.q.B h k h J $.@.@.| %         ",
"        & k j j h T #.@.O.;.e.e.e.y...u k j n  .@.@.@. .@.@.@.@. .$.$.@.@.@.@.$.@.@.@.@.{ 4.r.w.e.0.B h j h K $.@.@.| %         ",
"        & j k j h R #.@.O.;.w.e.e.r...u k h N  .$.@.@.#.@.@.$.@.@.@.@.@.@.@.@.@.$.@.@.$.O.4.y.e.e.q.B h k h J #.@.@.| %         ",
"        & k j j h R $.@.@.;.e.e.e.r...u z h N  . . . . .@. . .@.@.@.@.@.@.@.@.@.@. . . .{ 2.e.w.e.0.B p k h J #. .#.| %         ",
"        & k k j h R $.@.@.;.e.e.w.t...i k j k z m n n n D z z F  .@.@.$.@.@.@.@. .D z N z Y ;.&.*.&.z j z h K $.@.@.| %         ",
"        & j j j h R $.@.O.;.e.e.e.t...i k j j j h j j h h h j z  .@.@. .@.$.@.@.{ z h k p K @.@.@.{ z j j h J #. .#.| %         ",
"        & k j j h R #.@.@.;.e.e.e.t...u j j j j j j j j k j j z  .@.@.@.@. .@.@.{ z h j h L %. .@. .z h j h H $.@.@.| %         ",
"        & j k j h T $.@.O.;.e.e.w.t.X.i z j z z j z z j j k j N  .@.@.@.$.$.$.$. .n k z j L $. .@. .n j z h J $.@.@.| %         ",
"        & k k k h R %.@. .;.e.e.e.r.<.W { { { { [ [  .H d k h z  .#.@. .3.q.9.0.9. .{ { {  .@.@.#. .z j j h J #.@.@.| %         ",
"        & k j j h R #.@.O.;.e.e.w.r.<.O.@.$.$.@.#.@.%.K h k k z  .@.@.{ 5.y.e.y.q.&.@.$.$.@.@.@.@. .z j k h K $.@.@.| %         ",
"        & k k k h R $.$.@.;.e.e.e.r.<.{ @. .@.@.@. .$.J h k h D  .@.#. .5.r.e.e.q.$.@.@.@.@.@.#.#. .z j j h K %.@.#. .%         ",
"        & f s f a U @. .{ *.w.w.w.e.<.@.$.$.$.@.@. .#.J h k h z  .@.@.W 4.e.q.e.0.$.@.@.@. . . . .[ n j z j H ' ` } _ @         ",
"u.u.u.u.u.o o o o 7 M n z G &.&.*.$.5.q.0.q.8.@.@.@.#.J h j j k z n z z R ;.$.*.&.@.@.@.$.U z z x N ] { [ @.w @ % @ @ u.u.u.u.u.",
"u.u.u.u.u.        4 x h h n O.@.@.{ 7.y.e.r.0.$.@.@.#.H h k k k j j j p L #. . . .@.$. .$.K d j j z { $.@.=.0         u.u.u.u.u.",
"u.u.u.u.u.    .   4 x j j m @.@.@.@.7.r.w.e.9.$.@. .$.J d j h h j j k h L $.@.@.@.@.@.@.#.L h z h z | @. .%.0   .     u.u.u.u.u.",
"u.u.u.u.u.        4 x j j n @.@.@. .5.r.e.r.9.$.@. .#.L j z z z k k z j U #.@.@.@.@.@.@.#.L d j j z { @. .=.0         u.u.u.u.u.",
"u.u.u.u.u.        4 x g h D @.@.@.O.6.r.e.e.0.@. .@.@. .{ { { [ { [ { {  .@.@.$.@.@.@. .$.L h j h z { $. .=.0         u.u.u.u.u.",
"u.u.u.u.u.        5 x j h D @.@.@.O.6.r.w.r.9.$.@.@.@.$.@.$.$.$.$.$.$.$.@.@.@.@.@.@.@.@.$.L h z k z {  .| %.0   .     u.u.u.u.u.",
"u.u.u.u.u.        5 c j k D @.@.@.O.6.y.e.r.9.#.@. .@.@. .@.@.@.@. . . .@.@.@.@.@.@.@.@.#.K d j h z  .$.@.=.0         u.u.u.u.u.",
"u.u.u.u.u.        3 j s s l  . . . .5.e.q.w.9.&.$.$.$.$.$.$.$.$.$.$.$.$.$.$.$.$.$.$.$.$.&.U j z z z _ ` _ +.0         u.u.u.u.u.",
"u.u.u.u.u.u.u.u.u.X o X X & x n z z ) &.*.$.;.0.q.0.q.0.q.0.q.0.q.0.q.0.0.q.0.0.q.0.q.0.w.2.[ {  .) - + + + O u.u.u.u.u.u.u.u.u.",
"u.u.u.u.u.u.u.u.u.        # h j j d U #. . .&.e.r.e.e.r.e.r.e.r.e.r.r.e.r.e.e.r.e.r.e.e.y.5.O.#.#.` O         u.u.u.u.u.u.u.u.u.",
"u.u.u.u.u.u.u.u.u.    .   $ j k k j T #.$.@.;.e.e.e.r.e.e.e.e.e.e.r.e.e.e.r.e.r.e.r.e.e.t.4.O.#.#.} @   .     u.u.u.u.u.u.u.u.u.",
"u.u.u.u.u.u.u.u.u.        $ a s a a L @. .{ &.q.q.q.q.q.w.q.w.q.q.q.q.q.q.q.q.q.q.q.q.q.e.1.E _ ` ( +         u.u.u.u.u.u.u.u.u.",
"u.u.u.u.u.u.u.u.u.u.u.u.u.u.X X o X 6 M z z F $.&.$.&.&.&.$.&.&.&.&.$.&.&.&.&.$.&.&.&.&.-.t O @ O + u.u.u.u.u.u.u.u.u.u.u.u.u.u.",
"u.u.u.u.u.u.u.u.u.u.u.u.u.u.        2 x h h z  .@.@. . .@.@. . . .@.@. .@. . .@. . . .{ #.1         u.u.u.u.u.u.u.u.u.u.u.u.u.u.",
"u.u.u.u.u.u.u.u.u.u.u.u.u.u.        2 M j j D @.#.@.$.#.#.@.#.#.#.#.@.$.@.$.#.#.#.#.$.@.=.1   .     u.u.u.u.u.u.u.u.u.u.u.u.u.u.",
"u.u.u.u.u.u.u.u.u.u.u.u.u.u.        > h a a g _ _ _ _ _ _ _ _ _ _ _ _ _ _ _ _ _ _ _ _ _ +.<         u.u.u.u.u.u.u.u.u.u.u.u.u.u.",
"u.u.u.u.u.u.u.u.u.u.u.u.u.u.u.u.u.u.X X X X X O O O O O O O O O O O O O O O O O O O O O O O u.u.u.u.u.u.u.u.u.u.u.u.u.u.u.u.u.u.",
"u.u.u.u.u.u.u.u.u.u.u.u.u.u.u.u.u.u.                                                        u.u.u.u.u.u.u.u.u.u.u.u.u.u.u.u.u.u.",
"u.u.u.u.u.u.u.u.u.u.u.u.u.u.u.u.u.u.                                                        u.u.u.u.u.u.u.u.u.u.u.u.u.u.u.u.u.u.",
"u.u.u.u.u.u.u.u.u.u.u.u.u.u.u.u.u.u.                                                        u.u.u.u.u.u.u.u.u.u.u.u.u.u.u.u.u.u."
};
