/* XPM */
static char *result[] = {
/* columns rows colors chars-per-pixel */
"64 64 213 2 ",
"   c #010000",
".  c #0B0504",
"X  c #0C0A01",
"o  c #0B0607",
"O  c #120607",
"+  c #120E01",
"@  c #140608",
"#  c #150809",
"$  c #1B0A0B",
"%  c #1B0709",
"&  c #141101",
"*  c #1B1401",
"=  c #161409",
"-  c #1A1806",
";  c #250C0D",
":  c #290B0D",
">  c #241D01",
",  c #281D04",
"<  c #260F10",
"1  c #290E13",
"2  c #261011",
"3  c #291012",
"4  c #341416",
"5  c #391619",
"6  c #350E12",
"7  c #29240A",
"8  c #352C00",
"9  c #362802",
"0  c #3A3100",
"q  c #2E2B10",
"w  c #342E12",
"e  c #3B3615",
"r  c #451317",
"t  c #451B1E",
"y  c #491D1F",
"u  c #491418",
"i  c #433502",
"p  c #453901",
"a  c #4B3D01",
"s  c #4B3304",
"d  c #413914",
"f  c #4B1E21",
"g  c #651C22",
"h  c #6A1E24",
"j  c #4E2023",
"k  c #5A2426",
"l  c #5D2529",
"z  c #532224",
"x  c #63272B",
"c  c #66282C",
"v  c #6B2A2E",
"b  c #642126",
"n  c #7C222A",
"m  c #752F32",
"M  c #7B3136",
"N  c #753133",
"B  c #4C4106",
"V  c #534401",
"C  c #594901",
"Z  c #4B441A",
"A  c #474019",
"S  c #574E1E",
"D  c #5D541E",
"F  c #624903",
"G  c #695604",
"H  c #735B04",
"J  c #795D06",
"K  c #744D07",
"L  c #7C6305",
"P  c #756400",
"I  c #5C5421",
"U  c #4A4522",
"Y  c #685E24",
"T  c #6B6025",
"R  c #756A29",
"E  c #7C712C",
"W  c #7F7331",
"Q  c #89262E",
"!  c #82242C",
"~  c #9C2B34",
"^  c #912931",
"/  c #843439",
"(  c #8A363C",
")  c #8B393E",
"_  c #803337",
"`  c #913A3F",
"'  c #9A333B",
"]  c #A92F39",
"[  c #A42C36",
"{  c #BB343F",
"}  c #A6373F",
"|  c #835708",
" . c #846E01",
".. c #896907",
"X. c #8B7500",
"o. c #8A7601",
"O. c #947B01",
"+. c #997605",
"@. c #986908",
"#. c #A47E08",
"$. c #83772A",
"%. c #9B3D43",
"&. c #963B40",
"*. c #BD3440",
"=. c #C43642",
"-. c #C43A46",
";. c #D73C48",
":. c #D23A46",
">. c #9B4146",
",. c #A64249",
"<. c #A94349",
"1. c #A34147",
"2. c #B3474E",
"3. c #BC4A52",
"4. c #B44D52",
"5. c #C44E55",
"6. c #C94F57",
"7. c #C4525A",
"8. c #CF525A",
"9. c #D4545D",
"0. c #D8555E",
"q. c #D54651",
"w. c #EE4250",
"e. c #FD4655",
"r. c #FF4857",
"t. c #FF4B5B",
"y. c #F74553",
"u. c #FB535F",
"i. c #EB414F",
"p. c #DA5C63",
"a. c #ED5E67",
"s. c #EA5D66",
"d. c #FF5361",
"f. c #FF5A67",
"g. c #E56269",
"h. c #F7626B",
"j. c #FD646E",
"k. c #FF6671",
"l. c #FE6A75",
"z. c #FF6E79",
"x. c #FF717D",
"c. c #9A8101",
"v. c #A78803",
"b. c #AE9201",
"n. c #BC9A06",
"m. c #AF8B0E",
"M. c #BEA201",
"N. c #8F8133",
"B. c #988935",
"V. c #9F9138",
"C. c #AD9E3D",
"Z. c #A5953A",
"A. c #B09E3E",
"S. c #C8870B",
"D. c #C29709",
"F. c #C6A601",
"G. c #D7A609",
"H. c #DBB902",
"J. c #E1AE0B",
"K. c #FCA90F",
"L. c #E2BB01",
"P. c #E9B908",
"I. c #FCBD0C",
"U. c #F8B50D",
"Y. c #C0B132",
"T. c #EBC601",
"R. c #F4CB00",
"E. c #FBCE01",
"W. c #FEC20B",
"Q. c #FFCC0C",
"!. c #F9C208",
"~. c #FED301",
"^. c #FFDC01",
"/. c #FFD30B",
"(. c #FBD807",
"). c #FCD518",
"_. c #FFE201",
"`. c #FFE805",
"'. c #FFEC1D",
"]. c #FEDA2A",
"[. c #FDDD39",
"{. c #FDDC33",
"}. c #FFE737",
"|. c #FFF82D",
" X c #AD9D43",
".X c #B3A342",
"XX c #B9A943",
"oX c #C1AE45",
"OX c #CCBB48",
"+X c #C8B547",
"@X c #D3BD4A",
"#X c #D6C24C",
"$X c #DFCD50",
"%X c #FCDE44",
"&X c #E1CD52",
"*X c #E6D353",
"=X c #ECD855",
"-X c #F4DC56",
";X c #F8DF57",
":X c #E5CE4B",
">X c #FEE24D",
",X c #FEE747",
"<X c #FCE256",
"1X c #FCE45A",
"2X c #FEEB5C",
"3X c #FAE755",
"4X c #FFF25F",
"5X c #FFF356",
"6X c #FDE660",
"7X c #FFEF61",
"8X c #FFF561",
"9X c #FFFB62",
"0X c None",
/* pixels */
"0X0X0X0X0X0X0X0X0X0X0X0X0X0X0X0X0X0X0X0X0X0X0X0X0X0X0X0X0X0X0X0X0X0X    0X0X0X0X0X0X0X0X0X0X0X0X0X0X0X0X0X0X0X0X0X0X0X0X0X0X0X0X",
"0X0X0X0X0X0X0X0X0X0X0X0X0X0X0X0X0X0X0X0X0X0X0X0X0X0X0X0X0X0X0X0X0X        0X0X0X0X0X0X0X0X0X0X0X0X0X0X0X0X0X0X0X0X0X0X0X0X0X0X0X",
"0X0X0X0X0X0X0X0X0X0X0X0X0X0X0X0X0X0X0X0X0X0X0X0X0X0X0X0X0X0X0X0X0X  7 7   0X0X0X0X0X0X0X0X0X0X0X0X0X0X0X0X0X0X0X0X0X0X0X0X0X0X0X",
"0X0X0X0X0X0X0X0X0X0X0X0X0X0X0X0X0X0X0X0X0X0X0X0X0X0X0X0X0X0X0X0X    c.v.    0X0X0X0X0X0X0X0X0X0X0X0X0X0X0X0X0X0X0X0X0X0X0X0X0X0X",
"0X0X0X0X0X0X0X0X0X0X0X0X0X0X0X0X0X0X0X0X0X0X0X0X0X0X0X0X0X0X0X0X  * T.R.&   0X0X0X0X0X0X0X0X0X0X0X0X0X0X0X0X0X0X0X0X0X0X0X0X0X0X",
"0X0X0X0X0X0X0X0X0X0X0X0X0X0X0X0X0X0X0X0X0X0X0X0X0X0X0X0X0X0X0X    b._.^.V   0X0X0X0X0X0X0X0X0X0X0X0X0X0X0X0X0X0X0X0X0X0X0X0X0X0X",
"0X0X0X0X0X0X0X0X0X0X0X0X0X0X0X0X0X0X0X0X0X0X0X0X0X0X0X0X0X0X    P ^.R.`.E   0X0X0X0X0X0X0X0X0X0X0X0X0X0X0X0X0X0X0X0X0X0X0X0X0X0X",
"0X0X0X0X0X0X0X0X0X0X0X0X0X0X0X0X0X0X0X0X0X0X0X0X0X0X0X0X0XX   G ^.~.~.,X.X  0X0X0X0X0X0X0X0X0X0X0X0X0X0X0X0X0X0X0X0X0X0X0X0X0X0X",
"0X0X0X0X0X0X0X0X0X0X0X0X0X0X0X0X0X0X0X0X0X0X0X0X0X0X0X0X    H ^.~.~.[.2X1XOX0X0X0X0X0X0X0X0X0X0X0X0X0X0X0X0X0X0X0X0X0X0X0X0X0X0X",
"0X0X0X0X0X0X0X0X0X0X0X0X0X0X0X0X0X0X0X0X0X0X0X0X0X0X0X    O._.~./.[.6X<X7X0X0X0X0X0X0X0X0X0X0X0X0X0X0X0X0X0X0X0X0X0X0X0X0X0X0X0X",
"0X0X0X0X0X0X0X0X0X0X0X0X0X0X0X0X0X0X0X0X0X0X0X0X0X0X    b._.E./.%X6X<X2XoX0X0X0X0X0X0X0X0X0X0X0X0X0X0X0X0X0X0X0X0X0X0X0X0X0X0X0X",
"0X0X0X0X0X0X0X0X0X0X0X0X0X0X0X0X0X0X0X0X0X0X0X0X0X    c._.E./.>X6X;X2X-X-   0X0X0X0X0X0X0X0X0X0X0X0X0X0X0X0X0X0X0X0X0X0X0X0X0X0X",
"0X0X0X0X0X0X0X0X0X0X0X0X0X0X0X0X0X0X0X0X0X0X0X0X    C _.E./.>X6X<X<X2X-X=   0X0X0X0X0X0X0X0X0X0X0X0X0X0X0X0X0X0X0X0X0X0X0X0X0X0X",
"0X0X0X0X0X0X0X0X0X0X0X0X0X0X0X0X0X0X0X0X0X0X0X0X  + H.^.E.}.2X<X1X2X<X7Xd   0X0X0X0X0X0X0X0X0X0X0X0X0X0X0X0X0X0X0X0X0X0X0X0X0X0X",
"0X0X0X0X0X0X0X0X0X0X0X0X0X0X0X0X0X0X0X0X0X0X0X    P _.E.].1X1X1X1X;X;X8X.X    0X0X0X0X0X0X0X0X0X0X0X0X0X0X0X0X0X0X0X0X0X0X0X0X0X",
"0X0X0X0X0X0X0X0X0X0X0X0X0X0X0X0X0X0X0X0X0X0X0X    H.^./.<X2X1X1X1X8X2X<X7XI     0X0X0X0X0X0X0X0X0X0X0X0X0X0X0X0X0X0X0X0X0X0X0X0X",
"0X0X0X0X0X0X0X0X0X0X0X0X0X0X0X0X0X0X0X0X0X0X0X  i ^.~.].6X1X1X1X1X X$X2X2X=X7     0X0X0X0X0X0X0X0X0X0X0X0X0X0X0X0X0X0X0X0X0X0X0X",
"0X0X0X0X0X0X0X0X0X0X0X0X0X0X0X0X    0X0X0X0X0X  o._.E.<X1X1X1X8XR   7 =X1X7X#XX   0X0X0X0X0X0X0X0X0X0X0X0X0X0X0X0X0X0X0X0X0X0X0X",
"0X0X0X0X0X0X0X0X0X0X0X0X0X0X0X          0X0X    F.(.).6X1X1X1X3X,     E 8X-X4XC.    0X0X0X0X0X0X0X0X0X0X0X0X0X0X0X0X0X0X0X0X0X0X",
"0X                                F 0     0X  X T.~.{.6X1X<X9XN.  9 + = -X2X1X8XT                                             0X",
"                                  V (.G   o   - E.~.>X1X<X8XXX    G.C   +X4X<X2X=X=                                             ",
"  ; =.=.=.=.:.~   y 9.5.6.6.6.5.# + R.'.$.    B (.E.>X1X8XA.X   +.).L   Z.4X<X-X8X$.  k 9.5.6.6.6.6.6.6.5.9.y   &.9.5.6.6.6.$   ",
"  ; t.t.t.t.t.-.  l x.l.l.l.l.l.5   H.~.5XB.T *X}.).<X4XB.    ..Q.Q.L   Z.4X1X1X2X$X  2 k.l.k.l.k.l.l.k.k.x.l   7.z.l.l.l.l.2   ",
"  ; e.e.y.y.t.=.  k l.h.j.h.j.l.3   T.~.[.8X4X2X1X1X8XC.    v./.I.Q.B   oX2X1X1X1X4XZ   7.k.h.h.h.j.j.j.h.l.k   5.l.h.h.j.j.<   ",
"  ; e.y.y.y.t.=.  l l.h.h.h.k.0.  7 ^.~.{.1X-X1X1X2X$XX   m./.I.Q.~.7   *X2X3X<X1X8X$.  ) z.k.z.k.h.h.h.h.l.l   5.k.h.h.h.h.<   ",
"  ; t.t.t.t.d.-.  l x.l.z.z.x.`   L _.E.[.1X1X1X1X8XT   J /.I.W.~.~.0   +X4X1X1X<X4X+X  k k.c t p.z.l.z.l.x.x   7.x.l.z.z.z.2   ",
"  O n n n n n g   3 / M M M M <   F.^.~.>X7X2X<X2X$Xo & P.W.W.~.~.^.O.  e 1X1X1X1X2X&X  $ <     1 / M M M / 3   l _ M M M M @   ",
"                                8 ~.~.).2XOX#X4X8XB.  H Q.I.E.~.~.~.~.p   Y 4X1X1X1X1Xe   o S =                                 ",
"  % ] ] ] ] ] ] [ %.<.<.,.2.l    ._.E.}. X  . T 1XI   n.Q.W.~.~.E.~.~.T.>   V.4X;X<X2X*XB.@X8Xq   &.<.<.<.<.,.,.<.<.<.<.<.<.$   ",
"  ; r.r.t.t.t.t.r.f.z.l.l.x.l   F._.R.5XN.  o   q - X J.W.!.~.~.^.^.R.^.M.  = *X2X1X<X2X8X2X2XZ   p.x.l.l.l.l.z.l.l.l.z.l.z.<   ",
"  ; e.e.y.e.e.r.e.d.h.h.h.j.1   L.~.).7X&Xo & V     , W.W.E.~.^.F.R.^.E._.G   E 8X1X1X1X1X<X8XI   3.k.h.j.h.j.j.h.j.j.h.h.j.<   ",
"  ; e.e.y.y.y.e.e.t.k.h.k.a.O * ~.~.].1X2Xw   J.H   L Q.W.E.^.b.  i ~.~.^.H.  7 -X1X1X1X1X1X8XT   2.l.h.j.j.h.h.j.j.j.h.j.h.<   ",
"  < t.t.u.t.t.t.t.f.z.l.x.g.  8 (.E.[.6X2Xq   J.Q.T.~.~.W.~.^.i     b._.E.^.p   OX4X2X1X2X3X9XT   4.x.l.z.l.l.l.l.z.l.l.z.z.<   ",
"  $ ~ ~ ~ ~ ~ ~ ~ ' %.%.1./   i ^.E.%X8XOX  9 Q.I.~.~.~.~.~.C   &   G _.R._. .  D w T 1X1X1X8XT   N 1.%.%.%.%.%.%.%.%.%.%.%.#   ",
"                              a ^.~.%X8XR   ../.I.~.~.~.^.V   9 @.  G _.R._.b.        #X2X1X4XI                                 ",
"  O Q Q Q Q ^ h   4 ` ( ) N   a ^.~.>X6Xq   G.Q.!.~.~._.o.  , K.@.  o._.E.~.R.V V p   .X4X-X2XA   N ) ( / &.5   v &.( ( ( ( #   ",
"  ; t.t.t.t.d.-.  l x.l.z.p.  0 ^.E.3X&X  , W.W./.R.H.~.>   S.W.m.  7 R.~.~.~.(.`.o.  V.8X1X2Xq   g.z.l.l.x.l   7.x.l.z.l.z.<   ",
"  ; e.y.e.y.t.*.  k l.h.k.a.o - R.~.3XOX  a Q.I.~.a   p   s U.I.Q.V   C ^.~.~.E.^.O.  N.4X1X*XX < j.j.h.h.l.k   5.k.h.j.k.h.<   ",
"  ; e.e.y.y.t.=.  k l.h.h.k.4   H.~.5XXX  G Q.!.~.8       | I.I.W.P.>   M._.E.E._.O.  N.4X2XXX  z l.h.h.h.l.k   3.l.h.h.h.j.<   ",
"  ; t.t.t.r.t.-.  l x.l.l.x.N   c.^.,XA.  H Q.!._.P   > + S.I.W.I./.v.  V T.~.R._.X.  B.4X4XE   >.x.l.l.l.x.l   7.x.l.l.l.l.2   ",
"  % *.{ *.{ =.^   f 5.3.3.7./   p ^.}.XX  G Q.W.^.0   S.U.W.I.W.I.W.J.X     F.^.^.H   C.8X1Xq   &.6.3.3.3.6.y   ` 6.3.3.3.3.$   ",
"                                  F.'.+X  a Q.E.L.  , K.I.W.W.W.W.W.W.p     c._.^.p   OX9XXX                                    ",
"  O g g g h g g g g c c c x v 4   i _.:Xo + U./.n.  F I.I.I.W.W.W.W.W.Q...  o.`.T.& = =X8XZ     5 v x x c c x x x c c x c c O   ",
"  ; t.t.t.t.t.t.r.f.z.l.l.l.x.&.    X.|.U   m.`.+.o | I.W.W.W.W.W.W.I.Q.v.   .`.b.  Z 9X.X      &.x.l.l.l.l.z.l.l.z.l.l.l.z.2   ",
"  ; y.e.y.y.e.e.y.u.j.j.k.h.l.&.      M.Y.  7 /.b.  K I.I.W.W.W.W.W.I.Q...  c.`.p   .X3X=   f   M l.h.h.j.j.h.j.h.j.j.j.h.j.<   ",
"  : e.e.e.e.y.r.y.u.k.h.h.g.l.M   f o   m.I   J L.  9 U.W.I.W.I.W.I.I.Q.0   H.b.  d *Xw   N ,.  &.l.h.h.j.j.j.j.j.j.j.j.j.j.<   ",
"  ; r.t.r.t.t.t.t.f.l.k.l.k.z.&.  ,.3.    d X   G 8   @./.Q.W.Q.Q.W./.D.  9 v.    Y 7   z z.%.  &.x.l.l.k.l.k.l.k.l.l.k.k.l.<   ",
"  ; ;.;.;.;.;.;.:.;.p.9.p.8.s.M   / j.&..         X     ..G.G.G.G.G.#.*   * X         f p.s.M   N s.8.9.9.0.9.9.9.9.0.9.9.9.;   ",
"                                                                                                                                ",
"  . r r r r u 6   $ f t t t t t t t t t t t f #   5 y t y t t t y y y t t y 5   # f t t t t t f t t t t t f $   4 y t t t t .   ",
"  ; t.t.t.t.t.-.  l x.k.l.k.l.l.l.l.k.k.l.k.x.j   8.z.k.l.l.l.k.k.l.k.l.k.z.9.  j z.k.l.k.l.l.k.l.l.l.l.k.x.l   7.z.k.l.l.l.<   ",
"  ; e.e.e.y.t.=.  k l.h.j.h.j.j.j.h.k.j.h.h.k.f   8.k.j.j.j.j.j.j.j.j.j.j.k.8.  f k.h.j.j.j.j.j.j.j.j.h.h.l.l   5.k.h.j.j.j.<   ",
"  ; e.e.e.e.t.=.  l l.f.j.j.j.j.j.j.j.k.k.h.l.f   8.l.h.j.j.j.j.j.j.j.j.h.l.9.  j l.h.j.j.j.j.j.j.j.k.j.h.l.l   5.k.h.j.j.j.2   ",
"  ; e.e.t.e.t.=.  k z.k.k.k.k.k.k.k.k.k.k.j.z.f   9.l.k.k.k.k.k.k.k.k.k.k.l.9.  f z.k.k.k.k.k.k.k.k.k.k.k.z.l   5.z.k.k.k.k.<   ",
"  ; w.w.w.i.y.{   k k.s.a.a.a.a.s.a.a.a.a.a.h.f   3.h.a.a.a.a.s.s.h.a.a.a.h.5.  f h.s.a.a.a.g.s.a.a.a.a.s.j.k   3.h.a.a.h.a.;   ",
"      .   . .       .   . .   . @ . .   .   .     o .     . . o o   .     .       . .     . . O .   .     .           .         ",
"    ; ; ; ; ; ; : < < ; < < 1 @   # < ; < ; ; 2 2 2 ; 2 ; < <     ; < ; 2 2 < 2 1 ; ; < < 2 #   O 2 ; < 2 ; 2 2 1 < < ; < <     ",
"  : e.r.e.e.e.e.e.d.k.k.j.h.z.(   %.z.h.j.k.k.j.j.j.k.j.k.k.h.# # h.k.k.j.j.j.j.k.j.k.j.h.z.%.  ) z.j.j.j.k.j.k.k.k.j.k.k.j.1   ",
"  ; e.e.e.e.t.e.e.d.k.j.k.j.l.(   %.z.j.k.j.k.j.k.j.k.j.j.k.h.# # h.k.j.j.k.k.j.k.j.j.k.j.k.%.  ( z.j.j.k.j.k.j.j.k.j.j.j.j.2   ",
"  : e.e.e.e.e.e.e.d.j.j.j.h.l.(   %.l.h.j.j.j.j.j.j.j.j.j.j.h.# # h.j.j.j.j.j.j.j.j.j.j.h.z.%.  ( l.j.j.j.j.j.j.j.j.j.j.j.j.<   ",
"  ; e.e.e.e.e.r.e.d.k.j.j.j.z.(   %.l.j.j.k.j.j.k.k.j.k.j.j.h.# # h.k.j.k.j.j.j.j.j.j.j.h.z.%.  ( l.h.j.j.k.j.j.k.j.j.k.k.j.2   ",
"  ; e.e.e.e.r.e.e.d.k.j.k.h.z.(   %.z.h.j.j.k.j.j.j.j.j.j.k.h.# # h.k.j.j.k.k.j.k.k.j.k.j.l.%.  ( z.j.k.j.j.k.j.j.j.k.j.j.k.<   ",
"    : ; ; ; ; ; : ; < < < < < #   # 2 2 2 2 2 2 ; 2 2 2 < < <     < < < < ; 2.z.j.k ; 2 < 2 #   # 2 ; 2 2 2 ; 2 2 2 2 ; < 1     ",
"0X                                                                          0X0X0X                                            0X"
};
