/* XPM */
static char *result[] = {
/* columns rows colors chars-per-pixel */
"60 60 205 2 ",
"   c #010000",
".  c #0A0504",
"X  c #0D0A04",
"o  c #0D0B09",
"O  c #140B0A",
"+  c #1B0C0C",
"@  c #140909",
"#  c #1E130D",
"$  c #1C1612",
"%  c #210E0E",
"&  c #271F0E",
"*  c #2D1514",
"=  c #361717",
"-  c #371818",
";  c #3B1B1B",
":  c #311718",
">  c #2D2511",
",  c #29241B",
"<  c #352A13",
"1  c #332A13",
"2  c #3C2424",
"3  c #3A2525",
"4  c #3B362A",
"5  c #421E1E",
"6  c #4C3D1D",
"7  c #433519",
"8  c #4A2525",
"9  c #512727",
"0  c #5E302D",
"q  c #483F31",
"w  c #563635",
"e  c #413A2D",
"r  c #662C2C",
"t  c #6A2D2D",
"y  c #702F2F",
"u  c #6C3231",
"i  c #753333",
"p  c #7D3636",
"a  c #763A39",
"s  c #7D3D3D",
"d  c #703837",
"f  c #52421E",
"g  c #554521",
"h  c #4D4535",
"j  c #544938",
"k  c #5A503E",
"l  c #604D27",
"z  c #6C572A",
"x  c #725C2B",
"c  c #78632F",
"v  c #7A6630",
"b  c #6E4444",
"n  c #764848",
"m  c #7B4C4B",
"M  c #704545",
"N  c #6A5E4A",
"B  c #6E6146",
"V  c #776D56",
"C  c #7A7157",
"Z  c #843838",
"A  c #8E3E3D",
"S  c #813737",
"D  c #903E3E",
"F  c #81403F",
"G  c #886E34",
"H  c #8D7136",
"J  c #8D7638",
"K  c #957A39",
"L  c #8B4444",
"P  c #844141",
"I  c #934343",
"U  c #9D4444",
"Y  c #924B4B",
"T  c #9B4D4D",
"R  c #8C5555",
"E  c #865353",
"W  c #915757",
"Q  c #925A5A",
"!  c #A54949",
"~  c #AA4A4A",
"^  c #A54847",
"/  c #B44D4D",
"(  c #AB504F",
")  c #A55554",
"_  c #BD5151",
"`  c #B65959",
"'  c #BB5D5D",
"]  c #B25757",
"[  c #87795E",
"{  c #8D7E61",
"}  c #907F63",
"|  c #A46666",
" . c #A76F6F",
".. c #BE6464",
"X. c #B66E6E",
"o. c #B86F6F",
"O. c #BA7676",
"+. c #A77070",
"@. c #CE5959",
"#. c #C35959",
"$. c #DC5E5E",
"%. c #DE605F",
"&. c #CD6665",
"*. c #DF6060",
"=. c #D86967",
"-. c #C57979",
";. c #E46262",
":. c #E96464",
">. c #EE6A6A",
",. c #F16767",
"<. c #F56A6A",
"1. c #FD6D6D",
"2. c #F67575",
"3. c #FA7575",
"4. c #F77C7B",
"5. c #FD7A7A",
"6. c #EE7777",
"7. c #9E823E",
"8. c #A4843E",
"9. c #A88B3E",
"0. c #9C8840",
"q. c #AB8B42",
"w. c #A48641",
"e. c #B18F44",
"r. c #BD9B49",
"t. c #B29446",
"y. c #AE9044",
"u. c #BBA74F",
"i. c #9D8F70",
"p. c #9E9373",
"a. c #918366",
"s. c #A79675",
"d. c #B1A07D",
"f. c #C59E4B",
"g. c #C9A34E",
"h. c #C7A34D",
"j. c #C9AB53",
"k. c #D2A951",
"l. c #D9B355",
"z. c #E5BC59",
"x. c #E1B953",
"c. c #DFC15C",
"v. c #E6C15C",
"b. c #EAC55E",
"n. c #EDC95F",
"m. c #F6C65E",
"M. c #F9C75E",
"N. c #FCCA5D",
"B. c #F3CB5E",
"V. c #FED15F",
"C. c #DEC162",
"Z. c #EBCD62",
"A. c #FDCD61",
"S. c #FFCF69",
"D. c #F6CD62",
"F. c #FED464",
"G. c #FED966",
"H. c #FFDC68",
"J. c #FAD26A",
"K. c #FDD472",
"L. c #FED379",
"P. c #FFDC79",
"I. c #F3D06D",
"U. c #FFE36C",
"Y. c #FFE177",
"T. c #BEAC86",
"R. c #BAA783",
"E. c #BBB991",
"W. c #D78585",
"Q. c #FF8383",
"!. c #FE8B8B",
"~. c #F69393",
"^. c #FA9696",
"/. c #FE9A9A",
"(. c #F59B9B",
"). c #E79090",
"_. c #C7B78D",
"`. c #C9BD93",
"'. c #C3AF89",
"]. c #FEA4A4",
"[. c #FFA8A8",
"{. c #F7A1A1",
"}. c #FFB2B2",
"|. c #FFB8B8",
" X c #D9C79B",
".X c #FFDA91",
"XX c #FFE797",
"oX c #E6D3A5",
"OX c #EBDBAB",
"+X c #E6D9A9",
"@X c #FDDEA3",
"#X c #F6DBAB",
"$X c #FADEAD",
"%X c #FDE1AF",
"&X c #FEEBAA",
"*X c #F5E3B1",
"=X c #FEE3B2",
"-X c #FEEAB6",
";X c #FEEEBA",
":X c #FFE5B9",
">X c #FFF2BD",
",X c #E8E3B0",
"<X c #FFF5C2",
"1X c #FFFCC4",
"2X c None",
/* pixels */
"2X2X2X2X2X2X2X2X2X2X2X2X2X2X2X2X2X2X2X2X2X2X2X2X2X2X2X2X        2X2X2X2X2X2X2X2X2X2X2X2X2X2X2X2X2X2X2X2X2X2X2X2X2X2X2X2X",
"2X2X2X2X2X2X2X2X2X2X2X2X2X2X2X2X2X2X2X2X2X2X2X2X2X2X2X    > > .   2X2X2X2X2X2X2X2X2X2X2X2X2X2X2X2X2X2X2X2X2X2X2X2X2X2X2X",
"2X2X2X2X2X2X2X2X2X2X2X2X2X2X2X2X2X2X2X2X2X2X2X2X2X2X  X K F.F.7.X   2X2X2X2X2X2X2X2X2X2X2X2X2X2X2X2X2X2X2X2X2X2X2X2X2X2X",
"2X2X2X2X2X2X2X2X2X2X2X2X2X2X2X2X2X2X2X2X2X2X2X2X2X.   y.U.A.B.U.t.    2X2X2X2X2X2X2X2X2X2X2X2X2X2X2X2X2X2X2X2X2X2X2X2X2X",
"2X2X2X2X2X2X2X2X2X2X2X2X2X2X2X2X2X2X2X2X2X2X2X2X.   G H.N.M.A.M.H.G   X 2X2X2X2X2X2X2X2X2X2X2X2X2X2X2X2X2X2X2X2X2X2X2X2X",
"2X2X2X2X2X2X2X2X2X2X2X2X2X2X2X2X2X2X2X2X2X2X2X2X2Xx n.F.A.F.A.A.A.n.< . 2X2X2X2X2X2X2X2X2X2X2X2X2X2X2X2X2X2X2X2X2X2X2X2X",
"2X2X2X2X2X2X2X2X2X2X2X2X2X2X2X2X2X2X2X2X2X2X2X2XZ.U.A.A.A.A.A.A.A.H.t.  . 2X2X2X2X2X2X2X2X2X2X2X2X2X2X2X2X2X2X2X2X2X2X2X",
"2X2X2X2X2X2X2X2X2X2X2X2X2X2X2X2X2X2X2X2X2X2X2X  8.H.M.A.A.A.F.A.A.G.Z.f   2X2X2X2X2X2X2X2X2X2X2X2X2X2X2X2X2X2X2X2X2X2X2X",
"2X2X2X2X2X2X2X2X2X2X2X2X2X2X2X2X2X2X2X2X2X2XX   8.H.A.A.A.A.A.A.A.N.G.9.  . 2X2X2X2X2X2X2X2X2X2X2X2X2X2X2X2X2X2X2X2X2X2X",
"2X2X2X2X2X2X2X2X2X2X2X2X2X2X2X2X.       2X2X  1 v.G.M.F.A.A.A.A.N.N.P.c.>   2X2X      . 2X2X2X2X2X2X2X2X2X2X2X2X2X2X2X2X",
"2X2X2X2X2X2X2X2X2X2X2X2X2X2X2X    & f     2X  x H.A.A.A.F.A.A.A.K.@X=X&XB   2X    j ,     2X2X2X2X2X2X2X2X2X2X2X2X2X2X2X",
"2X2X2X2X2X2X2X2X2X2X2X2X2X2X2X  6 b.G.H   .   w.G.M.A.A.A.A.N.S.%X=X*X<Xs.  .   a.>XOXh   2X2X2X2X2X2X2X2X2X2X2X2X2X2X2X",
"2X2X2X2X2X2X2X2X2X2X2X2X2X2X  # v.H.F.Z.6   & j.H.M.A.A.A.A.N..X:X%X%X>X`.,   h ,X-X-X+X$   2X2X2X2X2X2X2X2X2X2X2X2X2X2X",
"2X2X2X2X2X2X2X2X2X2X2X2X2X    J H.m.M.H.7.  7 b.G.A.A.A.A.N.K.-X=X=X$X-X+Xh   a.>X*X#X1Xa.    2X2X2X2X2X2X2X2X2X2X2X2X2X",
"2X2X2X2X                    X z.F.A.M.H.j.  g F.A.N.A.A.A.N..X=X%X=X%X=X-Xk .  X>X$X%X-XoXo                     2X2X2X2X",
"2X2X2X    @ * * * : * : *   f G.N.A.M.F.A.K f.G.A.A.F.A.A.A.@X=X%X=X*X%X>XR.i.*X=X%X%X%X>Xh   * : * : * : * O     2X2X2X",
"2X2Xo + D *.>.5.5.z.5.!.]   G H.A.A.A.A.A.H.G.N.A.A.A.A.A.S.%X=X%X=X=X=X%X-X>X=X=X=X=X%X<X[   ] Q.5.Q.5.4.5.2.T +   2X2X",
"2X. + #.1.:.>.5.5.5.2.Q.L   9.G.M.A.A.A.A.m.M.A.A.A.A.A.N.K.=X=X=X=X=X=X=X%X#X=X=X%X=X%X>Xs.  L Q.2.5.5.5.5.5.Q.&.%   2X",
". . I 1.*.:.>.5.5.5.2.Q.a   r.G.A.F.A.A.M.F.F.M.A.A.A.A.N.L.=X=X=X=X=X%X%X=X-X=X=X=X=X%X>XT.  a Q.2.5.5.5.5.5.2.!.T     ",
"  O *.:.:.:.>.3.5.3.3.!.u   f.G.A.A.A.A.F.F.G.H.G.A.A.A.N.L.=X=X=X=X=X-X>X>X*X-X%X=X=X*X-X'.  d Q.5.5.5.5.5.5.5.4.2.+   ",
"  : <.;.:.:.:.2.5.5.3.Q.s   r.H.N.A.A.F.q.6 J r.b.A.A.A.N.I.$X%X=X=X=XOXT.a.j s.-X=X=X%X>XR.  s Q.2.5.5.5.5.5.5.5.5.;   ",
"  ; <.;.:.:.:.:.5.5.2.Q.L   8.H.A.A.A.F.K       g b.G.M.V.Y.<X:X#X-XOXj   .   a.-X=X%X%X>Xs.  Y !.2.5.5.5.5.5.5.5.Q.;   ",
"  - <.;.:.:.:.:.>.3.5.Q.' . v H.A.A.A.A.G.7.X & G B.A.G.B.j._.*X>X=XOX{ , X p.>X=X=X=X%X>XC   ( Q.2.5.Q.5.5.5.5.5.Q.;   ",
"  - <.;.:.:.:.:.:.:.>.5.=.X < F.M.A.A.M.U.u.  c U.A.F.g.6 X o j `.=X*X1XV   E.1X$X%X%X=X-X4 . @.<.<.3.2.2.2.3.2.2.5.;   ",
"  - <.:.:.:.:.:.:.:.;.:.,.= . l.F.N.A.N.F.z.H h.F.D.G.<   g l . 4 >X#X-X_.{ oX=X=X=X*X-X X. = <.;.;.:.:.:.:.:.:.;.<.-   ",
"  - <.:.:.:.:.:.:.:.:.;.1.A   c H.M.F.A.A.N.H.F.A.A.F.q.q.F.K.s.d.-X%X%X-X>X=X=X=X=X$X>XV   A 1.;.:.:.:.:.:.:.:.;.1.-   ",
"  - ,.*.;.;.;.;.;.;.;.;.;.%.+ X l.G.M.F.A.A.A.A.A.A.A.G.H.F.F.XX<X%X=X=X=X%X=X=X=X$X>X Xo + *.:.;.;.;.;.;.;.;.;.;.:.=   ",
"  ; 1.<.<.<.<.<.<.1.<.<.,.3.^   < F.A.N.A.A.A.A.A.A.A.A.M.A.N.A.%X=X=X=X%X=X=X=X%X=X-Xe   ^ 3.<.1.,.1.,.1.,.1.<.<.1.;   ",
"  * _ / _ / / / / / / / / / _ : . z H.A.M.A.A.A.A.A.A.A.A.A.A.N.K.%X=X=X=X=X=X$X*X<XB   : _ / / / / / / / / / / / _ *   ",
"        .     .     .   .           z F.G.M.A.A.A.A.A.A.A.A.F.A.N.L.=X=X=X=X$X-X-XB       .         .                   ",
"  + n b b b M b m 9   = t t r r d -   6 z.H.A.A.A.A.A.A.A.A.A.A.A.N.L.%X=X=X<XoXh   3 M b b M n 8   5 i r t t t r t +   ",
"  3 }.].[.].[.{.|. .  D 3.1.1.1.5.6.9   # w.D.G.G.A.A.A.N.A.A.N.A.V.N.K.&X*Xs.$   w ).[.].[.].}.Q   ! 3.,.1.1.1.1.1.;   ",
"  3 ].~./.~./.~.].|   S ,.;.;.;.>.Q.Q.L O   > 8.l.J.H.H.H.H.G.G.H.G.D.x.w.,   o E {.{.~.^.~.^.].R   U <.;.;.;.;.;.,.-   ",
"  3 ].^./././.~.[.|   Z <.:.:.:.<.5.2.Q.=.0 @   X f H e.g.k.k.h.e.H f X   @ d W.[.(.^././././.].W   U 1.;.:.:.:.;.,.=   ",
"  2 ].^./././.~.[.|   Z <.:.:.;.>.5.5.2.Q.Q.=.s ; @         .       @ ; n W.].]./././././././.].W   ^ 1.$.:.:.:.;.<.=   ",
"  2 ].^./././.~.[.|   Z 1.:.:.:.:.3.5.5.2.2.Q.!.4.&.) F u . . u F ) &.4.^.[./.~./././././.^./.].W   U 1.;.:.:.:.;.<.=   ",
"  2 ].^./././.~.[.|   Z <.:.:.:.:.:.5.5.5.4.5.2.5.Q.Q.!.Q.# % Q.Q.Q.Q.4.3.!./././././././././.].W   U 1.;.:.:.:.:.<.-   ",
"  2 ].^./././.~.[.|   Z <.:.:.:.:.:.,.2.5.5.5.5.5.3.2.5.5.+ + 5.2.2.5.5.5.5.!././././././././.].W   U 3.*.:.:.:.;.<.-   ",
"  2 ].^./././.~.[.|   Z <.:.:.:.:.:.;.:.<.2.<.<.2.<.2.<.<.+ + 4.5.5.5.5.5.5.5.5.Q.!.!.!.!.Q.!.^.Y   ^ 1.;.:.:.:.;.,.-   ",
"  3 ].^./././.~.[.|   Z <.:.:.:.:.:.:.:.;.;.:.:.;.:.;.:.:.O + 5.5.5.5.5.5.5.5.5.5.5.5.5.5.5.1.z.I   U 1.%.:.:.:.:.<.-   ",
"  3 ]././././.~.[.|   S 1.;.:.:.:.:.:.:.:.:.:.:.:.:.:.:.:.+ + 5.5.5.5.5.5.5.5.5.5.5.5.5.5.5.5.Q.I   U 1.%.:.:.:.;.1.=   ",
"  3 /.~.~.~.~.~.].|   S ,.;.;.;.;.;.;.%.;.;.;.;.:.*.;.:.;.O + 5.4.3.3.3.3.3.4.4.3.3.2.5.2.5.2.Q.L   U 1.$.;.*.;.*.:.=   ",
"  3 }.[.[.[.[.{.|.+.  D 3.1.<.1.1.1.1.1.1.1.1.1.1.1.1.1.1.+ % Q.Q.Q.Q.!.Q.Q.Q.Q.Q.Q.Q.Q.Q.Q.Q.!.Y   ! 3.,.1.1.1.<.3.;   ",
"  $ E m m m m m E w   5 S i i i i i i i i i i i i i i i i . o s F s s s s F s s s s P s s s s P 8   9 p y i i i i p +   ",
"                                                                                        o o . .                         ",
"  * / ^ ~ ^ / ` ` ` ] ] ` ` ` ` ` ` ' 9   L &.] ` ` X.X.X.X.X.X.o.o.o.o.X.-.R . 8 / ~ ! ! ( ` ] ` ` ` ` ` ` ` ` ` #.*   ",
"  ; 1.<.<.,.3.Q.Q.Q.Q.Q.Q.Q.Q.Q.Q.Q.Q.a . ..!.4.Q.Q./.[.].].].].].[.].[.{.}.O.. y 3.1.<.<.3.!.Q.Q.Q.Q.Q.Q.Q.Q.Q.4.!.;   ",
"  = ,.;.;.;.>.3.5.3.5.5.3.3.5.3.2.5.Q.a   ' Q.2.3.3.~./.^.^.^./.^.^.^.^.~.[.-.@ y <.;.;.;.>.5.2.2.5.3.3.5.3.3.5.3.Q.;   ",
"  = <.:.:.;.>.5.5.5.5.5.5.5.5.5.5.5.Q.a   ' Q.5.5.5.^./././././././././././.(.| @.,.:.:.;.<.5.5.5.5.5.5.5.Q.5.5.5.Q.;   ",
"  = <.:.:.:.:.3.5.5.5.5.5.5.5.5.5.5.5.a . ' Q.2.5.3.!./.^././././././././.^.].~.:.:.:.:.:.:.5.5.5.5.5.5.5.5.5.5.5.5.;   ",
"  = <.;.:.:.:.,.5.5.5.5.5.5.5.5.5.5.Q.a   ' Q.3.5.5.5.^././././././././.^.].W.9 U ,.:.:.:.:.2.5.5.5.5.5.5.5.5.5.3.Q.;   ",
"  = <.;.:.:.:.:.2.5.5.5.5.5.5.5.5.5.Q.a . ..Q.2.5.5.5.Q././././././././.~.[.O.. t <.:.:.:.:.;.2.5.5.5.5.5.5.5.5.5.Q.;   ",
"  = <.;.:.:.:.:.:.>.3.5.5.5.5.5.5.5.Q.a . ' Q.3.5.5.5.5.Q.!.^./././././.^.[.O.o t <.:.:.:.:.:.:.<.3.5.5.5.5.5.5.5.Q.;   ",
"  = <.;.;.:.:.:.:.;.:.>.<.>.,.,.>.<.<.u . ' Q.2.5.5.5.5.3.5.Q.Q.Q.Q.Q.Q.Q.!.... t <.:.:.:.:.:.:.:.:.>.>.,.<.>.>.<.<.-   ",
"  + :.:.:.:.:.:.:.:.:.;.:.:.:.;.:.:.,.t . ' Q.3.5.5.5.5.5.5.5.3.5.5.5.5.2.Q.' . t <.:.:.:.:.:.:.:.:.;.:.:.:.:.;.;.;.+   ",
"    U 1.$.;.:.:.:.:.:.:.:.:.:.:.:.:.<.r . ..Q.2.5.5.5.5.5.5.5.5.5.5.5.5.3.Q.'   t <.:.:.:.:.:.;.:.:.:.:.:.:.:.$.1.^     ",
"2X  % @.1.:.;.;.;.:.;.;.;.;.;.:.;.:.,.r . ' Q.2.5.2.3.5.5.3.5.3.5.2.5.5.2.Q.' . r ,.:.:.:.;.:.:.;.:.:.;.:.;.:.1.@.%   2X",
"2X2X  % U :.<.<.<.<.,.<.1.,.<.<.,.<.1.u . ..!.5.Q.Q.Q.Q.Q.Q.Q.Q.Q.Q.5.Q.4.!.... u 1.<.,.<.<.,.<.<.,.,.<.,.,.;.U %   2X2X",
"2X2X2X    + : ; - - - - - - - - = = ; +   * 5 ; ; ; ; ; ; ; ; ; 5 ; ; ; ; 5 *   + ; = = = = = = = = - - ; = +     2X2X2X",
"2X2X2X2X                                                                                                        2X2X2X2X"
};
