/* XPM */
static char *result[] = {
/* columns rows colors chars-per-pixel */
"60 60 130 2 ",
"   c #010100",
".  c #0C0600",
"X  c #0C0B00",
"o  c #110C00",
"O  c #141100",
"+  c #1A1400",
"@  c #1F1B00",
"#  c #261700",
"$  c #221C00",
"%  c #2B1900",
"&  c #262100",
"*  c #2C2400",
"=  c #2F2800",
"-  c #312401",
";  c #342C00",
":  c #3A2B01",
">  c #3C3400",
",  c #452900",
"<  c #423700",
"1  c #483702",
"2  c #423900",
"3  c #4B3D01",
"4  c #533200",
"5  c #4C4100",
"6  c #534600",
"7  c #544900",
"8  c #5C4E00",
"9  c #4C4610",
"0  c #654F03",
"q  c #714500",
"w  c #645600",
"e  c #695203",
"r  c #6C5E00",
"t  c #765A03",
"y  c #7A5D04",
"u  c #6D6100",
"i  c #746500",
"p  c #7D6103",
"a  c #766A00",
"s  c #7A6900",
"d  c #875100",
"f  c #8C5401",
"g  c #915600",
"h  c #985B00",
"j  c #846704",
"k  c #856A00",
"l  c #8E6E04",
"z  c #837100",
"x  c #897700",
"c  c #8D7C00",
"v  c #957404",
"b  c #927E00",
"n  c #A16100",
"m  c #A37E05",
"M  c #978200",
"N  c #9F8C00",
"B  c #AA8305",
"V  c #A38D00",
"C  c #AE8B03",
"Z  c #B48805",
"A  c #BE8E06",
"S  c #AA9200",
"D  c #AE9A00",
"F  c #B29900",
"G  c #B89D01",
"H  c #BDA300",
"J  c #A49624",
"K  c #B2A327",
"L  c #B3A428",
"P  c #DC8400",
"I  c #C29606",
"U  c #C59806",
"Y  c #CB9B06",
"T  c #E48801",
"R  c #ED8E00",
"E  c #F18F00",
"W  c #EE9100",
"Q  c #EE9800",
"!  c #F19000",
"~  c #FD9700",
"^  c #FF9901",
"/  c #C0A600",
"(  c #C5AC00",
")  c #CAAE00",
"_  c #D4A207",
"`  c #DEAB07",
"'  c #CBB100",
"]  c #D2B500",
"[  c #D4BA00",
"{  c #DABD00",
"}  c #E1AC07",
"|  c #FFA301",
" . c #E6B107",
".. c #EBB405",
"X. c #E4B803",
"o. c #ECBB07",
"O. c #EAB308",
"+. c #EEB808",
"@. c #F0B707",
"#. c #FDBB04",
"$. c #F2BA08",
"%. c #DDC100",
"&. c #E5C500",
"*. c #E8C700",
"=. c #E4CA00",
"-. c #EDCD00",
";. c #FEC706",
":. c #FCCB05",
">. c #FEC408",
",. c #FFCB08",
"<. c #EED300",
"1. c #EEDB00",
"2. c #F3D200",
"3. c #FBD501",
"4. c #F6DA00",
"5. c #FEDC00",
"6. c #FFD208",
"7. c #FFD908",
"8. c #F7E000",
"9. c #FEE400",
"0. c #FFEB00",
"q. c #FFF300",
"w. c #FEFB00",
"e. c #D2C12F",
"r. c #E8D534",
"t. c #EEDB35",
"y. c #FFEF3B",
"u. c #FEF43C",
"i. c #FFFB3D",
"p. c None",
/* pixels */
"p.p.p.p.p.p.p.p.p.p.p.p.p.p.p.p.p.p.p.p.p.p.p.p.p.p.p.    p.p.p.p.p.p.        p.p.p.p.p.p.    p.p.p.p.p.p.p.p.p.p.p.p.p.",
"p.p.p.p.p.p.p.p.p.p.p.p.p.p.p.p.p.p.p.p.p.p.p.p.p.p.        p.p.p..     . X     p.p.p..         p.p.p.p.p.p.p.p.p.p.p.p.",
"p.p.p.p.p.p.p.p.p.p.p.p.p.p.p.p.p.p.p.p.p.p.p.p.p.p.  + i             z *.*.s           . t o   p.p.p.p.p.p.p.p.p.p.p.p.",
"p.p.p.p.p.p.p.p.p.p.p.p.p.p.p.p.p.p.p.p.p.p.p.p.p.p.  X 4./ > O O 2 H 0.9.8.0.H > O O < U o..   p.p.p.p.p.p.p.p.p.p.p.p.",
"p.p.p.p.p.p.p.p.p.p.p.p.p.p.              p.p.p.p.p.    [ q.9.2.2.9.9.4.3.5.5.9.9.2.2.5.6.Y     p.p.p.p.p.p.p.p.p.p.p.p.",
"p.p.p.p.p.p.p.p.p.p.p.p.        X o X         p.p.p.    D 9.3.9.5.4.5.5.5.5.5.5.4.5.8.:.,.m         p.p.p.p.p.p.p.p.p.p.",
"p.p.p.p.p.p.p.p.p.p.p.    5 V ] *.-.*.] V 5     p.p..   u 0.3.5.> > 5.5.5.5.5.9.> > 5.:.,.0   .       p.p.p.p.p.p.p.p.p.",
"p.p.p.p.p.p.p.p.p.p.    F 0.9.9.9.5.5.9.9.0.F     p.p.  $ 4.5.3.&   / 9.4.5.9.(   & 4.;.+.+   p.p.    p.p.p.p.p.p.p.p.p.",
"p.p.p.p.p.p.p.p.p.p.    F 0.9.9.9.5.5.9.9.0.F     p.p.    N 0.9.a   r 0.5.3.0.u   a 7.,.v     p.p.p.    p.p.p.p.p.p.p.p.",
"p.p.p.p.p.p.p.p.p.p.      5 V ] *.-.*.] V 3       p.p.p.  + =.0.)   X =.9.5.=.o   ' 5.` o   p.p.p.p.    p.p.p.p.p.p.p.p.",
"p.p.p.p.p.p.p.p.p.p.    o       . X .       o     p.p.p.    > <.w.7   u 0.0.i   7 0.O.-     p.p.p.    p.p.p.p.p.p.p.p.p.",
"p.p.p.p.p.p.p.p.p.p.  o P n 4 # X . o # 4 n P o   p.p.p.p.    * H F   . ) ) .   C Z $   . p.p.p.      p.p.p.p.p.p.p.p.p.",
"p.p.p.p.p.p.p.p.p.p.  o R | ^ ^ E R ! ~ ^ | W o   p.p.p.p..       X .   . X   . .                     p.p.p.p.p.p.p.p.p.",
"p.p.p.p.p.p.p.p.p.p.  o R ^ ! ^ ^ ^ ^ ^ ! ^ R o   p.p.      = c >           .     2 v -                   p.p.p.p.p.p.p.",
"p.p.p.p.p.p.p.p.p.p.  o R ^ ^ ~ ^ ~ ~ ^ ^ ^ R o   p.      s 8.0.7   + D O X D +   5 9.6.y       p.p.          p.p.p.p.p.",
"p.p.p.p.p.p.p.p.p.p.  o R ^ ^ ^ ^ ^ ^ ^ ^ ^ R X   .   + H q.<.>   O [ 8.X X 8.[ +   > =.9.A +     p.p.p.p.      p.p.p.p.",
"p.p.p.p.p.p.p.p.p.p.  X W ^ ~ ~ ! ^ ^ ~ ~ ^ R X     = &.0.4.;   $ { 0.*.X X *.0.%.&   ; 4.5.` *   . p.p.p.p.  p.p.p.p.p.",
"p.p.p.p.p.p.p.p.p.p.  o T ^ ^ | ^ ^ ~ ^ ~ | P X   : <.9.3.5.> - =.9.5.5.> > 5.3.9.=.; > 5.5.6.+.;     p.p.p.p.p.p.p.p.p.",
"p.p.p.p.p.p.p.p..       o % 4 h R ^ ~ ~ ^ ^ ,   ; <.9.5.5.8.4.5.5.5.5.5.5.4.9.5.5.8.5.4.5.5.5.6.+.-   . p.p.p.p.p.p.p.p.",
"p.p.p.p.p.p.        X X .       X g ^ ~ ^ q   $ =.9.3.5.5.5.5.5.5.5.5.5.5.5.5.5.5.5.5.5.5.5.5.3.6.} +     p.p.p.p.p.p.p.",
"p.p.p.p.p.    5 V ] *.-.*.] V 5     d | P     ( 0.3.5.5.5.5.5.5.5.5.5.5.5.5.5.5.5.5.5.5.5.5.5.5.3.,.I .   p.p.p.p.p.p.p.",
"p.p.p.p.    F 0.9.9.5.5.5.9.9.0.F   # ! ^ k D 9.3.5.5.5.5.5.5.5.5.5.5.5.4.4.5.5.5.5.5.5.5.5.5.5.5.3.,.l     p.p.p.p.p.p.",
"p.p.p.p.    F 0.9.9.9.5.9.9.9.0.F   o R #.0.9.5.5.5.5.5.5.5.5.5.5.5.5.5.> > 9.5.3.5.5.5.5.5.5.5.5.5.:.,.<   . p.p.p.p.p.",
"p.p.p.p.      5 V ] *.-.*.] V 5     o W 5.3.5.5.5.5.5.5.5.5.5.5.5.8.0.&.X X *.0.9.5.5.5.5.5.5.5.5.5.5.,._ .   p.p.p.p.p.",
"p.p.p.p.    o       . X .       o   . ..9.5.5.5.5.5.5.5.5.5.5.5.9.[ 5 O     + 5 [ 9.5.5.5.5.5.5.5.5.5.:.,.i     p.p.p.p.",
"p.p.p.p.  o P n 4 # X . X # 4 h P o X <.5.5.5.5.5.5.5.5.5.5.5.9.[ X   .         X ] 9.5.5.5.5.5.5.5.5.5.,...+   p.p.p.p.",
"p.p.p.p.  o ! | ^ ^ E R E ^ ^ | E . X -.5.5.5.5.5.5.5.5.5.5.5.9.7   8 [ X X [ 8   7 9.5.5.5.5.5.5.5.5.5.:.,.j     p.p.p.",
"p.p.p.p.  o R ^ ! ^ ^ ^ ^ ^ ~ ^ R . X -.5.5.5.5.5.5.5.5.5.5.5.2.+   =.4.X X 4.=.  + 2.5.5.5.5.5.5.5.3.5.5.;. .o   p.p.p.",
"p.p.p.p.  o R ^ ~ ~ ~ ~ ~ ~ ^ ^ E . X -.9.5.5.5.5.5.5.5.5.5.5.2.+   =.4.X X <.5.> > 5.5.5.5.5.5.5.5.5.5.9.:.,.e   . p.p.",
"p.p.p.p.  o R ^ ~ ~ ^ ^ ^ ^ ~ ^ R . X -.5.5.5.5.5.5.5.5.5.5.5.9.7   8 [ X . &.q.8.4.5.5.5.5.5.5.5.5.5.5.5.3.,.I     p.p.",
"p.p.p.p.  o R ^ ~ ^ ^ ~ ^ ~ ^ ^ R . X -.5.5.5.5.5.5.5.5.5.5.5.9.[ X         o 5 [ 9.5.5.5.5.5.5.5.5.5.5.5.5.;.>.*   p.p.",
"p.p.p.p.  o R ^ ~ ^ ~ ^ ~ ^ ^ ^ E X o -.9.5.5.5.5.5.5.5.5.5.5.3.0.[ 5 O     .   X [ 9.5.5.5.5.5.5.5.5.5.5.5.:.,.y   . p.",
"p.p.p.p.  o R ^ ^ ^ ~ ^ ^ ~ ~ ^ R . X <.7.5.5.5.5.5.5.5.5.5.5.5.3.8.0.*.. X [ 8   7 0.5.5.5.5.5.5.5.5.5.5.5.3.,.A     p.",
"p.p.p.p.  o R ^ ~ ^ ^ ~ ~ ^ ~ ^ R . X -.9.5.5.5.5.5.5.5.5.5.5.5.> > 9.-.X X 4.=.  + 2.5.5.5.5.5.5.5.5.5.5.5.5.>.@.+   p.",
"p.p.p.p.  o R ^ ~ ^ ~ ^ ~ ^ ^ ^ R . X -.5.5.5.5.5.5.5.5.5.5.5.2.O   =.4.X X 4.*.  O 2.5.5.5.5.5.5.5.5.5.5.5.5.:.,.1   p.",
"p.p.p.p.  o R ^ ^ ~ ^ ~ ^ ~ ~ ^ R . X -.9.5.5.5.3.5.5.5.5.5.5.9.7   8 [ X X [ 8   7 9.5.5.5.5.5.5.5.5.5.5.5.5.:.,.p   . ",
"p.p.p.p.  o R ^ ~ ^ ~ ~ ~ ~ ~ ^ Q X X *.2.2.5.9.0.5.3.5.5.5.5.8.[ X   .         o [ 9.5.5.5.5.5.5.5.5.5.5.5.5.3.,.B     ",
"p.p.p.p.  o R ^ ~ ~ ^ ^ ~ ~ ^ R g     O X O * 7 M *.0.5.5.5.5.5.9.[ 5 O     O 5 [ 9.3.5.5.5.5.5.5.5.5.5.5.5.5.3.,.Y     ",
"p.p.p.p.  o R ^ ~ ^ ~ ~ ^ ^ f o       . X         o M 9.5.5.5.5.5.8.0.*.X X *.0.9.5.5.5.5.5.5.5.5.5.5.5.5.5.5.3.>.`     ",
"p.p.p.p.  o R ^ ~ ~ ~ ~ | f     9 J e.r.t.r.e.J 9     x 0.3.5.5.5.5.5.5.> > 9.5.5.5.5.5.5.5.5.5.5.5.5.5.5.5.5.4.,.O.o   ",
"p.p.p.p.  o W ^ ~ ^ ~ ^ ~ +   L i.u.u.y.y.y.u.u.i.L   @ 3.5.5.5.5.5.5.5.4.5.9.5.5.5.5.5.5.5.5.5.5.5.5.5.5.5.> > ,.O.o   ",
"p.p.p.p.  o R ^ ~ ~ ^ ^ R o   L i.u.u.y.y.y.u.i.i.K   O -.9.5.5.5.5.5.5.5.5.5.5.5.5.5.5.5.5.5.5.5.5.5.5.5.*.. o #. ..   ",
"p.p.p.p.  o R ^ ~ ^ ~ ^ R o     9 J e.r.t.r.e.J 9     o -.5.5.5.5.5.5.5.5.5.5.5.5.5.5.5.5.5.5.5.5.5.5.3.9.'   * ,._     ",
"p.p.p.p.  o R ^ ~ ^ ~ ^ R o   O       . X         O   X -.9.5.5.5.5.5.5.5.5.5.5.5.5.5.5.5.5.5.5.5.5.5.4.0.c   8 7.B     ",
"p.p.p.p.  o R ^ ~ ~ ^ ^ R . X { N 7 & X X o & 7 V { X X -.5.5.5.5.5.5.5.5.5.5.5.5.5.5.5.5.5.5.5.5.5.3.5.4.*   C 7.e     ",
"p.p.p.p.  o R ^ ~ ^ ~ ^ R . X -.0.9.5.<.-.<.5.9.0.<.X X -.9.5.5.5.5.5.5.5.5.5.5.5.5.5.5.5.5.5.5.5.5.5.q.s   ; >.$.@   p.",
"p.p.p.p.  o T ! W ~ ^ | W . X -.5.5.5.5.9.5.5.3.5.-.X X -.8.5.5.5.5.5.5.5.5.5.5.5.5.5.5.5.5.9.9.9.0.2.r     G 7.v     p.",
"p.p.p.p.    o . o # 4 n P o X -.5.5.5.5.5.5.5.5.9.-.X X -.5.5.5.5.5.5.5.5.5.5.5.5.5.5.5.5.5.-.{ H a +     N 7.} +   p.p.",
"p.p.          X         o   X <.5.5.5.5.5.5.5.5.5.-.X X -.9.5.5.5.5.5.5.5.5.5.5.5.5.5.5.9.w           > ' 9.@.:     p.p.",
"      9 J e.r.t.r.e.J 9     O -.5.5.5.5.5.5.5.5.9.-.X X -.5.5.5.5.5.5.5.5.3.5.5.5.5.5.3.9.w   @ > i ( 0.0._ -     p.p.p.",
"    L i.u.u.u.y.y.u.i.i.L   o -.9.5.5.5.5.5.5.5.5.-.X X -.9.5.5.9.5.5.9.5.9.5.5.9.5.5.9.9.9.2.5.0.w.0.X.y X     p.p.p.p.",
"    L i.u.u.y.y.y.y.i.i.L   o -.5.5.5.5.5.5.5.5.9.-.X X 2.5.5.5.-.-.-.-.-.-.-.-.-.-.-.-.-.-.-.*.( M 5 .       p.p.p.p.p.",
"      9 J e.r.t.r.e.J 9     X -.5.5.5.5.5.5.5.5.9.*.X X -.9.5.2 . O o o o O X O o O X o X o X .           p.p.p.p.p.p.p.",
"    O         X         O   O <.5.3.3.5.5.5.5.3.5.<.O   p.p.p.                                    . p.p.p.p.p.p.p.p.p.p.",
"  O { V 7 & O X o & 7 V { O   S 0.0.9.9.9.5.8.0.0.S     p.p.p.p.p.p.p.p.p.p.p.p.p.p.p.p.p.p.p.p.p.p.p.p.p.p.p.p.p.p.p.p.",
"  X 1.0.9.7.-.-.<.3.9.0.1.X     5 V ] *.-.*.] V 3     p.p.p.p.p.p.p.p.p.p.p.p.p.p.p.p.p.p.p.p.p.p.p.p.p.p.p.p.p.p.p.p.p.",
"    V 0.9.9.9.9.9.9.0.0.V             X o X         p.p.p.p.p.p.p.p.p.p.p.p.p.p.p.p.p.p.p.p.p.p.p.p.p.p.p.p.p.p.p.p.p.p.",
"p.    5 V ] =.-.*.] V 3     p.p.p..             p.p.p.p.p.p.p.p.p.p.p.p.p.p.p.p.p.p.p.p.p.p.p.p.p.p.p.p.p.p.p.p.p.p.p.p.",
"p.p.        X o X         p.p.p.p.p.p.p.p.p.p.p.p.p.p.p.p.p.p.p.p.p.p.p.p.p.p.p.p.p.p.p.p.p.p.p.p.p.p.p.p.p.p.p.p.p.p.p.",
"p.p.p.p.              p.p.p.p.p.p.p.p.p.p.p.p.p.p.p.p.p.p.p.p.p.p.p.p.p.p.p.p.p.p.p.p.p.p.p.p.p.p.p.p.p.p.p.p.p.p.p.p.p."
};
