/* XPM */
static char *result[] = {
/* columns rows colors chars-per-pixel */
"64 64 225 2 ",
"   c #9E3B01",
".  c #9B3701",
"X  c #A33E01",
"o  c #A93D02",
"O  c #A44402",
"+  c #AB4606",
"@  c #B14704",
"#  c #B74C01",
"$  c #B35504",
"%  c #B35B04",
"&  c #B85A02",
"*  c #B1540B",
"=  c #BB5100",
"-  c #B55F17",
";  c #BD6302",
":  c #BD6905",
">  c #B5641C",
",  c #B66A1F",
"<  c #BF7215",
"1  c #BD7423",
"2  c #C25900",
"3  c #CB6A03",
"4  c #C36D0E",
"5  c #C66601",
"6  c #C67307",
"7  c #CD7302",
"8  c #CB7409",
"9  c #D27201",
"0  c #D37B05",
"q  c #D07708",
"w  c #D57E07",
"e  c #CE8608",
"r  c #D18506",
"t  c #DA8604",
"y  c #D58A05",
"u  c #DD8B04",
"i  c #D18208",
"p  c #D68A09",
"a  c #CE940A",
"s  c #D69207",
"d  c #DD9305",
"f  c #D89909",
"g  c #D09D14",
"h  c #C98F1A",
"j  c #E18400",
"k  c #E38A03",
"l  c #E79302",
"z  c #E99302",
"x  c #E69B02",
"c  c #EA9C03",
"v  c #F09F02",
"b  c #D9AC0A",
"n  c #D9A70A",
"m  c #DCB90A",
"M  c #E7A303",
"N  c #EBA303",
"B  c #E7AB02",
"V  c #EDAC02",
"C  c #E3A308",
"Z  c #E9AD08",
"A  c #F0A302",
"S  c #F0AB03",
"D  c #E5B305",
"F  c #EFB202",
"G  c #EFBB02",
"H  c #ECB208",
"J  c #F0B403",
"K  c #F1BA03",
"L  c #C9872B",
"P  c #C38020",
"I  c #CA902D",
"U  c #C68231",
"Y  c #D1A13F",
"T  c #DDBD39",
"R  c #EEC303",
"E  c #EECC03",
"W  c #F3C403",
"Q  c #F8C702",
"!  c #F4CC05",
"~  c #F9CA03",
"^  c #F5C50A",
"/  c #F6CA0C",
"(  c #EAD909",
")  c #F5D404",
"_  c #F9D203",
"`  c #F4DB04",
"'  c #F9DB03",
"]  c #F6D30C",
"[  c #F6DB0B",
"{  c #F9DF08",
"}  c #F6CA13",
"|  c #F6CC1C",
" . c #F4DC17",
".. c #F5E404",
"X. c #F9E303",
"o. c #F6EC04",
"O. c #F9EB03",
"+. c #F3EA08",
"@. c #F7F403",
"#. c #F9F303",
"$. c #F9F902",
"%. c #F7F40B",
"&. c #F9F90A",
"*. c #F8F509",
"=. c #F7EB15",
"-. c #F6E917",
";. c #F6F312",
":. c #F6F419",
">. c #F8F91A",
",. c #F8F71B",
"<. c #F5CB23",
"1. c #F5CD29",
"2. c #F5D828",
"3. c #F4CE35",
"4. c #F3CF3A",
"5. c #F4D331",
"6. c #F4D33C",
"7. c #F3DE37",
"8. c #F4E52D",
"9. c #F6F424",
"0. c #F7F629",
"q. c #F7F829",
"w. c #F9F92A",
"e. c #F8E136",
"r. c #F6E539",
"t. c #F7F63A",
"y. c #F7F83B",
"u. c #FBFD3D",
"i. c #F8F33D",
"p. c #DCB846",
"a. c #D9B456",
"s. c #E4C348",
"d. c #ECD944",
"f. c #F5D244",
"g. c #F4D44C",
"h. c #F2DB41",
"j. c #E7D05B",
"k. c #F3D75A",
"l. c #F3D75B",
"z. c #F5E849",
"x. c #F7F64C",
"c. c #F7F84B",
"v. c #F9FA4C",
"b. c #F8F145",
"n. c #F6E252",
"m. c #F8EB52",
"M. c #F4E95C",
"N. c #F2E756",
"B. c #FDFE52",
"V. c #F5F45A",
"C. c #F5F558",
"Z. c #F3DC6D",
"A. c #F1D974",
"S. c #F3DD7C",
"D. c #EEE364",
"F. c #F2E464",
"G. c #F4E965",
"H. c #F3EB6E",
"J. c #F9E86C",
"K. c #FDFE63",
"L. c #F4F26E",
"P. c #FAFC6D",
"I. c #F6F961",
"U. c #EDE071",
"Y. c #F4EA71",
"T. c #F4E37F",
"R. c #F4ED7F",
"E. c #F7E879",
"W. c #FCFE73",
"Q. c #FCFC7A",
"!. c #F5F477",
"~. c #EEEA8D",
"^. c #F6E780",
"/. c #F6E88B",
"(. c #F4F183",
"). c #F8F787",
"_. c #EFEA9B",
"`. c #F8EB95",
"'. c #F7ED95",
"]. c #F9F99D",
"[. c #EFE1A4",
"{. c #EFEBA9",
"}. c #F3E4A5",
"|. c #F8ECA6",
" X c #F9F6A4",
".X c #EFE5B4",
"XX c #EEE5B9",
"oX c #EDEEBE",
"OX c #F4EBBE",
"+X c #F8EEB6",
"@X c #F3F2B4",
"#X c #FBF5B3",
"$X c #F3F2BB",
"%X c #FAF0BE",
"&X c #EEEBC3",
"*X c #EFE6C1",
"=X c #F2EDCC",
"-X c #F1E9C7",
";X c #FBF5C5",
":X c #EEEAD3",
">X c #EEEDDB",
",X c #F2EDD5",
"<X c #F2EEDC",
"1X c #F4F1D2",
"2X c #FBF6D2",
"3X c #F3F2DB",
"4X c #FCFADD",
"5X c #FCF8D6",
"6X c #EDECE5",
"7X c #ECECEC",
"8X c #F0EFE1",
"9X c #F6F3E2",
"0X c #FDFCE1",
"qX c #F0F0EF",
"wX c #FDFBEC",
"eX c #F8F6ED",
"rX c #EDEDF4",
"tX c #EDEEF8",
"yX c #EFF1F8",
"uX c #F3F3F3",
"iX c #F8F7F5",
"pX c #FAFAF5",
"aX c #F3F4FB",
"sX c #F6F8FE",
"dX c #FDFDFD",
/* pixels */
"7X7X7X7XdXdXdXsX7X7XrXqXdXdXdXiX7XrX7XuXdXdXdXiX7X7X7XuXdXdXdXaXtXyXtXsXdXdXdXuX6X7X7XiXdXdXdXrX7X7X7XdXdXdXdX7X7X7XqXdXdXdXdX7X",
"iXiXiXiXuXuXiXuXiXiXiXiXuXuXuXiXiXiXiXiXuXuXqXuXsXsXiX1X+X'.R.J.F.G.H.(. X$X3XiXsXdXiXuXuXiXuXiXiXiXiXyXuXuXiXiXiXuXiXuXuXuXuXiX",
"dXdXdXdX7X7X7X7XdXdXdXdX7X7X7XuXdXdXdXiX7XrXrX9X#XJ.e. .' X.X.X.X.X.O.O.O.O.-.b.).;XdXyX7X7X7XdXdXdXdX7X7X7XrXdXdXdXdX7X7X7XuXdX",
"dXdXdXsX7X7X7XuXdXdXdXiX7X7X7XuXdXdXdXiXrX*XZ.2.) ' ' ' ` ' ' ` ` ..' ..O.O.O.#.O.#.t.~.>XtX7XiXdXdXdX7X7X7XqXdXdXdXiXrX7X7XuXdX",
"dXdXdXdX7X7X7X7XdXdXdXiX7X7X7XrXdXdXdX2Xk.] _ _ _ _ ! ! K W K G G G W R R ) ` ..+.#.#.@.,.R.>XdXdXdXdX7X7X7X7XdXdXdXsX7X7X7X7XdX",
"iXiXiXiXuXuXuXiXiXiXiXiXuXuXuXuXsXeXT.} ~ _ ! ^ K J V S V V V S V V F F F G G G E ) ..#.@.$.9. XiXsXuXuXuXuXiXiXiXiXiXiXuXuXuXiX",
"7X7X7X7XdXdXdXsX7X7X7X7XdXdXdXsXXX5.Q ~ Q K J A A N S S A S S S J J S J J J G G G G R ` +.@.@.@.C.:XtXdXdXdXdX7X7X7X7XdXdXdXsX7X",
"rX7X7X7XdXdXdXdXrX7X7XuXdXdXdX'.] _ ! Q J A v v A S A S S S V S S V J S J J H G G G G G R ` @.$.$.9.$XdXdXdXdX7X7X7XuXdXdXdXiX7X",
"7X7X7X7XdXdXdXdX7X7X7XqXdXdXE._ _ _ K S v v v A A A N S S S S Z S J V J J J F J F K G F G G E O.$.$.;. XdXdXdX7X7X7XqXdXdXdXsX7X",
"7XuXuXuXiXdXiXiX7XuXqXuXdXG.' ' ) K S A A v v N A A A A A A S A S S J S S J J J J K G K G G G R ` $.$.$.].sXiXqXqXqXiXiXiXdXiXuX",
"dXdXdXdXrX7X7X7XdXdXdXdXF.' ' ) J A S A A A A v A A A A A S S S S V S V V J J J F F J G K G G K R ( #.$.$._.rXdXdXdXdX7X7X7XuXdX",
"dXdXdXdX7X7X7X7XdXdXdX(.' X.) K S S S A A A v v v v A A A A A S x ! S S J S V J J J J G G K G G K K ( @.$.&.@XdXdXdXiXrX7X7XuXdX",
"dXdXdXdX7X7X7XuXdXdX XX.X.` K F J S S V S A A A v v v A A A S x b &.) V V S F S J F J J K G K G G K R ) @.$.,.4XdXdXdX7X7X7XqXdX",
"dXdXdXiXqXqX7XqXdX2X=.O.X.W V F F S S A V A A A A v v v A A v s $.$.$.W V S S J J J J F K F F K G R G R ` *.$.c.dXdXiX7X7X7XuXdX",
"7X7XrXqXdXdXdXsX7Xi.o.O.) F J J S S S S S S S A A v v v A A r ..$.$.$.#.J S S V V J F J J J K G K G G G R ..$.$.(.rXqXdXdXdXiXrX",
"7X7X7XqXdXdXdXsX(.o.o.` G J J J J H J V S A S A A A A v S u m $.$.$.$.$.O.V S J S J S J J F J G J K G R G E @.$.;.&XaXdXdXdXiX7X",
"7X7X7XrXdXdXdX4X:.#.o.R F G K J F J V J S S S S A A A A l f &.$.$.$.$.$.$.X.S S S J V J F F J J G F K G G G ) $.$.C.yXdXdXdXpX7X",
"7X7X7XuXdXdXdXQ.@.$.` G G G G F J F J F S V S A S A A A e %.$.$.$.$.@.@.$.&._ A S S S F F J F J J K K G G G R ..@.@.$XdXdXdXiX7X",
"dXdXdXiX7XrX1X:.$.o.R K G G G K J J F J F F S S S S S w ( $.$.$.$.@.$.$.$.$.$.W N J S F J J J F F K F G G G G E #.@.x.rXqX7XuXdX",
"dXdXdXdX7XtXR.#.$.` R R G G G K K F F F J S F S S S u m &.$.$.$.$.$.$.$.$.@.&.#.J A S S J V S J J F J K K G G G ..@.*.oXrX7XuXdX",
"dXdXdXpX7X6X8.O.o.E R G W G G G K F K F J S F V S z a &.$.$.$.$.$.@.$.@.$.$.$.$.O.S A S S S J J J F J K G F G G ! #.$.L.tX7XrXdX",
"dXdXdXdXtX{.X.O.` G R W R W R G G G K F J J S V J f +.$.@.#.#.#.#.#.@.@.#.#.#.O.$...W S V V V J J J J J K K J G G ..#.9.>X7XuXdX",
"uXuXuXqXdXH.X.O.W G G R R W R G G G K K J F J ! ' #.#.O.O.O.O.O.O.O.o.O.O.O.#.O.O.#.#..._ K V V V J J J J K K G F ` #.O.#XsXiXqX",
"7X7X7X7XdXe.' ` F K G W G R W K K G F G K ! X.O.O.O...O...O...O.O.O.X.O.X.O.O.X.O...X.O.O.X.' ~ K F V S F J F K F E #.#.!.dXpX7X",
"7X7X7XtX2X[ X.! J J K G G R R R R K ! ) ' X.X.X.X.X.X.X.' X.X.X.X.X.X.X.X.X.X.X.X.X.X.X.` X.X.X.X._ Q K F F J J F G ..O.t.dXiX7X",
"7X7X6XyX|._ ' W S J J G W W R W ) ' X.X.' ' X.' ' ' ' ' ' ' ' ' ' ` ' ' ' ' ' ' ' ' ' ' ' ' ' ' ' ' ' ' _ ^ V V M M E #.=.0XsX7X",
"iXiXuXsXE.~ _ J S V F K C f _ ' ' ' ) ' ' ' ' ' ' ' ' ' ' ' _ ' ' _ ' _ ) ' ' ' _ ' ' _ ' _ ' ) ' _ ' ' [ r x C M M R o.O.@XaXpX",
"dXdXdXdXg._ ! S S J S K r . C ' ~ _ _ _ _ _ _ _ ! _ _ _ _ _ ' _ _ _ _ ) _ _ ~ ) _ _ _ _ _ _ _ _ _ _ ~ ' f q A M M M F O.O.~.aXdX",
"dXdXdXdX3.~ Q A S S V J K ; + W _ ~ ~ ~ ~ ~ ! ~ ~ ! ~ ~ ~ ! ~ ~ ~ ~ ~ ~ ~ ~ ~ ~ ~ ~ ~ ~ ~ ~ ~ ~ ~ ~ ~ K 8 N c M M M B ..O.Y.aXdX",
"dXdXdXwX<.~ K A A S S V J Z O : ~ ~ ~ Q ~ ~ Q ~ Q ~ ~ Q ~ ~ Q Q ~ ~ ~ Q ~ ~ ~ ~ ~ Q ~ ~ Q Q Q ~ ~ Q _ r u N c M M M M ` O.M.aXdX",
"iXpXsX9X| ~ K v A S S S S J d   s _ Q ~ ~ ~ ~ ~ ~ ~ ~ ~ ~ ~ ~ ~ ~ ~ ~ ~ ~ W ~ ~ Q / ~ ~ ~ ~ ~ ~ ~ ~ C q N c c c c N M ) O.m.aXiX",
"rX7X7X:X} ~ K v A A A S S F K 8 O H ~ ~ ~ ~ ~ ~ ~ ~ Q ~ Q ~ ~ ~ ~ ~ ~ ~ ~ ~ ~ ~ ~ ~ Q ~ ~ ~ ~ ~ ~ ^ q c c M c c M c M ) ..m.sX7X",
"7X7XrX,X} ~ J v v v A A S S S J $ % / ~ ~ ~ ~ ~ ~ ~ ~ Q ~ ~ Q ~ ~ ~ ~ Q ~ ~ Q ~ ~ ~ ~ ~ ~ Q ~ Q _ p u v c c c c C c x E O.m.iX7X",
"7X6XrX:X} ~ J v A N A A A S S J C X i _ Q ~ ~ ~ Q ~ ~ ~ Q ~ ~ ~ Q ~ ~ ~ ~ ~ ~ ~ ~ ~ ~ ~ ~ ~ ~ ~ Z q c c c c c x C c M ] X.m.dX7X",
"7XuXuX<X| ~ K v v v v A A S S S J i X Z ~ ~ ~ ~ ~ ~ ~ ~ ~ ~ ~ ~ ~ ~ Q ~ ~ ~ ~ Q ~ ~ ~ ~ ~ Q ~ / q l z c c c c c c c C / X.G.sXqX",
"dXdXdXwX1.~ K v v A v A A A S S S J & $ ~ ~ ~ Q ~ ~ ~ Q ~ ~ ~ ~ ~ ~ ~ Q Q ~ Q ~ Q ~ Q ~ ~ Q ~ l t c z z l x c c c c M ! ' D.aXdX",
"dXdXdXdX4.Q K v v v v c v v v A S J c X r _ Q ~ ~ ~ ~ ~ ~ ~ ~ Q ~ ~ ~ ~ ~ ~ ~ ~ ~ ~ ~ ~ ~ ~ K w z z z c l c c c c c M ) ' T.aXdX",
"dXdXdXdXk.Q ~ A v v v A v v v A A N Z 3 o ^ _ ! ! ~ _ ~ ~ _ ! _ ~ _ ~ ! ! _ _ ! ! _ _ ! _ _ ^ x z z z z c l l c c c V ` ' _.aXdX",
"dXdXdXdXS.Q Q S v v v A v v z z z x c z o D X._ _ ' ' _ _ ' ' ' ' ' ' ' ' ' ' ' ' ' ' ' ' ' / l z z z z l c l c x c F ' [ OXaXdX",
"qX7X7XaX+XQ ~ S v v v z z z z z z c c c + F O.[ X.X.X.X...X.' ' X.{ X.X.' X.' X.X.' X.X.X.X.! l z z z z l z c l c l G ' 2.pXiX7X",
"7X7X7XyX4X} ~ K z z z z z z z z z l z c @ b %.X.O...O...O.X...O.X.O...O.X.O.O.O.X.X.O.O.O.O.) l c z z z z z z x x x ^ _ n.dXpX7X",
"7X7X7X7XdXf.~ K z z z z z k z z z z z c @ b $.*.@.@.#.#.#.$.@.@.#.#.#.#.#.$.#.#.@.$.#.#.#.$.` x c z z z z z z z z c _ _ '.dXpX7X",
"7X7X7XqXdX/.Q ~ v z z z z z z z z z z c @ n &.&.&.&.&.$.*.$.&.*.*.&.&.&.&.&.&.&.&.&.&.*.&.&.[ x c z c z z z z z l V ' ] 2XdXpX7X",
"iXdXsXpXaX-X/ ~ S z z z z z z z z l z c # g >.,.>.;.>.>.>.>.,.>.>.,.,.,.>.,.>.>.,.,.,.,.,.,. .x c x z x z z z z x K _ 6.uXqXuXsX",
"dXdXdXdX7X7Xg.Q ~ c z z k z z z z z z c # g w.0.w.w.q.q.0.w.w.w.w.w.9.0.0.w.q.q.w.w.w.w.w.w.-.x c c c z c z z z M ~ W /.tX7XqXdX",
"dXdXdXiX7XtX}.Q ~ S k z z z z z z k z c = L u.t.t.t.t.t.t.t.t.t.t.u.v.u.t.t.t.y.y.y.y.b.y.v.2.x c c c c z z z z J ~ | ,X7X7XuXdX",
"dXdXdXdX7X7X6X3.Q K z z z z z z z z z c & L v.v.v.v.x.x.c.v.v.B.x.d.T d.v.B.B.v.x.x.x.x.c.B.7.x c c c c x x z M ~ Q T.tX7X7XuXdX",
"uXiXuXuXiXiXdX}.Q ~ A z z z z z z z l v 2 4 K.C.C.C.C.K.K.N.p.I 4 4 % * > I s.M.K.K.K.I.C.I.d.x M x c c c x c K ~ | ,XsXiXiXiXuX",
"7X7X7X7XdXdXdXdXf.~ ~ c z z z z z z z v 2 4 W.P.W.W.F.p.L 4 7 t x V F C y 5 % * 1 Y j.L.W.Q.n.c c c c C c c Z _ ~ S.yXdXdXdXdX7X",
"7X7X7XrXdXdXdXdXXX^ ~ K z z z z z z z z 3 > ).S.a.L 4 9 u c N V B M M B H G G d 0 5 $ - U a.s.M M c c c c B ! _ 5.6XyXdXdXdXiX7X",
"7X7X7X7XdXdXdXpXtXA.W ~ V z z z z z z z q o U 4 9 j z c c c c c M M M V B B B G G H Z d 7 & 6 N M c M c M W ' ) {.rX7XdXdXdXsX7X",
"uXuXiXiXiXiXpXiXuXeXf.~ ~ A k z z z z z k q k z c c z z x c c c c M M M B V V D B B B V F H M M N M M M R ' ' T.aXiXiXiXiXiXiXiX",
"dXdXdXdX7X7X7X7XdXdX5X<.~ Q N l z z z z z z z z z z z z z z c c c M M M V V B B V D B B M B M M M N M R [ ' n.dXdXdXsX7X7X7XrXdX",
"dXdXdXdX7X7X7XqXdXdXdX%X/ ~ ^ N z z z z z z z z z z z z z z z c c c c N M N M V D V B V Z B V B M M W X.X.e.9XdXdXdXiX7X7X7XuXdX",
"dXdXdXdX7X7X7XrXdXdXdXdX[.Q Q ~ N z z z z z z z k z z z z z z z c c c M M M M B V D D V B B B M F E +.X.8.:XrXdXdXdXiX7X7X7XuXdX",
"iXdXiXsXuXuX7XuXdXiXsXiXaX}./ Q Q S z z z z z z z z z z z z z z c x c c c M M M B B V D F B B G ` o.O.r.,XaXqXiXdXiXiXuXyXqXiXiX",
"7X7X7XqXdXdXdXdX7X7X7X7XdXdX%X| Q ~ K N l z z z z z z z z z z z z x c c c M M M B B Z B B D E +.$.O.z.wXdXdXdX7X7X7X7XdXdXdXdX7X",
"7X7X7XrXdXdXdXiX7X7X7XqXdXdXdX2X4.Q ~ Q S c z z z z z z z z z z z z c c c c c M M M M F E ..@.@.o.H.6XdXdXdXdX7X7X7XuXdXdXdXiX7X",
"7X7X7X7XdXdXdXdX7X7X7XuXdXdXdXsX6XA./ Q ~ Q S c z k z z z z z z z z z z c c c M M B G ' @.@.$.9.{.rXrXdXdXdXdX7X7X7X7XdXdXdXiX7X",
"7X7X7XuXdXdXdXiXqXrX7XuXdXdXdXpXrXuXOXg.^ ~ ~ / K A x z z z z z z z z z x c M F R ) O.O.o.;.L.3XyXqXuXiXdXdXiXqXrXqXuXiXdXdXsXqX",
"dXdXdXdX7X7X7XqXdXdXdXsX7X7X7XuXdXdXdXpX[.f.Q W ~ ~ ~ K J J V N A N V S G W ! [ ' X.X.=.G.&XtXdXdXdXdXqX7X7XrXdXdXdXdX7X7X7XuXdX",
"dXdXdXdX7X7X7XrXdXdXdXdX7X7X7XuXdXdXdXiXtX7XXXZ.1.~ Q ~ ~ ~ ~ Q ~ ~ ~ ~ ~ ~ _ _ [ r.(.,XrXrX7XdXdXdXdX7X7X7XqXdXdXdXiX7X7X7XuXdX",
"dXdXdXdX7X7X7XuXdXdXdXiX7X7X7XuXdXdXdXiX7X7XrXiXpX;X/.k.3.| } / ~ / / } <.6.l.'.2XdXdXuX7X6X7XdXdXdXdX7X7X7XuXdXdXdXiX7X7X7XuXsX",
"dXdXdXdX7X7X7XuXdXdXdXiX7X7X7XqXdXdXdXiX7X7X7XiXdXdXdXiX6X,X*XOX%X%X;X-X:X7XtXdXdXdXdXqX7X7X7XdXdXdXdX7X7X7X7XdXdXdXdX7X7X7XuXdX"
};
