/* XPM */
static char *result[] = {
/* columns rows colors chars-per-pixel */
"64 64 210 2 ",
"   c #BF6906",
".  c #BC6B1A",
"X  c #BE7117",
"o  c #C36C03",
"O  c #C46808",
"+  c #CC7605",
"@  c #C97707",
"#  c #DF7F00",
"$  c #C97A1B",
"%  c #CF8D0C",
"&  c #D28506",
"*  c #D38C06",
"=  c #DC8F07",
"-  c #DC8404",
";  c #DD9404",
":  c #DE9508",
">  c #DE9F0A",
",  c #D19006",
"<  c #C9841D",
"1  c #CB8714",
"2  c #E78702",
"3  c #E48B02",
"4  c #EA8C01",
"5  c #E39405",
"6  c #EC9401",
"7  c #E69C03",
"8  c #EA9C02",
"9  c #F29D00",
"0  c #CEA301",
"q  c #D1A600",
"w  c #D3A900",
"e  c #D9AE00",
"r  c #DDB100",
"t  c #D2AC16",
"y  c #D5B01B",
"u  c #E6A204",
"i  c #EBA302",
"p  c #E6AC03",
"a  c #EAAC02",
"s  c #E4A508",
"d  c #F4A400",
"f  c #F4AC00",
"g  c #E2B500",
"h  c #EEB402",
"j  c #E6B901",
"k  c #EDBC01",
"l  c #EDB60B",
"z  c #F3B401",
"x  c #F9B502",
"c  c #F3BB01",
"v  c #FABB01",
"b  c #EAB41D",
"n  c #E9BA18",
"m  c #CD8E26",
"M  c #D6A53E",
"N  c #DFBC30",
"B  c #DDB83D",
"V  c #D8B529",
"C  c #EEC204",
"Z  c #EDCC06",
"A  c #F4C300",
"S  c #FAC501",
"D  c #F4CC01",
"F  c #FDCB00",
"G  c #F5C40A",
"H  c #F5CF08",
"J  c #FACB0F",
"K  c #EFD806",
"L  c #F4D503",
"P  c #FDD301",
"I  c #F4DC03",
"U  c #FCDB01",
"Y  c #F5D10F",
"T  c #ECC118",
"R  c #F9CB15",
"E  c #F9CD1C",
"W  c #F5E202",
"Q  c #FDE401",
"!  c #F7EB01",
"~  c #FCEB01",
"^  c #F7EC0C",
"/  c #F3E108",
"(  c #F7F306",
")  c #FCF400",
"_  c #FDFB01",
"`  c #F8F109",
"'  c #FDFD09",
"]  c #F7E11F",
"[  c #F7F716",
"{  c #F7F815",
"}  c #F6F31D",
"|  c #FCFC1C",
" . c #F7CD23",
".. c #F5D624",
"X. c #F9D02F",
"o. c #F8D030",
"O. c #F8D339",
"+. c #F5D835",
"@. c #EBC839",
"#. c #F6E823",
"$. c #FEFE20",
"%. c #F6F12C",
"&. c #F7F828",
"*. c #FBFB2E",
"=. c #F8F62B",
"-. c #F8EA3D",
";. c #F4F235",
":. c #FDFC32",
">. c #FDFC3F",
",. c #F4F33C",
"<. c #D8AC4E",
"1. c #D9B746",
"2. c #DDC253",
"3. c #E6CB44",
"4. c #F7D444",
"5. c #F9D645",
"6. c #F7D64A",
"7. c #F8D64F",
"8. c #FADA46",
"9. c #E6CB58",
"0. c #E0C65D",
"q. c #ECDA5A",
"w. c #F9DA54",
"e. c #F5DB5B",
"r. c #F9DB5E",
"t. c #F7E745",
"y. c #FCFC44",
"u. c #FFFF48",
"i. c #FAEF5F",
"p. c #F3EC55",
"a. c #FDFD55",
"s. c #FBF758",
"d. c #FEFD5B",
"f. c #F7F554",
"g. c #F0D76A",
"h. c #F5DA6C",
"j. c #F6DB68",
"k. c #ECD77E",
"l. c #F3DB75",
"z. c #F5DD78",
"x. c #F4EC64",
"c. c #F5E56B",
"v. c #FAED62",
"b. c #F9FA64",
"n. c #FDFC6D",
"m. c #FAF466",
"M. c #F9E071",
"N. c #F2E779",
"B. c #F8ED78",
"V. c #F2EA78",
"C. c #F4F475",
"Z. c #FFFF72",
"A. c #F1F17D",
"S. c #E9D78B",
"D. c #E9D88F",
"F. c #E4D38B",
"G. c #F3DD83",
"H. c #F0DC8C",
"J. c #E4D492",
"K. c #E8D795",
"L. c #F2E285",
"P. c #F4ED84",
"I. c #F2E78C",
"U. c #F0EA90",
"Y. c #FAE892",
"T. c #EBDCA1",
"R. c #E6DCB4",
"E. c #EFE2AA",
"W. c #EEEDAC",
"Q. c #F3E4A3",
"!. c #F8E9A7",
"~. c #FAFAA5",
"^. c #F9F2AB",
"/. c #EEE4B4",
"(. c #F1E7BB",
"). c #F9F0B0",
"_. c #FAF9BB",
"`. c #EFE6C5",
"'. c #EEEDC3",
"]. c #EEE7CA",
"[. c #F2EAC9",
"{. c #F7F7C8",
"}. c #FDF6CF",
"|. c #FAF8C5",
" X c #EEEBD4",
".X c #EEEDDD",
"XX c #F1EEDF",
"oX c #F7F4D2",
"OX c #FAF7D7",
"+X c #FBF7DB",
"@X c #FBF9DD",
"#X c #F9F7D9",
"$X c #EDEBE4",
"%X c #ECECEC",
"&X c #F0EDE3",
"*X c #EFF0EF",
"=X c #F6F4E5",
"-X c #FCFAE4",
";X c #F3F2EC",
":X c #FCFBED",
">X c #EDEEF3",
",X c #EDEEF8",
"<X c #F0EFF4",
"1X c #EFF0F4",
"2X c #EFF3FC",
"3X c #F4F4F4",
"4X c #F9F9F6",
"5X c #F3F5FB",
"6X c #F7F9FC",
"7X c #FDFDFD",
/* pixels */
"%X%X$X4X7X7X7X7X7X3X$X%X%X$X>X7X7X7X7X7X6X%X%X%X%X$X3X7X7X7X7X7X3X$X%X%X%X$X6X7X7X7X7X7X%X%X$X%X%X>X7X7X7X7X7X6X%X%X%X%X$X3X7X7X",
"6X6X6X3X3X1X3X3X3X3X7X6X6X6X4X3X3X>X3X3X3X6X7X6X4X6X3X3X*X<X3X<X3X7X7X6X4X6X3X3X3X3X3X3X4X6X7X6X6X4X3X3X>X3X3X3X6X4X7X6X6X3X3X3X",
"7X7X7X3X%X%X%X%X%X6X7X7X7X7X7X%X%X%X%X%X*X7X7X7X7X7X6X$X%X%X%X%X3X7X7X7X7X7X3X$X%X%X$X%X7X7X7X7X7X6X%X$X%X%X$X<X7X7X7X7X7X3X$X%X",
"7X7X7X3X$X%X%X%X%X6X7X7X7X7X7X<X%X%X%X$X*X7X7X7X7X7X4X%X%X%X%X$X5X7X7X7X7X7X<X%X%X%X%X%X7X7X7X7X7X7X>X%X%X%X%X;X7X7X7X7X7X5X$X>X",
"7X7X7X3X%X3X3X%X%X4X7X7X7X7X7X3X3X%X%X3X3X6X7X7X7X7X6X;X1X;X<X<X6X7X7X7X7X7X5X1X;X%X>X*X6X7X7X7X7X6X3X%X%X3X*X3X7X7X7X7X7X6X%X;X",
"%X%X%X3X7X7X7X7X7X<X%X>X%X%X%X6X7X7X7X7X4X>X>X'.V.p.-.t.t.8.8.8.5.4.4.6.7.h.!.-X7X7X7X7X;X%X*X%X%X;X7X7X7X7X7X6X%X%X%X%X%X3X7X7X",
"<X%X%X4X7X7X7X7X7X3X%X%X>X%X*X7X7X7X7X7X7X Xx.^ ~ ! Q Q Q U P F S S F F F F F E M.+X7X7X*X%X%X%X%X<X7X7X7X7X7X6X%X%X%X%X%X3X7X7X",
"%X%X$X5X7X7X7X7X7X>X%X$X%X$X%X7X7X7X7X7X|.%.) ! / L D D P P U U F F F F F F F F S E Y.7X>X$X%X%X%X%X7X7X7X7X7X7X%X%X%X%X%X3X7X7X",
"3X3X3X5X4X4X5X4X4X3X3X3X3X3X3X6X5X3X6X_.} ( / D c h z z f x S P P F F F F F F F F F F r.=X5X3X3X3X3X5X4X3X5X4X3X3X3X3X3X3X3X6X4X",
"7X7X7X3X%X>X$X$X%X6X7X7X7X7X7X%X$X>X'.} ( K c k h z z x f f f x F F F F F F F F F F F S 6.:X7X7X7X7X%X%X%X>X$X3X7X7X7X7X7X6X$X%X",
"7X7X7X3X%X%X%X*X%X4X7X7X7X7X7X;X%X$X;.( I k c l z z z f f f d d f F P P F F F F F F F F F w.4X7X7X7X%X%X%X%X%X>X7X7X7X7X7X3X%X%X",
"7X7X7X<X%X%X%X%X%X6X7X7X7X7X7X%X>XC._ W k k h z z z f f f f d d d c P P F F F F F F F F F F M.7X7X7X%X%X%X%X$X3X7X7X7X7X7X5X%X%X",
"3X3X3X3X6X6X4X6X6X3X3X3X3X3X3X5X{.{ ! C c l z c z z f f f d d d d d S U P F F F F F F F F F F !.5X;X4X4X6X4X6X4X>X3X3X3X3X3X6X4X",
"%X%X$X6X7X7X7X7X7X>X$X%X%X%X%X7Xb.( Z c k z h z z f f f f d d d d d f P Q F F F F F F F F F F  . X>X7X7X7X7X7X7X%X%X$X%X$X5X7X7X",
"%X%X%X5X7X7X7X7X7X3X%X%X%X%X<X|.{ W k c k z z z f c G d f d d d f f f S Q P F F F F F F F F F F h.3X7X7X7X7X7X6X%X%X%X%X%X3X7X7X",
"*X*X%X3X7X7X7X7X7X3X%X*X%X%X3XC.( D k k l z z c f L ( u d d d d f f f x U ~ F F F F F F F F F F R [.7X7X7X7X7X6X%X%X%X3X%X3X7X7X",
"7X7X7X3X%X*X%X<X%X5X7X7X7X7X-X&.W k k c z z z z z ! _ j 9 d d d f f z f A ) P F F F F F F F F F S h.3X$X>X%X%X3X7X6X7X7X7X3X%X3X",
"7X7X7X3X%X%X%X$X%X7X7X7X7X7X~.( L c l c h c z f D _ _ / 8 d d f f f x x c ! Q F F F F F F F F F F E ].>X$X>X%X>X7X7X7X7X7X4X$X%X",
"7X7X7X3X$X%X%X%X$X6X7X7X7X7Xb.! C k c h h z z f ! _ _ _ s d f f f z c c c U ) F F F F F F F F F F S H.>X$X%X$X3X7X7X7X7X7X5X%X%X",
"6X4X6X4X3X<X3X3X3X4X6X4X6X@X=.I k h h z z z f c _ _ _ _ H 8 f f f x c c c D ' P F F F F F F F F F F 4.;X3X3X3X3X6X4X6X6X6X3X3X1X",
"%X%X$X5X7X7X7X7X7X;X%X%X>XW.( D l c z h z z f I _ _ _ _ ( s f f z z c x c A ) Q S F F F F F F F F F R }.7X7X7X6X$X%X%X%X$X3X7X7X",
"%X%X%X4X7X7X7X7X7X1X%X%X>XA.! c k h h z c f z _ _ _ _ _ ' j d z x c c c A c ~ ~ D S F F F F F F F F F Y.7X7X7X6X>X%X%X>X%X3X7X7X",
"%X%X$X6X7X7X7X7X7X3X%X%X%Xp.W k c h z z f f I _ _ _ _ _ _ / u z c c v c A A P ~ D S F F F F F F F F F w.7X7X7X7X$X>X%X$X%X3X7X7X",
"6X4X6X3X3X3X3X3X1X4X4X6X=X;.I l c h z f c I ) ) ~ ) ) ) ) ) U c z v c A A A D ~ D A A F F F F F F F F X.+X3X3X3X4X5X4X6X6X3X3X3X",
"7X7X7X3X$X>X$X%X%X6X7X7X}.} D l z l h A Q ) ~ ~ ~ ) ~ ~ ~ ~ ) Q S c c A A S c Q P A A F F F F F F F F J (.>X$X<X7X7X7X7X7X4X$X%X",
"7X7X7X3X%X%X>X%X%X5X7X7X_.^ k z h c P Q Q Q Q Q Q Q ~ Q Q Q Q ~ Q D A A A c c P D A A S A F F F F F F S T.,X$X3X7X7X7X7X7X6X%X%X",
"7X7X7X3X%X%X%X*X%X6X7X7X~.W p u G U Q U U Q U U Q U U Q U Q Q U Q Q U F v c z F P A A A F F F F F F F F G.3X%X;X7X7X7X7X7X4X%X>X",
"*X*X%X6X7X7X7X7X7X3X%X3XP.I a 7 > U P I P U U U P U U P U P U U U P U D ; c z S D k A A A D S F F F F F h.7X7X6X<X%X;X%X%X3X7X6X",
"%X%X%X5X7X7X7X7X7X3X%X>XV.L u i = k P F P P P P P P P P P P P P P P U > o x f S D A c A A S D F F F F F w.7X7X4X$X%X%X%X%X3X7X7X",
"%X%X$X4X7X7X7X7X7X*X$X>Xx.D u i 5 s P F F F F F F F F F F F F F F F F @ : x f x D k C A A A A F F F F S 8.7X7X7X%X%X%X%X$X5X7X7X",
"3X3X3X3X6X6X7X6X6X3X<X3Xx.D u i 7 : J F F F F F F F F F F F F F F F l O x f d z F k k C A A A F S F F F O.4X6X3X3X>X3X3X3X3X6X7X",
"7X7X7X3X%X%X$X%X$X7X7X7Xv.Z 7 u s 3 v F F F F F F F F F F F F F F P * & x f d f F k k k k A A A S F F F o.$X%X3X7X7X7X7X7X5X%X$X",
"7X7X7X3X%X%X%X%X%X6X7X7Xv.A 8 s 8 5 i F F F F F F F F F F F F F F F O a z f d f F j j k c A A A A F F F o.&X>X<X7X7X7X7X7X4X%X%X",
"7X7X7X3X$X%X%X%X%X7X7X7Xv.C 8 8 8 7 5 J F F F F F F F F F F F F F s @ x d d d f S j j k k k A A A A A F o.$X$X<X7X7X7X7X7X6X$X%X",
"3X3X3X5X5X4X6X4X3X3X3X3Xx.C 8 8 8 8 3 z F F F F F F F F F F F F P @ : x d d 9 x F j j j k C k A A F F S O.4X4X4X3X3X3X3X3X3X5X4X",
"%X%X$X6X7X7X7X7X7X3X%X%Xc.A 7 7 7 7 6 u F F F F F F F F F F F F v O z f d 9 9 x S g j j j k C k A A A A 6.7X7X4X%X%X$X%X%X3X7X7X",
"%X%X%X6X7X7X7X7X7X;X%X>XN.A 7 8 6 8 4 s P F F F F F P F F F F P : + x d d d 9 x D g g g j k k k k A A A e.7X7X6X%X<X%X%X%X3X7X7X",
"%X%X%X4X7X7X7X7X7X3X%X>XI.D 8 8 8 6 4 f U P U U U P U U U P P Q & 2 9 9 d d 9 v A r g g j j k k k C A c z.7X7X6X%X%X%X%X%X3X7X7X",
"7X7X7X3X>X%X1X>X;X6X7X7X^.D 8 5 5 6 6 f Q Q Q Q Q Q U Q Q Q U Q * 3 9 6 9 9 d v A e g g g j j k C C A A H.5X%X1X7X7X7X7X7X3X<X*X",
"7X7X7X3X$X%X%X$X%X6X7X7X|.Y i 7 6 5 6 a ~ ~ ~ ~ ~ ~ ~ ~ ~ ~ ~ ) * 3 9 6 6 6 6 S C e r r g g j j k k c C E.1X$X3X7X7X7X7X7X5X$X%X",
"7X7X7X3X%X%X%X%X%X6X7X7X+X..i 6 6 5 5 z ' ) _ ) _ ) ) _ ) ) ) ' % 3 9 6 6 6 6 F j e e e r g j j k k k T `.>X$X3X7X7X7X7X7X4X%X%X",
"7X6X7X3X<X;X>X3X;X6X6X7X:X+.a 6 6 7 6 z ' ' ' ' ' ' ' ' ' ' ' ' % 3 6 6 6 6 9 F e e e e r g g j j k k @.&X3X>X3X7X6X4X6X7X3X%X3X",
"%X%X$X4X7X7X7X7X7X3X%X%X>Xe.z 5 6 6 5 l $.| | | | | | | | | | | % 2 6 6 6 4 f F e w e e r r g g g k j g.7X7X7X7X%X%X%X%X%X3X7X7X",
"%X%X%X5X7X7X7X7X7X;X%X%X3XL.c 7 5 7 7 l :.*.:.*.=.*.*.*.*.*.*.*.1 4 6 6 6 6 z G q w e e e r r g g j g !.7X7X7X6X%X%X%X%X%X3X7X7X",
"$X%X$X6X7X7X7X7X7X3X$X%X>X/.G i 6 8 6 n y.y.y.y.y.y.u.u.>.y.y.y.1 4 6 6 6 6 S k q w w e e e r g g j T -X7X7X7X7X%X$X$X%X%X3X7X7X",
"5X4X5X3X3X3X3X3X3X3X5X3X5X=Xo.h 7 8 7 b s.a.d.s.B X < 3.d.d.u.s.$ 4 6 9 6 9 F r q w w w e e r r g r 9.3X3X3X3X3X5X4X5X6X3X4X3X3X",
"7X7X7X3X%X%X%X%X%X6X7X7X7X7XM.c 7 8 8 b Z.b.1.. O ; 7 + m q.n.m.$ 4 6 6 6 x S w w w w w w e e e r r T.>X%X%X$X3X7X7X7X7X7X4X%X%X",
"7X7X7X3X%X%X%X%X%X7X7X7X7X7X).H a 7 7 b <.. o ; c z a f 3 + M z.$ 6 6 6 6 v c q w w w q w w e r r N $X>X%X%X%X3X7X7X7X7X7X5X%X%X",
"7X7X7X3X%X%X%X%X%X6X7X7X7X7X:X+.c 7 i ; o 7 z k p f i 8 9 9 # $ O 6 6 6 i F r 0 w w w w w w w e e D.5X$X%X%X%X3X7X7X7X7X7X3X%X%X",
"3X%X*X6X7X7X7X7X6X3X>X>X%X;X3XP.L p i a a a h z a a i i 6 6 9 4 2 6 6 6 v D w w w w w w w w w e V .X7X7X7X7X7X6X*X%X%X>X3X3X7X7X",
"%X%X$X5X7X7X7X7X7X;X$X%X%X%X>XOX] C u i a p h a p i d 8 6 6 4 6 6 6 6 d F g 0 w 0 w w w w w e 0 J.2X7X7X7X7X7X4X%X%X%X%X%X3X7X7X",
"%X%X%X4X7X7X7X7X7X3X%X%X%X%X%X7XB.Q j u a p p a a d 8 6 9 4 9 6 6 6 6 S D w w w w w w w w w 0 1.%X>X7X7X7X7X7X7X$X%X%X%X%X3X7X7X",
"<X;X3X3X7X6X6X6X6X3X3X3X;X3X3X6X#X#.I g a p a a d i 8 6 6 6 6 6 6 6 f F r w w w w w w 0 w w y ].3X;X6X6X7X6X5X6X%X3X3X3X3X3X7X6X",
"7X7X7X3X$X%X%X%X%X6X7X7X7X7X7X%X>XU.! K p a p i i 8 9 6 6 6 6 6 6 d F G 0 w w w w w w w w 0 E.7X7X7X%X%X%X%X$X3X7X7X7X7X7X3X%X%X",
"7X7X7X3X%X%X%X%X%X7X7X7X7X7X6X;X%X%Xp.) K p i u 8 8 6 6 6 6 9 6 d F F e w w 0 w w w w w q S.7X7X7X7X%X%X%X%X%X*X7X7X7X7X7X4X%X%X",
"7X7X7X3X%X%X%X%X$X4X7X7X7X7X7X%X%X>X X;.) K p 8 8 8 6 6 6 6 6 d F D g q w w w w w q w 0 S.7X7X7X7X7X%X%X%X%X$X3X7X7X7X7X7X5X$X%X",
"3X3X3X4X4X3X5X3X5X3X3X5X3X5X3X3X5X4X5X}.%.~ L j 7 8 6 6 6 d c F F g w w q w w w w q t T.7X3X3X3X3X3X6X3X6X3X3X3X3X6X3X3X3X3X6X3X",
"%X%X%X3X7X7X7X7X7X3X%X$X%X$X%X7X7X7X7X7X#Xt.U I D l z x G F F F g q w q w w q q w 2.oX7X%X%X%X%X%X;X7X7X7X7X7X7X$X%X%X%X%X3X7X7X",
"%X%X%X4X7X7X7X7X7X3X$X>X%X%X>X7X7X7X7X7X7X$XL...D F S F S S j w 0 0 0 0 q q y 0.(.7X7X7X>X%X%X%X%X>X7X7X7X7X7X6X%X>X%X%X%X3X7X7X",
"%X>X%X6X7X7X7X7X7X3X%X%X%X%X%X7X7X7X7X7X6X>X1X.XQ.l.j.M.z.k.F.J.K.J.J.J.K.R.=X7X7X7X7X7X%X%X%X%X%X;X7X7X7X7X7X6X%X%X%X%X%X3X7X7X",
"6X7X7X3X>X*X<X3X3X4X7X7X7X7X6X;X>X*X*X>X3X7X6X7X7X7X6X2X2X5X5X5X7X7X7X7X7X7X5X%X*X*X<X<X6X7X4X7X7X6X<X;X3X%X*X3X6X7X7X6X7X3X;X3X",
"7X7X7X3X%X%X%X$X$X6X7X7X7X7X7X%X%X%X$X%X%X7X7X7X7X7X5X$X$X%X%X%X3X7X7X7X7X7X3X%X%X%X$X%X7X7X7X7X7X7X%X%X%X%X$X3X7X7X7X7X7X6X%X$X",
"7X7X7X3X$X%X%X%X%X7X7X7X7X7X7X<X%X%X%X%X;X7X7X7X7X7X4X%X$X%X%X%X3X7X7X7X7X7X3X$X$X%X%X%X7X7X7X7X7X7X%X%X%X%X$X;X7X7X7X7X7X5X%X%X",
"7X7X7X3X%X*X*X<X%X5X7X7X6X7X7X;X;X%X>X%X3X7X6X7X7X7X3X>X*X*X*X%X6X7X6X7X7X7X3X%X*X*X*X*X6X7X7X7X7X6X>X%X%X>X>X3X7X7X7X7X7X3X%X>X"
};
