/* XPM */
static char *result[] = {
/* columns rows colors chars-per-pixel */
"64 64 217 2 ",
"   c #A93C02",
".  c #AA4902",
"X  c #A84402",
"o  c #B04D0F",
"O  c #AF5002",
"+  c #B85705",
"@  c #BC6203",
"#  c #BB600C",
"$  c #BA6617",
"%  c #BD7517",
"&  c #C35D04",
"*  c #C16402",
"=  c #CB6301",
"-  c #C36B03",
";  c #CE6A03",
":  c #D36B00",
">  c #CD7603",
",  c #CC760F",
"<  c #C97607",
"1  c #D77400",
"2  c #DB7701",
"3  c #D37D03",
"4  c #DF7C00",
"5  c #C47B11",
"6  c #C07521",
"7  c #CA8B08",
"8  c #DB8205",
"9  c #DB8B06",
"0  c #D48607",
"q  c #D49505",
"w  c #DC9305",
"e  c #D89F08",
"r  c #DF9B06",
"t  c #D38C1B",
"y  c #E58500",
"u  c #E48C02",
"i  c #EA8E01",
"p  c #E69403",
"a  c #ED9400",
"s  c #E69C02",
"d  c #EB9B01",
"f  c #F09600",
"g  c #F39C00",
"h  c #CEA300",
"j  c #D1A600",
"k  c #D4AA01",
"l  c #DAAE00",
"z  c #DDAD08",
"x  c #DDB201",
"c  c #D8B00F",
"v  c #D5AF17",
"b  c #D8B118",
"n  c #E7A202",
"m  c #EBA302",
"M  c #E6AA03",
"N  c #EBAC01",
"B  c #E1A509",
"V  c #F4A400",
"C  c #F4AC00",
"Z  c #F8AC00",
"A  c #F9A400",
"S  c #E4B501",
"D  c #EDB302",
"F  c #E7B901",
"G  c #EEBB02",
"H  c #E7BD09",
"J  c #F4B400",
"K  c #F3BB01",
"L  c #F9BB01",
"P  c #CC8E2B",
"I  c #CE9228",
"U  c #D08F30",
"Y  c #D19E3E",
"T  c #D7A92E",
"R  c #D6B223",
"E  c #E0BD32",
"W  c #EDC304",
"Q  c #E7CF07",
"!  c #E9C706",
"~  c #F4C301",
"^  c #FAC501",
"/  c #F3CC03",
"(  c #FDCB00",
")  c #F9CB0F",
"_  c #EFD104",
"`  c #ECDA07",
"'  c #F4D303",
"]  c #FDD400",
"[  c #F4DD05",
"{  c #FCDC00",
"}  c #F9D30E",
"|  c #F7DA0C",
" . c #EFC61D",
".. c #FACB12",
"X. c #F9CC17",
"o. c #F6D313",
"O. c #F4D718",
"+. c #F5E406",
"@. c #FDE400",
"#. c #F6EB06",
"$. c #FCEB01",
"%. c #FBE40A",
"&. c #F7E60D",
"*. c #F7F405",
"=. c #FCF301",
"-. c #FDFC01",
";. c #F9F60E",
":. c #F7EB19",
">. c #FDFD12",
",. c #F8F213",
"<. c #E8C22C",
"1. c #F6CC22",
"2. c #F5CE2D",
"3. c #F7DF29",
"4. c #F7D529",
"5. c #F5CF39",
"6. c #E8D03F",
"7. c #F8D135",
"8. c #F5D33D",
"9. c #F6D035",
"0. c #F7EC23",
"q. c #F6F622",
"w. c #FCFB25",
"e. c #F5F32B",
"r. c #FEFF2A",
"t. c #F5E83C",
"y. c #FBFA37",
"u. c #FCFD3A",
"i. c #F5F43A",
"p. c #DDBC44",
"a. c #DDBE4E",
"s. c #D7BC4E",
"d. c #DCB254",
"f. c #DCC04E",
"g. c #EDCB44",
"h. c #E2C245",
"j. c #EEDB43",
"k. c #F3DD45",
"l. c #F4D64C",
"z. c #F9D84F",
"x. c #F7D650",
"c. c #F7D95B",
"v. c #F6DB53",
"b. c #E5CB5A",
"n. c #F4EB45",
"m. c #F7F34B",
"M. c #FBFB4C",
"N. c #F6F448",
"B. c #F2E45B",
"V. c #F4EA5C",
"C. c #F5E752",
"Z. c #FEFD53",
"A. c #FBFA5D",
"S. c #DFC869",
"D. c #EDD46B",
"F. c #F5D964",
"G. c #E2CF7F",
"H. c #F6DD77",
"J. c #F5EB6C",
"K. c #F4E967",
"L. c #FEFE64",
"P. c #FEFF69",
"I. c #F4F369",
"U. c #FAE27D",
"Y. c #FEFF7A",
"T. c #F5F477",
"R. c #EDDA8E",
"E. c #ECD781",
"W. c #F5DE81",
"Q. c #E3D497",
"!. c #EFE18E",
"~. c #F4EE8C",
"^. c #F9E383",
"/. c #F4F28A",
"(. c #F8F281",
"). c #EFEE98",
"_. c #F4E294",
"`. c #FAEB94",
"'. c #F4E59E",
"]. c #F3F197",
"[. c #E9DFB4",
"{. c #EDE0AA",
"}. c #F2E3A5",
"|. c #F5E6A8",
" X c #F9F4A6",
".X c #EEE7B8",
"XX c #F5EAB4",
"oX c #F8F4B6",
"OX c #ECE4C3",
"+X c #EFEAC5",
"@X c #EEEBCD",
"#X c #EEE7C9",
"$X c #F0EBCA",
"%X c #F6EDC1",
"&X c #F7F4CC",
"*X c #FBF7CA",
"=X c #EEEED5",
"-X c #ECEADD",
";X c #F5EED3",
":X c #FBF5D9",
">X c #FCF9DE",
",X c #F8F6D4",
"<X c #EDEDE5",
"1X c #ECECEC",
"2X c #F3F1E4",
"3X c #F1F1EF",
"4X c #FBF8E9",
"5X c #ECEDF4",
"6X c #EDEEF9",
"7X c #EEF0F6",
"8X c #EEF0FA",
"9X c #F3F3F3",
"0X c #F8F7F5",
"qX c #FAF9F5",
"wX c #F4F5FC",
"eX c #F7F9FD",
"rX c #FDFDFD",
/* pixels */
"1X1X1X7XrXrXrXrX9X1X1X1X9XrXrXrXrX1X1X1X1XrXrXrXrX9X1X1X1X3XrXrXrXrX1X1X1X1X0XrXrXrX0X1X1X1X9XeXrXrXrX9X1X1X1X9XrXrXrX0X5X1X1X1X",
"1X1X1X1XrXrXrXrX9X1X1X1X9XrXrXrX0X1X1X1X1XrXrXrXrX0X1X1X1X9XrXrXrXrX1X1X1X1XrXrXrXrX0X1X1X1X9XrXrXrXrX1X1X1X1X0XrXrXrX0X1X1X1X1X",
"3X9X3X9X0XrX0X0X9X9X9X9X0XeX0XrXwX3X9X9X9X0X0X0X0X0X7X3X9X9XrX0X0X0X9X9X3X9X0XeX0XeX0X9X7X9X9X0XeX0X0X0X9X9X9XwXeX0XrX0X9X9X9X9X",
"rXrXrXrX5X1X1X1X0XrXrXrX0X1X1X1X9XrXrXrXrX1X1X1X1X0XrXrXrX0X<X1X1X3XrXrXrXrX9X1X1X1X9XrXrXrX0X1X1X1X1XrXrXrXrX9X1X1X1X9XrXrXrXrX",
"rXrXrXrX1X1X5X1XrXrXrXrX9X1X1X1X3XrXrXrXrX1X1X1X1XqXrXrXrXeX5X5X5X7XrXrXrXrX9X1X1X1X9XrXrXrXeX<X1X1X1XeXrXrXrX0X1X1X1X9XrXrXrXrX",
"rXrXrXeX1X1X1X1X0XrXrXrX0X1X1X1X9XrXrXrXrX1X5X6X5XwX4X>X,X*X+X+X+X$X:X:X:X4X2X1X6X5X0XrXrXrXrX1X1X1X1XrXrXrXrX9X1X1X1X9XrXrXrXrX",
"0X9X9X0X0X0X0X0XwX9X9X9X0X0X9XwXwX9X9XwXwX0X,X].K.i.0.:.&.%.%.%.| | } } ) ..1.8.F.}.;XwXwX0X9X0X0X0X0X9X0X9X9X9X9X0X0X0X9X9X0X0X",
"1X1X1X1XrXrXrXrX3X1X1X1X0XrXrXrX0X1X5X<X).m.,.=.#.#.$.@.$.@.@.@.@.@.@.{ ] ] ( ^ ^ ( ..l.}.1XwXrXrXrXrX9X1X1X1X0XrXrXrXwX1X1X1X1X",
"1X1X1X5XrXrXrXrX9X1X1X1X0XrXrXrXeX<X/.e.*.*.#.+.[ ' / / ~ ~ L ~ ^ ^ / ] ] { ] ] ( ( ( ( ( 5.|.rXrXrXrX3X1X1X1X0XrXrXrX0X1X3X1X1X",
"1X1X1X9XrXrXrXrX3X1X3X1X9XrXrXrXoXe.*.-.#.+._ ~ K K J J J J J J C C C J K ^ ( ] ( ( ( ( ( ( ^ c.>XrXrX7X1X5X1X0XrXrXrX0X5X1X1X1X",
"rXrXrX0X9X1X1X1X0XrXrXrX9X7X2XI.*.-.*.[ / G J K K K J J J C J C C C C C V C J L ( ( ( ] ( ( ( ( X.|.8X0XrXrXrX9X7X3X1X9XrXrXrXrX",
"rXrXrXrX1X1X1X1X0XrXrXrXwX@Xi.*.=.+._ G G G K K K J J J J J C C C C C V V V V V Z ^ ] ] ] ( ( ( ( ( W.rXrXrXrX9X1X1X1X9XrXrXrXrX",
"rXrXrXrX1X1X1X1X0XrXrXrX&Xq.-.*.[ W G G K K K K J J J J J J C C C C V C V V g A V C L ] { { ( ( ( ( ^ U.rXrXrX0X1X1X1X9XrXrXrXrX",
"0XrXeX0X9X9X3X9X0XqXrX,Xq.-.*._ K G G K K K K J J J Z J Z Z C C C V C V V A V V V V C K ] @.{ ( ( ( ( ^ ^.rX0X0X3X9X3XwX0XrXrX0X",
"1X1X1X3XrXrXrXrX7X5X@Xe.-.*._ G K G K K K J J J J J J Z L N C C Z V V V V V V V C C C C K { @.@.( ( ( ( ^ _.5X0XrXrXrX0X1X1X1X1X",
"1X1X1X3XrXrXrXrX7X<XN.*.*.' G G G G K L K J J J J J C J =.! p Z V V V V g A V C C C C Z J ^ @.$.@.( ( ( ( ...XeXrXrXrX0X1X1X5X1X",
"1X1X1X5XrXrXrXrX8XT.*.*.[ G K G G K K K J J J J J C C @.-.-.z d C V A V A V V C C C Z J J J / @.$.{ ( ( ( ^ 5.4XrXrXrX0X1X1X1X1X",
"wX0X0X0X9X9X9XwXoX*.-.` G W G G K K J K J J J J C C ' -.-.-.*.r g V g V V C C Z C Z J J J J K { =.=.] ^ ( ( ^ W.wX0X9X9X0X0X0XwX",
"rXrXrXrX1X1X1X<Xi.-.#.W G G G K K J K J J J J J C ~ -.-.-.-.-.` u A V V V C C C C J J J J L K ~ $.-.$.( ( ( ( ..#X5X1X3XrXrXrXrX",
"rXrXrXrX1X1X5X].*.*./ G G K D K J K J J J J C C K -.-.-.-.-.-.-.H u Z V C C C C J J J J J K K K ' =.-.{ ( ( ( ^ F.6X<X7XrXrXrXrX",
"rXrXrXrX1X5X2Xe.=.+.G K G D K K J J J J J J C J $.-.-.-.-.-.-.-.-.j d Z Z C C C J J J J K K K K K $.-.=.( ( ( ( ..$X5X9XrXrXrXrX",
"1X3X1X7X0XrX].*.*.W G G G G J J K J J J C C C [ -.-.-.-.-.-.-.-.-.#.0 Z C C J J J J K L K K ~ ~ ~ ' -.-.] ( ( ( ^ U.rX0X9X1X9X1X",
"1X1X1X1XrXrXM.=.&.G D G J J K J J J J D C V / -.-.-.-.-.-.-.-.-.-.-.Q 9 J J J J J J L K K ~ ^ ~ ~ ~ $.=.@.( ( ( ( 2.qXeX1X1X1X1X",
"1X1X1X3XrX*X;.=.) G J G G G J J J J C C K { =.-.=.=.-.=.-.-.-.=.=.-.;.! C Z J J K K K K K ~ ~ ~ ^ K ' $.$.( ( ( ( ( oXeX<X1X1X1X",
"7X9X3X3XeX/.=.#.G G J G J J J J C K / { =.=.#.$.=.$.=.$.=.$.=.=.=.=.=.=.$.{ ~ J J K K K ~ ~ ~ ~ ~ K ~ @.$.] ^ ( ( ^ H.eX3X9X9X9X",
"rXrXrXrX5XN.=.[ G G J N N J K ~ ] @.$.$.@.$.$.$.$.$.$.$.$.@.$.@.@.$.$.@.$.$.$.{ ( ~ K ~ ~ ^ ~ ~ K K J ] @.] ( ( ( ( 9.9XrXrXrXrX",
"rXrXrXrX=X:.=.G B D D K ~ ] { @.@.@.@.@.{ @.@.@.{ @.@.@.@.@.@.@.@.@.@.@.@.@.@.@.@.{ ] ( W ~ ^ K K K J ^ { { ( ( ( ( ..;XrXrXrXrX",
"rXrXrXrXXX#.+.S n m s B %.{ { { { { { { { { { { { { { { { { { { { { { { { { { { { { @.{ ] / D K L J J J { ] ( ( ( ( ^ XXrXrXrXrX",
"0X9X9XwX].#.[ M m m m , H { ] ] ] ] ] ] ] ] ] { ] ] ] ] { ] ] ] ] ] { ] ] ] ] { { ] ] ] @.M . m L J C J ] ] ^ ^ ( ( ( _.eX3X9X9X",
"1X1X<X6XT.#.} m n n m p 3 } ( ( ( ( ( ( ( ] ( ( ( ] ( ( ( ( ] ( ] ( ( ( ( ] ] ( ( ( ( ] ) O < L J C C C ( ( ( ^ ( ( ^ H.6X1X1X1X",
"1X1X1X8XJ.$./ s B m s m 8 s ] ( ( ( ( ( ( ( ( ( ( ( ( ( ( ( ( ( ( ( ^ ( ( ( ( ( ( ( ^ ] < O J J C C C V ^ ( ( ~ ^ ( ( c.5X1X1X1X",
"1X1X1XwXV.$.W n m d d s V , K ] ( ( ( ( ( ( ( ( ( ( ( ( ( ( ( ( ( ( ( ( ( ( ( ( ( ( ] r X s L C C C V V K ( ^ ^ ( ^ ^ x.7X3X1X1X",
"rXrXrXeXC.@.W d B d s d m p 9 ] ^ ( ^ ( ( ( ( ( ( ( ( ( ( ( ( ( ( ( ( ( ( ( ( ( ( ( L . 0 L C C C V A g L ( ( ~ ^ / ^ z.rXrXrXrX",
"rXrXrXrXC.%.H s d s m d d d 4 B ] ( ( ( ( ( ( ( ( ( ( ( ( ( ( ( ( ( ( ( ( ( ( ( ( ] # @ L C C C C V V V L ] ^ ^ ^ ^ ^ z.rXrXrXrX",
"rXrXrXrXB.@.W s d m d s d g g 3 ^ ( ( ( ( ( ( ( ( ( ( ( ( ( ( ( ( ( ( ( ( ( ( ^ } 9 . N J C C V V V g g L ( ^ ~ ~ ^ ~ c.rXrXrXrX",
"0X0X0XeXJ.@.W p B d s d p a d y u ] ( ( ( ^ ( ( ( ( ( ( ( ( ( ( ( ( ( ( ( ( ( ( K . 9 L C C V V V g A V K ( ^ ~ ~ / ~ F.rX0X0X0X",
"5X1X1XwX~.{ ~ s d d p d d d a f 8 K ] ( ( ( ( ( ( ( ( ( ( ( ( ( ( ( ( ( ( ( ( ] - @ L C C V A A g V A V L ( ~ ~ ~ ~ ~ H.8X1X1X1X",
"1X1X1XwX X{ / n d d d p a d a f p L ] ] ] ] ] ] ] ] ( ] ] ] ] ( ( ] ] ] ] ( { M   p V V V V A g g V V V ( ( ~ ~ ~ W ~ '.8X1X1X1X",
"1X<X<X6X,X| } m d d p p a a a f a ^ @.{ { { { { { { { { { { { { { { { { { { @.w + V d d f f f g A V g Z ( ( K W ~ ~ ~ %X5X1X1X1X",
"eXeX0XwX2X3.] B p p d p p a a a p / $.@.$.@.$.$.@.$.@.$.$.@.@.@.$.@.@.@.$.@.=.q & V a d a a a a f f g J ( ( W K K W  .2XeX0X0XqX",
"rXrXrXrX5Xv.] G p d p a p a a d d ' -.=.=.=.$.=.*.=.=.=.=.=.=.=.=.$.=.=.=.#.-.q & V a a f i f a a a a J ( ^ G W W K g.wXrXrXrXrX",
"rXrXrXqX6X!.' ~ p p a p a p d g a } -.-.-.-.-.-.-.-.-.-.-.-.-.=.-.-.-.-.-.=.-.q & V a a f i f f f f a ^ ( ~ F G W G E.wXrXrXrXrX",
"rXrXrXrX7X$Xo.( n p a p a d d d d | >.>.>.>.>.>.>.>.>.>.>.>.>.>.>.>.>.>.>.;.>.7 = g a a f f a f a i m ( ( G G W G W OXwXrXrXrXrX",
"3X1X1X3XrXrXv./ C p p p p p d g d O.r.e.r.w.w.w.w.w.w.>.w.w.w.w.w.w.w.w.w.w.y.7 ; f a a i f i f f a K ] ~ F F G G g.rX0X1X1X1X9X",
"1X1X1X9XrXrXoX( ~ p p d p d d m d 3.M.y.u.i.u.y.y.i.y.M.u.y.y.y.y.y.y.y.y.y.u.% : f a a a a a i i V ^ ( G F F G G '.rXqX1X1X1X1X",
"1X1X1X1XrXrXrX8.^ D d p d d d d d 4.M.Z.Z.M.Z.Z.Z.M.j.T T g.m.Z.M.M.M.M.M.M.M.$ 1 g a a a a a f a J ( ^ S F F G <.qXrX0X1X1X1X1X",
"9X9X9X9X0X0XeX|./ / m p s d n m s 8.P.P.P.P.B.p.P $ + - 0 > 5 I h.V.L.L.A.A.A.$ 2 g a a i f i a m ( ( G S S F S R.rX0X9X9X0X9X9X",
"rXrXrXrX1X1X1X1Xl.] ) n d s s m s k.T.b.Y 5 # @ 0 s J G J C m p 3 , P a.K.Y.Y.$ 4 f a f i f f f ^ ( ~ x S F S <.<X1X1X9XrXrXrXrX",
"rXrXrXrX1X3X1X5X&Xo.] G s d n n N t $ * > 9 N J K D D M M m m V V f y 2 , U d.o y f i f a a a J ( ( S x S S x {.7X1X1X9XrXrXrXrX",
"rXrXrXrX1X1X1X1XrX`.] [ S s n n m p s J K J D D D N N N V m V s d d d f f y 2 ; i f f a f p C ( ( G l x x M D.eX<X1X1X9XrXrXrXrX",
"7X9X9X0X0XeX0X0X0X9Xc.+.| F n m m M N N N D D D N N N m m d d d d a i f f f f f a i a a a V ( ( W k l x x E 2XwXqX0XeX0X9X7X0X9X",
"1X1X1X1XrXrXrXrX5X1X<Xk.@.| D n M M N N D D D N N N m V m V d f a a f a f i f a a f a a m ^ ( ~ l k x x b OX5X9XrXrXrX0X1X1X1X1X",
"1X1X1X9XrXrXrXrX3X1X1X-Xt.@.+.W M M M D D D J N C m m m d d d a a f a a a f i i a f a C ( ( ~ k k l l c [.5X1X0XrXrXrX0X1X1X1X1X",
"1X1X1X3X0XrXrXrX9X1X3X7X2Xn.$.#._ S M N D N N N N m V m d f a a f a a a a a f f i a J ^ ( ~ k k k k v .XwX1X1X0XrXrXrXwX1X1X1X1X",
"rXrXrXrX5X1X3X1X0XrXrXrXwX1XV.#.*.+.! S M M N m m m d d d d f a a a f a a f a a V ~ ( ( G k j k k R OXrXrXrXrX9X1X9X1X9XrXrXrXrX",
"rXrXrXrX1X1X1X1XrXrXrXrX9X1X5X~.,.-.=.[ G M n n m g d g f a f a f f f i a a m K ( ( ( F j k j j a.-X5X0XrXrXrX0X1X1X1X0XrXrXrXrX",
"rXrXrXeX1X1X1X1X0XrXrXrXwX1X1X5X&XA.*.*.#.' W M n d d a a a i i i a p V C L ^ ] ( W l k j h R Q.5X1X1XrXrXrXrX9X1X1X1X5XrXrXrXrX",
"0X0X0XqX9X9X9X0X0X0X0XqX0X9X7X3XwX0XXXn.+.@.{ { / G J N m V V C Z J L ( ( ] ) W x k h j v E.2XeX9X3X7X0X0X0X0X9X9X9X9X0X0X0X0X0X",
"1X1X1X1XrXrXrXrX9X1X1X1X0XrXrXrX0X1X5X5X.XJ.3.{ ] / ( ( ( ( ( ( ( ( ( ^ K D l j h v f.Q.<X6X5XrXrXrXrX3X1X5X1X0XrXrXrXrX1X1X5X1X",
"1X5X1X5XrXrXrXrX7X1X1X1X0XrXrXrXrX1X1X1X7XrXqX%X`.F.g.2.1.1.4.4.7.8.g.h.p.s.S.R..X4XeX6X1X1X1XeXrXrXrX9X1X1X1X0XrXrXrX0X1X3X1X1X",
"1X7X1X1XrXrXrXrX9X1X1X1X0XrXrXrX0X1X1X1X1X0XrXrXrXwX1X<X-X2XqXqXrXrX5X7X5X5XrXrXrXrXqX1X1X1X1XrXrXrXrX3X1X1X1X0XrXrXrX0X1X1X1X1X",
"0X0X0X0X9X9X9X9X0XeX0X0X9X7X9X9X0X0X0XeX0X9X9X9X3X0X0XeXeXeX9X9X9X9X0X0XqXqX9X3X3X5X0X0X0X0X0X9X9X9X9X0XrX0X0XwX9X9X9X9X0X0X0XeX",
"rXrXrXrX1X1X1X1X0XrXrXrX9X1X1X1X9XrXrXrXrX3X1X1X1X0XrXrXrX0X1X1X1X1XrXrXrXrX7X<X1X1X0XrXrXrXrX1X1X1X1XrXrXrXrX9X1X1X1X5XrXrXrXrX",
"rXrXrXrX1X1X1X1XrXrXrXrX0X1X1X1X9XrXrXrXrX5X<X5X1X0XrXrXrX0X1X1X1X1XrXrXrXrX7X1X1X1X0XrXrXrXrX1X1X1X1XeXrXrXrX9X1X1X1X0XrXrXrXrX"
};
