/* XPM */
static char *result[] = {
/* columns rows colors chars-per-pixel */
"64 64 214 2 ",
"   c #BB5F08",
".  c #B75E05",
"X  c #BE6906",
"o  c #B86209",
"O  c #BB6B13",
"+  c #C56D02",
"@  c #C96809",
"#  c #C57306",
"$  c #C7740E",
"%  c #C8700E",
"&  c #C67F0F",
"*  c #C97908",
"=  c #CE7906",
"-  c #D47C00",
";  c #D97A00",
":  c #C66F1A",
">  c #C87710",
",  c #C67E10",
"<  c #C87A12",
"1  c #C67D18",
"2  c #CB7C19",
"3  c #C17D2E",
"4  c #CD8308",
"5  c #D58503",
"6  c #D78E07",
"7  c #DE8D06",
"8  c #D98E08",
"9  c #DE9107",
"0  c #DD9D0A",
"q  c #E58C05",
"w  c #EA8C03",
"e  c #E29204",
"r  c #EC9401",
"t  c #E59B04",
"y  c #EA9B02",
"u  c #E29C08",
"i  c #F19701",
"p  c #F29C00",
"a  c #CFA300",
"s  c #D1A600",
"d  c #D3A900",
"f  c #D9AE00",
"g  c #DEA106",
"h  c #DDB100",
"j  c #D2AD1A",
"k  c #E5A405",
"l  c #EBA402",
"z  c #EBAB02",
"x  c #E7A509",
"c  c #E9A80C",
"v  c #E3AC07",
"b  c #F4A400",
"n  c #F4AB00",
"m  c #E3B501",
"M  c #ECB101",
"N  c #E6B901",
"B  c #ECBC01",
"V  c #F3B401",
"C  c #F9B502",
"Z  c #F2BB02",
"A  c #FABA02",
"S  c #F1B509",
"D  c #CA9032",
"F  c #D2AE21",
"G  c #DDB820",
"H  c #D9B528",
"J  c #D4A634",
"K  c #D6B533",
"L  c #DCB639",
"P  c #EFC302",
"I  c #EBCC08",
"U  c #F4C301",
"Y  c #FAC501",
"T  c #F4CA02",
"R  c #FDCB00",
"E  c #F9C90C",
"W  c #F6C90A",
"Q  c #EED508",
"!  c #F4D402",
"~  c #FDD401",
"^  c #F4DA04",
"/  c #FCDC01",
"(  c #F7D70C",
")  c #F9D50A",
"_  c #F2DE0A",
"`  c #F8DF08",
"'  c #FACD1A",
"]  c #F6CA15",
"[  c #F7D813",
"{  c #F6DA1D",
"}  c #F6E305",
"|  c #FDE301",
" . c #F7E901",
".. c #FCEC01",
"X. c #FAE30A",
"o. c #FEEB0A",
"O. c #F7F606",
"+. c #FCF301",
"@. c #FDFB01",
"#. c #FBF40D",
"$. c #FDFD0A",
"%. c #F7E715",
"&. c #F8EA18",
"*. c #F8EC17",
"=. c #F7F515",
"-. c #F7F71C",
";. c #FCFC1D",
":. c #FBF517",
">. c #E6C22C",
",. c #F8CD20",
"<. c #F7D328",
"1. c #F7D827",
"2. c #F4CE35",
"3. c #F7D639",
"4. c #F8EE24",
"5. c #FCFB2E",
"6. c #FCF329",
"7. c #F7F131",
"8. c #FBFC31",
"9. c #F6F63B",
"0. c #FAF439",
"q. c #DAB847",
"w. c #E1BC53",
"e. c #F6D344",
"r. c #F8DA4A",
"t. c #E8CC5D",
"y. c #EED65D",
"u. c #F4D65B",
"i. c #F7D858",
"p. c #F4D756",
"a. c #F7E849",
"s. c #F5F245",
"d. c #FCFC43",
"f. c #FFFF4A",
"g. c #F7F24D",
"h. c #F6EA53",
"j. c #F7E25C",
"k. c #FEFE5B",
"l. c #FBF757",
"z. c #DFC762",
"x. c #DEC86C",
"c. c #DFC973",
"v. c #DFCB79",
"b. c #E3CC69",
"n. c #F6DB66",
"m. c #F6DB67",
"M. c #E4CE77",
"N. c #EEDB70",
"B. c #F3E660",
"V. c #F7F467",
"C. c #FDFD73",
"Z. c #F5F174",
"A. c #ECDA84",
"S. c #F1DC84",
"D. c #F2DF8A",
"F. c #E4D498",
"G. c #F2EB8D",
"H. c #F8E68C",
"J. c #F9F685",
"K. c #EFE69A",
"L. c #EFE99F",
"P. c #F5E294",
"I. c #FAE893",
"U. c #FAEA9B",
"Y. c #F4E89E",
"T. c #F6F49B",
"R. c #F8F596",
"E. c #E4D7A2",
"W. c #E9DFBB",
"Q. c #EEE1A9",
"!. c #F1E3A4",
"~. c #F1E3AF",
"^. c #F7F6AA",
"/. c #FBF9AC",
"(. c #FBF5A5",
"). c #EFEEBF",
"_. c #F1E7BA",
"`. c #F1EABE",
"'. c #F6E9B4",
"]. c #FCF0B7",
"[. c #FBF4BB",
"{. c #FBFABE",
"}. c #EFEACE",
"|. c #ECE4C6",
" X c #F1EBCB",
".X c #FAF3C3",
"XX c #FBF8CA",
"oX c #EFEBD4",
"OX c #EEEBDA",
"+X c #F1ECDB",
"@X c #F0EAD2",
"#X c #FDFDD1",
"$X c #FBF6DA",
"%X c #F8F5DC",
"&X c #EDECE3",
"*X c #EDEDEC",
"=X c #F0EFEE",
"-X c #F1EEE0",
";X c #F5F3E3",
":X c #F2F1EE",
">X c #FCFBEA",
",X c #FEFDE3",
"<X c #ECEDF3",
"1X c #ECEEF8",
"2X c #F0EFF4",
"3X c #EFF0F2",
"4X c #EFF1FA",
"5X c #F4F4F4",
"6X c #F8F7F6",
"7X c #FCFCF4",
"8X c #F4F6FC",
"9X c #F8F7FA",
"0X c #F6F8FF",
"qX c #FDFDFD",
/* pixels */
"qXqXqX*X*X*X*X*X*X5XqXqXqXqXqXqX*X*X*X*X*X*X5XqXqXqXqXqXqX5X*X*X*X*X*X<XqXqXqXqXqXqX5X*X*X*X*X*X*XqXqXqXqXqXqX6X*X*X*X*X*X*XqXqX",
"qXqXqX*X*X*X*X*X*X5XqXqXqXqXqXqX3X*X*X*X*X*X5XqXqXqXqXqXqX2X*X*X*X*X*X5XqXqXqXqXqXqX5X*X*X*X*X*X5XqXqXqXqXqXqX5X*X*X*X*X*X<XqXqX",
"qXqXqX*X*X*X*X*X*X6XqXqXqXqXqXqX*X*X*X*X*X*X5XqXqXqXqXqXqX=X*X*X*X*X&X:XqXqXqXqXqXqX3X*X*X*X*X*X5XqXqXqXqXqXqX5X*X*X*X*X*X*XqXqX",
"5X5X5X5X5X9X5X5X5X5X5X6X5X5X6X5X6X5X5X9X5X9X5X5X5X6X5X5X8X8X8X8X8X8X8X0X0X0X0X8X8X8X8X6X5X5X5X5X5X5X5X5X5X6X5X6X5X5X6X6X5X9X5X5X",
"*X*X*XqXqXqXqXqXqX5X&X*X*X*X*X*XqXqXqXqXqXqX5X*X*X<X1X<XOX X[.].].].].'.!.!.!.!.L.L.[.,XqXqXqXqXqX*X*X*X*X*X*X5XqXqXqXqXqXqX3X*X",
"*X*X=XqXqXqXqXqXqX5X*X*X*X*X*X*XqXqXqXqXqXqX5X<X<X XS.e.' R R R R R R R R ~ / | | ....&.g./.qXqX9X*X*X*X*X*X*X5XqXqXqXqXqXqX*X*X",
"*X*X*XqXqXqXqXqXqX5X*X*X*X*X*X*X9XqXqXqXqXqXqX}.m.' R R R R R R R R R ~ / | / | / } } ..+.+.s.XXqX*X*X*X*X*X*X6XqXqXqXqXqXqX*X*X",
"9XqX9X5X5X5X*X5X3X6XqX9XqX9X9XqX5X:X5X<X5X5XP.' R R R R R R R R R R R ~ ~ R Y Z A B U I ^ ..+.=.T.qX9X7X9X9X9X5X5X5X3X=X=X5XqX9X",
"qXqXqX*X*X*X*X*X*X5XqXqXqXqXqXqX*X*X*X<XOXu.R R R R R R R R R R R R ~ R A n n n C n V M S P } +.@.R.qXqXqXqXqX5X*X*X*X*X*X*X9XqX",
"qXqXqX*X*X*X*X*X*X5XqXqXqXqXqXqX=X*X*X+Xe.R R R R R R R R R R R R R Y n b n n n C C V S B V B ^ +.$.T.qXqXqXqX5X*X*X*X*X*X*XqXqX",
"qXqX9X:X*X*X3X:X*X9XqXqXqXqXqXqX=X<X-Xe.Y R R R R R R R R R R ~ ~ Y b b b n n n n V V V S Z Z B Q +.=.{.qXqXqX5X*X*X=X3X*X5XqXqX",
"*X*X<XqXqXqXqXqXqX5X*X*X*X*X*X*XqX7Xn.R R Y R R R R R R R R ~ / R b b b b n b n n V V V V B Z S B ^ @.9.OX<X*X5X9XqXqXqXqXqX*X*X",
"*X*X<XqXqXqXqXqXqX5X*X*X*X*X*X*XqXH.R R R R R R R R R R R R / ~ V b b b b b n n n n V V C V S Z B P } @.Z.3X*X5XqXqXqXqXqXqX5X*X",
"*X*X=XqXqXqXqXqXqX5X&X*X*X*X*X<X.X] R R R R R R R R R R R / | Y n n n b b b b n n V V V V V V B Z Z P  .-.|.*X5XqXqXqXqXqXqX*X*X",
"5X5X5X6X6X6X9X9X9X5X5X5X5X5X5X:Xe.R R R R R R R R R R R ~ ..~ V n n n b b b b b l } U n V V V Z S Z B ! @.V.5X5X9X9X6X6X9X6X5X<X",
"qXqXqX*X*X*X*X*X*X5XqXqXqXqXqXU.R R R R R R R R R R R R / ..U V V n n b b b b b v $.^ n V V V V Z B Z P  .-.#X6X*X*X*X*X*X*XqXqX",
"qXqX9X=X*X*X*X*X*X5XqXqXqXqX>X2.R R R R R R R R R R R ~ +./ Z V C n n n b b b t } @.+.Z n C V V S Z Z B ! +.J.8X*X*X*X*X*X*XqXqX",
"qXqXqX*X*X*X*X*X*X5XqXqXqXqXU.R R R R R R R R R R R Y | +.T V V V C n n n b p v @.@.@.` n V V V S B S Z P ..8.;X*X*X*X*X*X*XqXqX",
"5X5X5X9X9X9X5X6X6X5X5X:X5X:Xe.R R R R R R R R R R R Y +...U Z A V V n n n n t Q @.@.@.@.Z n V V V S Z Z B ! #.^.8X6X6X6X6X9X5X5X",
"*X*X*XqXqXqXqXqXqX5X*X*X<X~.E R R R R R R R R R R Y ~ $./ Z Z Z V C C n n b x @.@.@.@.@.^ n n V V S B Z Z I  .C.qXqXqXqXqXqX*X*X",
"*X*X=XqXqXqXqXqXqX5X*X*X1Xm.R R R R R R R R R R R U / @.! Z U Z V V V n C y I @.@.@.@.@.@.Z n V V V S B Z Z } 9.>XqXqXqXqXqX3X*X",
"*X*X=XqXqXqXqXqXqX6X*X<X+X2.R R R R R R R R R R Y T  ...U Y Z A A A V V n g O.@.@.@.@.@.@./ z V V V V Z S B ! =.XXqXqXqXqXqX=X*X",
"qXqX9X5X*X*X:X3X*X5XqXqX.XE R R R R R R R R R Y Y Y ../ U U U Z Z Z A V l I @.+.@.+.@.@.@.+.Y n V V M S Z Z T O.R.3X=X=X=X3X9XqX",
"qXqXqX*X*X*X*X*X*X5XqXqXU.Y R R R R R R R R Y Y U T | ~ Z U U Z Z A V Z | +.+.+.+.+.+.+.+.+.+./ Z n V M Z M P ..V.*X*X*X*X*XqXqX",
"qXqXqX*X*X*X*X*X*X5XqXqXn.R R R R R R R R Y T Y U Y | U Z U U U Z A R .......................... .~ S M V Z B } s.&X*X*X*X*XqXqX",
"9XqX9X3X5X5X*X*X*X5XqX7X3.R R R R R R R T Y Y U P ! / Z A U U U T / ..| | | | | | | | | | | | | | | | U Z S M ! 7.OX3X*X3X3X9XqX",
"*X*X=XqXqXqXqXqXqX5X*XoX,.R R R R R R R Y Y U U P R ~ V V Z U ~ | / / / / / / | | / / / / / / / / / / / U k k U 4.#XqXqXqXqX=X*X",
"*X*X=XqXqXqXqXqXqX5X<X_.] R R R R R Y Y U U U U B ~ R n A k 4 / ~ / / ~ / ~ / ~ ~ ~ / ~ / ~ / ~ ~ ~ ~ ) 0 u l B &.{.qXqXqXqX=X*X",
"*X*X3XqXqXqXqXqXqX5X<X!.E R R R R R Y Y T P U B B R Y n V z . S ~ R ~ R ~ R ~ ~ ~ R ~ ~ R ~ ~ R ~ R ~ U 8 l l M %./.qXqXqXqX3X*X",
"5X5X5X5X5X9X6X5X6X5X5XU.Y R R R R Y Y U U U U B B R A b n A = 5 ~ R R R R R R R R R R R R R R R R R R x 7 l t M X.T.0X5X6X5X5X5X",
"qXqXqX*X*X*X*X*X*X5XqXU.Y R R R R Y U U P U B B B R A b n C l o Y R R R R R R R R R R R R R R R R R E e y l l z / G.1X&X*X*XqXqX",
"qXqXqX*X*X*X*X*X*X5XqXI.R R R Y Y T U P P B B B B Y A b n n A % 8 ~ R R R R R R R R R R R R R R R R S 7 l y t v / G.1X*X*X*XqXqX",
"qXqXqX*X*X*X*X*X&X5XqXH.R R Y Y U U U Z B P B N B R C b b n C t X E R R R R R R R R R R R R R R R R u e l y t l / G.<X*X*X*XqXqX",
"5X5X5X9X6XqX9X9X9X6X4XP.Y R Y Y U U P P B B N N m R C p b b n C + u ~ Y R R R R R R R R R R R R R Y q y y t l z ! R.qX6X9X9X5X5X",
"*X*X*XqXqXqXqXqXqX6X<XP.Y T U U U U P B B B N N N R A p b b n C 7 # R Y R R R R R R R R R R R R R c q y t y y l ) (.qXqXqXqX*X*X",
"*X*X5XqXqXqXqXqXqX5X<X!.W Y U U U B B B B N N m m Y A p b b b n n @ S ~ R R R R R R R R R R R R R e r y y y y z ( (.qXqXqXqX*X*X",
"*X*X5X9XqXqX9XqXqX6X3X_.] U Z P U B B B N N m m m U A b b p b n C = 5 ~ R R ~ R R R ~ R R ~ ~ R R y r y e y y z ( [.qXqXqXqX*X*X",
"9XqXqX=X*X*X=X*X*X5XqX$X] U U P B B B B N N m m f U Y b b b p p p q * / / ~ / / / / / ~ / ~ / / ~ y w y y r t z { `.<X*X=X=XqXqX",
"qXqXqX*X*X*X*X*X*X5XqX7X2.P U B B B N N m m m h f U Y b p p i r y q * X.| | | | | | | | | |  .| / l r r y y e V 1.oX<X*X*X*XqXqX",
"qXqXqX*X*X*X*X*X*X5XqXqXp.Z B B B B N m m m h f f B Y b w r r w i q & o.......................+.X.l r r w y y V 3.&X*X*X*X*XqXqX",
"9X9X6X5X3X5X3X5X5X5X9X9XS.B P B N N N m h h h h f m R b r r r i i w 1 #.@.+.@.+.@.@.+.@.@.@.+.@.o.l r y r r t U j.5X5X5X5X5X5X9X",
"*X*X=XqXqXqXqXqXqX5X*X<X~.B B B N N m m h h f h d f E n r r r r i w 4 :.$.@.$.$.$.$.$.$.$.$.$.$.#.t y e e r y Y G.qXqXqXqXqX*X*X",
"*X*X=XqXqXqXqXqXqX5X*X<XoX>.B N N m m m h h f d d d W A r r r r i w 1 6.;.;.;.;.;.;.;.;.;.;.;.5.:.l y r y e l W [.qXqXqXqXqX:X*X",
"*X*X*XqXqXqXqXqXqX5X*X*X*Xt.B m N m h h f h f d d s B R r r i r i w > 7.5.5.5.5.5.5.5.5.8.5.5.8.6.x y y y r z <.$XqXqXqXqXqX*X*X",
"5X9X5X5X5X5X5X5X5X5X5X6X0XQ.N N N h h f f f d d d a h R b r i r r w > s.d.d.d.d.f.d.d.f.d.d.d.d.s.c y y r t A p.5X5X5X5X5X5X5X5X",
"qXqXqX*X*X*X*X*X*X5XqXqXqX7X>.h h h f f d f d d d d d R V w r r i r $ h.l.l.k.l.L 1 O J h.k.k.k.g.c y y y l U P.<X&X*X*X*X*XqXqX",
"qXqX9X*X*X*X*X*X*X5XqXqXqXqXA.h h h f f f d d d d d a U Y p r r r w % B.C.V.q.> - y t + o D y.C.V.c y y t V {  X<X*X*X*X*X<XqXqX",
"qXqXqX*X*X*X*X*X*X5XqXqXqXqX$XG h h f f d d s d d d d h R b w r r i @ N.t.* ; y n z M Z z -   3 w.c l y l Y j.5X*X*X*X*X*X*XqXqX",
"5X*X5X9XqX9XqX9XqX5X*X5X*X*X5XM.d h d d d d d s d d d d W Y r r r i @ : ; r p p l z z z M Z n 5 + t l t B ) !.0XqX9XqX9XqX9X5X=X",
"*X*X=XqXqXqXqXqXqX5X*X*X*X*X<XoXH d f d d d d d s d d s N R n r i r w w p r r y p l l n M M M M V l l z ! r.OX9XqXqXqXqXqXqX*X*X",
"*X*X3XqXqXqXqXqXqX5X*X*X*X*X*X4XQ.s d d d d d d d d d d d Y Y y w i i r r r r y y l z z z M M z z l l U } K.<X6XqXqXqXqXqXqX*X*X",
"*X=X5X9X9XqXqX9XqX5X=X3X:X*X:X*XqXz.a d d d d s d d s d a N R Z r r r r r i r r y p l l z M v z z k B } a.&X<X6XqXqXqX9XqX9X5X=X",
"qXqX9X=X*X*X*X*X*X5XqXqXqXqXqXqX3XOXK a d s d d d d d d d s P R b r r r i r r i y y p l l z M m v M / %..XqXqX5X*X*X*X*X*X=XqXqX",
"qXqXqX*X*X*X*X*X*X5XqXqXqXqXqXqX*X1X|.F s d d d s d d d d s f R R l w i r r r r r y p l l v z M m } ..J.qXqXqX5X*X*X*X*X*X*XqXqX",
"qXqXqX*X*X*X*X*X*X5XqXqXqXqXqXqX*X&X1X_.F a d d s d d d d d d h R R b r r i r i r y y l l l z N } +.l.qXqXqXqX6X*X*X*X*X*X*XqXqX",
"9X6X9X5X5X5X=X5X5X9X9X6X9X6X6X9X5X5X3X9X}.K a d d d s d d s d s N ~ Y n r w i r r r r y y k B } @.s.;X8X6X9X9X5X5X3X5X5X3X5X6X9X",
"*X*X5XqXqXqXqXqXqX5X*X*X*X*X*X*XqXqXqXqXqX>Xz.a d d d d d d d d s N E R A n y r r w y y z I | ..g.oX*X*X*X*X*X6XqXqXqXqXqXqX3X*X",
"*X*X*XqXqXqXqXqXqX5X*X*X*X*X*X*XqXqXqXqXqXqXqXE.K a a a d d d d d d h U ~ R E V V S S U ) / X.Z.>X<X*X*X*X*X*X6XqXqXqXqXqXqX*X*X",
"*X*X*XqXqXqXqXqXqX5X*X*X*X*X*X*XqXqXqXqXqXqX6X<X*XF.q.j a a a a s a a a M A R R R Y Y R ) r.[.qXqX*X*X*X*X*X*X5XqXqXqXqXqXqX*X*X",
"9X5X5X5X5X5X5X3X5X5X9X9X9X6X6X6X5X3X5X3X5X5X5X6X0XqXqX%X_.F.v.c.A.v.x.x.b.b.y.i.r.r.u.S._.5X8X5X5X8X9X6X9X5X9X9X5X5X5X5X5X5X6X9X",
"qXqXqX*X*X*X*X*X*X5XqXqXqXqXqXqX=X*X*X*X*X*X5XqXqXqXqXqXqX8X4X4X4X4X4X8XqXqXqXqXqXqX8X1X<X*X*X*X*XqXqXqXqXqXqX5X*X*X*X*X*X*XqXqX",
"qXqXqX*X*X*X*X*X*X5XqXqXqXqXqXqX=X*X*X*X*X*X5XqXqXqXqXqXqX*X*X*X*X&X*X=XqXqXqXqXqXqX5X&X&X*X*X*X=XqXqXqXqXqXqX5X*X*X*X*X*X*XqXqX",
"qXqX9X=X*X*X*X*X*X5XqXqXqXqXqXqX=X*X*X*X*X*X5XqXqXqXqXqXqX5X*X*X*X*X*X5XqXqXqXqXqXqX3X*X*X*X*X*X3XqXqXqXqXqXqX5X*X*X*X*X*X*XqXqX",
"*X*X5XqXqXqXqXqXqX5X=X*X3X=X=X3X9XqXqXqXqX9X9X*X=X=X3X=X=X9XqXqXqX9XqX9X=X*X3X:X=X*X9XqXqXqXqXqX9X=X=X3X3X=X*X5XqX9XqXqXqX9X5X*X"
};
