/* XPM */
static char *result[] = {
/* columns rows colors chars-per-pixel */
"64 64 122 2 ",
"   c black",
".  c #010000",
"X  c #020100",
"o  c #030100",
"O  c #030201",
"+  c #040200",
"@  c #050300",
"#  c #050301",
"$  c #060300",
"%  c #050401",
"&  c #060401",
"*  c #070502",
"=  c #0E0801",
"-  c #0F0801",
";  c #0F0B04",
":  c #110901",
">  c #120901",
",  c #120A01",
"<  c #100C04",
"1  c #120E05",
"2  c #130E05",
"3  c #3F2306",
"4  c #452507",
"5  c #452607",
"6  c #472707",
"7  c #4B2907",
"8  c #462808",
"9  c #512C08",
"0  c #522C08",
"q  c #532D08",
"w  c #532F0A",
"e  c #4A3816",
"r  c #503C17",
"t  c #513D18",
"y  c #513E18",
"u  c #533F19",
"i  c #57421A",
"p  c #5F471B",
"a  c #5F491C",
"s  c #60491C",
"d  c #60491D",
"f  c #624A1D",
"g  c #A45910",
"h  c #AB5E11",
"j  c #B26011",
"k  c #B26112",
"l  c #B36112",
"z  c #B36212",
"x  c #B66312",
"c  c #B56716",
"v  c #B96512",
"b  c #BA6512",
"n  c #BA6613",
"m  c #BE6813",
"M  c #BD6B17",
"N  c #C56C14",
"B  c #C76D14",
"V  c #C96E14",
"C  c #CA6F14",
"Z  c #D57515",
"A  c #D67414",
"S  c #D67515",
"D  c #D77515",
"F  c #D77615",
"G  c #D77616",
"H  c #D87514",
"J  c #DA7615",
"K  c #DB7715",
"L  c #D97716",
"P  c #DB7816",
"I  c #DC7816",
"U  c #DC7916",
"Y  c #DD7916",
"T  c #DF7A16",
"R  c #DA7C1A",
"E  c #DC7D1A",
"W  c #DE7E1A",
"Q  c #DF7F1B",
"!  c #E07B16",
"~  c #BE9239",
"^  c #C7983C",
"/  c #CF9B3B",
"(  c #D09F3E",
")  c #D1A03E",
"_  c #D2A13F",
"`  c #D8A23E",
"'  c #D5A340",
"]  c #DAA641",
"[  c #DBA742",
"{  c #DBA843",
"}  c #DFAB43",
"|  c #E6B045",
" . c #E8B146",
".. c #E8B346",
"X. c #E8B447",
"o. c #F9BB48",
"O. c #FABB48",
"+. c #FCBD48",
"@. c #FCBF49",
"#. c #FBC04B",
"$. c #FCC049",
"%. c #FBC04C",
"&. c #FCC04C",
"*. c #FCC14C",
"=. c #FDC14C",
"-. c #FDC24D",
";. c #FDC34D",
":. c #FEC24C",
">. c #FFC34D",
",. c #FDC54D",
"<. c #FEC44D",
"1. c #FFC44D",
"2. c #FFC54D",
"3. c #FFC44E",
"4. c #FEC54E",
"5. c #FFC54E",
"6. c #FFC64E",
"7. c #FFC74E",
"8. c #FFC74F",
"9. c #FFC84F",
"0. c #FFCA4F",
"q. c None",
/* pixels */
"q.                                                                                                                              ",
"q.                                  . . . . . . . . . . . . . . . . . . . . . . . . . . . . . .                                 ",
"q.                                                                                                                              ",
"q.                              & ; 2 1 2 2 2 2 2 2 2 2 2 2 2 2 2 2 2 2 2 2 2 2 2 2 2 2 2 1 2 < *                               ",
"q.                            O e ~ X.|  . . . . . . . . . . . . . . . . . . . . . . . . .| ..^ i #                             ",
"q.                            O u ' 0.2.7.7.7.7.7.7.7.7.7.7.7.7.7.7.7.7.7.7.7.7.7.7.7.7.7.5.9.} f %                             ",
"q.                            O t ( ,.#.=.=.=.=.=.=.=.=.=.=.=.=.=.=.=.=.=.=.=.=.=.=.=.=.=.%.;.] a %                             ",
"q.                            O y ) 6.*.>.>.>.>.>.>.>.>.>.>.>.>.>.>.>.>.>.>.>.>.>.>.>.>.>.=.1.[ s %                             ",
"q.                            O y ) 6.*.>.>.>.>.>.>.>.>.>.>.>.>.>.>.>.>.>.>.>.>.>.>.>.>.>.=.1.[ s %                             ",
"q.                            O y ) 6.*.>.>.>.>.>.>.>.>.>.>.>.>.>.>.>.>.>.>.>.>.>.>.>.>.>.=.1.[ s %                             ",
"q.                            O y ) 6.*.>.>.>.>.>.>.>.>.>.>.>.>.>.>.>.>.>.>.>.>.>.>.>.>.>.=.1.[ s %                             ",
"q.                            O y ) 6.*.>.>.>.>.>.>.>.>.>.>.>.>.>.>.>.>.>.>.>.>.>.>.>.>.>.=.1.[ s %                             ",
"q.                            O y ) 6.*.>.>.>.>.>.>.>.>.>.>.>.>.>.>.>.>.>.>.>.>.>.>.>.>.>.=.1.[ s %                             ",
"q.                            O y ) 6.*.>.>.>.>.>.>.>.>.>.>.>.>.>.>.>.>.>.>.>.>.>.>.>.>.>.=.1.[ s %                             ",
"q.                            O y ) 6.*.>.>.>.>.>.>.>.>.>.>.>.>.>.>.>.>.>.>.>.>.>.>.>.>.>.=.1.[ s %                             ",
"q.                            O y ) 6.*.>.>.>.>.>.>.>.>.>.>.>.>.>.>.>.>.>.>.>.>.>.>.>.>.>.=.1.[ s %                             ",
"q.                            O y ) 6.*.>.>.>.>.>.>.>.>.>.>.>.>.>.>.>.>.>.>.>.>.>.>.>.>.>.=.1.[ s %                             ",
"q.                            O y ) 6.*.>.>.>.>.>.>.>.>.>.>.>.>.>.>.>.>.>.>.>.>.>.>.>.>.>.=.1.[ s %                             ",
"q.                            O y ) 6.*.>.>.>.>.>.>.>.>.>.>.>.>.>.>.>.>.>.>.>.>.>.>.>.>.>.=.1.[ s %                             ",
"q.                            O y ) 6.*.>.>.>.>.>.>.>.>.>.>.>.>.>.>.>.>.>.>.>.>.>.>.>.>.>.=.1.[ s %                             ",
"q.                            O y ) 6.*.>.>.>.>.>.>.>.>.>.>.>.>.>.>.>.>.>.>.>.>.>.>.>.>.>.=.1.[ s %                             ",
"q.                            O y ) 6.*.>.>.>.>.>.>.>.>.>.>.>.>.>.>.>.>.>.>.>.>.>.>.>.>.>.=.1.[ s %                             ",
"q.                            O y ) 6.*.>.>.>.>.>.>.>.>.>.>.>.>.>.>.>.>.>.>.>.>.>.>.>.>.>.=.1.[ s %                             ",
"q.                            O y ) 6.*.>.>.>.>.>.>.>.>.>.>.>.>.>.>.>.>.>.>.>.>.>.>.>.>.>.=.1.[ s %                             ",
"q.                            O y ) 6.*.>.>.>.>.>.>.>.>.>.>.>.>.>.>.>.>.>.>.>.>.>.>.>.>.>.=.1.[ s %                             ",
"q.                            O y ) 4.&.:.:.:.:.:.:.:.:.:.:.:.:.:.:.:.:.:.:.:.:.:.:.:.:.:.=.<.[ s %                             ",
"q.                            O y _ 8.-.3.3.3.3.3.3.3.3.3.3.3.3.3.3.3.3.3.3.3.3.3.3.3.3.3.;.6.{ d %                             ",
"q.                            O r / $.o.+.+.+.+.+.+.+.+.+.+.+.+.+.+.+.+.+.+.+.+.+.+.+.+.+.O.@.` p %                             ",
"q.                            o 8 c Q R E E E E E E E E E E E E E E E E E E E E E E E E E R W M w +                             ",
"q.                            o 4 j K A H H H H H H H H H H H H H H H H H H H H H H H H H A J b 9 +                             ",
"q.                            o 5 z U G L L L L L L L L L L L L L L L L L L L L L L L L L G P n 0 +                             ",
"q.                            o 5 l I D L L L L L L L L L L L L L L L L L L L L L L L L L F P n 9 +                             ",
"q.                            o 5 l I D L L L L L L L L L L L L L L L L L L L L L L L L L F P n 9 +                             ",
"q.                            o 5 l I D L L L L L L L L L L L L L L L L L L L L L L L L L F P n 9 +                             ",
"q.                            o 5 l I D L L L L L L L L L L L L L L L L L L L L L L L L L F P n 9 +                             ",
"q.                            o 5 l I D L L L L L L L L L L L L L L L L L L L L L L L L L F P n 9 +                             ",
"q.                            o 5 l I D L L L L L L L L L L L L L L L L L L L L L L L L L F P n 9 +                             ",
"q.                            o 5 l I D L L L L L L L L L L L L L L L L L L L L L L L L L F P n 9 +                             ",
"q.                            o 5 l I D L L L L L L L L L L L L L L L L L L L L L L L L L F P n 9 +                             ",
"q.                            o 5 l I D L L L L L L L L L L L L L L L L L L L L L L L L L F P n 9 +                             ",
"q.                            o 5 l I D L L L L L L L L L L L L L L L L L L L L L L L L L F P n 9 +                             ",
"q.                            o 5 l I D L L L L L L L L L L L L L L L L L L L L L L L L L F P n 9 +                             ",
"q.                            o 5 l I D L L L L L L L L L L L L L L L L L L L L L L L L L F P n 9 +                             ",
"q.                            o 5 l I D L L L L L L L L L L L L L L L L L L L L L L L L L F P n 9 +                             ",
"q.                            o 5 l I D L L L L L L L L L L L L L L L L L L L L L L L L L F P n 9 +                             ",
"q.                            o 5 l I D L L L L L L L L L L L L L L L L L L L L L L L L L F P n 9 +                             ",
"q.                            o 5 l I D L L L L L L L L L L L L L L L L L L L L L L L L L F P n 9 +                             ",
"q.                            o 5 l I D L L L L L L L L L L L L L L L L L L L L L L L L L F P n 9 +                             ",
"q.                            o 5 l I D L L L L L L L L L L L L L L L L L L L L L L L L L F P n 9 +                             ",
"q.                            o 5 l I D L L L L L L L L L L L L L L L L L L L L L L L L L F P n 9 +                             ",
"q.                            o 5 l I D L L L L L L L L L L L L L L L L L L L L L L L L L F P n 9 +                             ",
"q.                            o 5 l I D L L L L L L L L L L L L L L L L L L L L L L L L L F P n 9 +                             ",
"q.                            o 5 l I D L L L L L L L L L L L L L L L L L L L L L L L L L F P n 9 +                             ",
"q.                            o 5 l I D L L L L L L L L L L L L L L L L L L L L L L L L L F P n 9 +                             ",
"q.                            o 5 l I D L L L L L L L L L L L L L L L L L L L L L L L L L F P n 9 +                             ",
"q.                            o 5 l I D L L L L L L L L L L L L L L L L L L L L L L L L L F P n 9 +                             ",
"q.                            o 5 l I D L L L L L L L L L L L L L L L L L L L L L L L L L F P n 9 +                             ",
"q.                            o 5 k P Z F F F F F F F F F F F F F F F F F F F F F F F F F S L v 9 +                             ",
"q.                            o 6 x ! P Y Y Y Y Y Y Y Y Y Y Y Y Y Y Y Y Y Y Y Y Y Y Y Y Y P T m q +                             ",
"q.                            X 3 g C N B B B B B B B B B B B B B B B B B B B B B B B B B N V h 7 +                             ",
"q.                              @ = , : > > > > > > > > > > > > > > > > > > > > > > > > > : > - $                               ",
"q.                                                                                                                              ",
"q.                                  . . . . . . . . . . . . . . . . . . . . . . . . . . . . .                                   ",
"q.                                                                                                                              "
};
