/* XPM */
static char *result[] = {
/* columns rows colors chars-per-pixel */
"64 64 128 2 ",
"   c #000000",
".  c #080602",
"X  c #140B02",
"o  c #1A0E02",
"O  c #161106",
"+  c #191307",
"@  c #1C1508",
"#  c #241403",
"$  c #291704",
"%  c #221A0A",
"&  c #311A05",
"*  c #2F240E",
"=  c #3B2106",
"-  c #31250E",
";  c #372A10",
":  c #392B11",
">  c #7F450D",
",  c #735822",
"<  c #7C5F25",
"1  c #7E6025",
"2  c #83470C",
"3  c #874A0E",
"4  c #8D4D0E",
"5  c #904F0E",
"6  c #905211",
"7  c #9A5913",
"8  c #826327",
"9  c #846528",
"0  c #8C6B2A",
"q  c #906E2B",
"w  c #92702C",
"e  c #9A742D",
"r  c #9E782F",
"t  c #8E6F31",
"y  c #A47D31",
"u  c #D66F0B",
"i  c #D7700B",
"p  c #D8730D",
"a  c #C66C13",
"s  c #CA6E13",
"d  c #D56F10",
"f  c #CD7115",
"g  c #CE781C",
"h  c #D67313",
"j  c #D97615",
"k  c #D97817",
"l  c #D47E1E",
"z  c #DB7C1A",
"x  c #E47D16",
"c  c #E87F17",
"v  c #A78032",
"b  c #AA8133",
"n  c #DE811D",
"m  c #E2841F",
"M  c #E9841B",
"N  c #DF8421",
"B  c #DD8429",
"V  c #D7912F",
"C  c #DA912D",
"Z  c #C3953B",
"A  c #CD9C3D",
"S  c #D29D3B",
"D  c #E08520",
"F  c #E28A24",
"G  c #E38D28",
"H  c #E6952C",
"J  c #E8972D",
"K  c #E9982E",
"L  c #EC9D31",
"P  c #CFA03F",
"I  c #D4A23F",
"U  c #EEA236",
"Y  c #EFA53D",
"T  c #F2A739",
"R  c #F2A93A",
"E  c #EBB13F",
"W  c #F9B53E",
"Q  c #CC9F40",
"!  c #CEA541",
"~  c #D4A340",
"^  c #D9A641",
"/  c #D4A943",
"(  c #DEAA43",
")  c #F2AB41",
"_  c #EBB447",
"`  c #EDB648",
"'  c #EEBC4A",
"]  c #F7B443",
"[  c #F8B543",
"{  c #FBBB45",
"}  c #F0B748",
"|  c #F4BB4A",
" . c #FBBE4A",
".. c #E7A65B",
"X. c #E8A85D",
"o. c #EAAD60",
"O. c #FFC046",
"+. c #F1C24C",
"@. c #FEC34C",
"#. c #FFCA4F",
"$. c #FFC652",
"%. c #FFCC51",
"&. c #FEC759",
"*. c #FFC95D",
"=. c #FFD454",
"-. c #FFD35E",
";. c #FFCB64",
":. c #FFCD69",
">. c #FBCD75",
",. c #FCCF79",
"<. c #FFD57D",
"1. c #F6D386",
"2. c #FED682",
"3. c #FFD986",
"4. c #FFDA8C",
"5. c #FFDD92",
"6. c #FFE09B",
"7. c #FDE2A3",
"8. c #FEE6AC",
"9. c #FFEAB5",
"0. c #FFEDBC",
"q. c #FEEEC2",
"w. c #FFF1C6",
"e. c #FFF2CB",
"r. c #FFF5D2",
"t. c #FFF9D4",
"y. c #FFF7D8",
"u. c None",
/* pixels */
"u.u.u.u.u.u.u.u.u.u.u.u.u.u.u.u.u.u.u.                                                      u.u.u.u.u.u.u.u.u.u.u.u.u.u.u.u.u.u.",
"u.u.u.u.u.u.u.u.u.u.u.u.u.u.u.u.u.u.                                                        u.u.u.u.u.u.u.u.u.u.u.u.u.u.u.u.u.u.",
"u.u.u.u.u.u.u.u.u.u.u.u.u.u.u.u.u.u.                                                        u.u.u.u.u.u.u.u.u.u.u.u.u.u.u.u.u.u.",
"u.u.u.u.u.u.u.u.u.u.u.u.u.u.u.u.u.u.                                                        u.u.u.u.u.u.u.u.u.u.u.u.u.u.u.u.u.u.",
"u.u.u.u.u.u.u.u.u.u.u.u.u.u.        , ! Z A A A A A A A A A A A A A A A A A A A A A A A ! 0         u.u.u.u.u.u.u.u.u.u.u.u.u.u.",
"u.u.u.u.u.u.u.u.u.u.u.u.u.u.    .   9 =.#.#.#.#.#.%.%.%.%.@.#.%.#.#.#.%.#.#.#.#.#.%.%.@.=.y         u.u.u.u.u.u.u.u.u.u.u.u.u.u.",
"u.u.u.u.u.u.u.u.u.u.u.u.u.u.        1 %. .@.@.@. .@.@.@.@. .@.| @.@.@.| @.@.@.@.@.| @.| #.e         u.u.u.u.u.u.u.u.u.u.u.u.u.u.",
"u.u.u.u.u.u.u.u.u.u.u.u.u.u.        9 %. .@.@.@.@.@.@. .@.@.@.@.@.@.@. .@. .@.@.@.@.@.@.=.r   .     u.u.u.u.u.u.u.u.u.u.u.u.u.u.",
"u.u.u.u.u.u.u.u.u.u.      @ Z I A ! V N N N N n D D D D D m N N n N n N D D D D D  .@.@.@.` A A P A *         u.u.u.u.u.u.u.u.u.",
"u.u.u.u.u.u.u.u.u.        @ | %.#.%.L u h h j h h h h h h h h j j h h h h h h h j [ @.@.@.@.%.$.%.@.-         u.u.u.u.u.u.u.u.u.",
"u.u.u.u.u.u.u.u.u.        @ ` @. .$.L h k j j j k k k j k k k j k j k k z j j j z [ $.@.@.@.@.@.@.| *         u.u.u.u.u.u.u.u.u.",
"u.u.u.u.u.u.u.u.u.        @ ` @.@.@.L h k j z j j k j k j k j j j k k k j j j j z { @.@.@.@.@.@.@.@.-   .     u.u.u.u.u.u.u.u.u.",
"u.u.u.u.u.        1 / A ! S N N m n L [ ] [ [ ] [ [ [ [ [ [ [ { [ [ [ [ [ [ [ ] [ 7.9.9.0.4.O.@.@.@.^ A A / w         u.u.u.u.u.",
"u.u.u.u.u.        w =.@.%.O.k h j d L %.@.$.@.$.@.%.$.@.$.$.@.@.@.@.@.$.@.$.#.$.$.0.r.r.r.7.{ $.@.@.#.%.#.=.b         u.u.u.u.u.",
"u.u.u.u.u.    .   0 %.+.@.[ z j k h L $.O.@.@.@.O.@.O.@.O.@.@.@.@.@.@.@.@.@.@.O.$.9.r.w.r.7. .@.@.@.@.@. .%.y         u.u.u.u.u.",
"u.u.u.u.u.        0 %. .$.{ z j j h L $.@.@.@.@.$.@.$.@.@.$.@.@.@.@.@.@.@.@.@.@.$.9.r.w.r.5.O.@.@.@.@.@.@.%.b         u.u.u.u.u.",
"u.u.u.u.u.        0 =. .@. .z j j h L $.O.O.&.8.0.9.9.9.9.9.9.8.&.@.@.@.@.@.@.@.$.9.e.e.r.6.O.@.@.@.@.$.| %.v         u.u.u.u.u.",
"u.u.u.u.u.    .   0 =. .@.{ z j j h L #.@.@.&.w.r.e.e.r.r.r.r.w.*.O.@.@.@.$.@.O.$.9.r.w.r.6.O.$.@.@.@.@.@.%.b         u.u.u.u.u.",
"u.u.u.u.u.        0 %. .$.| z h j d L $.@.@.$.q.e.e.e.e.e.e.e.w.*.O.@.@.@.@.@.@.$.9.r.e.r.6.O.@.@.@.@.@.@.%.y         u.u.u.u.u.",
"u.u.u.u.u.  . .   0 %. .@.{ z j z h L $.@.O.&.0.e.e.e.e.w.e.e.q.*. .@.@.@.@.$.O.$.9.e.w.r.6.O.$.$.@.@.@.@.%.b   . .   u.u.u.u.u.",
"        % Q ~ ~ / C n N n N ] ] [ [  .$.@.O.&.w.e.e.t.6.&.;.;.*.G n D z L @.@.@.@.;.;.;.*.3.0.9.9.9.;. .@.@.} ~ I ~ ~ ;         ",
"        % @.%.@.=.K u j h z @.$.@.@.@.@.@.@.&.0.e.e.r.4.{ @.O.{ z h j d H $.@.@.@. .O.{ W <.t.e.r.e.:.O.@.@.@.%.#.#.%.:         ",
"        % | @. .$.J h k j z  .@.@.@.O.@.@.O.$.q.e.e.r.5.O.@.$. .z j z h H $.@.@.@.@.@.$.O.<.e.e.e.e.;.O.@.@.@.@.@. .@.:         ",
"        % | @.@.@.K h k h n  .$.@.$.$.@.$.@.&.q.e.e.r.5.O.@.@. .n h z h L $.@.@.$.@.@.@.O.<.r.e.e.w.;. .$.@.@.@.@.@.@.:         ",
"        % | %.@.$.K h k h B 8.9.9.9.9.9.9.9.0.e.e.e.r.4.O.@.@.@.{ [ { W >.0.9.0.9.*.O.@.{ <.r.w.e.e.:.O.@.@.@.@.@.@.@.:         ",
"        % | @.@.$.K h k h B q.r.r.r.r.r.r.e.e.e.e.e.r.5.O.@.@.@.@.$.#.O.3.r.e.r.w.;.@.@.O.<.r.e.e.e.;.O.$.@.@.@.@.@.@.:         ",
"        % | @.@.%.K h j h B q.e.e.e.e.e.e.e.e.e.e.e.r.5.O.@.@.@.@.@.@.{ 2.r.e.e.e.;.O.$.O.<.e.e.e.e.;.O.@. .@.$.@.@.@.:         ",
"        @ | @.@.@.J h j h B q.e.e.e.e.w.w.e.e.q.e.w.r.4.{ @.$.@.@.@.$.{ 2.e.w.e.q.*. .@. .<.r.e.e.e.;. .$.@.@.O. .@.@.:         ",
"        % | @.O.$.K h j h B q.e.w.r.6.&.&.*.;.;.*.*.;.&.O.$.@.@.$.@.@.@.$.;.*.;.&.G n n k X.t.e.e.e.;.O.@.@.R n n n D &         ",
"        % | $.O.%.K h j h B q.e.e.r.3.{ @.O.O.O.O.O.O.O.@. .@.@.@.@.@.@.@.O.O.O. .n h j u ..t.w.e.e.:.O.@.$.R h j h j &         ",
"        % | @.@.$.K h k h B q.r.e.r.4.O.@.@.@.@.$.@.$.@.@.@.@.@.@.@.@.@.@.$.@.@.O.N j k u ..t.e.e.e.;.O.@.$.R j j j j &         ",
"        % | @.@.@.K h k p B 0.e.q.r.4.{ @.@.@.%.@.@.@.@.@.@.$.@.@.@.@.@.@.@.@.@.@.n h k i ..t.e.e.e.:.O.@.$.R h j k j &         ",
"        % | @.@.$.K h k h B q.r.e.r.3.{ $.@.$.@.$.@.@.@.@.@.@.@.@.@.@.@.@.@.@.@. .n j k u ..t.w.r.e.:.@.@.%.R h j j k &         ",
"        % | @.@.$.K h k h l 0.e.e.t.3.O.@. .@. .@.@.@.@.@.@.$.@.@.@.@.@.@.@.@.@.@.n j k u ..t.w.e.w.;. .@.@.R h j k k $         ",
"        % | @.@.@.K h k h B q.r.e.r.4.{ @.@.$.@.@.@.@.@.@.@.@.@.@.@.@.@.@.@.@.$.@.n j k u ..t.e.e.e.;.O.@.$.R h k k j &         ",
"        % | $.O.$.K h k h B 9.e.w.e.4.{ @. .@. .@.@.$.@.@.@.@.@. .@. .@.@. . . .| N h k u ..t.e.e.e.;.O.@.$.R h k j k &         ",
"        % | @.@.$.K h j k m $.*.*.;.Y k D z D  .@.@.@.@.@.@.@.O.F z n n n n n n n j j k u ..t.e.e.e.;.@.@.#.R h j j z &         ",
"        % | @.@.#.K h k h z { @.{ #.K h j h z { $.@.@.@.@.O.$. .z h j j h j h j h j j k i ..t.w.e.e.;.O.@.$.R h k j j &         ",
"        % | @.@.$.K h j h n  .$. .%.K h j h z  .@. .@.@.@.@.@. .n j k j j j j j j j j j u ..t.e.e.e.;.O.@.#.R h k j j &         ",
"        % | @.@.@.K h k h n  .@.@.#.L k z z z  .$.$.$.$.@.@.@. .z h j j j z k z z k z z p ..t.w.e.e.:.O.@.$.R h j k j &         ",
"        % | @.O.$.H h z h z  .@.@.@. .{ { [  .9.0.0.w.3.O.@.@. .n h j h H  .{ { [ { { | W <.e.e.e.e.;.O.@.$.R h k k k &         ",
"        % | @.@.$.K h j j n  .@.@.@.@.$.$.O.&.q.r.e.t.5. .@.@. .n j k h K %.@.@.$.@.@.$.@.<.r.e.e.e.;. .@.$.T h k h k &         ",
"        % | %.@.%.K h j h z O.@.@.@.@.@.@.@.&.q.e.e.r.5.O.@.@. .z h k h J @.@.@.@. .O.@.{ <.r.e.e.e.;.O.@.%.R k k z k &         ",
"        % _ | ` ' H j z k n  . . . .O.@.@.O.$.0.w.w.e.4.{ @.O. .n j j h H $.@.@.@.$.$.&.@.<.e.q.w.q.;.{  .@.U s s s d &         ",
"u.u.u.u.u.@ @ % @ e @.[ { ] N z n z U #.@.@.$.&.*.&.;.R z z n z z j j h H $.@.@.$.8.q.9.q.5.&.*.*.*.G z l M 7 X o o o u.u.u.u.u.",
"u.u.u.u.u.        0 =. .$.{ z h j d L $.@.@.@. .O. .@.L h j j h j j j h K $.@.@.$.9.r.r.y.7.{ O.O.O.n h h x 4         u.u.u.u.u.",
"u.u.u.u.u.    .   0 %. .@.{ z j j h L $.@.@.@.@.@.$.&.L h j h j j h j h H @.@.@.$.9.r.w.r.7.O.@.@.@.D j k x 5         u.u.u.u.u.",
"u.u.u.u.u.        0 =. .@.{ z j j h L $. .@.@.@.@.O.#.L k z z z z z z j K #.@.O.$.9.r.w.r.5.O.$.@.@.N h k x 5         u.u.u.u.u.",
"u.u.u.u.u.        q %.@.$.| z j k h K $.O.@.@.$.@. .@. .{ { { { { { [ {  .@.@.@.$.0.r.w.r.6.O.@.@.@.D h k x 4         u.u.u.u.u.",
"u.u.u.u.u.        0 %. .@.[ z j j h L %.@.$.@.@.@.@.@.$.$.$.$.@.$.@.$.$.$.@.@.@.$.9.r.w.r.6.O.@.@.@.N h k x 4         u.u.u.u.u.",
"u.u.u.u.u.        0 =.@.@.{ k j j h K #.O.@. .@.@.@.@.O. .O. .@. .O. .@.O.@.@.O.@.9.r.e.r.6.O.@.$.@.D j j x 5         u.u.u.u.u.",
"u.u.u.u.u.        0 +._ ' _ n k z k U &.$.$.&.$.$.$.&.$.&.$.$.$.$.$.$.&.$.$.$.$.&.9.w.w.e.5.{  .{ { l s s j 4         u.u.u.u.u.",
"u.u.u.u.u.u.u.u.u.+ + @ + - _  .+.W 3.e.0.0.0.q.q.0.q.0.q.0.q.0.q.q.0.q.q.q.0.q.9.:.&.&.*.) z n z z = X X X X u.u.u.u.u.u.u.u.u.",
"u.u.u.u.u.u.u.u.u.        X ' @.@.O.4.t.e.r.e.e.e.r.e.r.e.r.e.r.r.e.r.e.e.r.e.r.e.*. .@.@.U h h k h #         u.u.u.u.u.u.u.u.u.",
"u.u.u.u.u.u.u.u.u.        @ } @.@.O.4.y.e.e.e.e.e.r.e.e.e.e.r.e.e.r.e.e.e.e.e.e.q.;.O.@.$.T j z z k $         u.u.u.u.u.u.u.u.u.",
"u.u.u.u.u.u.u.u.u.        @ ( ' _ _ 1.w.w.w.q.w.q.q.q.q.q.q.q.q.q.q.q.q.q.w.q.w.0.&. . .@.L a f s a $         u.u.u.u.u.u.u.u.u.",
"u.u.u.u.u.u.u.u.u.u.u.u.u.u.+ + @ O t -.&.&.&.&.$.&.&.*.&.&.&.&.&.&.&.&.&.$.&.&.&.F z z M 6 X X X X u.u.u.u.u.u.u.u.u.u.u.u.u.u.",
"u.u.u.u.u.u.u.u.u.u.u.u.u.u.        1 #. .@.O.@.O. .@.O.O. .@.O.O.O.@.O.@.@.@.@. .z h h x 2         u.u.u.u.u.u.u.u.u.u.u.u.u.u.",
"u.u.u.u.u.u.u.u.u.u.u.u.u.u.        9 =.@.@.#.@.$.$.%.@.@.$.#.#.$.$.$.@.@.#.@.@.O.D j z x 3         u.u.u.u.u.u.u.u.u.u.u.u.u.u.",
"u.u.u.u.u.u.u.u.u.u.u.u.u.u.        < +._ _ _ _ _ _ _ _ _ _ _ ` _ _ _ _ _ _ _ _ _ g a a h >         u.u.u.u.u.u.u.u.u.u.u.u.u.u.",
"u.u.u.u.u.u.u.u.u.u.u.u.u.u.u.u.u.u.O O O O O O O O O O O O O O O O O O O O O O O X X X X X u.u.u.u.u.u.u.u.u.u.u.u.u.u.u.u.u.u.",
"u.u.u.u.u.u.u.u.u.u.u.u.u.u.u.u.u.u.                                                        u.u.u.u.u.u.u.u.u.u.u.u.u.u.u.u.u.u.",
"u.u.u.u.u.u.u.u.u.u.u.u.u.u.u.u.u.u.                                                        u.u.u.u.u.u.u.u.u.u.u.u.u.u.u.u.u.u.",
"u.u.u.u.u.u.u.u.u.u.u.u.u.u.u.u.u.u.                                                        u.u.u.u.u.u.u.u.u.u.u.u.u.u.u.u.u.u."
};
