/* XPM */
static char *result[] = {
/* columns rows colors chars-per-pixel */
"64 64 219 2 ",
"   c #A73A02",
".  c #A64201",
"X  c #AC4C02",
"o  c #B64E06",
"O  c #AF5102",
"+  c #B25202",
"@  c #BC5305",
"#  c #BA5D05",
"$  c #B25817",
"%  c #BB6207",
"&  c #BA6819",
"*  c #BE7419",
"=  c #C55A01",
"-  c #CC6400",
";  c #C66C02",
":  c #D26B00",
">  c #C67205",
",  c #CC7402",
"<  c #CC7908",
"1  c #D47301",
"2  c #D37B05",
"3  c #DB7B03",
"4  c #CA7915",
"5  c #CC7313",
"6  c #C27B25",
"7  c #D48407",
"8  c #DA8404",
"9  c #DA8A04",
"0  c #D68C07",
"q  c #CD930C",
"w  c #DC9103",
"e  c #D39C05",
"r  c #D89808",
"t  c #C68316",
"y  c #E28301",
"u  c #E58C03",
"i  c #E59304",
"p  c #ED9400",
"a  c #E49B04",
"s  c #EB9C01",
"d  c #F09600",
"f  c #F29B00",
"g  c #CFA300",
"h  c #D1A600",
"j  c #DDA106",
"k  c #D5AA01",
"l  c #DAAD00",
"z  c #D8A60A",
"x  c #DCB101",
"c  c #DDB30A",
"v  c #D4AD12",
"b  c #EBA302",
"n  c #EBAB01",
"m  c #E5A107",
"M  c #F4A400",
"N  c #F4AB00",
"B  c #F9AA00",
"V  c #E2B500",
"C  c #ECB201",
"Z  c #E7B901",
"A  c #ECBC01",
"S  c #E3B90A",
"D  c #F4B300",
"F  c #F9B400",
"G  c #F3BB01",
"H  c #F9BC01",
"J  c #CF9930",
"K  c #D29834",
"L  c #C68636",
"P  c #D7B52E",
"I  c #D6B223",
"U  c #D4A332",
"Y  c #D5B73C",
"T  c #E3BE2D",
"R  c #EFC304",
"E  c #EFCB04",
"W  c #EEC008",
"Q  c #F4C301",
"!  c #FAC501",
"~  c #F3CA04",
"^  c #FDCB00",
"/  c #FBCA09",
"(  c #EDD506",
")  c #E8D008",
"_  c #F4D202",
"`  c #FDD301",
"'  c #F4DB05",
"]  c #FDDC01",
"[  c #F7D20C",
"{  c #EBC015",
"}  c #FACC12",
"|  c #FACD1B",
" . c #F4C91B",
".. c #F7D91C",
"X. c #F5E305",
"o. c #FDE400",
"O. c #F6EA06",
"+. c #FCEC01",
"@. c #F8EE0B",
"#. c #FCF301",
"$. c #FCFB01",
"%. c #F7F40B",
"&. c #F8F60A",
"*. c #FDFD0F",
"=. c #F6F006",
"-. c #F8EB16",
";. c #FDFD10",
":. c #F9F71F",
">. c #F4CD2B",
",. c #F9CE27",
"<. c #FAD029",
"1. c #F3CE3E",
"2. c #F9D231",
"3. c #E6CC3A",
"4. c #F6E325",
"5. c #F8EE27",
"6. c #F8F520",
"7. c #FCFC22",
"8. c #F9F82F",
"9. c #F7E030",
"0. c #F5E63C",
"q. c #F6EB39",
"w. c #FCFB34",
"e. c #FEFF38",
"r. c #D9AA42",
"t. c #E6CB4A",
"y. c #F6D542",
"u. c #F9D542",
"i. c #F9D74A",
"p. c #FBD94B",
"a. c #F3DC47",
"s. c #E6C959",
"d. c #EBD25D",
"f. c #F3D353",
"g. c #F3D559",
"h. c #F8DA5C",
"j. c #F3E742",
"k. c #F7E94B",
"l. c #FBFA46",
"z. c #FEFE4C",
"x. c #F5F34D",
"c. c #F6E958",
"v. c #FAF956",
"b. c #FDFD5C",
"n. c #F7F359",
"m. c #DDC668",
"M. c #E4CB6A",
"N. c #F4D868",
"B. c #E4CD71",
"V. c #E5D17E",
"C. c #F6DC72",
"Z. c #F4EF67",
"A. c #F4F263",
"S. c #F9F364",
"D. c #FDFD62",
"F. c #F4F169",
"G. c #F9F66C",
"H. c #FDFD6F",
"J. c #F6EA77",
"K. c #F6E57E",
"L. c #FCFD72",
"P. c #F8F677",
"I. c #E9D681",
"U. c #F4DE86",
"Y. c #F1DD8A",
"T. c #ECDC93",
"R. c #EADB9A",
"E. c #F1DF95",
"W. c #F0E080",
"Q. c #F6F383",
"!. c #F6E696",
"~. c #F6ED93",
"^. c #F3E29A",
"/. c #F9E99D",
"(. c #FAE791",
"). c #F5F19A",
"_. c #FAF19B",
"`. c #F8F093",
"'. c #E6DBAE",
"]. c #EEE1A5",
"[. c #F9ECAC",
"{. c #FAF7A7",
"}. c #EEE8B7",
"|. c #F3EBB6",
" X c #F3EDBD",
".X c #F9EEB8",
"XX c #F6F3B6",
"oX c #EFEACF",
"OX c #F4EDCE",
"+X c #F6EDC1",
"@X c #FBF2C1",
"#X c #F5F2CC",
"$X c #FBF3CB",
"%X c #FDFCC9",
"&X c #EDE9D2",
"*X c #EEECDD",
"=X c #EEE7D0",
"-X c #F1ECD7",
";X c #FBF6DB",
":X c #F6F5DA",
">X c #EDEBE5",
",X c #ECECEC",
"<X c #F1EEE2",
"1X c #F0EFED",
"2X c #FCFAE4",
"3X c #F2F1EE",
"4X c #FDFCEC",
"5X c #F7F4E6",
"6X c #ECEDF4",
"7X c #ECEEFA",
"8X c #F0EFF2",
"9X c #EFF0F5",
"0X c #EEF1FA",
"qX c #F4F4F4",
"wX c #F7F8F7",
"eX c #F8F8F7",
"rX c #F4F5FB",
"tX c #F7F9FD",
"yX c #FDFDFD",
/* pixels */
"yXyXyXyXqX,X,X,X,XyXyXyXyXqX,X,X,X,XyXyXyXyXqX,X,X,X,XeXyXyXyXeX,X>X,X>XeXyXyXyXtX,X,X,X,XwXyXyXyXyX,X,X,X,XqXyXyXyXyX,X,X,X,XqX",
"yXyXyXyXqX,X,X,X8XyXyXyXyXqX,X,X,X,XyXyXyXyXwX6X9X0X0XyXyXyXyXyX7X7X7X7XtXyXyXyXwX,X,X,X,XwXyXyXyXyX,X,X,X,XqXyXyXyXyX1X,X,X,XqX",
"6X,XqXqXwXyXwXyXwXqX8X1XqXwXyXwXyXeX8X9XrX9X3X;X+X[./.E.!.!.!./.`.`.`.).{. X:X3XrXyXyXeXyXqX3X3X,XqXwXyXyXyXqX,XqXqX6XeXwXyXwXwX",
",X,X,X,XwXyXyXyXyX,X,X,X,XwXyXyXyXyX9X=X^.g.<.} ~ Q ^ ^ ` ] ] o.o.o.+.o.O.O.-.q.F.{.4XyXyXqX,X,X,XqXyXyXyXyXqX,X,X,X,XyXyXyXyXwX",
",X,X,X,XwXyXyXyXyX,X,X,X,XqXyXyXyX@Xh.} ^ ^ ^ ^ ^ ] ] ] o.] o.] o.] ] X.o.O.+.#.#.=.:.F.%XqX6X,X,X,XyXyXyXyXeX,X,X,X,XyXyXyXyXwX",
",X,X3X,XwXyXyXyXyX,X,X1X,XqXyX$Xp./ ^ ^ ^ / ^ ` ` ` ` _ ~ ! G G G G G Q Q Q _ ( X.+.#.#.&.x.}.9X6X1XyXyXyXyXqX,X8X,X3XtXyXyXyXwX",
"yXyXyXyXqX,X6X,X8XyXyXyXyX5XC./ ^ ^ ^ ^ ^ ^ ^ ^ ^ ! F N N N N D N D D D D D D G Q E ' O.$.=.&.S.2XyX,X1X9X,XqXyXyXyXyX3X1X6X,XqX",
"yXyXyXyXqX,X,X,X,XyXyXyX$X2.^ ^ ^ ^ ^ ` ^ ^ ^ H N N M N B N N N N D D F D F G G G G A R ' O.=.$.7.XX6X,X,X,XeXyXyXyXyX,X,X,X,XqX",
"yXyXyXyXqX,X,X,X1XyXyX[.} ^ ^ ^ ^ ^ ` ` ` ! N f M M M B N N N N N D N F D F D G G G G G G E ' &.$.&.J.,X,X>XqXyXyXyXyX,X,X,X,XqX",
"yXwXyXyXqX,XqX3XqXyX/./ ^ ^ ^ ^ ` ] ] ` G M M M M M M M M B B N N D N D D D D G F G G G G A W _ =.&.$.A.1X9XwXtXwXyXwXqXqX,X,XqX",
",X,X,X,XqXyXyXyXyX^.! ^ ^ ^ ^ ` ] o._ D B M M M M M M M M N N N N N N D D D D D G D G G G G A G ) X.$.$.D.eXqX,X,X,X6XyXyXyXyXwX",
",X,X,X,XwXyXyXyX.X/ ^ ^ ^ ^ ] o.o._ F N N N M N M M M M M M M N N M D D N D F D D G F G G G G A A E X.&.$.L.9X,X,X,X1XyXyXyXyXwX",
",X,X,X,XwXyXyX;X| ^ ^ ^ ^ ` +.o.] D D D N N B M M M M M M M M B B r =.] N D N D D D G G G G G G A A Q X.&.$.Q.6X,X,X,XyXyXyXyXwX",
"qXqX8XqXqXwXwXp.^ / ^ ^ ^ +.+.o.G D D N N N N N M M M M f M M B w ( $.$.Q N D D D D D D F G G G A G R R X.$.&.XXrX3XqXeXwXwXwXwX",
"yXyXyXyXqX6XY.^ ^ ^ ^ ^ +.#.+.! D F F D D N N N B B M M M M B i S $.$.$.#.G N N D D D D D G G G G A A G E #.$.8.4XyXyX,X,X,X,XqX",
"yXyXyXyXqX=X| ^ ^ ^ ^ ] #.#.` G G F D D D D N N N M M B M M d j *.$.$.$.$.#.D N D C D D D G D G G G A Q A _ &.#.L.yXyX6X,X,X,XqX",
"yXyXyXyXrXN.^ ^ ^ ^ ^ #.$.+.G G G G F D D D N N N N B M N M 0 O.$.$.$.$.$.$.X.N D N D D D D G D G G G A A W X.&.&.%XyX,X,X,X>X9X",
"qXqXqXrX#X} ^ ^ ^ ^ o.$.#._ ! G G H H G F D D D N N N N B 9 ) $.$.$.$.$.$.$.$.` N D N D D D D G D G G G G G E %.$.n.rXwXwXwXwXqX",
",X,X,X6XC.^ / ^ ^ ^ #.$.+.Q G G G G H G D D D D N N N F i c $.$.$.$.$.$.$.$.$.$.Q M N D D F D D G D C G G A A ' #.&.}.yXyXyXyXwX",
",X,X6X-X,.^ ^ ^ ^ o.#.#._ Q Q Q H G G G G F D D D D N s r $.$.$.$.$.$.$.$.$.$.$.$.G n N D D D D D G F S G G G W @.#.A.yXyXyXyXwX",
",X,X7XE.^ ^ ^ ^ ^ o.#.o.Q Q Q Q Q G G Q G G F F F D N r O.$.$.$.$.$.$.$.$.$.$.$.$.#.G N N N D D D D G C G A H G ' $.:.2XyXyXyXwX",
"yXwXyXh.^ ^ ^ ! ` +.+.^ G Q Q Q Q Q H G G G D D F G ~ O.#.#.#.#.#.#.#.#.#.#.#.#.#.#.#.X.~ D N D D D D G G G G S E =.=.).rXqXqXqX",
"yXyX4X,.^ ^ ^ ^ ` o.o.G G Q Q Q Q Q G G G G G ~ ] +.#.#.+.+.+.+.+.+.+.+.+.+.+.+.+.+.+.#.#.+.` Q G D D D C D S G A O.#.c.,X,X,XqX",
"yXyX@X! ^ ^ ^ ^ ` o.` F G G G Q Q Q Q Q ! ` ] +.+.o.o.o.o.+.o.o.+.o.o.+.o.o.+.o.o.o.o.o.o.o.+.+.] [ ! D C D H D C _ =.5.*X,X,XqX",
"yXyX(.^ ^ ^ ^ ^ ] o.! D D G G ! ! Q _ ] ] o.o.] o.o.] o.o.o.] ] ] o.] o.] ] ] o.o.] ] ] o.] ] ] o.o.] ] / C n n b A +.=. X0X,XqX",
"1X9XN.^ ^ ! ^ ~ ` ` G N F D G w m ] ] ] ] ] ] ] ` ] ` ] ] ] ] ] ` ] ] ] ] ] ] ` ` ] ] ] ` ] ] ] ` ` ] o.W 7 n b b C O.O._.yXyXwX",
",X,Xu.^ ^ ^ ! ! ` ^ D N D D H > . Q ` ` ` ` ` ` ` ` ` ` ` ` ` ` ` ` ` ` ` ` ` ` ` ` ` ^ _ ` ` ` ` ` ` [ 7 i b m b V ' +.Q.yXyXeX",
",X>X,.^ ^ ^ ! ^ ^ ^ N N N D F F # % ` ^ ^ ` ^ ^ ^ ` ^ ^ ^ ^ ^ ^ ^ ^ ^ ^ ^ ^ ^ ^ ^ ^ ^ ^ ^ ^ ^ ^ ^ ^ ` a 7 m s b b b [ O.S.yXyXeX",
"9X<X| ^ ! ! ~ ^ ^ ! M M N N N H b . 0 ` / ^ ^ ^ ^ ^ ^ ^ ^ ^ ^ ^ ^ ^ ^ ^ ^ ^ ^ ^ ^ ^ ^ ^ ^ ^ ^ ^ ^ ^ G 2 b s b b b b ~ +.k.yXyXqX",
"yX2X| ^ ! ! Q ^ ^ ! M M B N N D H 0 . m ^ ^ ^ ^ ^ ^ ^ ^ ^ ^ ^ ^ ^ ^ ^ ^ ^ ^ ^ ^ ^ ^ ^ ^ ^ ^ ^ ^ ^ ^ 7 i b b s m s b W +.j.1X,XqX",
"yX2X} ! ~ ! ~ ! ^ ! M M M N N N D H ; + ! ^ / ^ ^ ^ ^ ^ ^ ^ ^ ^ ^ ^ ^ ^ ^ ^ ^ ^ ^ ^ ^ ^ ^ ^ ^ ^ ` a 8 M s s b s m s W +.0.,X,XqX",
"yX2X| ! ! Q Q ! ^ H f M M M M N N D N + > ` ^ ^ ^ ^ ^ ^ ^ ^ ^ ^ ^ ^ ^ ^ ^ ^ ^ ^ ^ ^ ^ ^ ^ ^ ^ / / 2 s s s a s b b a A o.0.>X,XqX",
"wX5X| ! Q Q Q ! ^ H M M f M M M N N F a   a ` ^ ^ ^ ^ ^ ^ ^ ^ ^ ^ ^ ^ ^ ^ ^ ^ ^ ^ ^ ^ ^ ^ ^ ^ ^ 9 u f s s s a s m s W o.k.qXqXqX",
",X>X>.Q Q Q Q ! ^ ! M f M M M B N N N H < X / ^ ^ ^ ^ ^ ^ ^ ^ ^ ^ ^ ^ ^ ^ ^ ^ ^ ^ ^ ^ ^ ^ ^ ` m 8 f p s s f s s f m R ] c.yXyXwX",
",X,X1.! Q Q R Q ^ ^ M M M f f M M M N D D + > ` ^ ^ ^ ^ ^ ^ ^ ^ ^ ^ ^ ^ ^ ^ ^ ^ ^ ^ ^ ^ ^ ^ ^ 9 p p p s s i i s a b / ] J.yXyXwX",
",X9Xd.Q Q Q Q Q ^ ^ B f M M M f M M M b M u   S ] ^ ` ` ` ` ` ` ` ` ` ` ` ` ` ` ` ` ` ` ` ` _ f d p s p i s s s s m [ ' _.yXyXwX",
"qXyXU.Q Q A G Q ^ ^ N M M f M f f d p s s M o m o.] ] ] ] ] ] ] ] ] ] ] ] ] ] ] ] ] ] ] ] ] [ b p p p p p i s s a b ` ' .XrXqXqX",
"yXyX.XR Q Q R A ^ ^ H f d d d d p p p f s M + r #.o.o.o.o.+.o.o.o.o.+.o.+.o.o.+.+.o.+.o.+.+.X.s p p p p i s i s p C ` ..&X6X,XqX",
"yXyX2X{ Q A R A Q ^ H p p p p p d p p p p b @ j $.+.#.+.+.+.#.#.#.#.#.#.+.#.#.#.+.#.#.#.#.#.o.s s s p p i p s s a G ] a.,X,X,XqX",
"yXyXyXf.A Q A A Q ^ ^ f p p d p p d p p p M @ e $.#.$.$.$.$.$.$.$.$.$.$.$.$.$.$.$.$.$.$.$.$.+.b p f s p p i p i s W _ W.6X>X,XqX",
"qX3XrXT.G R A Z A ^ ^ N p p p d p d p d d f = 0 *.*.*.*.*.*.*.*.*.*.*.*.*.*.*.*.;.;.;.;.;.;.-.s s s f i i p i p n / [ #XtXwXyXeX",
",X,X6X=X{ A A A Z Q ^ ! p p p d p p p d u d = t 7.:.:.7.7.:.:.:.7.7.7.7.7.7.7.7.7.7.7.7.7.7.6.b s s s i s i p i D ` a.yXyXyXyXwX",
",X,X,X6Xd.Z A Z Z A ^ ^ N p p p p p p p p f - t w.w.w.w.w.w.w.w.w.w.w.e.w.w.w.w.w.w.w.w.w.e.8.b f s s s s i i s / ~ ^.yXyXyXyXwX",
",X,X,X9X XA Z A Z V Q ^ H p p p p p d p p f : * z.l.l.l.l.l.l.z.z.z.j.3.j.z.z.z.z.l.l.l.l.z.j.b b s s s s d a C ! >.<XyXyXyXyXwX",
"yXyXyXyXwXs.C V Z V A ^ ^ N p p p p p p p f : & b.v.v.b.b.D.v.t.U 4 > % # * J t.n.D.H.b.b.b.k.b M s s a s a b / ! /.yX1X1X6X,XqX",
"yXyXyXyXrX}.S V V V V Q ^ ! s p d p p p p d 1 & H.L.L.G.s.K 4 , 8 a N D n 9 , % $ 6 U d.G.L.S.n s b m s s s / ^ 1.yXyX1X,X,X,XqX",
"yXyXyXyXqX6XM.Z V V V V ^ ^ F p p p p p p f 3 $ J.s.K 4 1 8 f M N n b n C D G C b 9 ; # & L r.n b b b s s A ] [ %XyXyX,X,X,X,XqX",
"yXyXwXyXqX8X<XT x V V x Z ^ ^ B p p p d p d y o 5 1 3 p f M s s s b b n n n C C C G G C a 3 , b b m s b C ' ` K.yXeXwXqX,X3X,XqX",
",X,X,X,XwXyXyX+XS V V x l A ^ ^ N p p p p p p u d d d d p d p s f b M b n n n C C C n C C C C b b m b C ' ] a.,X,X,X,XyXyXyXyXwX",
",X,X,X,XwXyXyXyXT.l x x l l Q ^ ! N p p p p d p d p p p p p p p s s b b b N n n C C D n C n n b b b C ' o.9.5X,X,X,X,XyXyXyXyXwX",
">X,X,X,XwXyXyXyXyXB.l l l l x Q ^ ^ n p p p p p p p p p p p p d s s b f b b n n n C C C C n n b b A X.o.4.;XwX,X,X,X,XyXyXyXyXwX",
"6XqXqXqXwXwXwXwXwXrXB.k k l k l Q ` ^ D p p p d p p p p p p p p s s s s b M M n n C C n S n n V E @.O.4.#XtXqXqXqXqX8XeXwXwXwXwX",
"yXyXyXyXqX,X,X,X3XyXyXI.k k k h k W ^ ^ H s p p d p p p p p p p d p s s s M b b b N C n n n A ' =.+.q.oX6X>XwXyXyXyXyX,X,X,X,XqX",
"yXyXyXyXqX,X,X,X9XyXyXyX].v h k h k A ^ ^ ^ D b p p p p d p p p d p p d s s b b n b n n Z ( =.$.#.S.>X6X>X,XwXyXyXyXyXqX,X6X,XqX",
"yXyXyXyXqX,X,X,X,XyXyXyXyXoXY g g k h x ! ^ ^ ! N s p p p p p p p p p s s f s s b n V E O.$.$.:.{.yX6X,X,X,XqXyXyXyXyX,X,X,X,XqX",
"qXqXqXqXqXqXqXqXeXqXqXqXqXtXwXR.I g k k k A / ^ ^ ^ H N b s d p p p p p s s b n A ~ X.+.O.@.Z.:XrXqXqXwXqXqXwXqXqXqXqXqXeXqXqXqX",
",X,X,X,XwXyXyXyXyX,X,X,X,XqXyXyX4XT.P h h g k Z / / ` ^ / ! H G N D D D D Q / _ ] ] ] -.P.OX6X6X,X,XyXyXyXyXqX,X,X,X,XyXyXyXyXwX",
",X,X,X,XwXyXyXyXwX,X,X,X,XqXyXyXyXyX,X'.m.P z g h l A G ^ ^ ^ ^ ^ / ! ! / ^ ^ _ ..c._.2XyXqX,X,X,XqXyXyXyXyXqX,X,X,X,XyXyXyXyXwX",
",X,X,X,XwXyXyXyXyX,X,X,X,XqXyXyXyXwX,XrX0X,XOX|.T.V.B.M.M.d.g.f.p.u.u.i.f.N.Y.}.*XyXyXyXyXqX,X,X,X,XyXyXyXyXqX,X,X,X,XyXyXyXyXwX",
"wXqXyXwXqXqX8X,XqXwXwXyXwXqXqXqXqXqXwXwXeXwXtXrXrXrXrXyXtXyXyXtXqX8XqXqXtXyXyXtXtXqX1X1XqXqXeXwXeXqX,XqXqXqXqXyXtXyXwXqXqXqXqXqX",
"yXyXyXyXqX,X,X,XqXyXyXyXyXqX,X,X,X,XyXyXyXyXqX>X,X,X,XeXyXyXyXwX,X,X,X,XwXyXyXyXyX,X,X,X,XwXyXyXyXyX,X,X,X,XqXyXyXyXyX8X,X,X,XqX",
"yXyXyXyXqX,X,X,X,XyXyXyXyXqX,X,X,X,XyXyXyXyXqX,X,X,X,XyXyXyXyXwX,X,X,X,XtXyXyXyXwX,X,X,X,XwXyXyXyXyX,X,X,X,XqXyXyXyXyX,X,X,X,XqX",
"yXyXyXyXqX,X,X,XqXwXyXyXyXqX,X,X,X8XyXyXyXyXeX,X6X1X,XyXyXyXyXeX,X,X,X,XwXyXyXyXeX,X1X6X,XwXyXyXyXwX6X,X6X,XwXyXyXyXyX,X,X,X,XqX",
"6X,X,XqXwXyXyXyXwXqX,X3X8XwXyXyXyXwXqX,X,XqXqXyXyXwXyX3X,X8X,XqXyXyXyXyXqX,X,XqXqXyXyXyXyXqX,X,XqX3XyXyXyXyXqX,X,XqX1XyXyXyXtXqX"
};
