/* XPM */
static char *result[] = {
/* columns rows colors chars-per-pixel */
"64 64 132 2 ",
"   c #CA9F00",
".  c #CEA402",
"X  c #CFA70A",
"o  c #D1A500",
"O  c #D4AA01",
"+  c #DAAE00",
"@  c #D0A90D",
"#  c #DCB100",
"$  c #CEAA16",
"%  c #D1AB13",
"&  c #E2B500",
"*  c #E6B800",
"=  c #ECBC00",
"-  c #E9BF17",
";  c #E6BF1D",
":  c #D1AD24",
">  c #D4B42E",
",  c #D4B435",
"<  c #E4BD24",
"1  c #E2BD28",
"2  c #E1BF31",
"3  c #F4C401",
"4  c #F9C700",
"5  c #FBCA01",
"6  c #F5C60B",
"7  c #F7CA0F",
"8  c #F9C90C",
"9  c #ECC112",
"0  c #F4C711",
"q  c #F7C915",
"w  c #F8CA15",
"e  c #F6CA1C",
"r  c #F8CB19",
"t  c #EFC82A",
"y  c #F4CA23",
"u  c #F5CE2B",
"i  c #F7D02D",
"p  c #EEC934",
"a  c #E6C53F",
"s  c #EBC83B",
"d  c #F5CE36",
"f  c #F4CE3B",
"g  c #F6D034",
"h  c #F6D23A",
"j  c #D9BE4F",
"k  c #D9BD51",
"l  c #DEC457",
"z  c #DAC359",
"x  c #E4C544",
"c  c #E4C54E",
"v  c #F4CF42",
"b  c #F8D441",
"n  c #F6D44A",
"m  c #E1C655",
"M  c #E0C558",
"N  c #E6CB5C",
"B  c #F7D756",
"V  c #F9DA59",
"C  c #DFC969",
"Z  c #E4CB64",
"A  c #EAD36F",
"S  c #F3D762",
"D  c #F9DD66",
"F  c #E1CB72",
"G  c #ECD87F",
"H  c #F4DD76",
"J  c #F5DD7E",
"K  c #FAE274",
"L  c #E1CE86",
"P  c #E8D98C",
"I  c #F3DF87",
"U  c #F2DE8C",
"Y  c #E5D69F",
"T  c #EBDB9D",
"R  c #F2DF93",
"E  c #F6E083",
"W  c #F9E484",
"Q  c #F6E38D",
"!  c #F9E68B",
"~  c #F2E195",
"^  c #F8E891",
"/  c #F3E29A",
"(  c #F9EA9F",
")  c #EADEAD",
"_  c #F1E1A3",
"`  c #F7EDA6",
"'  c #F9ECA3",
"]  c #F7E7A9",
"[  c #F6EAAC",
"{  c #FAECAC",
"}  c #ECE3BE",
"|  c #F1E5B3",
" . c #F5EBB1",
".. c #F9EEB5",
"X. c #F4ECBD",
"o. c #F9EFBE",
"O. c #F9F0B3",
"+. c #FBF0BC",
"@. c #EDE4C5",
"#. c #F0E7C0",
"$. c #F5EFC2",
"%. c #F1E9CA",
"&. c #F5F0C7",
"*. c #FAF1C3",
"=. c #F5F1CC",
"-. c #EDE7D1",
";. c #EFEBDD",
":. c #F3EED8",
">. c #F5F1D1",
",. c #F9F3D3",
"<. c #FDF8D3",
"1. c #F6F3D8",
"2. c #FAF6DD",
"3. c #EFEEE5",
"4. c #ECECEC",
"5. c #F1EFE4",
"6. c #F0EFEE",
"7. c #F6F4E4",
"8. c #F9F5E1",
"9. c #FCFAE3",
"0. c #F2F1EE",
"q. c #F8F6EB",
"w. c #FDFDED",
"e. c #EDEEF1",
"r. c #ECEFFA",
"t. c #EFF0F0",
"y. c #F3F3F3",
"u. c #F8F7F6",
"i. c #FDFDF3",
"p. c #F5F6FA",
"a. c #F7F8F9",
"s. c #FDFDFD",
/* pixels */
"4.4.4.4.s.s.s.s.s.s.s.s.y.4.4.4.4.4.4.4.u.s.s.s.s.s.s.s.s.4.4.4.4.4.4.4.4.s.s.s.s.s.s.s.s.u.4.4.4.4.4.4.4.4.s.s.s.s.s.s.s.s.y.4.",
"s.s.s.s.4.4.4.y.y.4.4.4.s.s.u.s.s.s.s.s.u.4.4.4.e.4.4.y.y.s.s.s.s.s.i.s.s.y.e.4.4.4.y.4.4.u.s.s.s.s.s.s.s.s.4.e.e.0.4.4.y.4.u.s.",
"s.s.s.s.4.4.4.4.4.4.4.4.s.s.s.s.s.s.s.s.u.4.4.4.4.4.4.3.4.s.s.s.s.s.s.s.s.6.4.4.4.4.4.4.4.u.s.s.s.s.s.s.s.s.4.4.4.4.4.4.4.4.s.s.",
"s.s.s.s.4.4.4.4.4.4.4.4.s.s.s.s.s.s.s.s.u.4.4.r.r.r.r.r.p.s.s.s.s.s.s.s.s.e.4.4.4.4.4.4.4.y.s.s.s.s.s.s.s.s.4.4.4.4.4.4.4.4.s.s.",
"s.s.s.u.0.e.y.y.4.y.y.y.u.s.s.u.u.s.u.s.u.6.5._ R R R R ~ ( ( ( ( ( ( ( ' :.y.e.y.y.4.y.t.y.s.a.s.s.u.s.u.a.y.0.4.y.y.y.4.y.a.s.",
"4.4.4.e.s.s.s.s.s.s.s.s.e.4.4.4.4.4.4.4.y.s.' 8 4 4 4 8 4 4 4 8 4 4 5 5 4 H i.s.s.s.s.s.s.y.4.4.4.4.4.4.4.e.s.s.s.s.s.s.s.s.4.4.",
"4.4.4.4.s.s.s.s.s.s.s.s.4.4.4.4.4.4.4.4.u.s.D 5 5 5 5 5 5 5 5 5 5 5 5 8 5 h 9.s.s.s.s.s.s.a.4.4.4.4.4.4.4.y.s.s.s.s.s.s.s.s.y.4.",
"4.4.4.4.s.s.s.s.s.s.s.s.t.4.4.4.4.4.4.4.u.i.b 5 5 5 5 5 5 5 5 5 5 5 5 5 5 e <.s.s.s.s.s.s.u.4.4.4.4.4.4.4.4.s.s.s.s.s.s.s.s.4.4.",
"u.u.y.y.y.y.u.u.s.u.y.y.y.y.u.y.u.u.u.y.u.,.i 5 5 5 5 5 5 5 8 5 5 5 5 5 5 0 [ s.y.u.y.u.y.u.y.u.u.u.u.u.y.y.u.y.s.u.y.y.u.y.y.y.",
"s.s.s.s.4.4.4.4.4.4.4.4.s.s.s.s.s.s.s.s.u.| e 5 5 5 5 5 5 5 5 5 5 5 5 5 5 6 U 4.4.4.4.4.4.u.s.s.s.s.s.s.s.s.4.4.4.4.4.4.4.4.s.s.",
"s.s.s.s.4.4.4.4.4.4.4.4.s.s.s.s.s.s.s.s.a./ q 5 5 5 5 5 5 5 5 5 4 5 5 5 5 5 H 3.4.4.4.4.4.y.s.s.s.s.s.s.s.s.4.4.4.4.4.4.4.4.a.s.",
"s.s.s.s.4.4.4.4.4.4.4.4.s.s.s.s.s.s.s.s.a.U 8 5 5 5 5 5 5 5 5 5 5 5 5 5 5 3 S 3.4.4.4.4.4.u.s.s.s.s.s.s.s.s.4.4.4.4.4.4.4.4.s.s.",
"y.t.y.y.s.a.s.a.u.s.u.s.y.y.4.y.t.0.t.t.a.W 5 5 3 5 5 5 5 5 5 5 5 5 5 3 5 4 B w.u.a.s.a.s.y.t.t.y.t.y.t.y.y.u.s.u.s.u.s.s.s.y.4.",
"4.4.4.e.s.s.s.s.s.s.s.s.t.4.4.4.4.4.4.4.a.K 5 5 5 5 5 5 5 5 5 5 5 5 5 5 5 4 n i.s.s.s.s.s.u.4.4.4.4.4.4.4.4.s.s.s.s.s.s.s.s.4.4.",
"4.4.4.4.s.s.s.s.s.s.s.s.y.4.4.4.4.4.4.4.a.D 5 5 5 4 5 5 5 5 5 5 5 5 5 5 5 5 h w.s.s.s.s.s.u.4.4.4.4.4.4.4.y.s.s.s.s.s.s.s.s.y.4.",
"4.4.4.y.s.s.s.s.s.s.s.s.y.4.4.4.4.t.4.4.0.V 5 5 5 5 5 5 5 5 5 5 5 5 5 5 5 5 g 9.s.s.s.s.s.u.4.4.4.t.4.4.4.t.s.s.s.s.s.s.s.s.y.4.",
"s.s.s.s.4.4.4.4.4.4.4.e.s.s.s.s.s.s.s.s.q.n 5 5 5 5 5 5 5 5 5 5 5 5 5 5 4 5 u %.t.4.4.4.4.y.s.s.s.s.s.s.s.s.4.4.4.e.4.4.4.4.s.s.",
"s.s.s.a.4.4.4.4.4.4.4.4.s.s.s.s.s.s.s.s.8.v 5 5 5 5 5 4 5 5 5 5 5 5 5 4 5 5 y #.e.4.4.4.4.u.s.s.s.s.s.s.s.s.4.4.4.4.4.4.4.4.s.s.",
"s.s.s.s.4.4.4.4.4.4.4.4.s.s.s.s.s.s.s.s.2.f 5 5 5 5 5 5 5 5 5 5 5 5 5 5 4 5 e | 4.4.4.4.4.y.s.s.s.s.s.s.s.s.4.4.4.4.4.4.4.4.s.s.",
"s.s.s.u.y.y.y.y.t.y.y.u.y.u.s.s.s.u.u.s.<.d 5 5 5 5 5 5 5 5 5 5 5 5 5 5 5 5 e  .y.t.y.y.t.u.u.s.s.u.s.s.u.u.y.u.y.y.t.y.y.t.u.u.",
"4.4.4.t.s.s.s.s.s.s.s.s.e.4.4.4.4.4.4.4.%.g 5 5 5 5 5 5 5 5 5 5 5 5 5 5 5 5 q O.s.s.s.s.s.u.4.4.4.4.4.4.4.e.s.s.s.s.s.s.s.s.y.4.",
"4.4.4.t.s.s.s.s.s.s.s.s.e.4.4.4.4.4.4.e.&.i 5 5 5 5 5 5 5 5 5 5 5 5 5 5 5 5 0 [ s.s.s.s.s.u.4.4.4.4.4.4.4.t.s.s.s.s.s.s.s.s.t.4.",
"4.4.4.e.s.s.s.s.s.s.s.s.0.4.4.4.4.4.4.4.+.i 5 5 5 5 5 5 5 5 5 5 5 5 5 5 5 5 0 ` s.s.s.s.s.u.4.4.4.4.4.4.4.4.s.s.s.s.s.s.s.s.t.4.",
"y.u.y.u.u.y.u.u.y.y.u.y.y.u.u.u.u.y.u.a.+.y 5 5 5 5 5 5 5 5 5 5 5 5 5 5 5 5 6 / u.y.u.u.y.y.u.a.y.u.y.y.u.u.y.y.u.u.u.y.u.y.y.u.",
"s.s.s.s.4.4.4.4.4.4.4.4.s.s.s.s.s.s.s.s.+.e 5 5 5 5 5 5 5 5 5 5 5 5 5 5 5 5 6 R 4.4.4.4.4.y.s.s.s.s.s.s.s.s.4.4.4.4.4.4.4.4.u.s.",
"s.s.s.s.4.4.4.4.4.4.4.4.s.s.s.s.s.s.s.s.+.e 5 5 5 5 5 5 5 5 5 5 5 5 5 5 5 5 6 U e.4.4.4.4.y.s.s.s.s.s.s.s.s.4.4.4.4.4.4.4.4.a.s.",
"s.s.s.s.4.4.4.4.4.4.4.4.s.s.s.s.s.s.s.s.O.r 5 5 5 5 5 5 5 5 5 5 5 5 5 5 5 5 6 I e.4.4.4.4.y.s.s.s.s.s.s.s.s.4.4.4.4.4.4.4.4.s.s.",
"t.y.4.y.u.s.s.s.u.s.a.u.y.4.y.t.y.4.y.y.{ r 5 5 5 5 5 5 5 5 5 5 5 5 5 5 5 5 6 Q s.s.i.s.s.y.t.y.y.y.4.y.4.y.s.s.a.s.u.s.s.s.y.4.",
"4.4.4.e.s.s.s.s.s.s.s.s.y.4.4.4.4.4.4.e.] r 5 5 5 5 5 5 5 5 5 5 5 5 5 5 5 5 6 ! s.s.s.s.s.u.4.4.4.4.4.4.4.4.s.s.s.s.s.s.s.s.y.4.",
"4.4.4.4.s.s.s.s.s.s.s.s.4.4.4.4.4.4.4.e.] q 5 5 5 5 5 5 5 5 5 5 5 5 5 5 5 5 6 ! s.s.s.s.s.y.4.4.4.4.4.4.4.4.s.s.s.s.s.s.s.s.e.4.",
"4.y.4.y.s.s.s.s.s.s.s.s.y.4.4.t.4.y.4.y.] w 5 5 5 5 5 5 5 5 5 5 5 5 5 5 5 5 5 W s.s.s.s.s.u.4.y.y.4.4.4.4.y.s.s.s.s.s.s.s.s.y.4.",
"s.s.s.s.4.4.4.4.4.4.4.4.s.s.s.s.s.s.s.s.{ w 5 5 5 5 5 5 5 5 5 5 5 5 5 5 5 5 6 J 4.4.4.4.4.y.s.s.s.s.s.s.s.s.4.4.4.4.4.4.4.4.s.s.",
"s.s.s.a.4.4.4.4.4.4.4.4.s.s.s.s.s.s.s.s.{ w 5 5 5 5 5 5 5 5 5 5 5 5 5 5 5 5 6 J 0.4.4.4.4.u.s.s.s.s.s.s.s.s.4.4.4.4.4.4.4.4.a.s.",
"s.s.s.s.4.4.4.4.4.4.4.4.s.s.s.s.s.s.s.s.O.w 5 5 5 5 5 5 5 5 5 5 5 5 5 5 5 5 6 J 4.4.4.4.4.y.s.s.s.s.s.s.s.s.4.4.4.4.4.4.4.4.s.s.",
"s.u.u.u.y.y.u.y.y.y.u.y.u.u.u.u.s.u.u.u.` w 5 5 5 5 5 5 5 5 5 5 5 5 5 5 5 5 6 J u.y.y.u.y.y.u.y.y.u.s.u.u.u.y.u.y.y.y.u.y.y.u.u.",
"4.4.4.y.s.s.s.s.s.s.s.s.4.4.4.4.4.4.4.t.{ r 5 5 5 5 5 5 5 5 5 5 5 5 5 5 5 5 6 ! s.s.s.s.s.u.4.4.4.4.4.4.4.e.s.s.s.s.s.s.s.s.4.4.",
"4.4.4.4.s.s.s.s.s.s.s.s.t.4.4.4.4.4.4.4.[ r 5 5 5 5 5 5 5 5 5 5 5 5 5 5 5 5 6 ! s.s.s.s.s.u.4.4.4.4.4.4.4.y.s.s.s.s.s.s.s.s.y.4.",
"4.4.4.t.s.s.s.s.s.s.s.s.4.4.4.4.4.4.4.e. .e 5 5 5 5 5 5 5 4 5 5 5 5 5 5 5 5 6 ^ s.s.s.s.s.y.4.4.4.4.4.4.4.4.s.s.s.s.s.s.s.s.y.4.",
"a.a.u.u.y.y.y.4.y.t.u.y.u.s.a.a.u.s.u.u.O.e 5 5 5 5 5 5 5 5 5 5 5 5 5 5 5 5 6 Q y.y.y.t.y.y.s.u.u.s.u.a.a.u.y.y.u.y.e.y.y.t.u.u.",
"s.s.s.s.4.4.4.4.4.4.4.4.s.s.s.s.s.s.s.s.X.e 5 5 5 5 5 3 5 5 5 4 5 5 3 5 5 5 6 Q 4.4.4.4.4.u.s.s.s.s.s.s.s.s.4.4.4.4.4.4.4.4.s.s.",
"s.s.s.s.4.4.4.4.4.4.4.4.s.s.s.s.s.s.s.s.+.y 4 4 3 3 4 5 4 4 3 3 3 5 5 3 3 3 6 ~ t.4.4.4.4.u.s.s.s.s.s.s.s.s.4.4.4.4.4.4.4.4.s.s.",
"s.s.s.s.4.4.4.4.4.4.t.4.s.s.s.s.s.s.s.s.*.y 4 4 3 3 3 3 3 3 3 3 3 3 3 3 3 3 9 ~ t.4.4.4.4.y.s.s.s.s.s.s.s.s.4.4.4.4.4.4.4.4.s.s.",
"y.4.4.t.s.s.s.s.s.s.s.s.y.4.4.t.e.4.0.e.$.t 3 3 3 3 3 3 3 3 3 3 3 3 3 3 3 3 9 [ s.s.s.s.s.u.4.4.4.0.4.y.4.y.s.s.s.s.s.s.s.s.y.4.",
"4.4.4.y.s.s.s.s.s.s.s.s.t.4.4.4.4.4.4.e.%.p 3 = 3 3 = 3 3 3 3 3 3 3 3 3 3 3 9  .s.s.s.s.s.u.4.4.4.4.4.4.4.4.s.s.s.s.s.s.s.s.y.4.",
"4.4.4.e.s.s.s.s.i.s.s.s.y.4.4.4.4.4.4.4.>.s = 3 3 = 3 = = 3 3 = 3 * 3 * 3 * 9 X.s.s.s.s.s.u.4.4.4.4.4.4.4.e.s.s.s.s.s.s.s.s.y.4.",
"t.y.t.y.s.s.s.s.s.a.s.a.y.4.y.y.t.y.0.y.1.s = = = = * = = = * 3 # 3 3 * 3 * 9 X.s.u.u.s.s.u.t.y.y.e.t.0.4.y.s.s.s.u.s.s.s.a.y.4.",
"s.s.s.i.4.4.4.4.4.4.4.4.s.s.s.s.s.s.s.s.8.x = = = * = * * * = * 3 3 # 3 # 3 < } t.4.4.4.4.y.s.s.s.s.s.s.s.s.4.4.4.4.4.4.4.4.s.s.",
"s.s.s.a.4.4.4.4.4.4.4.4.s.s.s.s.s.s.s.s.q.x & & * * * * * * * * # # 3 # * * > X.4.4.4.4.4.y.s.s.s.s.s.s.s.s.4.4.4.4.4.4.4.4.s.s.",
"s.s.s.s.4.4.4.4.4.4.4.4.s.s.s.s.s.s.s.s.q.m & & & & & & * * # * & & * & & & 1 -.4.4.4.4.4.y.s.s.s.s.s.s.s.s.4.4.4.4.4.4.4.4.a.s.",
"u.u.u.u.u.u.y.y.y.y.u.u.y.y.u.u.y.y.u.u.u.N # & & & & & * # # * & & & & # + p 7.y.y.u.u.y.u.y.y.u.u.u.u.u.u.y.u.y.y.u.u.y.y.u.u.",
"4.4.4.4.s.s.s.s.s.s.s.s.4.4.4.4.4.4.4.4.s.A + # # # # # # # # # # # # # # # x i.s.s.s.s.s.a.4.4.4.4.4.4.4.4.s.s.s.s.s.s.s.s.e.4.",
"4.4.4.e.s.s.s.s.s.s.s.s.y.4.4.4.4.4.4.4.u.G O # # # + # + + # + # # # + # + c i.s.s.s.s.s.u.4.4.4.4.4.4.4.y.s.s.s.s.s.s.s.s.t.4.",
"4.4.4.4.s.s.s.s.s.s.s.s.e.4.4.4.4.4.4.4.a.R O + + + + + + + + + + + + + + O Z s.s.s.s.s.s.u.4.4.4.4.4.4.4.4.s.s.s.s.s.s.s.s.y.4.",
"u.s.u.s.y.y.y.4.y.y.y.4.u.s.s.a.s.s.a.u.s.T % O + O O + + O + O O + + O + O F 0.y.y.t.y.e.u.s.u.s.a.s.s.s.u.0.e.y.y.y.4.y.y.u.s.",
"s.s.s.s.4.4.4.4.4.4.4.4.s.s.s.s.s.s.s.s.u.) $ O O O O O O O O O O O o O O . L 0.4.4.4.4.4.y.s.s.s.s.s.s.s.s.4.4.4.4.4.4.4.4.a.s.",
"s.s.s.s.4.4.4.4.4.4.4.4.s.s.s.s.s.s.s.s.p.@.: o O o o O . O o O O o O o o X Y 4.4.4.4.4.4.y.s.s.s.s.s.s.s.s.4.4.4.4.4.4.4.4.s.s.",
"s.s.s.s.e.0.4.e.4.4.y.4.s.s.s.s.s.s.s.s.u.;., o O O O O o O O O O O O O O % } t.0.4.e.4.4.u.s.s.s.s.s.s.s.s.e.t.4.4.y.4.4.4.s.s.",
"4.4.4.y.s.s.s.s.s.s.s.s.4.4.4.4.4.4.4.4.y.s.z . O O O O O O O O O o O O . > 9.s.s.s.s.s.s.u.4.4.4.4.4.4.4.y.s.s.s.s.s.s.s.s.y.4.",
"4.4.4.4.s.s.s.s.s.s.s.s.y.4.4.4.4.4.4.4.y.s.P . . . o . . O . o o . . . . z i.s.s.s.s.s.s.u.4.4.4.4.4.4.4.4.s.s.s.s.s.s.s.s.y.4.",
"4.4.4.y.s.s.s.s.s.s.s.s.4.4.4.4.4.4.4.4.u.s.2.C M M l l l k k k z j l j k #.s.s.s.s.s.s.s.s.4.4.4.4.4.4.4.4.s.s.s.s.s.s.s.s.4.4.",
"y.y.y.y.s.u.u.a.a.u.u.u.u.y.t.y.y.y.y.y.y.a.a.s.s.a.s.s.s.u.p.p.p.p.p.u.p.s.u.u.a.u.a.u.a.u.y.y.y.y.y.y.y.y.a.u.u.u.u.s.s.u.y.y.",
"s.s.s.s.4.4.4.4.4.4.4.4.s.s.s.s.s.s.s.s.u.4.4.4.4.4.4.4.t.s.s.s.s.s.s.s.s.y.4.4.4.4.4.4.4.u.s.s.s.s.s.s.s.s.4.4.4.4.4.4.4.4.s.s.",
"s.s.s.s.4.4.4.4.4.4.4.4.s.s.s.s.s.s.s.s.y.4.4.4.4.4.4.4.t.s.s.s.s.s.s.s.s.y.4.4.4.4.4.4.4.y.s.s.s.s.s.s.s.s.4.4.4.4.4.4.4.4.s.s.",
"s.s.s.s.4.4.4.e.4.4.4.4.s.s.s.s.s.s.s.s.y.4.4.4.4.4.4.4.y.s.s.s.s.s.s.s.s.e.4.4.4.4.4.4.4.u.s.s.s.s.s.s.s.s.4.4.4.4.4.4.4.4.a.s."
};
