/* XPM */
static char *result[] = {
/* columns rows colors chars-per-pixel */
"64 64 102 2 ",
"   c #000000",
".  c #0B0803",
"X  c #130B03",
"o  c #161106",
"O  c #191307",
"+  c #1A1408",
"@  c #281F0C",
"#  c #582F07",
"$  c #562F08",
"%  c #593008",
"&  c #6F3D0B",
"*  c #733F0B",
"=  c #74400C",
"-  c #7D450C",
";  c #60491D",
":  c #684F1F",
">  c #69501F",
",  c #6A5120",
"<  c #785C24",
"1  c #876729",
"2  c #896829",
"3  c #A07B30",
"4  c #D66F0C",
"5  c #D7710E",
"6  c #C66C14",
"7  c #C96E14",
"8  c #D77414",
"9  c #D97716",
"0  c #DB7916",
"q  c #DB7B19",
"w  c #E27C16",
"e  c #E97F17",
"r  c #DB7F21",
"t  c #B08635",
"y  c #B18835",
"u  c #B98D37",
"i  c #BA8E38",
"p  c #BE9139",
"a  c #DE821E",
"s  c #E8871F",
"d  c #DE8322",
"f  c #DD8925",
"g  c #DD842A",
"h  c #DE882F",
"j  c #DE8830",
"k  c #C6973B",
"l  c #CD9C3D",
"z  c #D19F3E",
"x  c #E08621",
"c  c #E28A24",
"v  c #E7932B",
"b  c #E1923F",
"n  c #CDA03F",
"m  c #D3A13F",
"M  c #E3A33B",
"N  c #F4AF3D",
"B  c #F7B33E",
"V  c #E29441",
"C  c #E59C46",
"Z  c #CEA441",
"A  c #D4A441",
"S  c #DAA642",
"D  c #EBB447",
"F  c #EEB648",
"G  c #ECB949",
"H  c #F6B140",
"J  c #F9B643",
"K  c #FBBB45",
"L  c #F3B649",
"P  c #F0BD4A",
"I  c #FCBD49",
"U  c #FFC047",
"Y  c #FEC24C",
"T  c #FFCA4F",
"R  c #FFC552",
"E  c #FFCB50",
"W  c #FDC55A",
"Q  c #FFC95E",
"!  c #FFD353",
"~  c #FFCB63",
"^  c #FFCE6B",
"/  c #FFD16D",
"(  c #FFD479",
")  c #F0C285",
"_  c #F1C78C",
"`  c #F1C88D",
"'  c #FFDC91",
"]  c #F6D49B",
"[  c #FFE19F",
"{  c #F5D6A2",
"}  c #FFE2A0",
"|  c #FBE1A9",
" . c #FFEAB5",
".. c #FBE7BA",
"X. c #FEECBB",
"o. c #FEEDC1",
"O. c #FFF1C6",
"+. c #FFF2CB",
"@. c #FFF5D2",
"#. c #FFF9D5",
"$. c #FFFBD8",
"%. c None",
/* pixels */
"%.%.%.%.%.%.%.%.%.%.%.%.%.%.%.%.                                                              %.%.%.%.%.%.%.%.%.%.%.%.%.%.%.%.%.",
"%.%.%.%.%.%.%.%.%.%.%.%.%.%.%.%.                                                                %.%.%.%.%.%.%.%.%.%.%.%.%.%.%.%.",
"%.%.%.%.%.%.%.%.%.%.%.%.%.%.%.%.                                                                %.%.%.%.%.%.%.%.%.%.%.%.%.%.%.%.",
"%.%.%.%.%.%.%.%.%.%.%.%.%.%.%.%.                                                                %.%.%.%.%.%.%.%.%.%.%.%.%.%.%.%.",
"%.%.%.%.%.%.%.%.              X y n l l l n l l l l l l l l l l l l l l l l l l k n n k l n Z <               %.%.%.%.%.%.%.%.%.",
"%.%.%.%.%.%.%.%.              X S ! T R T E R E T T T T T T T T E E T E R T E T R R T E E R ! 1               %.%.%.%.%.%.%.%.%.",
"%.%.%.%.%.%.%.%.              X z Y P Y Y Y Y Y Y Y I Y Y P Y Y I Y Y Y Y Y Y Y Y Y Y Y Y I E 1               %.%.%.%.%.%.%.%.%.",
"%.%.%.%.%.%.%.%.              X m T Y Y Y Y Y Y Y Y Y Y Y Y Y Y Y Y Y Y Y Y Y Y Y Y Y Y Y Y ! 1               %.%.%.%.%.%.%.%.%.",
"%.%.%.%.%.%.%.%.              o m Y Y Y Y Y T J c a x x x a a v Y R Y Y Y Y Y Y Y Y Y Y Y Y E 1               %.%.%.%.%.%.%.%.%.",
"%.%.%.%.%.%.%.%.              X m T Y Y Y Y R J q 8 8 8 8 8 8 d I Y Y Y Y Y R Y Y Y Y Y Y Y E 1               %.%.%.%.%.%.%.%.%.",
"%.%.%.%.%.%.%.%.              X m T Y Y Y Y Y J a 8 9 9 9 9 8 c Y Y Y Y Y Y Y Y Y Y Y R Y I E 2               %.%.%.%.%.%.%.%.%.",
"%.%.%.%.%.%.%.%.              o m T Y Y Y Y Y J q 8 9 9 9 9 8 c Y Y Y Y Y Y Y Y Y Y Y Y Y Y ! 2   .           %.%.%.%.%.%.%.%.%.",
"                3 A l m A n m m f a a a s d a c B J J J J J B W  . . . . . .X.' Y Y Y Y Y Y Y D n m m m n n A ;               %.",
"                p ! T T R R T Y a 8 8 8 8 8 8 q Y Y Y T Y R Y / +.@.@.+.@.+.#.} Y Y Y Y Y Y Y Y T T T T T Y ! ,               %.",
"                u T P Y Y Y Y I a 9 9 9 8 9 8 a J Y Y Y Y Y U ^ O.+.+.+.+.+.@.[ Y Y Y Y Y Y Y Y Y Y Y Y Y Y T >               %.",
"                u T Y Y Y Y Y I a 9 9 9 9 9 8 a Y R Y Y Y Y Y ^ +.+.+.+.+.+.@.[ Y Y Y Y Y T Y Y Y Y Y Y Y Y E ,               %.",
"                i T Y Y Y Y Y Y a 8 9 9 9 9 8 g { X.X. . . . .X.+.+.+.+.+.+.@.} Y Y Y R Y Y Y Y Y Y Y Y Y Y T :               %.",
"                i T Y Y Y Y Y I a 8 9 9 9 q 8 j o.#.+.@.@.@.@.+.+.+.+.+.+.+.@.} Y Y Y Y Y Y R Y Y Y Y Y Y Y T :               %.",
"                i T Y Y Y Y Y I a 8 9 9 9 q 5 h ..+.+.+.+.+.+.+.+.@.+.+.+.+.@.} Y Y Y Y T Y Y Y Y Y Y Y Y Y E >               %.",
"                y T Y Y Y Y Y I a 8 9 9 9 9 5 h X.+.O.O.+.+.O.+.+.+.+.+.+.+.@.} Y Y Y Y Y Y Y Y Y Y R Y Y Y E >               %.",
"                i T Y Y Y Y Y I x 8 9 9 9 9 8 d W ~ ~ ~ Q ~ Q ( +.+.+.+.+.+.@.} U Y Y Y Y Y Y Y Y Y R Y Y Y E :               %.",
"              . i T Y Y Y Y Y I x 8 9 9 9 9 8 a J Y U U Y U U ~ +.+.+.+.+.+.@.} Y Y Y Y Y Y R Y Y Y Y Y Y Y T :               %.",
"                u T Y Y Y Y Y Y s 8 9 9 9 8 8 a I Y Y Y Y Y Y / O.#.+.+.+.+.@.[ Y Y Y Y Y Y Y Y Y Y Y Y Y Y T :               %.",
"                u T Y Y Y Y Y I a 8 9 9 9 8 8 a I R R Y Y R Y / +.+.+.+.+.+.@.[ Y Y Y Y Y Y Y Y R Y Y Y Y Y T :               %.",
"                p T Y Y Y Y Y I d 8 8 8 0 9 8 j { X.X.X.X. . .X.+.+.+.+.+.+.$.[ I Y Y Y Y Y Y Y Y Y Y Y Y Y E >               %.",
"                i T Y Y Y Y Y U a 8 8 q 9 9 5 j o.#.+.+.@.+.@.+.+.+.+.+.+.+.@.} Y Y Y Y Y Y Y Y Y Y Y Y Y Y T >   .           %.",
"                u T Y Y Y Y Y I x 8 9 9 0 9 8 j ..@.+.+.+.+.+.+.+.+.+.+.+.+.@.} Y Y Y Y Y Y Y Y Y Y Y Y Y Y E ,               %.",
"              . u T I Y Y Y Y I d 8 9 9 0 8 8 c ..+.o.+.O.+.O.O.+.+.+.+.+.+.@.[ I Y Y I Y Y I Y Y Y I Y Y P T ,               %.",
"                i R Y Y Y Y Y Y s 8 8 q 8 q 8 d W ~ Q ~ Q ~ W ( +.+.+.+.+.+.#.` q d a a a a a x a a a a a a s %               %.",
"                i T Y Y Y Y Y I a 8 8 q 8 8 8 a J Y U Y U Y U ~ +.+.+.+.+.+.$.` 5 8 8 8 8 8 8 8 8 8 8 8 8 8 0 #               %.",
"                i T Y Y Y Y Y I a 8 8 8 0 0 8 d I Y Y Y Y Y Y ^ +.+.+.+.+.+.#.` 8 0 0 0 8 8 8 0 8 0 8 8 9 9 w %               %.",
"                i T Y Y Y Y Y I a 8 8 q 0 0 8 q K Y Y Y Y Y U ^ +.+.+.+.+.O.#.` 8 8 0 0 0 0 8 q 0 8 q 8 9 8 w %               %.",
"                u T Y Y Y Y Y I d 8 9 9 8 q 8 a I Y Y Y Y Y I ^ O.+.+.+.+.+.$.` 8 0 9 9 0 9 9 9 9 9 9 9 8 8 w %               %.",
"                u T I Y Y Y Y I s 8 9 8 9 8 8 q I Y Y Y Y Y K ^ +.+.+.+.+.+.$.` 8 0 9 9 9 9 9 0 9 9 9 9 9 9 w %               %.",
"                u T Y Y Y Y Y Y a 8 9 q 9 q 8 a K Y Y Y Y R I ^ +.+.+.+.+.+.#.` 5 0 9 9 9 9 9 9 9 9 0 9 8 8 w %               %.",
"              . i T Y Y Y Y Y I a 8 9 9 9 8 8 s J Y I Y Y Y K ^ O.+.+.+.+.O.#.` 8 9 9 9 9 9 9 9 9 9 9 9 9 8 w %               %.",
"                i T Y Y Y Y Y I d 8 8 9 9 9 9 9 a a a a r r w C +.+.+.+.+.+.#.` 8 0 0 9 9 9 9 0 9 q 9 9 8 8 w %               %.",
"                i T Y Y Y Y Y Y a 8 9 9 9 8 9 9 8 8 8 8 8 9 5 V +.+.+.+.+.+.#.` 8 9 9 9 9 9 9 9 9 9 q 9 9 8 w %               %.",
"                y T Y Y Y Y Y I d 8 9 9 9 q 9 9 9 9 8 8 9 9 5 V O.+.+.+.+.+.#.` 8 0 9 9 q 9 9 9 9 9 9 9 9 8 w %               %.",
"                i T Y Y Y Y Y I s 8 9 9 9 9 9 9 9 9 9 9 9 9 5 V +.+.+.+.+.O.#.` 8 9 9 9 9 9 9 9 9 9 9 9 9 8 w %               %.",
"                p T Y Y Y Y Y I a 8 9 q 8 9 9 q 0 9 9 0 9 9 5 V +.+.+.+.+.+.#._ 7 9 9 9 9 9 9 9 9 9 0 0 8 8 w %               %.",
"                u T Y Y Y Y Y I a 8 9 9 9 9 9 8 9 9 0 9 9 0 5 V O.+.+.+.+.+.#._ 8 9 9 9 9 9 9 9 9 9 9 8 8 8 w %               %.",
"                u T Y Y Y Y Y I d 8 8 9 9 9 9 9 9 9 9 9 9 q 5 V +.+.+.+.+.+.$.` 8 9 q 9 q 9 9 9 9 9 0 0 q 8 w %               %.",
"                y T Y Y Y Y Y Y a 8 9 9 9 8 q 9 9 9 9 9 9 9 5 V +.+.+.+.+.O.#._ 8 9 9 9 9 9 9 9 9 9 8 q 8 8 w %               %.",
"                u R Y Y Y Y Y I d 8 0 0 9 9 9 9 9 9 9 9 9 0 5 V O.+.+.+.+.+.#._ 8 9 9 9 9 9 9 9 9 9 9 9 8 0 w %               %.",
"              . p T Y Y Y Y Y I d 8 0 0 q 8 q 9 9 9 9 9 9 0 5 V O.+.+.+.+.+.#._ 8 9 9 9 9 9 9 9 0 9 9 9 8 8 w %               %.",
"                i T Y Y Y Y Y I a 8 0 8 0 8 8 8 8 9 9 9 9 9 5 z O.+.+.+.+.+.#._ 5 9 9 9 9 9 9 9 9 q 9 9 q 8 w %               %.",
"                i E Y Y Y Y Y I x 8 q q 0 q q 0 q q q q 0 q 8 V +.+.+.@.+.+.#._ 9 9 9 9 9 q 9 9 9 9 9 9 8 8 w %               %.",
"                p T Y Y Y Y Y Y I J I I J I I J I J I I I I J ~ +.+.+.+.+.+.#.` 9 9 9 9 9 9 9 9 9 9 9 9 8 8 w %               %.",
"                i T Y Y Y Y Y Y R Y Y Y Y Y R Y Y T Y Y Y R U / o.+.+.+.+.+.#.` 8 9 9 9 9 9 9 9 9 9 9 9 8 8 w %               %.",
"                p ! Y Y Y Y Y Y Y Y Y Y Y Y Y Y Y Y Y U Y Y U ^ +.@.+.@.+.+.$.` 8 0 9 9 9 9 9 0 0 0 0 0 w 8 e %               %.",
"                y G F F G F F G I Y Y Y Y Y Y Y R R R R R R Y / ..o.o.o.o...+.) 8 8 9 9 9 9 9 9 7 7 7 7 7 7 8 #               %.",
"%.%.%.%.%.%.%.%.+ + + + + + O @ S Y Y Y Y Y Y Q  .o.O.X.X.X.O.] g g g g g g g q 8 0 0 9 8 8 w - X X O X X X O %.%.%.%.%.%.%.%.%.",
"%.%.%.%.%.%.%.%.              . A T Y Y Y Y U ~ O.@.+.+.@.+.#.{ 8 8 8 5 8 8 8 8 0 8 8 9 0 8 w *               %.%.%.%.%.%.%.%.%.",
"%.%.%.%.%.%.%.%.              X m T Y Y Y Y K Q o.+.+.+.+.+.@.{ q 9 8 9 9 9 9 9 9 9 0 0 0 8 w *               %.%.%.%.%.%.%.%.%.",
"%.%.%.%.%.%.%.%.              X m T Y Y Y Y Y Q  .O.O.O.O.O.+.] q 8 9 8 9 9 9 9 9 9 9 9 0 8 w *               %.%.%.%.%.%.%.%.%.",
"%.%.%.%.%.%.%.%.              X m T Y Y Y Y Y Y W R W W W R W L 9 9 9 9 q 9 9 9 8 8 0 q 8 8 w *               %.%.%.%.%.%.%.%.%.",
"%.%.%.%.%.%.%.%.              X m T Y Y Y Y Y Y Y Y U Y Y Y Y B 9 8 8 9 8 8 9 9 8 8 8 9 9 8 w *               %.%.%.%.%.%.%.%.%.",
"%.%.%.%.%.%.%.%.              X m E Y T Y T Y T T Y T Y T Y R J q q q 0 0 9 9 q 0 w w 0 q 8 s *               %.%.%.%.%.%.%.%.%.",
"%.%.%.%.%.%.%.%.              X k G D D D D D D D D D D D D G M 7 7 6 6 7 7 7 7 6 6 6 7 7 6 8 &               %.%.%.%.%.%.%.%.%.",
"%.%.%.%.%.%.%.%.%.%.%.%.%.%.%.%.O O o o o o O O o o o o O o O X X X X X X X X X X X X X X X X X %.%.%.%.%.%.%.%.%.%.%.%.%.%.%.%.",
"%.%.%.%.%.%.%.%.%.%.%.%.%.%.%.%.                                                                %.%.%.%.%.%.%.%.%.%.%.%.%.%.%.%.",
"%.%.%.%.%.%.%.%.%.%.%.%.%.%.%.%.                                                                %.%.%.%.%.%.%.%.%.%.%.%.%.%.%.%.",
"%.%.%.%.%.%.%.%.%.%.%.%.%.%.%.%.                                                                %.%.%.%.%.%.%.%.%.%.%.%.%.%.%.%."
};
