/* XPM */
static char *result[] = {
/* columns rows colors chars-per-pixel */
"64 64 72 1 ",
"  c #007EDA",
". c #017FDB",
"X c #027FDB",
"o c #037FDB",
"O c #037FDC",
"+ c #0480DC",
"@ c #0681DC",
"# c #0681DD",
"$ c #0782DD",
"% c #0983DD",
"& c #0983DE",
"* c #0A84DD",
"= c #0A84DE",
"- c #0C85DE",
"; c #0D85DE",
": c #0F86DF",
"> c #1087DF",
", c #1087E0",
"< c #1188E0",
"1 c #1389E1",
"2 c #158AE1",
"3 c #168AE1",
"4 c #178BE2",
"5 c #198CE2",
"6 c #1A8DE2",
"7 c #1C8EE3",
"8 c #1D8FE3",
"9 c #1F8FE4",
"0 c #2090E5",
"q c #2291E5",
"w c #2492E5",
"e c #2593E6",
"r c #2794E7",
"t c #2895E7",
"y c #2A96E7",
"u c #2C97E8",
"i c #2D98E8",
"p c #2F99E9",
"a c #319AE9",
"s c #329BEA",
"d c #349CEA",
"f c #369DEB",
"g c #379EEB",
"h c #399FEC",
"j c #3BA0EC",
"k c #3CA1EC",
"l c #3EA2ED",
"z c #40A3EE",
"x c #41A4EE",
"c c #43A5EE",
"v c #45A6EF",
"b c #46A7F0",
"n c #48A8F0",
"m c #4AA9F0",
"M c #4AA9F1",
"N c #4BAAF1",
"B c #4DABF1",
"V c #4DABF2",
"C c #4EACF2",
"Z c #4FACF2",
"A c #50ADF3",
"S c #52AEF3",
"D c #53AFF3",
"F c #53AFF4",
"G c #55B0F4",
"H c #57B1F4",
"J c #57B1F5",
"K c #58B2F4",
"L c #58B2F5",
"P c #59B2F5",
"I c #5AB3F6",
"U c None",
/* pixels */
"UUUUUUUUUUUUUUUUUUUUUUUUUUUUUUUUUUUUUUUUUUUUUUUUUUUUUUUUUUUUUUUU",
"UUUUUUUUUUUUUUUUUUUUUUUUUUUUUUUUUUUUUUUUUUUUUUUUUUUUUUUUUUUUUUUU",
"UUUUUUUUUUUUUUUUUUUUUUUUUUUUUUUUUUUUUUUUUUUUUUUUUUUUUUUUUUUUUUUU",
"UUUUUUUUUUUUNMnbvcxzlkjhgfdsapiuytrewq0987654321<>:;UUUUUUUUUUUU",
"UUUUUUUUUAZVNmnbvcxzlkjhgfdsapiuytrewq0987654321<,:;-*&UUUUUUUUU",
"UUUUUUUUSACVNmnbvcxzlkjhgfdsapiuytrewq0987654321<,:;-=%$UUUUUUUU",
"UUUUUUUFSAZVNmnbvcxzlkjhgfdsapiuytrewq0987654321<,:;-=%$@UUUUUUU",
"UUUUUUGDSAZVNmnbvcxzlkjhgfdsapiuytrewq0987654321<,:;-=%$#+UUUUUU",
"UUUUUJGDSAZVNmnbvcxzlkjhgfdsapiuytrewq0987654321<,:;-=%$#+oUUUUU",
"UUUUKJGFSAZVNmnbvcxzlkjhgfdsapiuytrewq0987654321<,:;-=%$#+oXUUUU",
"UUUULJGFSAZVNmnbvcxzlkjhgfdsapiuytrewq0987654321<,:;-=%$#+o.UUUU",
"UUUUPJGFSAZVNmnbvcxzlkjhgfdsapiuytrewq0987654321<,:;-=%$#+O.UUUU",
"UUUIPHGFSAZVNmnbvcxzlkjhgfdsapiuytrewq0987654321<,:;-=%$#+O. UUU",
"UUUIPJGFSAZVNmnbvcxzlkjhgfdsapiuytrewq0987654321<,:;-=%$#+O. UUU",
"UUUILJGFSAZVNmnbvcxzlkjhgfdsapiuytrewq0987654321<,:;-=%$#+O. UUU",
"UUUILJGFSAZVNmnbvcxzlkjhgfdsapiuytrewq0987654321<,:;-=%$#+O. UUU",
"UUUILJGFSAZVNmnbvcxzlkjhgfdsapiuytrewq0987654321<,:;-=%$#+O. UUU",
"UUUILJGFSAZVNmnbvcxzlkjhgfdsapiuytrewq0987654321<,:;-=%$#+O. UUU",
"UUUILJGFSAZVNmnbvcxzlkjhgfdsapiuytrewq0987654321<,:;-=%$#+O. UUU",
"UUUILJGFSAZVNmnbvcxzlkjhgfdsapiuytrewq0987654321<,:;-=%$#+O. UUU",
"UUUILJGFSAZVNmnbvcxzlkjhgfdsapiuytrewq0987654321<,:;-=%$#+O. UUU",
"UUUILJGFSAZVNmnbvcxzlkjhgfdsapiuytrewq0987654321<,:;-=%$#+O. UUU",
"UUUILJGFSAZVNmnbvcxzlkjhgfdsapiuytrewq0987654321<,:;-=%$#+O. UUU",
"UUUILJGFSAZVNmnbvcxzlkjhgfdsapiuytrewq0987654321<,:;-=%$#+O. UUU",
"UUUILJGFSAZVNmnbvcxzlkjhgfdsapiuytrewq0987654321<,:;-=%$#+O. UUU",
"UUUILJGFSAZVNmnbvcxzlkjhgfdsapiuytrewq0987654321<,:;-=%$#+O. UUU",
"UUUILJGFSAZVNmnbvcxzlkjhgfdsapiuytrewq0987654321<,:;-=%$#+O. UUU",
"UUUILJGFSAZVNmnbvcxzlkjhgfdsapiuytrewq0987654321<,:;-=%$#+O. UUU",
"UUUILJGFSAZVNmnbvcxzlkjhgfdsapiuytrewq0987654321<,:;-=%$#+O. UUU",
"UUUILJGFSAZVNmnbvcxzlkjhgfdsapiuytrewq0987654321<,:;-=%$#+O. UUU",
"UUUILJGFSAZVNmnbvcxzlkjhgfdsapiuytrewq0987654321<,:;-=%$#+O. UUU",
"UUUILJGFSAZVNmnbvcxzlkjhgfdsapiuytrewq0987654321<,:;-=%$#+O. UUU",
"UUUILJGFSAZVNmnbvcxzlkjhgfdsapiuytrewq0987654321<,:;-=%$#+O. UUU",
"UUUILJGFSAZVNmnbvcxzlkjhgfdsapiuytrewq0987654321<,:;-=%$#+O. UUU",
"UUUILJGFSAZVNmnbvcxzlkjhgfdsapiuytrewq0987654321<,:;-=%$#+O. UUU",
"UUUILJGFSAZVNmnbvcxzlkjhgfdsapiuytrewq0987654321<,:;-=%$#+O. UUU",
"UUUILJGFSAZVNmnbvcxzlkjhgfdsapiuytrewq0987654321<,:;-=%$#+O. UUU",
"UUUILJGFSAZVNmnbvcxzlkjhgfdsapiuytrewq0987654321<,:;-=%$#+O. UUU",
"UUUILJGFSAZVNmnbvcxzlkjhgfdsapiuytrewq0987654321<,:;-=%$#+O. UUU",
"UUUILJGFSAZVNmnbvcxzlkjhgfdsapiuytrewq0987654321<,:;-=%$#+O. UUU",
"UUUILJGFSAZVNmnbvcxzlkjhgfdsapiuytrewq0987654321<,:;-=%$#+O. UUU",
"UUUILJGFSAZVNmnbvcxzlkjhgfdsapiuytrewq0987654321<,:;-=%$#+O. UUU",
"UUUILJGFSAZVNmnbvcxzlkjhgfdsapiuytrewq0987654321<,:;-=%$#+O. UUU",
"UUUILJGFSAZVNmnbvcxzlkjhgfdsapiuytrewq0987654321<,:;-=%$#+O. UUU",
"UUUILJGFSAZVNmnbvcxzlkjhgfdsapiuytrewq0987654321<,:;-=%$#+O. UUU",
"UUUILJGFSAZVNmnbvcxzlkjhgfdsapiuytrewq0987654321<,:;-=%$#+O. UUU",
"UUUILJGFSAZVNmnbvcxzlkjhgfdsapiuytrewq0987654321<,:;-=%$#+O. UUU",
"UUUILJGFSAZVNmnbvcxzlkjhgfdsapiuytrewq0987654321<,:;-=%$#+O. UUU",
"UUUILJGFSAZVNmnbvcxzlkjhgfdsapiuytrewq0987654321<,:;-=%$#+O. UUU",
"UUUILJGFSAZVNmnbvcxzlkjhgfdsapiuytrewq0987654321<,:;-=%$#+O. UUU",
"UUUIPJGFSAZVNmnbvcxzlkjhgfdsapiuytrewq0987654321<,:;-=%$#+O. UUU",
"UUUIPJGFSAZVNmnbvcxzlkjhgfdsapiuytrewq0987654321<,:;-=%$#+O. UUU",
"UUUUPJGFSAZVNmnbvcxzlkjhgfdsapiuytrewq0987654321<,:;-=%$#+O.UUUU",
"UUUULJGFSAZVNmnbvcxzlkjhgfdsapiuytrewq0987654321<,:;-=%$#+o.UUUU",
"UUUUKJGFSAZVNmnbvcxzlkjhgfdsapiuytrewq0987654321<,:;-=%$#+oXUUUU",
"UUUUUJGDSAZVNmnbvcxzlkjhgfdsapiuytrewq0987654321<,:;-=%$#+oUUUUU",
"UUUUUUGDSAZVNmnbvcxzlkjhgfdsapiuytrewq0987654321<,:;-=%$#+UUUUUU",
"UUUUUUUFSAZVNmnbvcxzlkjhgfdsapiuytrewq0987654321<,:;-=&$@UUUUUUU",
"UUUUUUUUSACBNmnbvcxzlkjhgfdsapiuytrewq0987654321<,:;-=%$UUUUUUUU",
"UUUUUUUUUACVNmnbvcxzlkjhgfdsapiuytrewq0987654321<,:;-=%UUUUUUUUU",
"UUUUUUUUUUUUNMnbvcxzlkjhgfdsapiuytrewq0987654321<,:;UUUUUUUUUUUU",
"UUUUUUUUUUUUUUUUUUUUUUUUUUUUUUUUUUUUUUUUUUUUUUUUUUUUUUUUUUUUUUUU",
"UUUUUUUUUUUUUUUUUUUUUUUUUUUUUUUUUUUUUUUUUUUUUUUUUUUUUUUUUUUUUUUU",
"UUUUUUUUUUUUUUUUUUUUUUUUUUUUUUUUUUUUUUUUUUUUUUUUUUUUUUUUUUUUUUUU"
};
