/* XPM */
static char *result[] = {
/* columns rows colors chars-per-pixel */
"60 60 220 2 ",
"   c #000000",
".  c #0C0404",
"X  c #050A05",
"o  c #0B0B05",
"O  c #0F0208",
"+  c #0B0B09",
"@  c #120A0B",
"#  c #1D0C0D",
"$  c #130705",
"%  c #0C140A",
"&  c #16170C",
"*  c #1A1A11",
"=  c #1F0E11",
"-  c #220D0E",
";  c #200E07",
":  c #261308",
">  c #38180C",
",  c #240E10",
"<  c #261617",
"1  c #2D1315",
"2  c #291718",
"3  c #2D191A",
"4  c #251916",
"5  c #391719",
"6  c #3C191C",
"7  c #33181B",
"8  c #11250C",
"9  c #14290D",
"0  c #192515",
"q  c #1E3814",
"w  c #322C0D",
"e  c #252616",
"r  c #25341E",
"t  c #39351E",
"y  c #332E1A",
"u  c #3E2124",
"i  c #2D3822",
"p  c #421B1E",
"a  c #451C0E",
"s  c #4D2010",
"d  c #562613",
"f  c #75331B",
"g  c #6C3019",
"h  c #481E22",
"j  c #4E2A2D",
"k  c #4A2326",
"l  c #502125",
"z  c #5C272B",
"x  c #512B2E",
"c  c #5A262B",
"v  c #562E31",
"b  c #582F32",
"n  c #5B3134",
"m  c #573032",
"M  c #622A2E",
"N  c #662C30",
"B  c #692D31",
"V  c #6D393C",
"C  c #29491B",
"Z  c #34482B",
"A  c #3F5935",
"S  c #3E5432",
"D  c #355A23",
"F  c #366423",
"G  c #554B15",
"H  c #665917",
"J  c #685B18",
"K  c #63581A",
"L  c #6C621B",
"P  c #73651F",
"I  c #4D4729",
"U  c #405A35",
"Y  c #435D38",
"T  c #57512E",
"R  c #635B33",
"E  c #47623B",
"W  c #407529",
"Q  c #756B3C",
"!  c #716631",
"~  c #773C40",
"^  c #7B4447",
"/  c #587B48",
"(  c #547545",
")  c #506D42",
"_  c #8A3B1E",
"`  c #893B2F",
"'  c #9C4323",
"]  c #B44E29",
"[  c #8A7A27",
"{  c #CC572D",
"}  c #DA5E31",
"|  c #E86434",
" . c #FE6D39",
".. c #F56937",
"X. c #FE743D",
"o. c #E05F32",
"O. c #893D43",
"+. c #873B41",
"@. c #923F45",
"#. c #86494D",
"$. c #94454A",
"%. c #965156",
"&. c #9A5459",
"*. c #984E53",
"=. c #A2565C",
"-. c #B8555B",
";. c #AE4F56",
":. c #867D46",
">. c #B05D62",
",. c #B56569",
"<. c #BA666B",
"1. c #BC676C",
"2. c #C55E66",
"3. c #C85F67",
"4. c #C2676E",
"5. c #D5666E",
"6. c #C56B72",
"7. c #CA6D74",
"8. c #DA6C74",
"9. c #D6747B",
"0. c #DA767E",
"q. c #DB777E",
"w. c #CD7076",
"e. c #E26D76",
"r. c #E56F78",
"t. c #EB6A74",
"y. c #EB727C",
"u. c #E6717A",
"i. c #EF6A75",
"p. c #C5565F",
"a. c #58A439",
"s. c #4A8930",
"d. c #5E834D",
"f. c #638A52",
"g. c #6C975A",
"h. c #769156",
"j. c #66B845",
"k. c #75A65F",
"l. c #77AA60",
"z. c #7AAC64",
"x. c #76A462",
"c. c #7BB066",
"v. c #79D454",
"b. c #78D653",
"n. c #71CB4D",
"m. c #98872A",
"M. c #AD992E",
"N. c #CDB739",
"B. c #E0C63E",
"V. c #94884D",
"C. c #9A8E51",
"Z. c #A59856",
"A. c #ABA25B",
"S. c #B5A657",
"D. c #82B66B",
"F. c #87BE71",
"G. c #BAAC61",
"H. c #B6B867",
"J. c #C9B968",
"K. c #8AC273",
"L. c #8ECB76",
"P. c #92CE7A",
"I. c #94D37D",
"U. c #92D476",
"Y. c #8BD56D",
"T. c #8CE369",
"R. c #94E375",
"E. c #84E05F",
"W. c #F3D744",
"Q. c #FDE849",
"!. c #FFF44C",
"~. c #FFF95D",
"^. c #FFEC59",
"/. c #D4C36D",
"(. c #DCCC73",
"). c #D4C670",
"_. c #EAD97B",
"`. c #F4DE7D",
"'. c #E2CF75",
"]. c #FFF46B",
"[. c #FFF56B",
"{. c #F4E37F",
"}. c #FFFF72",
"|. c #FEF177",
" X c #FFEF6A",
".X c #DE7A81",
"XX c #E57D85",
"oX c #E87E86",
"OX c #EE7B84",
"+X c #F67C85",
"@X c #FB7C86",
"#X c #F77C85",
"$X c #ED8189",
"%X c #E98087",
"&X c #F3848C",
"*X c #FA838C",
"=X c #FA8790",
"-X c #FD8A93",
";X c #FA8B94",
":X c #FF9099",
">X c #9CDC82",
",X c #9CE181",
"<X c #A2E486",
"1X c #A8ED8C",
"2X c #A5E98A",
"3X c #ACF28F",
"4X c #ACF390",
"5X c #EDDC80",
"6X c #F6E481",
"7X c #FBE682",
"8X c #FEEB84",
"9X c #FAEB88",
"0X c #FFF48A",
"qX c #FFFA8D",
"wX c #FEF286",
"eX c #FFFF93",
"rX c #FFF790",
"tX c #EFE083",
"yX c #D6F58E",
"uX c None",
/* pixels */
"            uXuXuX                                                                                                      ",
"  = n m v V .X&X7.b b b b b b b b m b #   j n v b v v v v n m v v v v b v n 6   3 n v n b b b b b b b b b b b v b c +   ",
"  = n m v V 0.&X7.b b b b b b b b v b #   j n n b m v v v n n v v v m m v n h   7 n v b b b b b v b b m m v b b v c o   ",
"  v :X&X=X=XoXXX$X=X=X=X=X=X=X=X=X=X*Xp   XX=X&X&X=X-X:X-X$X$X:X:X;X=X&X&X-X;.  #.:X&X=X=X=X=X=X=X=X=X=X=X=X=X=X=X+X,   ",
"  j &XXXXXXXoXoXoXXXXXXXXXXXXXXXXXXXy.p   7.$X$X=X$X6.%.k   @ v &.0.$X&XoX+X*.  ^ =XXXXXXXXXXXXXXXXXXXXXXXXXXXXX%Xe.=   ",
"  j &XXXXXoXoXoXoXXXoXoXoXoXoXoXXXXX+Xp   XX$X<.^ 3       0 %     + k #.7.=X;.  ^ &XXXXXXXXXoXXXoXoXoXoXXXoXoXoX%Xe.#   ",
"  j =XXXoXXXoXoXXXoXXXXXoXoXXXXXXXXXOXp   XX$X<.^ 3       & &       u #.6.=X;.  ^ =XXXXXoXXXoXXXXXXXoXoXoXXXoXXX%Xu.#   ",
"  v -XoX&X&X&X&X&X&X&X+X&X&X&X&X&X=X@Xp   m #       r ) c.>X>Xx.E 0       7 k   ^ :X&X&X&X&X+X&X&X&X+X&X&X&X&X&X&Xi.-   ",
"  k 5.2.4.3.3.3.3.3.2.2.3.3.2.2.<.$.h       X Z f.F.<X4X2XK.L.1X1X>XD./ i X     @ b *.2.2.2.3.3.2.2.2.3.3.3.3.2.3.2.#   ",
"                                      0 U g.P.1X3X>Xc./ r   X Z f.F.<X4X2XK.f.Z %                                       ",
"                                      * U g.P.1X3X>Xc./ r   X i d.F.<X4X2XF.f.S %                                       ",
"  # v j j v j j v 7   7 v v u   * ( z.>X3X3XP.k.E *       i e       q ) z.>X3X1XI.k.F X   j x v =   u v j x j v j l o   ",
"  v :X&X*X=X&X&X=X$.  =.:X-X6.  E 3X,XK.f.Z %     X I C.(.8X8XJ.:.t       % U g.P.,Xb.9 O $X;X=XN   7.-X=X=X=X&X=X+X-   ",
"  v :X&X=X=X=X=X=X$.  =.:X-X6.  E 4X,XK.f.Z %     X j C.(.8X8X/.:.t .     & U g.P.>Xb.9 O oX=X=XM   7.-X&X=X=X*X*X+X-   ",
"  j &XXXXXXXXXXX*X+.  %.&X$X,.  A 2Xg.      * R S._.0XqX0X8X9X0XqX0X'.C.T o X   & D.n.8 O .X%X+Xc   1.&XXXXXXXXXoXe.#   ",
"  j *XXXXXoXoXXX*X+.  %.&X&X<.  A 3X/   R J.{.qXqXwX7X7X8X_.6X8X{.8X0XqX0X{.S.w   l.v.8 O .X%X+Xz   1.&XXXXXoXoX$Xu.#   ",
"  x =XoX$X$X$X$X*XO.  &.;X&X<.  A 3X/   A.eX6X7X7X7X8X8X{.* T wX8X8X7X7X{.8X}.L   l.v.8 O XX$X@Xz   1.=XoX$X$X$X$Xr.#   ",
"  x =XoX$X$X$XoX*XO.  &.;X&X<.  A 3X/   A.eX7X7X7X7X8X8X6X4 T qX7X8X7X{.8X8X}.L   l.v.8 O XX$X+Xz   4.=X$X$X$XoX&Xr.-   ",
"  k y.e.e.e.e.8.i.+.  $.y.u.>.  U 1Xd.  Z.0X{.8X8XwX{.qXA.  o (.8X7XwX8X8X7X XK   l.v.8 . 5.e.t.z   -.y.8.e.e.e.e.5.#   ",
"    . . . . . . . .   . . . .   U <XF.h.`.8X8X8X6X_.wX0XT     V.qX0X'.7X8X7X].J   l.v.8   $ . .     . . . . . . . .     ",
"  . 2 2 < < < < < 2 3 2 < 2 4   Y <XP.yX9X9X8XwXI   ).6X% $   t eXC.  :.qX6X].J   l.v.8   < 2 < 3 3 2 2 < < < 2 1 ,     ",
"  @ 2 < < < < < < 2 3 2 < 2 =   Y <X>XyX9X7X8X0XI X /.6Xo $   t eXC.  :.qX6X].J   l.v.8   < < < 2 3 2 < < < < < 2 < .   ",
"  v -X$X$X&X&XoX&X$XoX&X$X=X1.  Y <XL.H.8X{.qXA.    4 Q   _ d X Q o   @ (.9X].H   l.v.8 O XX&X$X&X$X$X$X$X&X&XoX&Xy.#   ",
"  j *XXXoXoXoXoXoXoXoXoXXX&X<.  U 1Xf.  G.0X8Xt   f       } '     # g   Q rX XJ   l.v.8 O .X%XoXoXoXoXoXoXoXoXXX$Xr.#   ",
"  j &X%XoXXXoXoXoXoXoX$XoX&X<.  U 3Xf.  G.0X8Xt   f       } '     # g   Q qX XJ   l.v.8 O .X$XoXoXoXoXoXoXoXoX%X$Xu.#   ",
"  j *XXXoX$XoXoXoXoXoXoXXX&X<.  A 3X/   C.eXJ.  s X.'   >  .} . . {  .$ % _.}.J   l.v.8 O XXoXoXoXoXoXoXoXoXoXoXoXr.#   ",
"  v =XXX$X$X$X$XoX$X$XoXoX&X<.  A 3X/   Z.eX!   ] X. .] { ....] { .. .g   A.}.K   l.v.8 O .X$XoXoX$X$X$XoXoX$X%X$Xe.#   ",
"  k #Xy.y.y.y.y.y.y.y.y.y.+X>.  A 3X/   Z.eXy   | ....X. .: d X.X... .{   R }.K   l.v.8 O 8.y.y.y.y.y.y.OXy.r.OXy.t.-   ",
"  l #Xr.y.y.y.y.y.y.y.y.y.#X>.  A 3X/   Z.qXy . |  ...X. .; d X.X... .]   R }.H   l.v.8 . r.y.y.y.y.y.y.y.y.y.y.y.t.#   ",
"  . , # # , - - - , , - - - -   A 3X/   Z.7XX :  ...} ' '   $ ] _ .. .|   t }.K   l.v.8   - , - - < - , - - - , - ,     ",
"    @ @ @ @ @ @ @ .   o @ @ @   A 3X/   A.`.  s  . .d   $     .   _  .| $ e [.J   l.v.9   @ @ @     O @ @ @ @ O @ @     ",
"  x &X.XXXXXXXXX&X+.  *.&XoX,.  A 3X/   A.`.  a X.{   o   o o     , ..... e [.J   l.v.8 O 0.XX+Xz   <.oXXXXXXXXXXXe.#   ",
"  j &XXXXXXXXXXX+X+.  *.&X$X,.  A 3X/   A.{.  a X.{ . . X % o .   : ..... e [.J   l.v.8 O 0.XX+Xz   <.&XXXXXXXXXXXe.#   ",
"  x =XXX$X$XoXoX=XO.  &.=X&X<.  A 4X/   Z.0X& $  ._   m.P M.[ m.K   { }   I }.K   l.v.8 O .X$X@Xz   4.&XoXoX$XoX$Xy.#   ",
"  j =XXXoXoXXXXX*XO.  %.&X$X,.  A 3X/   Z.eXR   ] f   N.!.Q.Q.!.m.  ] f   C.}.H   l.v.8 O .XoX+Xz   4.&XXXoXoXXXoXr.#   ",
"  j &XXXoXXXXXXX&X+.  &.&X&X,.  A 3X/   Z.qXJ.  : >   N.Q.W.W.!.m.  s . 0 tX[.H   l.v.8 O .X%X+Xz   1.&XXXoXoX$X$Xr.#   ",
"  j =XoX$XoXXXXX*X+.  &.&X&X<.  A 3X/   Z.eXJ.  : a   N.Q.W.B.!.m.  d . 4 {.[.H   l.v.8 O .XoX+Xz   1.&XXXXXoXXX$Xr.#   ",
"  x @Xy.+XOX+XOX@X@.  *.*X*X<.  A 3X/   Z.0X0XV.  X   K Q.!.!.W.w       G.0X].L   l.v.8 O XX+X@XM   4.@Xy.+X+X+X+Xt.,   ",
"  @ 6 5 5 5 5 5 p -   - 6 6 1   A 3X/   Z.eX{.0XV.      w [ L :     & G.qX6X~.K   k.v.8   5 5 5 @   1 6 5 5 5 5 5 5     ",
"  @ 6 5 5 5 5 5 6 -   - 6 p 1   S 3X/   Z.eX{.0XV.      w P P &     & G.0X6X~.K   k.v.8   5 5 6 #   1 6 5 5 5 5 5 5 o   ",
"                    o           A 1Xd.  & C.0X0X0X/.R *         e Q _.0X].Q.P     c.n.9         . .                     ",
"  j XX9.0.9.0.0.0.0.9.9.9.XX>.  E 3XI.) X   t /.0X0X0X`./.G.J.).6XqXwX^.M.:   & g.Y.b.9 O w.q.0.9.9.0.9.9.0.9.9.0.5.#   ",
"  x =X$X$X&X$X$XoXoX&X+X$X=X1.  X / >X1XF.Z     Q {.0X8X0X0XwX0X8X XB.G   X E L.T.n.D   = XX$X$X$X$X$X$X$X$X$X&X$Xy.-   ",
"  j =XoX&XoX$X$X&X&XoX&X$X=X1.  + / >X1XD.Z     Q `.0X7X0X0XwX9X{. XB.G     E Y.T.j.C   # XX&X$X$X*X$X$X$X&X$X$X&Xy.#   ",
"  j &XXXXXoXoXoXoXXXXXXXXXXX$X#.+   r x.2X<Xg.&   * S.qXwX6X9X|.Q.[ o   r c.R.b.s.%   # >.%X%XXXXXXXoXoXoXoXoXoX$Xe.#   ",
"  j &XXX%XXXXX%XXX%XXX%X$X%XXX=X9.j     A L.2XP.E     I '.wX^.N.w   % d.U.E.a.r   X V XX&X%X%X%X%XXXXX%XXX%XXXoX%Xr.#   ",
"  x =X#X*X+X#X#X#X#X#X#X#X#X+XoX*X*X-.1   & f.<X1Xc.r   + [ L     S K.T.j.F X   k 5.=X*X+X#XoX#X*X+X#X#X#X#X#X#X@Xi.,   ",
"  x =X#X#X#X#X+X*X#X*X#X#X#X#X+X@X*X-.3   & f.<X2Xc.r   @ [ P     U K.T.n.F X   h 6.=X#X+X#X#X#X#X#X#X*X+X#X#X#X#Xy.,   ",
"  # l l l l l l l l l l l l l l l h M h       i c.1X>Xd.%     0 x.U.b.s.9     o c c h l l l l l l l l l l l l l l l o   ",
"                                                X ) I.3XK.A ) U.T.j.C     X                                             ",
"                                            X   X ) I.3XK.A ) U.E.j.C                                                   ",
"  k 9.6.6.6.6.6.8.V   #.9.6.6.6.6.6.6.6.6.6.7.%.#   0 g.<X<XR.n.F %   3 >.6.6.6.6.7.6.6.6.6.6.8.l   =.9.6.6.6.6.6.2.#   ",
"  v -X$X&X&X&X$X*X$.  &.-XoX&X&X&X&X&X&X&X&X&X*X.Xn     S j.a.q   o ^ $X&X&X&X&X&X&X$X&X&X&X&X=XM   6.*X&X&X&X$X&XOX#   ",
"  j =XXXoXoXXXXX*X+.  %.*XXXXXoXXXoXXXXXXXXXXXXX$X=X,.3   %     j w.=XoXXXoXXXXXoXoXoXoXXXXXXX+Xz   1.&XXXoXoXoXoXr.#   ",
"  j &XXXoXXXXXXX&XO.  %.=XXXoXoXoXoXoXoXoXoXoXXXoX=X,.2   % X   k w.=XoXXXoXXXoXoXoXoXXXXXXXXX+Xz   <.&XXXoXoXXXoXr.-   ",
"  j &XXXXXXXXXXX&XO.  %.&XXXoXoXXXXXXX%XXXXXXXXXXXXX&X$X~   @ &.&X$XXXXXXXoXXXXXoX$XoXoXoXXXoX*Xc   <.&XXXXXXXXX$Xe.#   ",
"  x =X@X*X@X*X#X@X@.  =.*X#X*X#X@X*X*X@X@X*X*X@X*X@X+X*Xi.  u -X&X+X*X@X*X@X*X*X+Xy.oX@X*X@X+X@XM   6.*X@X*X*X@X@Xy.,   ",
"  , B N N B B B V p   p V N B B N N N N B N B B N B N N M   @ N N B N N B N N N -.t.5.` N N N B 1   c B N N B B N N @   ",
"  , V B N N N N V 6   h B N B B B N N N N B B N B N B N z   # N B N B N N B N N p.t.t.~ M N B B 1   c B N N N N N N .   ",
"                                                                                p uXuX                                  "
};
