/* XPM */
static char *result[] = {
/* columns rows colors chars-per-pixel */
"64 64 243 2 ",
"   c black",
".  c #000101",
"X  c #020101",
"o  c #020201",
"O  c #030201",
"+  c #020202",
"@  c #110A07",
"#  c #130E0B",
"$  c #150E0B",
"%  c #16100D",
"&  c #1C110B",
"*  c #1A1310",
"=  c #1F1712",
"-  c #20140C",
";  c #20140D",
":  c #21140D",
">  c #22150D",
",  c #23150E",
"<  c #21160F",
"1  c #23160E",
"2  c #22160F",
"3  c #201610",
"4  c #211711",
"5  c #221711",
"6  c #231811",
"7  c #221812",
"8  c #241912",
"9  c #251912",
"0  c #211914",
"q  c #221915",
"w  c #231A15",
"e  c #241B16",
"r  c #251B16",
"t  c #251C16",
"y  c #2F1C12",
"u  c #312016",
"i  c #342014",
"p  c #312119",
"a  c #312219",
"s  c #33221A",
"d  c #3E2618",
"f  c #382A22",
"g  c #4A2E1E",
"h  c #402B21",
"j  c #402C21",
"k  c #453329",
"l  c #45332A",
"z  c #72462E",
"x  c #73472E",
"c  c #74472E",
"v  c #74472F",
"b  c #694836",
"n  c #61483B",
"m  c #62483B",
"M  c #62493C",
"N  c #624A3D",
"B  c #774930",
"V  c #7B4B31",
"C  c #7B4C31",
"Z  c #754F3A",
"A  c #74503C",
"S  c #76503C",
"D  c #76513D",
"F  c #7A533E",
"G  c #7F5741",
"H  c #795644",
"J  c #795744",
"K  c #7B5B4A",
"L  c #7B5C4B",
"P  c #885335",
"I  c #955C3C",
"U  c #805741",
"Y  c #8C5C41",
"T  c #8D5C41",
"R  c #8F6148",
"E  c #8E6149",
"W  c #8F624A",
"Q  c #906249",
"!  c #94654B",
"~  c #90654D",
"^  c #8E6A56",
"/  c #8F6A56",
"(  c #8F6A57",
")  c #8F6B57",
"_  c #906B57",
"`  c #926C58",
"'  c #936D58",
"]  c #936D59",
"[  c #946D59",
"{  c #946E59",
"}  c #D18053",
"|  c #D58253",
" . c #D78354",
".. c #D88454",
"X. c #D98454",
"o. c #D88455",
"O. c #DB8555",
"+. c #DB8655",
"@. c #D98656",
"#. c #DD8655",
"$. c #DC8656",
"%. c #DD8656",
"&. c #DD8757",
"*. c #DF8857",
"=. c #DC8758",
"-. c #DD8858",
";. c #DE8858",
":. c #DE8C5F",
">. c #E08A59",
",. c #E48D5B",
"<. c #E58D5B",
"1. c #E78D5A",
"2. c #E9905D",
"3. c #EA905D",
"4. c #EB915E",
"5. c #EC915E",
"6. c #ED925E",
"7. c #ED925F",
"8. c #C48562",
"9. c #C88866",
"0. c #DC9065",
"q. c #DF9165",
"w. c #DF9166",
"e. c #DF9266",
"r. c #DF9267",
"t. c #D7926D",
"y. c #DB946E",
"u. c #DD966F",
"i. c #CB9172",
"p. c #CE997C",
"a. c #CE997D",
"s. c #CE9A7E",
"d. c #CF9A7E",
"f. c #D49472",
"g. c #DE9770",
"h. c #DF9770",
"j. c #DF9871",
"k. c #DF9872",
"l. c #DF9974",
"z. c #E09166",
"x. c #E09266",
"c. c #E09267",
"v. c #E09368",
"b. c #E7976A",
"n. c #EF9C6E",
"m. c #F49661",
"M. c #FD9C65",
"N. c #E19971",
"B. c #E09972",
"V. c #E19972",
"C. c #E19973",
"Z. c #E19A73",
"A. c #E39A72",
"S. c #E29A73",
"D. c #E39A73",
"F. c #E39B73",
"G. c #E49A73",
"H. c #E49B73",
"J. c #E59B73",
"K. c #E29A74",
"L. c #E39B74",
"P. c #E29B75",
"I. c #E29C75",
"U. c #E39C75",
"Y. c #E39C76",
"T. c #E49C74",
"R. c #E49C75",
"E. c #E79D75",
"W. c #E49C76",
"Q. c #E79E76",
"!. c #E99F77",
"~. c #EA9F77",
"^. c #E39D78",
"/. c #E29E7A",
"(. c #E29F7B",
"). c #E4A07B",
"_. c #E5A17C",
"`. c #EBA078",
"'. c #EAA179",
"]. c #EFA278",
"[. c #EFA37A",
"{. c #E8A37E",
"}. c #F2A47A",
"|. c #F2A57B",
" X c #F2A57C",
".X c #F2A67C",
"XX c #F3A67C",
"oX c #F2A77E",
"OX c #D59F81",
"+X c #D9A183",
"@X c #DBA284",
"#X c #DBA385",
"$X c #E3A280",
"%X c #E5A481",
"&X c #E6A582",
"*X c #EDAA86",
"=X c #E5AA8B",
"-X c #E6AA8B",
";X c #E6AB8B",
":X c #E7AB8C",
">X c #E7AC8C",
",X c #E6AC8D",
"<X c #E8AC8C",
"1X c #E8AC8D",
"2X c #E8AD8D",
"3X c #E9AD8D",
"4X c #E8AE8E",
"5X c #E9AE8E",
"6X c #EAAE8E",
"7X c #EBAE8E",
"8X c #EBAF8E",
"9X c #EAAF8F",
"0X c #EBAF8F",
"qX c #ECAF8F",
"wX c #F4AB84",
"eX c #FBAB80",
"rX c #EDB08F",
"tX c #FFB286",
"yX c #F7B18B",
"uX c #EDB090",
"iX c #EEB090",
"pX c #EEB190",
"aX c #EFB191",
"sX c #F0B291",
"dX c #F1B392",
"fX c #F2B392",
"gX c #F1B493",
"hX c #F2B492",
"jX c #F3B493",
"kX c #F3B593",
"lX c #F1B494",
"zX c #F6B795",
"xX c #F7B795",
"cX c #F6B896",
"vX c #F7B896",
"bX c #F7B897",
"nX c #F9B997",
"mX c #FAB997",
"MX c #FABA97",
"NX c #FABA98",
"BX c #FBBA98",
"VX c #FBBC9A",
"CX c None",
/* pixels */
"CX                                                                                        CXCX#                               CX",
"  O 0 w w w w w w w w w w w w w w w w w w w w w w w w w w w w w w w w w w w w w w w e = f OXNX) * r w w w w w w w w w 7 5 3 o   ",
"  0 3X8X6X2X3X6X6X6X6X6X6X6X6X6X6X6X6X6X6X6X6X6X6X6X6X6X6X6X6X6X6X6X6X6X6X6X6X6X6X6X6X3XdXpX<XjXqX6X6X6X6X6X6X6X6X3X5X_.G.K.3   ",
"  w 8X7X3XdXpX3X6X6X6X6X6X6X6X6X6X6X6X6X6X6X6X6X6X6X6X6X6X6X6X6X6X6X6X6X6X6X6X6X6X6X6X6X2X3X6X1X6X6X6X6X6X6X6X6X3XpXgX).A.R.5   ",
"  w 6X3XuXa.@XrX2X3X3X3X3X3X3X3X3X3X3X3X3X3X3X3X3X3X3X3X3X3X3X3X3X3X3X3X3X3X3X3X3X3X3X3X3X6X6X3X3X3X3X3X3X3X3X2XrX@Xs.{.N.L.5   ",
"  w 3XaX+XX l zX>X3X6X6X6X6X6X6X6X6X6X6X6X6X6X6X6X6X6X6X6X6X6X6X6X6X6X6X6X6X6X6X6X6X6X6X6X6X6X6X6X6X6X6X6X6X3X>XzXk + f.E.S.5   ",
"  w 6X0X:Xm / kX<X3X6X6X6X6X6X6X6X6X6X6X6X6X6X6X6X6X6X6X6X6X6X6X6X6X6X6X6X6X6X6X6X6X6X6X6X6X6X6X6X6X6X6X6X6X3X<XkX/ N /.H.L.5   ",
"  q :X;X>XzXhX=X;X;X;X;X;X;X;X;X;X;X;X;X;X;X;X;X;X;X;X;X;X;X;X;X;X;X;X;X;X;X;X;X;X;X;X;X;X;X;X;X;X;X;X;X;X;X;X;X=XfXcX(.h.B.4   ",
"  t NXNXnXzXvXmXnXnXnXnXnXnXnXnXnXnXnXnXnXnXnXnXnXnXnXnXnXnXnXnXnXnXnXnXnXnXnXnXnXnXnXnXnXnXnXnXnXnXnXnXnXnXnXnXmXxXbXwX}.XX8   ",
"  % [ [ ' ' ] ' [ ` ( ` [ ] ] ] ] ] ] ] ] ] [ ] _ _ ] ] ] ] ] ] ] ] ] ] ] ] _ _ ] [ ] ] ] ] ] ] ] ] ] [ ` ( ` [ ' ' { ~ R Q $   ",
"                                                                                                                                ",
"  @ v c x x x z C g   h G A D D D D D D D S F b . & B x x x x x x x x x x B & . b F S D D D D D D D A G j   g C z x x x c c @   ",
"  1 7.7.5.6.6.2.M.I   U tX[.XXXXXXXXXXXXXX XeXt.  i m.4.6.6.6.6.6.6.6.6.4.m.i   t.eX XXXXXXXXXXXXXXX[.tXU   I M.2.6.6.5.6.6.1   ",
"  - X.X.......| 1.P   Z ].y.g.g.g.g.g.g.g.u.J.8.  y *. ................. .*.y   8.J.u.g.g.g.g.g.g.g.y.].Z   P 1.| ....o.@.@.;   ",
"  2 c.c.r.c.c.0.n.T   H yX$X&X&X&X&X&X&X&X%X*Xi.  u b.w.c.c.c.c.c.c.c.c.w.b.u   i.*X%X&X&X&X&X&X&X&X$XyXJ   Y n.0.x.v.:.&.-.:   ",
"  8 Y.Y.I.Y.Y.l.oXW   L VX,X9X9X9X9X9X9X9X4XlXd.  a '.P.U.Y.Y.Y.Y.Y.Y.U.P.'.a   d.lX4X9X9X9X9X9X9X9X,XVXL   W oXl.U.^.r.#.-.:   ",
"  9 T.D.S.S.S.j.|.E   K MX-X3X3X3X3X3X3X3X<XsXp.  p ~.V.S.S.S.S.S.S.S.S.V.~.p   p.sX<X3X3X3X3X3X3X3X-XMXK   E |.j.S.U.q.%.-.:   ",
"CX! `.C.S.L.L.k.|.E   K BX;X6X6X6X6X6X6X6X1XdXa.  p ~.Z.S.L.L.L.L.L.L.S.Z.~.p   a.dX1X6X6X6X6X6X6X6X;XBXK   E |.k.S.Y.w.%.-.:   ",
"CX.XC.L.L.L.L.k.|.E   K BX;X6X6X6X6X6X6X6X1XdXa.  p ~.Z.S.L.L.L.L.L.L.S.Z.~.p   a.dX1X6X6X6X6X6X6X6X;XBXK   E |.k.S.Y.w.%.-.:   ",
"CX9.Q.S.L.L.L.k.|.E   K BX;X6X6X6X6X6X6X6X1XdXa.  p ~.Z.S.L.L.L.L.L.L.S.Z.~.p   a.dX1X6X6X6X6X6X6X6X;XBXK   E |.k.S.Y.w.%.-.:   ",
"  s !.S.S.L.L.k.|.E   K BX;X6X6X6X6X6X6X6X1XdXa.  p ~.Z.S.L.L.L.L.L.L.S.Z.~.p   a.dX1X6X6X6X6X6X6X6X;XBXK   E |.k.S.Y.w.%.-.:   ",
"  5 L.L.S.L.L.k.|.E   K BX;X6X6X6X6X6X6X6X1XdXa.  p ~.Z.S.L.L.L.L.L.L.S.Z.~.p   a.dX1X6X6X6X6X6X6X6X;XBXK   E |.k.S.Y.w.%.-.:   ",
"  6 L.L.S.L.L.k.|.E   K BX;X6X6X6X6X6X6X6X1XdXa.  p ~.Z.S.L.L.L.L.L.L.S.Z.~.p   a.dX1X6X6X6X6X6X6X6X;XBXK   E |.k.S.Y.w.%.-.:   ",
"  5 L.L.S.L.L.k.|.E   K BX;X6X6X6X6X6X6X6X1XdXa.  p ~.Z.S.L.L.L.L.L.L.S.Z.~.p   a.dX1X6X6X6X6X6X6X6X;XBXK   E |.k.S.Y.w.%.-.:   ",
"  5 L.L.S.L.L.k.|.E   K BX;X6X6X6X6X6X6X6X1XdXa.  p ~.Z.S.L.L.L.L.L.L.S.Z.~.p   a.dX1X6X6X6X6X6X6X6X;XBXK   E |.k.S.Y.w.%.-.:   ",
"  5 L.L.S.L.L.k.|.E   K BX;X6X6X6X6X6X6X6X1XdXa.  p ~.Z.S.L.L.L.L.L.L.S.Z.~.p   a.dX1X6X6X6X6X6X6X6X;XBXK   E |.k.S.Y.w.%.-.:   ",
"  5 L.L.S.L.L.k.|.E   K BX;X6X6X6X6X6X6X6X1XdXa.  p ~.Z.S.L.L.L.L.L.L.S.Z.~.p   a.dX1X6X6X6X6X6X6X6X;XBXK   E |.k.S.Y.w.%.-.:   ",
"  5 L.L.S.L.L.k.|.E   K BX;X6X6X6X6X6X6X6X1XdXa.  p ~.Z.S.L.L.L.L.L.L.S.Z.~.p   a.dX1X6X6X6X6X6X6X6X;XBXK   E |.k.S.Y.w.%.-.:   ",
"  5 L.L.S.L.L.k.|.E   K BX;X6X6X6X6X6X6X6X1XdXa.  p ~.Z.S.L.L.L.L.L.L.S.Z.~.p   a.dX1X6X6X6X6X6X6X6X;XBXK   E |.k.S.Y.w.%.-.:   ",
"  5 L.L.S.L.L.k.|.E   K BX;X6X6X6X6X6X6X6X1XdXa.  p ~.Z.S.L.L.L.L.L.L.S.Z.~.p   a.dX1X6X6X6X6X6X6X6X;XBXK   E |.k.S.Y.w.%.-.:   ",
"  5 L.L.S.L.L.k.|.E   K BX;X6X6X6X6X6X6X6X1XdXa.  p ~.Z.S.L.L.L.L.L.L.S.Z.~.p   a.dX1X6X6X6X6X6X6X6X;XBXK   E |.k.S.Y.w.%.-.:   ",
"  5 L.L.S.L.L.k.|.E   K BX;X6X6X6X6X6X6X6X1XdXa.  p ~.Z.S.L.L.L.L.L.L.S.Z.~.p   a.dX1X6X6X6X6X6X6X6X;XBXK   E |.k.S.Y.w.%.-.:   ",
"  5 L.L.S.L.L.k.|.E   K BX;X6X6X6X6X6X6X6X1XdXa.  p ~.Z.S.L.L.L.L.L.L.S.Z.~.p   a.dX1X6X6X6X6X6X6X6X;XBXK   E |.k.S.Y.w.%.-.:   ",
"  5 L.L.S.L.L.k.|.E   K BX;X6X6X6X6X6X6X6X1XdXa.  p ~.Z.S.L.L.L.L.L.L.S.Z.~.p   a.dX1X6X6X6X6X6X6X6X;XBXK   E |.k.S.Y.w.%.-.:   ",
"  5 L.L.S.L.L.k.|.E   K BX;X6X6X6X6X6X6X6X1XdXa.  p ~.Z.S.L.L.L.L.L.L.S.Z.~.p   a.dX1X6X6X6X6X6X6X6X;XBXK   E |.k.S.Y.w.%.-.:   ",
"  5 L.L.S.L.L.k.|.E   K BX;X6X6X6X6X6X6X6X1XdXa.  p ~.Z.S.L.L.L.L.L.L.S.Z.~.p   a.dX1X6X6X6X6X6X6X6X;XBXK   E |.k.S.Y.w.%.-.:   ",
"  5 L.L.S.L.L.k.|.E   K BX;X6X6X6X6X6X6X6X1XdXa.  p ~.Z.S.L.L.L.L.L.L.S.Z.~.p   a.dX1X6X6X6X6X6X6X6X;XBXK   E |.k.S.Y.w.%.-.:   ",
"  5 L.L.S.L.L.k.|.E   K BX;X6X6X6X6X6X6X6X1XdXa.  p ~.Z.S.L.L.L.L.L.L.S.Z.~.p   a.dX1X6X6X6X6X6X6X6X;XBXK   E |.k.S.Y.w.$.-.>   ",
"  5 L.L.S.L.L.k.|.E   K BX;X6X6X6X6X6X6X6X1XdXa.  p ~.Z.S.L.L.L.L.L.L.S.Z.~.p   a.dX1X6X6X6X6X6X6X6X;XBXK   E |.k.S.Y.w.%.-.:   ",
"  5 L.L.S.L.L.k.|.E   K BX;X6X6X6X6X6X6X6X1XdXa.  p ~.Z.S.L.L.L.L.L.L.S.Z.~.p   a.dX1X6X6X6X6X6X6X6X;XBXK   E |.k.S.Y.w.O.,.d   ",
"  5 L.L.S.L.L.k.|.E   K BX;X6X6X6X6X6X6X6X1XdXa.  p ~.Z.S.L.L.L.L.L.L.S.Z.~.p   a.dX1X6X6X6X6X6X6X6X;XBXK   E |.k.S.Y.z.+.>.} CX",
"  5 L.L.S.L.L.k.|.E   K BX;X6X6X6X6X6X6X6X1XdXa.  p ~.Z.S.L.L.L.L.L.L.S.Z.~.p   a.dX1X6X6X6X6X6X6X6X;XBXK   E |.k.S.Y.z.$.=.3.CX",
"  5 L.L.S.L.L.k.|.E   K BX;X6X6X6X6X6X6X6X1XdXa.  p ~.Z.S.L.L.L.L.L.L.S.Z.~.p   a.dX1X6X6X6X6X6X6X6X;XBXK   E |.k.S.Y.z.O.<.V   ",
"  5 L.L.S.L.L.k.|.E   K BX;X6X6X6X6X6X6X6X1XdXa.  p ~.Z.S.L.L.L.L.L.L.S.Z.~.p   a.dX1X6X6X6X6X6X6X6X;XBXK   E |.k.S.Y.w.$.;.>   ",
"  5 L.L.S.L.L.k.|.E   K BX;X6X6X6X6X6X6X6X1XdXa.  p ~.Z.S.L.L.L.L.L.L.S.Z.~.p   a.dX1X6X6X6X6X6X6X6X;XBXK   E |.k.S.Y.w.%.-.,   ",
"  5 L.L.S.L.L.k.|.E   K BX;X6X6X6X6X6X6X6X1XdXa.  p ~.Z.S.L.L.L.L.L.L.S.Z.~.p   a.dX1X6X6X6X6X6X6X6X;XBXK   E |.k.S.Y.w.%.-.:   ",
"  5 L.L.S.L.L.k.|.E   K BX;X6X6X6X6X6X6X6X1XdXa.  p ~.Z.S.L.L.L.L.L.L.S.Z.~.p   a.dX1X6X6X6X6X6X6X6X;XBXK   E |.k.S.Y.w.%.-.:   ",
"  5 F.F.S.S.S.j.|.E   K MX-X3X3X3X3X3X3X3X<XsXp.  p ~.V.S.S.S.S.S.S.S.S.V.~.p   p.sX<X3X3X3X3X3X3X3X-XMXK   E |.j.S.U.q.%.-.:   ",
"  5 W.Y.I.Y.Y.l.oXW   L VX,X9X9X9X9X9X9X9X4XlXd.  a '.P.U.Y.Y.Y.Y.Y.Y.U.P.'.a   d.lX4X9X9X9X9X9X9X9X,XVXL   W oXl.U.^.r.#.-.:   ",
"  < c.c.e.c.c.0.n.T   H yX$X&X&X&X&X&X&X&X%X*Xi.  u b.w.c.c.c.c.c.c.c.c.w.b.u   i.*X%X&X&X&X&X&X&X&X$XyXJ   Y n.0.x.v.:.&.-.:   ",
"  - X.X.......| 1.P   Z ].y.g.g.g.g.g.g.g.u.J.8.  y *. ................. .*.y   8.J.u.g.g.g.g.g.g.g.y.].Z   P 1.| ....o.@.@.;   ",
"  1 7.7.5.6.6.2.M.I   U tX[.XXXXXXXXXXXXXX XeXt.  i m.4.6.6.6.6.6.6.6.6.4.m.i   t.eX XXXXXXXXXXXXXXX[.tXU   I M.2.6.6.5.6.6.1   ",
"  @ v c x x x z C g   h G A D D D D D D D S F b . & B x x x x x x x x x x B & . b F S D D D D D D D A G j   g C z x x x c c @   ",
"                                                                                                                                ",
"  % [ [ ' ' ] ' [ ` ( ` [ ] ] ] ] ] ] ] ] ] [ ] _ _ ] ] ] ] ] ] ] ] ] ] ] ] _ _ ] [ ] ] ] ] ] ] ] ] ] [ ` ( ` [ ' ' { ~ R Q $   ",
"  t NXNXnXzXvXmXnXnXnXnXnXnXnXnXnXnXnXnXnXnXnXnXnXnXnXnXnXnXnXnXnXnXnXnXnXnXnXnXnXnXnXnXnXnXnXnXnXnXnXnXnXnXnXnXmXxXbXwX}.XX8   ",
"  q :X;X>XzXhX=X;X;X;X;X;X;X;X;X;X;X;X;X;X;X;X;X;X;X;X;X;X;X;X;X;X;X;X;X;X;X;X;X;X;X;X;X;X;X;X;X;X;X;X;X;X;X;X;X=XfXcX(.h.B.4   ",
"  w 6X0X:Xn / kX<X3X6X6X6X6X6X6X6X6X6X6X6X6X6X6X6X6X6X6X6X6X6X6X6X6X6X6X6X6X6X6X6X6X6X6X6X6X6X6X6X6X6X6X6X6X3X<XkX^ M /.H.L.5   ",
"  w 3XaX+XX l zX>X3X6X6X6X6X6X6X6X6X6X6X6X6X6X6X6X6X6X6X6X6X6X6X6X6X6X6X6X6X6X6X6X6X6X6X6X6X6X6X6X6X6X6X6X6X3X>XzXk + f.E.S.5   ",
"  w 6X3XuXa.#XrX2X3X3X3X3X3X3X3X3X3X3X3X3X3X3X3X3X3X3X3X3X3X3X3X3X3X3X3X3X3X3X3X3X3X3X3X3X3X3X3X3X3X3X3X3X3X3X2XrX@Xs.{.N.L.5   ",
"  w 8X7X3XdXpX3X6X6X6X6X6X6X6X6X6X6X6X6X6X6X6X6X6X6X6X6X6X6X6X6X6X6X6X6X6X6X6X6X6X6X6X6X6X6X6X6X6X6X6X6X6X6X6X6X3XiXgX).A.R.5   ",
"  0 3X8X6X2X3X6X6X6X6X6X6X6X6X6X6X6X6X6X6X6X6X6X6X6X6X6X6X6X6X6X6X6X6X6X6X6X6X6X6X6X6X6X6X6X6X6X6X6X6X6X6X6X6X6X6X3X5X_.G.K.3   ",
"  O 0 w w w w w w w w w w w w w w w w w w w w w w w w w w w w w w w w w w w w w w w w w w w w w w w w w w w w w w w w 7 5 3 o   ",
"CX                                                                                                                            CX"
};
